<?xml version="1.0" encoding="utf-8" standalone="no"?>
<!DOCTYPE svg PUBLIC "-//W3C//DTD SVG 1.1//EN"
  "http://www.w3.org/Graphics/SVG/1.1/DTD/svg11.dtd">
<svg xmlns:xlink="http://www.w3.org/1999/xlink" width="864pt" height="360pt" viewBox="0 0 864 360" xmlns="http://www.w3.org/2000/svg" version="1.1">
 <metadata>
  <rdf:RDF xmlns:dc="http://purl.org/dc/elements/1.1/" xmlns:cc="http://creativecommons.org/ns#" xmlns:rdf="http://www.w3.org/1999/02/22-rdf-syntax-ns#">
   <cc:Work>
    <dc:type rdf:resource="http://purl.org/dc/dcmitype/StillImage"/>
    <dc:date>2023-04-19T20:20:51.651374</dc:date>
    <dc:format>image/svg+xml</dc:format>
    <dc:creator>
     <cc:Agent>
      <dc:title>Matplotlib v3.7.1, https://matplotlib.org/</dc:title>
     </cc:Agent>
    </dc:creator>
   </cc:Work>
  </rdf:RDF>
 </metadata>
 <defs>
  <style type="text/css">*{stroke-linejoin: round; stroke-linecap: butt}</style>
 </defs>
 <g id="figure_1">
  <g id="patch_1">
   <path d="M 0 360 
L 864 360 
L 864 0 
L 0 0 
L 0 360 
z
" style="fill: none; opacity: 0"/>
  </g>
  <g id="axes_1">
   <g id="patch_2">
    <path d="M 108 320.4 
L 777.6 320.4 
L 777.6 43.2 
L 108 43.2 
L 108 320.4 
z
" style="fill: none; opacity: 0"/>
   </g>
   <g id="matplotlib.axis_1">
    <g id="xtick_1">
     <g id="line2d_1">
      <path d="M 116.353198 320.4 
L 116.353198 43.2 
" clip-path="url(#p137f283914)" style="fill: none; stroke-dasharray: 5.12,1.28,0.8,1.28; stroke-dashoffset: 0; stroke: #b0b0b0; stroke-width: 0.8"/>
     </g>
     <g id="line2d_2">
      <defs>
       <path id="me3754064ea" d="M 0 0 
L 0 3.5 
" style="stroke: #a9a9a9; stroke-width: 0.8"/>
      </defs>
      <g>
       <use xlink:href="#me3754064ea" x="116.353198" y="320.4" style="fill: #a9a9a9; stroke: #a9a9a9; stroke-width: 0.8"/>
      </g>
     </g>
     <g id="text_1">
      <!-- 2021-07 -->
      <g style="fill: #a9a9a9" transform="translate(95.461791 334.998438) scale(0.1 -0.1)">
       <defs>
        <path id="DejaVuSans-32" d="M 1228 531 
L 3431 531 
L 3431 0 
L 469 0 
L 469 531 
Q 828 903 1448 1529 
Q 2069 2156 2228 2338 
Q 2531 2678 2651 2914 
Q 2772 3150 2772 3378 
Q 2772 3750 2511 3984 
Q 2250 4219 1831 4219 
Q 1534 4219 1204 4116 
Q 875 4013 500 3803 
L 500 4441 
Q 881 4594 1212 4672 
Q 1544 4750 1819 4750 
Q 2544 4750 2975 4387 
Q 3406 4025 3406 3419 
Q 3406 3131 3298 2873 
Q 3191 2616 2906 2266 
Q 2828 2175 2409 1742 
Q 1991 1309 1228 531 
z
" transform="scale(0.015625)"/>
        <path id="DejaVuSans-30" d="M 2034 4250 
Q 1547 4250 1301 3770 
Q 1056 3291 1056 2328 
Q 1056 1369 1301 889 
Q 1547 409 2034 409 
Q 2525 409 2770 889 
Q 3016 1369 3016 2328 
Q 3016 3291 2770 3770 
Q 2525 4250 2034 4250 
z
M 2034 4750 
Q 2819 4750 3233 4129 
Q 3647 3509 3647 2328 
Q 3647 1150 3233 529 
Q 2819 -91 2034 -91 
Q 1250 -91 836 529 
Q 422 1150 422 2328 
Q 422 3509 836 4129 
Q 1250 4750 2034 4750 
z
" transform="scale(0.015625)"/>
        <path id="DejaVuSans-31" d="M 794 531 
L 1825 531 
L 1825 4091 
L 703 3866 
L 703 4441 
L 1819 4666 
L 2450 4666 
L 2450 531 
L 3481 531 
L 3481 0 
L 794 0 
L 794 531 
z
" transform="scale(0.015625)"/>
        <path id="DejaVuSans-2d" d="M 313 2009 
L 1997 2009 
L 1997 1497 
L 313 1497 
L 313 2009 
z
" transform="scale(0.015625)"/>
        <path id="DejaVuSans-37" d="M 525 4666 
L 3525 4666 
L 3525 4397 
L 1831 0 
L 1172 0 
L 2766 4134 
L 525 4134 
L 525 4666 
z
" transform="scale(0.015625)"/>
       </defs>
       <use xlink:href="#DejaVuSans-32"/>
       <use xlink:href="#DejaVuSans-30" x="63.623047"/>
       <use xlink:href="#DejaVuSans-32" x="127.246094"/>
       <use xlink:href="#DejaVuSans-31" x="190.869141"/>
       <use xlink:href="#DejaVuSans-2d" x="254.492188"/>
       <use xlink:href="#DejaVuSans-30" x="290.576172"/>
       <use xlink:href="#DejaVuSans-37" x="354.199219"/>
      </g>
     </g>
    </g>
    <g id="xtick_2">
     <g id="line2d_3">
      <path d="M 175.881732 320.4 
L 175.881732 43.2 
" clip-path="url(#p137f283914)" style="fill: none; stroke-dasharray: 5.12,1.28,0.8,1.28; stroke-dashoffset: 0; stroke: #b0b0b0; stroke-width: 0.8"/>
     </g>
     <g id="line2d_4">
      <g>
       <use xlink:href="#me3754064ea" x="175.881732" y="320.4" style="fill: #a9a9a9; stroke: #a9a9a9; stroke-width: 0.8"/>
      </g>
     </g>
     <g id="text_2">
      <!-- 2021-09 -->
      <g style="fill: #a9a9a9" transform="translate(154.990326 334.998438) scale(0.1 -0.1)">
       <defs>
        <path id="DejaVuSans-39" d="M 703 97 
L 703 672 
Q 941 559 1184 500 
Q 1428 441 1663 441 
Q 2288 441 2617 861 
Q 2947 1281 2994 2138 
Q 2813 1869 2534 1725 
Q 2256 1581 1919 1581 
Q 1219 1581 811 2004 
Q 403 2428 403 3163 
Q 403 3881 828 4315 
Q 1253 4750 1959 4750 
Q 2769 4750 3195 4129 
Q 3622 3509 3622 2328 
Q 3622 1225 3098 567 
Q 2575 -91 1691 -91 
Q 1453 -91 1209 -44 
Q 966 3 703 97 
z
M 1959 2075 
Q 2384 2075 2632 2365 
Q 2881 2656 2881 3163 
Q 2881 3666 2632 3958 
Q 2384 4250 1959 4250 
Q 1534 4250 1286 3958 
Q 1038 3666 1038 3163 
Q 1038 2656 1286 2365 
Q 1534 2075 1959 2075 
z
" transform="scale(0.015625)"/>
       </defs>
       <use xlink:href="#DejaVuSans-32"/>
       <use xlink:href="#DejaVuSans-30" x="63.623047"/>
       <use xlink:href="#DejaVuSans-32" x="127.246094"/>
       <use xlink:href="#DejaVuSans-31" x="190.869141"/>
       <use xlink:href="#DejaVuSans-2d" x="254.492188"/>
       <use xlink:href="#DejaVuSans-30" x="290.576172"/>
       <use xlink:href="#DejaVuSans-39" x="354.199219"/>
      </g>
     </g>
    </g>
    <g id="xtick_3">
     <g id="line2d_5">
      <path d="M 234.450129 320.4 
L 234.450129 43.2 
" clip-path="url(#p137f283914)" style="fill: none; stroke-dasharray: 5.12,1.28,0.8,1.28; stroke-dashoffset: 0; stroke: #b0b0b0; stroke-width: 0.8"/>
     </g>
     <g id="line2d_6">
      <g>
       <use xlink:href="#me3754064ea" x="234.450129" y="320.4" style="fill: #a9a9a9; stroke: #a9a9a9; stroke-width: 0.8"/>
      </g>
     </g>
     <g id="text_3">
      <!-- 2021-11 -->
      <g style="fill: #a9a9a9" transform="translate(213.558723 334.998438) scale(0.1 -0.1)">
       <use xlink:href="#DejaVuSans-32"/>
       <use xlink:href="#DejaVuSans-30" x="63.623047"/>
       <use xlink:href="#DejaVuSans-32" x="127.246094"/>
       <use xlink:href="#DejaVuSans-31" x="190.869141"/>
       <use xlink:href="#DejaVuSans-2d" x="254.492188"/>
       <use xlink:href="#DejaVuSans-31" x="290.576172"/>
       <use xlink:href="#DejaVuSans-31" x="354.199219"/>
      </g>
     </g>
    </g>
    <g id="xtick_4">
     <g id="line2d_7">
      <path d="M 293.018526 320.4 
L 293.018526 43.2 
" clip-path="url(#p137f283914)" style="fill: none; stroke-dasharray: 5.12,1.28,0.8,1.28; stroke-dashoffset: 0; stroke: #b0b0b0; stroke-width: 0.8"/>
     </g>
     <g id="line2d_8">
      <g>
       <use xlink:href="#me3754064ea" x="293.018526" y="320.4" style="fill: #a9a9a9; stroke: #a9a9a9; stroke-width: 0.8"/>
      </g>
     </g>
     <g id="text_4">
      <!-- 2022-01 -->
      <g style="fill: #a9a9a9" transform="translate(272.12712 334.998438) scale(0.1 -0.1)">
       <use xlink:href="#DejaVuSans-32"/>
       <use xlink:href="#DejaVuSans-30" x="63.623047"/>
       <use xlink:href="#DejaVuSans-32" x="127.246094"/>
       <use xlink:href="#DejaVuSans-32" x="190.869141"/>
       <use xlink:href="#DejaVuSans-2d" x="254.492188"/>
       <use xlink:href="#DejaVuSans-30" x="290.576172"/>
       <use xlink:href="#DejaVuSans-31" x="354.199219"/>
      </g>
     </g>
    </g>
    <g id="xtick_5">
     <g id="line2d_9">
      <path d="M 349.666648 320.4 
L 349.666648 43.2 
" clip-path="url(#p137f283914)" style="fill: none; stroke-dasharray: 5.12,1.28,0.8,1.28; stroke-dashoffset: 0; stroke: #b0b0b0; stroke-width: 0.8"/>
     </g>
     <g id="line2d_10">
      <g>
       <use xlink:href="#me3754064ea" x="349.666648" y="320.4" style="fill: #a9a9a9; stroke: #a9a9a9; stroke-width: 0.8"/>
      </g>
     </g>
     <g id="text_5">
      <!-- 2022-03 -->
      <g style="fill: #a9a9a9" transform="translate(328.775241 334.998438) scale(0.1 -0.1)">
       <defs>
        <path id="DejaVuSans-33" d="M 2597 2516 
Q 3050 2419 3304 2112 
Q 3559 1806 3559 1356 
Q 3559 666 3084 287 
Q 2609 -91 1734 -91 
Q 1441 -91 1130 -33 
Q 819 25 488 141 
L 488 750 
Q 750 597 1062 519 
Q 1375 441 1716 441 
Q 2309 441 2620 675 
Q 2931 909 2931 1356 
Q 2931 1769 2642 2001 
Q 2353 2234 1838 2234 
L 1294 2234 
L 1294 2753 
L 1863 2753 
Q 2328 2753 2575 2939 
Q 2822 3125 2822 3475 
Q 2822 3834 2567 4026 
Q 2313 4219 1838 4219 
Q 1578 4219 1281 4162 
Q 984 4106 628 3988 
L 628 4550 
Q 988 4650 1302 4700 
Q 1616 4750 1894 4750 
Q 2613 4750 3031 4423 
Q 3450 4097 3450 3541 
Q 3450 3153 3228 2886 
Q 3006 2619 2597 2516 
z
" transform="scale(0.015625)"/>
       </defs>
       <use xlink:href="#DejaVuSans-32"/>
       <use xlink:href="#DejaVuSans-30" x="63.623047"/>
       <use xlink:href="#DejaVuSans-32" x="127.246094"/>
       <use xlink:href="#DejaVuSans-32" x="190.869141"/>
       <use xlink:href="#DejaVuSans-2d" x="254.492188"/>
       <use xlink:href="#DejaVuSans-30" x="290.576172"/>
       <use xlink:href="#DejaVuSans-33" x="354.199219"/>
      </g>
     </g>
    </g>
    <g id="xtick_6">
     <g id="line2d_11">
      <path d="M 408.235044 320.4 
L 408.235044 43.2 
" clip-path="url(#p137f283914)" style="fill: none; stroke-dasharray: 5.12,1.28,0.8,1.28; stroke-dashoffset: 0; stroke: #b0b0b0; stroke-width: 0.8"/>
     </g>
     <g id="line2d_12">
      <g>
       <use xlink:href="#me3754064ea" x="408.235044" y="320.4" style="fill: #a9a9a9; stroke: #a9a9a9; stroke-width: 0.8"/>
      </g>
     </g>
     <g id="text_6">
      <!-- 2022-05 -->
      <g style="fill: #a9a9a9" transform="translate(387.343638 334.998438) scale(0.1 -0.1)">
       <defs>
        <path id="DejaVuSans-35" d="M 691 4666 
L 3169 4666 
L 3169 4134 
L 1269 4134 
L 1269 2991 
Q 1406 3038 1543 3061 
Q 1681 3084 1819 3084 
Q 2600 3084 3056 2656 
Q 3513 2228 3513 1497 
Q 3513 744 3044 326 
Q 2575 -91 1722 -91 
Q 1428 -91 1123 -41 
Q 819 9 494 109 
L 494 744 
Q 775 591 1075 516 
Q 1375 441 1709 441 
Q 2250 441 2565 725 
Q 2881 1009 2881 1497 
Q 2881 1984 2565 2268 
Q 2250 2553 1709 2553 
Q 1456 2553 1204 2497 
Q 953 2441 691 2322 
L 691 4666 
z
" transform="scale(0.015625)"/>
       </defs>
       <use xlink:href="#DejaVuSans-32"/>
       <use xlink:href="#DejaVuSans-30" x="63.623047"/>
       <use xlink:href="#DejaVuSans-32" x="127.246094"/>
       <use xlink:href="#DejaVuSans-32" x="190.869141"/>
       <use xlink:href="#DejaVuSans-2d" x="254.492188"/>
       <use xlink:href="#DejaVuSans-30" x="290.576172"/>
       <use xlink:href="#DejaVuSans-35" x="354.199219"/>
      </g>
     </g>
    </g>
    <g id="xtick_7">
     <g id="line2d_13">
      <path d="M 466.803441 320.4 
L 466.803441 43.2 
" clip-path="url(#p137f283914)" style="fill: none; stroke-dasharray: 5.12,1.28,0.8,1.28; stroke-dashoffset: 0; stroke: #b0b0b0; stroke-width: 0.8"/>
     </g>
     <g id="line2d_14">
      <g>
       <use xlink:href="#me3754064ea" x="466.803441" y="320.4" style="fill: #a9a9a9; stroke: #a9a9a9; stroke-width: 0.8"/>
      </g>
     </g>
     <g id="text_7">
      <!-- 2022-07 -->
      <g style="fill: #a9a9a9" transform="translate(445.912035 334.998438) scale(0.1 -0.1)">
       <use xlink:href="#DejaVuSans-32"/>
       <use xlink:href="#DejaVuSans-30" x="63.623047"/>
       <use xlink:href="#DejaVuSans-32" x="127.246094"/>
       <use xlink:href="#DejaVuSans-32" x="190.869141"/>
       <use xlink:href="#DejaVuSans-2d" x="254.492188"/>
       <use xlink:href="#DejaVuSans-30" x="290.576172"/>
       <use xlink:href="#DejaVuSans-37" x="354.199219"/>
      </g>
     </g>
    </g>
    <g id="xtick_8">
     <g id="line2d_15">
      <path d="M 526.331976 320.4 
L 526.331976 43.2 
" clip-path="url(#p137f283914)" style="fill: none; stroke-dasharray: 5.12,1.28,0.8,1.28; stroke-dashoffset: 0; stroke: #b0b0b0; stroke-width: 0.8"/>
     </g>
     <g id="line2d_16">
      <g>
       <use xlink:href="#me3754064ea" x="526.331976" y="320.4" style="fill: #a9a9a9; stroke: #a9a9a9; stroke-width: 0.8"/>
      </g>
     </g>
     <g id="text_8">
      <!-- 2022-09 -->
      <g style="fill: #a9a9a9" transform="translate(505.44057 334.998438) scale(0.1 -0.1)">
       <use xlink:href="#DejaVuSans-32"/>
       <use xlink:href="#DejaVuSans-30" x="63.623047"/>
       <use xlink:href="#DejaVuSans-32" x="127.246094"/>
       <use xlink:href="#DejaVuSans-32" x="190.869141"/>
       <use xlink:href="#DejaVuSans-2d" x="254.492188"/>
       <use xlink:href="#DejaVuSans-30" x="290.576172"/>
       <use xlink:href="#DejaVuSans-39" x="354.199219"/>
      </g>
     </g>
    </g>
    <g id="xtick_9">
     <g id="line2d_17">
      <path d="M 584.900373 320.4 
L 584.900373 43.2 
" clip-path="url(#p137f283914)" style="fill: none; stroke-dasharray: 5.12,1.28,0.8,1.28; stroke-dashoffset: 0; stroke: #b0b0b0; stroke-width: 0.8"/>
     </g>
     <g id="line2d_18">
      <g>
       <use xlink:href="#me3754064ea" x="584.900373" y="320.4" style="fill: #a9a9a9; stroke: #a9a9a9; stroke-width: 0.8"/>
      </g>
     </g>
     <g id="text_9">
      <!-- 2022-11 -->
      <g style="fill: #a9a9a9" transform="translate(564.008967 334.998438) scale(0.1 -0.1)">
       <use xlink:href="#DejaVuSans-32"/>
       <use xlink:href="#DejaVuSans-30" x="63.623047"/>
       <use xlink:href="#DejaVuSans-32" x="127.246094"/>
       <use xlink:href="#DejaVuSans-32" x="190.869141"/>
       <use xlink:href="#DejaVuSans-2d" x="254.492188"/>
       <use xlink:href="#DejaVuSans-31" x="290.576172"/>
       <use xlink:href="#DejaVuSans-31" x="354.199219"/>
      </g>
     </g>
    </g>
    <g id="xtick_10">
     <g id="line2d_19">
      <path d="M 643.46877 320.4 
L 643.46877 43.2 
" clip-path="url(#p137f283914)" style="fill: none; stroke-dasharray: 5.12,1.28,0.8,1.28; stroke-dashoffset: 0; stroke: #b0b0b0; stroke-width: 0.8"/>
     </g>
     <g id="line2d_20">
      <g>
       <use xlink:href="#me3754064ea" x="643.46877" y="320.4" style="fill: #a9a9a9; stroke: #a9a9a9; stroke-width: 0.8"/>
      </g>
     </g>
     <g id="text_10">
      <!-- 2023-01 -->
      <g style="fill: #a9a9a9" transform="translate(622.577363 334.998438) scale(0.1 -0.1)">
       <use xlink:href="#DejaVuSans-32"/>
       <use xlink:href="#DejaVuSans-30" x="63.623047"/>
       <use xlink:href="#DejaVuSans-32" x="127.246094"/>
       <use xlink:href="#DejaVuSans-33" x="190.869141"/>
       <use xlink:href="#DejaVuSans-2d" x="254.492188"/>
       <use xlink:href="#DejaVuSans-30" x="290.576172"/>
       <use xlink:href="#DejaVuSans-31" x="354.199219"/>
      </g>
     </g>
    </g>
    <g id="xtick_11">
     <g id="line2d_21">
      <path d="M 700.116891 320.4 
L 700.116891 43.2 
" clip-path="url(#p137f283914)" style="fill: none; stroke-dasharray: 5.12,1.28,0.8,1.28; stroke-dashoffset: 0; stroke: #b0b0b0; stroke-width: 0.8"/>
     </g>
     <g id="line2d_22">
      <g>
       <use xlink:href="#me3754064ea" x="700.116891" y="320.4" style="fill: #a9a9a9; stroke: #a9a9a9; stroke-width: 0.8"/>
      </g>
     </g>
     <g id="text_11">
      <!-- 2023-03 -->
      <g style="fill: #a9a9a9" transform="translate(679.225485 334.998438) scale(0.1 -0.1)">
       <use xlink:href="#DejaVuSans-32"/>
       <use xlink:href="#DejaVuSans-30" x="63.623047"/>
       <use xlink:href="#DejaVuSans-32" x="127.246094"/>
       <use xlink:href="#DejaVuSans-33" x="190.869141"/>
       <use xlink:href="#DejaVuSans-2d" x="254.492188"/>
       <use xlink:href="#DejaVuSans-30" x="290.576172"/>
       <use xlink:href="#DejaVuSans-33" x="354.199219"/>
      </g>
     </g>
    </g>
    <g id="xtick_12">
     <g id="line2d_23">
      <path d="M 758.685288 320.4 
L 758.685288 43.2 
" clip-path="url(#p137f283914)" style="fill: none; stroke-dasharray: 5.12,1.28,0.8,1.28; stroke-dashoffset: 0; stroke: #b0b0b0; stroke-width: 0.8"/>
     </g>
     <g id="line2d_24">
      <g>
       <use xlink:href="#me3754064ea" x="758.685288" y="320.4" style="fill: #a9a9a9; stroke: #a9a9a9; stroke-width: 0.8"/>
      </g>
     </g>
     <g id="text_12">
      <!-- 2023-05 -->
      <g style="fill: #a9a9a9" transform="translate(737.793882 334.998438) scale(0.1 -0.1)">
       <use xlink:href="#DejaVuSans-32"/>
       <use xlink:href="#DejaVuSans-30" x="63.623047"/>
       <use xlink:href="#DejaVuSans-32" x="127.246094"/>
       <use xlink:href="#DejaVuSans-33" x="190.869141"/>
       <use xlink:href="#DejaVuSans-2d" x="254.492188"/>
       <use xlink:href="#DejaVuSans-30" x="290.576172"/>
       <use xlink:href="#DejaVuSans-35" x="354.199219"/>
      </g>
     </g>
    </g>
   </g>
   <g id="matplotlib.axis_2">
    <g id="ytick_1">
     <g id="line2d_25">
      <path d="M 108 307.860029 
L 777.6 307.860029 
" clip-path="url(#p137f283914)" style="fill: none; stroke-dasharray: 5.12,1.28,0.8,1.28; stroke-dashoffset: 0; stroke: #b0b0b0; stroke-width: 0.8"/>
     </g>
     <g id="line2d_26">
      <defs>
       <path id="m5460050d8a" d="M 0 0 
L -3.5 0 
" style="stroke: #a9a9a9; stroke-width: 0.8"/>
      </defs>
      <g>
       <use xlink:href="#m5460050d8a" x="108" y="307.860029" style="fill: #a9a9a9; stroke: #a9a9a9; stroke-width: 0.8"/>
      </g>
     </g>
     <g id="text_13">
      <!-- 0 -->
      <g style="fill: #a9a9a9" transform="translate(94.6375 311.659247) scale(0.1 -0.1)">
       <use xlink:href="#DejaVuSans-30"/>
      </g>
     </g>
    </g>
    <g id="ytick_2">
     <g id="line2d_27">
      <path d="M 108 277.845736 
L 777.6 277.845736 
" clip-path="url(#p137f283914)" style="fill: none; stroke-dasharray: 5.12,1.28,0.8,1.28; stroke-dashoffset: 0; stroke: #b0b0b0; stroke-width: 0.8"/>
     </g>
     <g id="line2d_28">
      <g>
       <use xlink:href="#m5460050d8a" x="108" y="277.845736" style="fill: #a9a9a9; stroke: #a9a9a9; stroke-width: 0.8"/>
      </g>
     </g>
     <g id="text_14">
      <!-- 500 -->
      <g style="fill: #a9a9a9" transform="translate(81.9125 281.644955) scale(0.1 -0.1)">
       <use xlink:href="#DejaVuSans-35"/>
       <use xlink:href="#DejaVuSans-30" x="63.623047"/>
       <use xlink:href="#DejaVuSans-30" x="127.246094"/>
      </g>
     </g>
    </g>
    <g id="ytick_3">
     <g id="line2d_29">
      <path d="M 108 247.831444 
L 777.6 247.831444 
" clip-path="url(#p137f283914)" style="fill: none; stroke-dasharray: 5.12,1.28,0.8,1.28; stroke-dashoffset: 0; stroke: #b0b0b0; stroke-width: 0.8"/>
     </g>
     <g id="line2d_30">
      <g>
       <use xlink:href="#m5460050d8a" x="108" y="247.831444" style="fill: #a9a9a9; stroke: #a9a9a9; stroke-width: 0.8"/>
      </g>
     </g>
     <g id="text_15">
      <!-- 1000 -->
      <g style="fill: #a9a9a9" transform="translate(75.55 251.630662) scale(0.1 -0.1)">
       <use xlink:href="#DejaVuSans-31"/>
       <use xlink:href="#DejaVuSans-30" x="63.623047"/>
       <use xlink:href="#DejaVuSans-30" x="127.246094"/>
       <use xlink:href="#DejaVuSans-30" x="190.869141"/>
      </g>
     </g>
    </g>
    <g id="ytick_4">
     <g id="line2d_31">
      <path d="M 108 217.817151 
L 777.6 217.817151 
" clip-path="url(#p137f283914)" style="fill: none; stroke-dasharray: 5.12,1.28,0.8,1.28; stroke-dashoffset: 0; stroke: #b0b0b0; stroke-width: 0.8"/>
     </g>
     <g id="line2d_32">
      <g>
       <use xlink:href="#m5460050d8a" x="108" y="217.817151" style="fill: #a9a9a9; stroke: #a9a9a9; stroke-width: 0.8"/>
      </g>
     </g>
     <g id="text_16">
      <!-- 1500 -->
      <g style="fill: #a9a9a9" transform="translate(75.55 221.61637) scale(0.1 -0.1)">
       <use xlink:href="#DejaVuSans-31"/>
       <use xlink:href="#DejaVuSans-35" x="63.623047"/>
       <use xlink:href="#DejaVuSans-30" x="127.246094"/>
       <use xlink:href="#DejaVuSans-30" x="190.869141"/>
      </g>
     </g>
    </g>
    <g id="ytick_5">
     <g id="line2d_33">
      <path d="M 108 187.802859 
L 777.6 187.802859 
" clip-path="url(#p137f283914)" style="fill: none; stroke-dasharray: 5.12,1.28,0.8,1.28; stroke-dashoffset: 0; stroke: #b0b0b0; stroke-width: 0.8"/>
     </g>
     <g id="line2d_34">
      <g>
       <use xlink:href="#m5460050d8a" x="108" y="187.802859" style="fill: #a9a9a9; stroke: #a9a9a9; stroke-width: 0.8"/>
      </g>
     </g>
     <g id="text_17">
      <!-- 2000 -->
      <g style="fill: #a9a9a9" transform="translate(75.55 191.602077) scale(0.1 -0.1)">
       <use xlink:href="#DejaVuSans-32"/>
       <use xlink:href="#DejaVuSans-30" x="63.623047"/>
       <use xlink:href="#DejaVuSans-30" x="127.246094"/>
       <use xlink:href="#DejaVuSans-30" x="190.869141"/>
      </g>
     </g>
    </g>
    <g id="ytick_6">
     <g id="line2d_35">
      <path d="M 108 157.788566 
L 777.6 157.788566 
" clip-path="url(#p137f283914)" style="fill: none; stroke-dasharray: 5.12,1.28,0.8,1.28; stroke-dashoffset: 0; stroke: #b0b0b0; stroke-width: 0.8"/>
     </g>
     <g id="line2d_36">
      <g>
       <use xlink:href="#m5460050d8a" x="108" y="157.788566" style="fill: #a9a9a9; stroke: #a9a9a9; stroke-width: 0.8"/>
      </g>
     </g>
     <g id="text_18">
      <!-- 2500 -->
      <g style="fill: #a9a9a9" transform="translate(75.55 161.587785) scale(0.1 -0.1)">
       <use xlink:href="#DejaVuSans-32"/>
       <use xlink:href="#DejaVuSans-35" x="63.623047"/>
       <use xlink:href="#DejaVuSans-30" x="127.246094"/>
       <use xlink:href="#DejaVuSans-30" x="190.869141"/>
      </g>
     </g>
    </g>
    <g id="ytick_7">
     <g id="line2d_37">
      <path d="M 108 127.774273 
L 777.6 127.774273 
" clip-path="url(#p137f283914)" style="fill: none; stroke-dasharray: 5.12,1.28,0.8,1.28; stroke-dashoffset: 0; stroke: #b0b0b0; stroke-width: 0.8"/>
     </g>
     <g id="line2d_38">
      <g>
       <use xlink:href="#m5460050d8a" x="108" y="127.774273" style="fill: #a9a9a9; stroke: #a9a9a9; stroke-width: 0.8"/>
      </g>
     </g>
     <g id="text_19">
      <!-- 3000 -->
      <g style="fill: #a9a9a9" transform="translate(75.55 131.573492) scale(0.1 -0.1)">
       <use xlink:href="#DejaVuSans-33"/>
       <use xlink:href="#DejaVuSans-30" x="63.623047"/>
       <use xlink:href="#DejaVuSans-30" x="127.246094"/>
       <use xlink:href="#DejaVuSans-30" x="190.869141"/>
      </g>
     </g>
    </g>
    <g id="ytick_8">
     <g id="line2d_39">
      <path d="M 108 97.759981 
L 777.6 97.759981 
" clip-path="url(#p137f283914)" style="fill: none; stroke-dasharray: 5.12,1.28,0.8,1.28; stroke-dashoffset: 0; stroke: #b0b0b0; stroke-width: 0.8"/>
     </g>
     <g id="line2d_40">
      <g>
       <use xlink:href="#m5460050d8a" x="108" y="97.759981" style="fill: #a9a9a9; stroke: #a9a9a9; stroke-width: 0.8"/>
      </g>
     </g>
     <g id="text_20">
      <!-- 3500 -->
      <g style="fill: #a9a9a9" transform="translate(75.55 101.5592) scale(0.1 -0.1)">
       <use xlink:href="#DejaVuSans-33"/>
       <use xlink:href="#DejaVuSans-35" x="63.623047"/>
       <use xlink:href="#DejaVuSans-30" x="127.246094"/>
       <use xlink:href="#DejaVuSans-30" x="190.869141"/>
      </g>
     </g>
    </g>
    <g id="ytick_9">
     <g id="line2d_41">
      <path d="M 108 67.745688 
L 777.6 67.745688 
" clip-path="url(#p137f283914)" style="fill: none; stroke-dasharray: 5.12,1.28,0.8,1.28; stroke-dashoffset: 0; stroke: #b0b0b0; stroke-width: 0.8"/>
     </g>
     <g id="line2d_42">
      <g>
       <use xlink:href="#m5460050d8a" x="108" y="67.745688" style="fill: #a9a9a9; stroke: #a9a9a9; stroke-width: 0.8"/>
      </g>
     </g>
     <g id="text_21">
      <!-- 4000 -->
      <g style="fill: #a9a9a9" transform="translate(75.55 71.544907) scale(0.1 -0.1)">
       <defs>
        <path id="DejaVuSans-34" d="M 2419 4116 
L 825 1625 
L 2419 1625 
L 2419 4116 
z
M 2253 4666 
L 3047 4666 
L 3047 1625 
L 3713 1625 
L 3713 1100 
L 3047 1100 
L 3047 0 
L 2419 0 
L 2419 1100 
L 313 1100 
L 313 1709 
L 2253 4666 
z
" transform="scale(0.015625)"/>
       </defs>
       <use xlink:href="#DejaVuSans-34"/>
       <use xlink:href="#DejaVuSans-30" x="63.623047"/>
       <use xlink:href="#DejaVuSans-30" x="127.246094"/>
       <use xlink:href="#DejaVuSans-30" x="190.869141"/>
      </g>
     </g>
    </g>
   </g>
   <g id="line2d_43">
    <path d="M 138.436364 307.619914 
L 142.276914 307.319771 
L 143.237052 307.199714 
L 144.19719 307.199714 
L 145.157327 306.839543 
L 147.077603 306.719485 
L 153.798566 305.458885 
L 155.718841 305.338828 
L 156.678979 305.158742 
L 159.559392 304.978657 
L 160.51953 304.498428 
L 161.479667 304.258313 
L 162.439805 303.177799 
L 163.399943 302.577513 
L 164.36008 300.59657 
L 165.320218 300.476513 
L 166.280356 299.816198 
L 167.240493 299.456027 
L 168.200631 298.975798 
L 171.081044 296.75474 
L 173.001319 295.91434 
L 173.961457 295.554169 
L 174.921594 294.893854 
L 176.84187 294.113483 
L 177.802007 293.633254 
L 178.762145 293.333111 
L 179.722283 291.892425 
L 180.68242 291.172082 
L 182.602696 290.211625 
L 188.363522 289.431253 
L 189.323659 289.251167 
L 191.243935 289.13111 
L 192.204072 288.951024 
L 193.16421 288.470796 
L 195.084485 288.410767 
L 196.044623 288.410767 
L 199.885174 287.990567 
L 200.845311 287.690424 
L 205.645999 286.789995 
L 207.566275 286.609909 
L 208.526412 286.369795 
L 211.406825 286.069652 
L 212.366963 285.589424 
L 213.327101 285.469366 
L 215.247376 284.809052 
L 217.167651 284.628966 
L 218.127789 284.328823 
L 221.96834 283.788566 
L 222.928477 283.488423 
L 224.848753 283.18828 
L 225.80889 283.18828 
L 230.609578 282.587994 
L 232.529854 282.047737 
L 233.489991 281.807623 
L 235.410267 281.627537 
L 236.370404 281.567508 
L 239.250817 281.027251 
L 240.210955 280.727108 
L 241.171093 279.526536 
L 242.13123 279.166365 
L 243.091368 278.686136 
L 244.051506 278.566079 
L 245.011643 278.325965 
L 245.971781 278.205908 
L 247.892056 277.425536 
L 248.852194 277.365507 
L 253.652882 276.164936 
L 254.61302 276.164936 
L 256.533295 275.924821 
L 258.45357 275.384564 
L 261.333983 274.72425 
L 262.294121 274.664221 
L 264.214396 273.883849 
L 265.174534 273.763792 
L 266.134672 273.343592 
L 268.054947 273.163506 
L 269.015085 273.103478 
L 271.895498 272.623249 
L 273.815773 272.323106 
L 278.616461 271.422677 
L 280.536736 270.762363 
L 281.496874 270.222106 
L 282.457012 269.981991 
L 283.417149 269.861934 
L 285.337425 269.261648 
L 287.2577 268.241162 
L 288.217838 267.640877 
L 289.177975 267.520819 
L 290.138113 267.220677 
L 291.098251 267.100619 
L 292.058388 266.860505 
L 293.018526 266.740448 
L 293.978664 266.320248 
L 295.898939 266.020105 
L 297.819214 265.179705 
L 298.779352 264.93959 
L 299.73949 264.819533 
L 300.699627 264.51939 
L 304.540178 263.799047 
L 306.460453 263.018676 
L 307.420591 262.83859 
L 308.380728 262.478418 
L 309.340866 262.358361 
L 310.301004 261.938161 
L 311.261141 261.698047 
L 313.181417 261.57799 
L 315.101692 260.977704 
L 316.06183 260.857646 
L 317.021967 260.857646 
L 317.982105 260.437446 
L 320.862518 259.837161 
L 322.782793 259.777132 
L 323.742931 259.657075 
L 324.703069 259.657075 
L 326.623344 259.356932 
L 329.503757 258.036303 
L 330.463894 257.616103 
L 331.424032 257.375989 
L 332.38417 256.775703 
L 333.344307 256.47556 
L 335.264583 255.63516 
L 336.22472 255.455074 
L 338.144996 254.794759 
L 340.065271 253.774273 
L 341.025409 252.813816 
L 341.985546 251.37313 
L 342.945684 250.232587 
L 343.905822 249.992473 
L 344.865959 249.992473 
L 346.786235 248.671844 
L 347.746372 248.431729 
L 348.70651 247.951501 
L 349.666648 247.771415 
L 350.626785 246.931015 
L 351.586923 246.6909 
L 354.467336 245.4303 
L 355.427473 244.349786 
L 356.387611 242.969128 
L 357.347749 242.428871 
L 358.307886 240.988185 
L 359.268024 240.087756 
L 360.228162 239.667556 
L 361.188299 239.427442 
L 363.108575 238.346927 
L 364.068712 237.926727 
L 367.909263 235.285469 
L 368.869401 234.024869 
L 369.829538 231.983897 
L 370.789676 230.663268 
L 371.749814 230.002954 
L 372.709951 229.642782 
L 376.550502 226.581324 
L 378.470777 225.140638 
L 379.430915 224.360267 
L 380.391052 223.099667 
L 381.35119 222.259266 
L 384.231603 220.39838 
L 386.151878 219.197808 
L 387.112016 218.417437 
L 388.072154 218.177323 
L 390.952567 216.796665 
L 392.872842 215.776179 
L 393.83298 215.416008 
L 395.753255 213.795236 
L 396.713393 212.714721 
L 398.633668 211.51415 
L 399.593806 211.274035 
L 400.553943 210.793807 
L 401.514081 210.133492 
L 403.434356 209.173035 
L 404.394494 209.052978 
L 405.354631 208.452692 
L 407.274907 207.552263 
L 408.235044 206.651834 
L 409.195182 206.051548 
L 410.15532 205.751405 
L 411.115457 205.15112 
L 413.99587 203.890519 
L 414.956008 203.290233 
L 415.916146 202.509862 
L 417.836421 201.849547 
L 418.796559 201.489376 
L 419.756696 201.30929 
L 420.716834 200.709004 
L 421.676972 200.528919 
L 423.597247 199.868604 
L 425.517522 199.20829 
L 427.437798 198.487947 
L 428.397935 198.247832 
L 429.358073 197.887661 
L 431.278348 197.587518 
L 433.198623 196.086803 
L 434.158761 195.726632 
L 438.959449 193.445545 
L 439.919587 193.205431 
L 440.879725 192.665174 
L 441.839862 192.42506 
L 444.720275 190.744259 
L 447.600688 190.143973 
L 448.560826 189.84383 
L 449.520964 189.663745 
L 452.401377 188.103001 
L 453.361514 187.982944 
L 454.321652 187.622773 
L 455.28179 187.502716 
L 456.241927 187.262601 
L 459.12234 185.341687 
L 460.082478 185.161601 
L 461.042615 184.861458 
L 462.002753 184.741401 
L 462.962891 184.441258 
L 463.923028 183.780943 
L 464.883166 183.4808 
L 465.843304 183.0606 
L 469.683854 182.040114 
L 470.643992 181.980086 
L 471.60413 181.679943 
L 473.524405 180.899571 
L 474.484543 180.599428 
L 475.44468 180.419343 
L 478.325093 179.278799 
L 480.245369 178.738542 
L 481.205506 178.678514 
L 483.125781 178.258313 
L 484.085919 177.838113 
L 485.046057 177.658028 
L 486.966332 176.877656 
L 490.806883 175.076798 
L 491.76702 174.476513 
L 492.727158 174.236398 
L 495.607571 172.855741 
L 497.527846 172.435541 
L 499.448122 171.535112 
L 500.408259 171.234969 
L 502.328535 170.934826 
L 503.288672 170.274512 
L 504.24881 169.854312 
L 505.208948 169.674226 
L 507.129223 168.953883 
L 508.08936 168.773797 
L 509.049498 168.293568 
L 512.890049 167.753311 
L 514.810324 166.912911 
L 515.770462 166.192568 
L 516.730599 164.631825 
L 517.690737 164.39171 
L 519.611012 164.091567 
L 523.451563 162.29071 
L 524.411701 162.110624 
L 530.172527 159.529395 
L 531.132664 158.929109 
L 532.092802 158.568938 
L 534.973215 158.02868 
L 536.89349 157.128252 
L 537.853628 156.76808 
L 538.813765 156.648023 
L 541.694178 155.567508 
L 543.614454 154.486994 
L 544.574591 153.886708 
L 545.534729 153.466508 
L 546.494867 153.346451 
L 547.455004 153.046308 
L 548.415142 152.986279 
L 552.255693 151.785707 
L 553.21583 151.725679 
L 554.175968 151.065364 
L 555.136106 150.82525 
L 557.056381 150.104907 
L 558.976656 149.56465 
L 559.936794 149.024393 
L 560.896931 148.72425 
L 561.857069 148.123964 
L 562.817207 147.763792 
L 563.777344 147.223535 
L 565.69762 146.563221 
L 566.657757 146.263078 
L 569.53817 145.062506 
L 570.498308 144.402192 
L 571.458446 143.381706 
L 572.418583 142.78142 
L 573.378721 142.601334 
L 575.298996 141.220677 
L 576.259134 141.040591 
L 577.219272 139.719962 
L 578.179409 139.35979 
L 579.139547 138.699476 
L 580.099685 138.579419 
L 581.059822 137.979133 
L 582.01996 137.558933 
L 582.980098 137.378847 
L 583.940235 137.018676 
L 584.900373 136.298333 
L 585.86051 135.99819 
L 588.740923 134.197332 
L 592.581474 132.456503 
L 593.541612 132.336446 
L 594.501749 131.976274 
L 596.422025 130.955788 
L 597.382162 129.515102 
L 598.3423 128.614674 
L 599.302438 128.134445 
L 600.262575 127.954359 
L 602.182851 126.873845 
L 603.142988 126.693759 
L 605.063264 125.853359 
L 607.943677 124.712816 
L 609.863952 123.452215 
L 611.784227 121.531301 
L 612.744365 120.810958 
L 614.66464 119.730443 
L 615.624778 118.830014 
L 618.505191 116.668985 
L 619.465328 116.188757 
L 620.425466 115.228299 
L 621.385604 114.567985 
L 623.305879 113.90767 
L 624.266017 113.06727 
L 626.186292 112.166841 
L 627.14643 111.926727 
L 628.106567 111.266413 
L 629.066705 111.026298 
L 631.947118 109.645641 
L 632.907256 108.985326 
L 633.867393 108.505098 
L 635.787668 107.96484 
L 636.747806 107.424583 
L 639.628219 106.584183 
L 641.548494 106.043926 
L 643.46877 105.143497 
L 644.428907 104.363125 
L 646.349183 103.642782 
L 649.229596 102.622296 
L 650.189733 101.961982 
L 653.070146 100.701382 
L 654.030284 100.041067 
L 654.990422 99.560838 
L 656.910697 96.079181 
L 658.830972 93.918152 
L 659.79111 93.257837 
L 663.63166 91.697094 
L 664.591798 91.577037 
L 665.551936 91.096808 
L 666.512073 90.856694 
L 667.472211 90.496522 
L 668.432349 90.256408 
L 671.312762 89.175893 
L 673.233037 87.855264 
L 675.153312 87.134921 
L 680.914138 84.133492 
L 681.874276 83.233063 
L 683.794551 82.272606 
L 684.754689 81.792377 
L 685.714826 81.492234 
L 686.674964 80.83192 
L 687.635102 80.471748 
L 690.515515 78.911005 
L 691.475652 78.370748 
L 692.43579 78.130634 
L 693.395928 77.470319 
L 694.356065 77.110148 
L 695.316203 76.930062 
L 697.236478 76.209719 
L 699.156754 75.669462 
L 700.116891 75.189233 
L 701.077029 74.528919 
L 702.037167 74.348833 
L 704.91758 73.388375 
L 705.877717 72.668032 
L 708.75813 71.587518 
L 709.718268 71.347404 
L 711.638543 70.146832 
L 712.598681 69.78666 
L 713.558818 69.306432 
L 715.479094 67.925774 
L 717.399369 67.325488 
L 718.359507 66.545117 
L 719.319644 66.365031 
L 720.279782 65.584659 
L 722.200057 64.564173 
L 724.120333 63.783802 
L 725.08047 62.883373 
L 726.040608 62.403144 
L 727.960883 61.862887 
L 728.921021 61.32263 
L 729.881159 61.202573 
L 732.761572 59.821915 
L 735.641985 58.981515 
L 736.602122 58.741401 
L 737.56226 58.681372 
L 738.522397 58.501286 
L 739.482535 58.141115 
L 740.442673 57.961029 
L 742.362948 57.240686 
L 743.323086 57.180657 
L 746.203499 56.280229 
L 747.163636 55.8 
L 747.163636 55.8 
" clip-path="url(#p137f283914)" style="fill: none; stroke: #1f77b4; stroke-width: 1.5; stroke-linecap: square"/>
   </g>
   <g id="line2d_44">
    <path d="M 139.396501 307.8 
L 141.316777 307.8 
L 143.237052 307.559886 
L 148.997878 307.499857 
L 151.878291 307.3798 
L 154.758704 307.319771 
L 156.678979 307.259743 
L 159.559392 307.259743 
L 160.51953 307.019628 
L 163.399943 306.9596 
L 168.200631 306.419343 
L 175.881732 305.999142 
L 176.84187 305.999142 
L 177.802007 305.819057 
L 180.68242 305.759028 
L 182.602696 305.518914 
L 186.443246 305.518914 
L 187.403384 305.398857 
L 192.204072 305.338828 
L 195.084485 305.218771 
L 203.725724 305.158742 
L 205.645999 305.098714 
L 209.48655 305.038685 
L 212.366963 304.918628 
L 216.207514 304.918628 
L 217.167651 304.798571 
L 220.048064 304.738542 
L 223.888615 304.558456 
L 230.609578 304.498428 
L 232.529854 304.438399 
L 236.370404 304.378371 
L 239.250817 304.018199 
L 244.051506 303.958171 
L 248.852194 303.718056 
L 253.652882 303.658028 
L 256.533295 303.53797 
L 258.45357 303.477942 
L 260.373846 303.297856 
L 264.214396 303.11777 
L 267.094809 303.057742 
L 269.015085 302.997713 
L 270.93536 302.997713 
L 271.895498 302.877656 
L 274.775911 302.877656 
L 276.696186 302.69757 
L 279.576599 302.577513 
L 284.377287 302.517485 
L 287.2577 302.217342 
L 289.177975 302.097284 
L 290.138113 301.917199 
L 293.978664 301.85717 
L 304.540178 301.256884 
L 306.460453 301.196856 
L 309.340866 301.076798 
L 310.301004 301.076798 
L 312.221279 300.896713 
L 314.141554 300.836684 
L 315.101692 300.836684 
L 316.06183 300.716627 
L 317.982105 300.656598 
L 322.782793 300.416484 
L 324.703069 300.356455 
L 327.583482 300.236398 
L 330.463894 300.17637 
L 332.38417 300.116341 
L 337.184858 300.116341 
L 341.025409 299.696141 
L 341.985546 299.696141 
L 343.905822 299.516055 
L 345.826097 299.456027 
L 350.626785 299.155884 
L 351.586923 298.915769 
L 353.507198 298.795712 
L 354.467336 298.555598 
L 357.347749 298.315484 
L 359.268024 297.895283 
L 361.188299 297.835255 
L 363.108575 297.835255 
L 364.068712 297.715198 
L 365.02885 297.715198 
L 367.909263 297.294998 
L 368.869401 297.054883 
L 386.151878 296.034397 
L 387.112016 296.034397 
L 390.952567 295.554169 
L 391.912704 295.554169 
L 393.83298 295.254026 
L 395.753255 295.07394 
L 397.67353 295.013911 
L 399.593806 295.013911 
L 400.553943 294.773797 
L 403.434356 294.65374 
L 405.354631 294.65374 
L 407.274907 294.473654 
L 408.235044 294.473654 
L 411.115457 294.053454 
L 412.075595 293.81334 
L 413.99587 293.753311 
L 415.916146 293.693283 
L 416.876283 293.573225 
L 421.676972 293.513197 
L 435.118899 292.732825 
L 437.039174 292.732825 
L 438.959449 292.552739 
L 440.879725 292.552739 
L 443.760138 292.252596 
L 447.600688 292.072511 
L 449.520964 292.012482 
L 451.441239 291.952454 
L 454.321652 291.892425 
L 461.042615 291.532253 
L 465.843304 291.472225 
L 467.763579 291.412196 
L 468.723717 291.412196 
L 469.683854 291.232111 
L 471.60413 291.172082 
L 477.364956 291.112053 
L 479.285231 291.052025 
L 484.085919 290.991996 
L 485.046057 290.81191 
L 490.806883 290.751882 
L 492.727158 290.691853 
L 494.647433 290.631825 
L 496.567709 290.571796 
L 498.487984 290.511768 
L 505.208948 290.151596 
L 510.969773 290.091567 
L 513.850186 289.851453 
L 515.770462 289.671367 
L 517.690737 289.611339 
L 519.611012 289.611339 
L 520.57115 289.491282 
L 523.451563 289.431253 
L 524.411701 289.191139 
L 528.252251 289.011053 
L 536.89349 288.951024 
L 541.694178 288.590853 
L 544.574591 288.29071 
L 549.37528 288.230681 
L 552.255693 287.930538 
L 558.016518 287.630395 
L 559.936794 287.570367 
L 563.777344 287.390281 
L 567.617895 287.330253 
L 570.498308 287.210195 
L 574.338859 287.150167 
L 577.219272 286.850024 
L 579.139547 286.789995 
L 582.980098 286.729967 
L 585.86051 286.489852 
L 586.820648 286.369795 
L 587.780786 286.369795 
L 588.740923 286.189709 
L 590.661199 286.129681 
L 594.501749 286.069652 
L 596.422025 285.769509 
L 605.063264 285.709481 
L 606.983539 285.529395 
L 607.943677 285.409338 
L 609.863952 285.349309 
L 611.784227 285.289281 
L 612.744365 285.049166 
L 614.66464 284.989138 
L 615.624778 284.809052 
L 617.545053 284.809052 
L 620.425466 284.508909 
L 638.668081 283.428394 
L 640.588357 283.368366 
L 642.508632 283.308337 
L 654.030284 283.248309 
L 656.910697 283.128252 
L 657.870835 283.128252 
L 658.830972 282.888137 
L 660.751247 282.828109 
L 665.551936 282.76808 
L 668.432349 282.648023 
L 673.233037 282.587994 
L 676.11345 282.467937 
L 678.033725 282.467937 
L 679.954001 282.227823 
L 681.874276 282.167794 
L 688.595239 281.807623 
L 690.515515 281.807623 
L 692.43579 281.627537 
L 699.156754 281.567508 
L 701.077029 281.387423 
L 703.957442 281.267365 
L 708.75813 281.207337 
L 710.678406 281.147308 
L 714.518956 281.08728 
L 716.439231 281.027251 
L 718.359507 280.967222 
L 720.279782 280.907194 
L 726.040608 280.847165 
L 730.841296 280.607051 
L 736.602122 280.547022 
L 741.40281 280.306908 
L 746.203499 280.306908 
L 747.163636 280.126822 
L 747.163636 280.126822 
" clip-path="url(#p137f283914)" style="fill: none; stroke: #ff7f0e; stroke-width: 1.5; stroke-linecap: square"/>
   </g>
   <g id="patch_3">
    <path d="M 108 320.4 
L 108 43.2 
" style="fill: none; stroke: #a9a9a9; stroke-width: 0.8; stroke-linejoin: miter; stroke-linecap: square"/>
   </g>
   <g id="patch_4">
    <path d="M 777.6 320.4 
L 777.6 43.2 
" style="fill: none"/>
   </g>
   <g id="patch_5">
    <path d="M 108 320.4 
L 777.6 320.4 
" style="fill: none; stroke: #a9a9a9; stroke-width: 0.8; stroke-linejoin: miter; stroke-linecap: square"/>
   </g>
   <g id="patch_6">
    <path d="M 108 43.2 
L 777.6 43.2 
" style="fill: none"/>
   </g>
   <g id="text_22">
    <!-- get_subscribe history -->
    <g style="fill: #a9a9a9" transform="translate(378.6075 37.2) scale(0.12 -0.12)">
     <defs>
      <path id="DejaVuSans-67" d="M 2906 1791 
Q 2906 2416 2648 2759 
Q 2391 3103 1925 3103 
Q 1463 3103 1205 2759 
Q 947 2416 947 1791 
Q 947 1169 1205 825 
Q 1463 481 1925 481 
Q 2391 481 2648 825 
Q 2906 1169 2906 1791 
z
M 3481 434 
Q 3481 -459 3084 -895 
Q 2688 -1331 1869 -1331 
Q 1566 -1331 1297 -1286 
Q 1028 -1241 775 -1147 
L 775 -588 
Q 1028 -725 1275 -790 
Q 1522 -856 1778 -856 
Q 2344 -856 2625 -561 
Q 2906 -266 2906 331 
L 2906 616 
Q 2728 306 2450 153 
Q 2172 0 1784 0 
Q 1141 0 747 490 
Q 353 981 353 1791 
Q 353 2603 747 3093 
Q 1141 3584 1784 3584 
Q 2172 3584 2450 3431 
Q 2728 3278 2906 2969 
L 2906 3500 
L 3481 3500 
L 3481 434 
z
" transform="scale(0.015625)"/>
      <path id="DejaVuSans-65" d="M 3597 1894 
L 3597 1613 
L 953 1613 
Q 991 1019 1311 708 
Q 1631 397 2203 397 
Q 2534 397 2845 478 
Q 3156 559 3463 722 
L 3463 178 
Q 3153 47 2828 -22 
Q 2503 -91 2169 -91 
Q 1331 -91 842 396 
Q 353 884 353 1716 
Q 353 2575 817 3079 
Q 1281 3584 2069 3584 
Q 2775 3584 3186 3129 
Q 3597 2675 3597 1894 
z
M 3022 2063 
Q 3016 2534 2758 2815 
Q 2500 3097 2075 3097 
Q 1594 3097 1305 2825 
Q 1016 2553 972 2059 
L 3022 2063 
z
" transform="scale(0.015625)"/>
      <path id="DejaVuSans-74" d="M 1172 4494 
L 1172 3500 
L 2356 3500 
L 2356 3053 
L 1172 3053 
L 1172 1153 
Q 1172 725 1289 603 
Q 1406 481 1766 481 
L 2356 481 
L 2356 0 
L 1766 0 
Q 1100 0 847 248 
Q 594 497 594 1153 
L 594 3053 
L 172 3053 
L 172 3500 
L 594 3500 
L 594 4494 
L 1172 4494 
z
" transform="scale(0.015625)"/>
      <path id="DejaVuSans-5f" d="M 3263 -1063 
L 3263 -1509 
L -63 -1509 
L -63 -1063 
L 3263 -1063 
z
" transform="scale(0.015625)"/>
      <path id="DejaVuSans-73" d="M 2834 3397 
L 2834 2853 
Q 2591 2978 2328 3040 
Q 2066 3103 1784 3103 
Q 1356 3103 1142 2972 
Q 928 2841 928 2578 
Q 928 2378 1081 2264 
Q 1234 2150 1697 2047 
L 1894 2003 
Q 2506 1872 2764 1633 
Q 3022 1394 3022 966 
Q 3022 478 2636 193 
Q 2250 -91 1575 -91 
Q 1294 -91 989 -36 
Q 684 19 347 128 
L 347 722 
Q 666 556 975 473 
Q 1284 391 1588 391 
Q 1994 391 2212 530 
Q 2431 669 2431 922 
Q 2431 1156 2273 1281 
Q 2116 1406 1581 1522 
L 1381 1569 
Q 847 1681 609 1914 
Q 372 2147 372 2553 
Q 372 3047 722 3315 
Q 1072 3584 1716 3584 
Q 2034 3584 2315 3537 
Q 2597 3491 2834 3397 
z
" transform="scale(0.015625)"/>
      <path id="DejaVuSans-75" d="M 544 1381 
L 544 3500 
L 1119 3500 
L 1119 1403 
Q 1119 906 1312 657 
Q 1506 409 1894 409 
Q 2359 409 2629 706 
Q 2900 1003 2900 1516 
L 2900 3500 
L 3475 3500 
L 3475 0 
L 2900 0 
L 2900 538 
Q 2691 219 2414 64 
Q 2138 -91 1772 -91 
Q 1169 -91 856 284 
Q 544 659 544 1381 
z
M 1991 3584 
L 1991 3584 
z
" transform="scale(0.015625)"/>
      <path id="DejaVuSans-62" d="M 3116 1747 
Q 3116 2381 2855 2742 
Q 2594 3103 2138 3103 
Q 1681 3103 1420 2742 
Q 1159 2381 1159 1747 
Q 1159 1113 1420 752 
Q 1681 391 2138 391 
Q 2594 391 2855 752 
Q 3116 1113 3116 1747 
z
M 1159 2969 
Q 1341 3281 1617 3432 
Q 1894 3584 2278 3584 
Q 2916 3584 3314 3078 
Q 3713 2572 3713 1747 
Q 3713 922 3314 415 
Q 2916 -91 2278 -91 
Q 1894 -91 1617 61 
Q 1341 213 1159 525 
L 1159 0 
L 581 0 
L 581 4863 
L 1159 4863 
L 1159 2969 
z
" transform="scale(0.015625)"/>
      <path id="DejaVuSans-63" d="M 3122 3366 
L 3122 2828 
Q 2878 2963 2633 3030 
Q 2388 3097 2138 3097 
Q 1578 3097 1268 2742 
Q 959 2388 959 1747 
Q 959 1106 1268 751 
Q 1578 397 2138 397 
Q 2388 397 2633 464 
Q 2878 531 3122 666 
L 3122 134 
Q 2881 22 2623 -34 
Q 2366 -91 2075 -91 
Q 1284 -91 818 406 
Q 353 903 353 1747 
Q 353 2603 823 3093 
Q 1294 3584 2113 3584 
Q 2378 3584 2631 3529 
Q 2884 3475 3122 3366 
z
" transform="scale(0.015625)"/>
      <path id="DejaVuSans-72" d="M 2631 2963 
Q 2534 3019 2420 3045 
Q 2306 3072 2169 3072 
Q 1681 3072 1420 2755 
Q 1159 2438 1159 1844 
L 1159 0 
L 581 0 
L 581 3500 
L 1159 3500 
L 1159 2956 
Q 1341 3275 1631 3429 
Q 1922 3584 2338 3584 
Q 2397 3584 2469 3576 
Q 2541 3569 2628 3553 
L 2631 2963 
z
" transform="scale(0.015625)"/>
      <path id="DejaVuSans-69" d="M 603 3500 
L 1178 3500 
L 1178 0 
L 603 0 
L 603 3500 
z
M 603 4863 
L 1178 4863 
L 1178 4134 
L 603 4134 
L 603 4863 
z
" transform="scale(0.015625)"/>
      <path id="DejaVuSans-20" transform="scale(0.015625)"/>
      <path id="DejaVuSans-68" d="M 3513 2113 
L 3513 0 
L 2938 0 
L 2938 2094 
Q 2938 2591 2744 2837 
Q 2550 3084 2163 3084 
Q 1697 3084 1428 2787 
Q 1159 2491 1159 1978 
L 1159 0 
L 581 0 
L 581 4863 
L 1159 4863 
L 1159 2956 
Q 1366 3272 1645 3428 
Q 1925 3584 2291 3584 
Q 2894 3584 3203 3211 
Q 3513 2838 3513 2113 
z
" transform="scale(0.015625)"/>
      <path id="DejaVuSans-6f" d="M 1959 3097 
Q 1497 3097 1228 2736 
Q 959 2375 959 1747 
Q 959 1119 1226 758 
Q 1494 397 1959 397 
Q 2419 397 2687 759 
Q 2956 1122 2956 1747 
Q 2956 2369 2687 2733 
Q 2419 3097 1959 3097 
z
M 1959 3584 
Q 2709 3584 3137 3096 
Q 3566 2609 3566 1747 
Q 3566 888 3137 398 
Q 2709 -91 1959 -91 
Q 1206 -91 779 398 
Q 353 888 353 1747 
Q 353 2609 779 3096 
Q 1206 3584 1959 3584 
z
" transform="scale(0.015625)"/>
      <path id="DejaVuSans-79" d="M 2059 -325 
Q 1816 -950 1584 -1140 
Q 1353 -1331 966 -1331 
L 506 -1331 
L 506 -850 
L 844 -850 
Q 1081 -850 1212 -737 
Q 1344 -625 1503 -206 
L 1606 56 
L 191 3500 
L 800 3500 
L 1894 763 
L 2988 3500 
L 3597 3500 
L 2059 -325 
z
" transform="scale(0.015625)"/>
     </defs>
     <use xlink:href="#DejaVuSans-67"/>
     <use xlink:href="#DejaVuSans-65" x="63.476562"/>
     <use xlink:href="#DejaVuSans-74" x="125"/>
     <use xlink:href="#DejaVuSans-5f" x="164.208984"/>
     <use xlink:href="#DejaVuSans-73" x="214.208984"/>
     <use xlink:href="#DejaVuSans-75" x="266.308594"/>
     <use xlink:href="#DejaVuSans-62" x="329.6875"/>
     <use xlink:href="#DejaVuSans-73" x="393.164062"/>
     <use xlink:href="#DejaVuSans-63" x="445.263672"/>
     <use xlink:href="#DejaVuSans-72" x="500.244141"/>
     <use xlink:href="#DejaVuSans-69" x="541.357422"/>
     <use xlink:href="#DejaVuSans-62" x="569.140625"/>
     <use xlink:href="#DejaVuSans-65" x="632.617188"/>
     <use xlink:href="#DejaVuSans-20" x="694.140625"/>
     <use xlink:href="#DejaVuSans-68" x="725.927734"/>
     <use xlink:href="#DejaVuSans-69" x="789.306641"/>
     <use xlink:href="#DejaVuSans-73" x="817.089844"/>
     <use xlink:href="#DejaVuSans-74" x="869.189453"/>
     <use xlink:href="#DejaVuSans-6f" x="908.398438"/>
     <use xlink:href="#DejaVuSans-72" x="969.580078"/>
     <use xlink:href="#DejaVuSans-79" x="1010.693359"/>
    </g>
   </g>
   <g id="legend_1">
    <g id="line2d_45">
     <path d="M 815.08 328.498438 
L 825.08 328.498438 
L 835.08 328.498438 
" style="fill: none; stroke: #1f77b4; stroke-width: 1.5; stroke-linecap: square"/>
    </g>
    <g id="text_23">
     <!-- star -->
     <g style="fill: #a9a9a9" transform="translate(843.08 331.998438) scale(0.1 -0.1)">
      <defs>
       <path id="DejaVuSans-61" d="M 2194 1759 
Q 1497 1759 1228 1600 
Q 959 1441 959 1056 
Q 959 750 1161 570 
Q 1363 391 1709 391 
Q 2188 391 2477 730 
Q 2766 1069 2766 1631 
L 2766 1759 
L 2194 1759 
z
M 3341 1997 
L 3341 0 
L 2766 0 
L 2766 531 
Q 2569 213 2275 61 
Q 1981 -91 1556 -91 
Q 1019 -91 701 211 
Q 384 513 384 1019 
Q 384 1609 779 1909 
Q 1175 2209 1959 2209 
L 2766 2209 
L 2766 2266 
Q 2766 2663 2505 2880 
Q 2244 3097 1772 3097 
Q 1472 3097 1187 3025 
Q 903 2953 641 2809 
L 641 3341 
Q 956 3463 1253 3523 
Q 1550 3584 1831 3584 
Q 2591 3584 2966 3190 
Q 3341 2797 3341 1997 
z
" transform="scale(0.015625)"/>
      </defs>
      <use xlink:href="#DejaVuSans-73"/>
      <use xlink:href="#DejaVuSans-74" x="52.099609"/>
      <use xlink:href="#DejaVuSans-61" x="91.308594"/>
      <use xlink:href="#DejaVuSans-72" x="152.587891"/>
     </g>
    </g>
    <g id="line2d_46">
     <path d="M 815.08 343.176562 
L 825.08 343.176562 
L 835.08 343.176562 
" style="fill: none; stroke: #ff7f0e; stroke-width: 1.5; stroke-linecap: square"/>
    </g>
    <g id="text_24">
     <!-- fork -->
     <g style="fill: #a9a9a9" transform="translate(843.08 346.676562) scale(0.1 -0.1)">
      <defs>
       <path id="DejaVuSans-66" d="M 2375 4863 
L 2375 4384 
L 1825 4384 
Q 1516 4384 1395 4259 
Q 1275 4134 1275 3809 
L 1275 3500 
L 2222 3500 
L 2222 3053 
L 1275 3053 
L 1275 0 
L 697 0 
L 697 3053 
L 147 3053 
L 147 3500 
L 697 3500 
L 697 3744 
Q 697 4328 969 4595 
Q 1241 4863 1831 4863 
L 2375 4863 
z
" transform="scale(0.015625)"/>
       <path id="DejaVuSans-6b" d="M 581 4863 
L 1159 4863 
L 1159 1991 
L 2875 3500 
L 3609 3500 
L 1753 1863 
L 3688 0 
L 2938 0 
L 1159 1709 
L 1159 0 
L 581 0 
L 581 4863 
z
" transform="scale(0.015625)"/>
      </defs>
      <use xlink:href="#DejaVuSans-66"/>
      <use xlink:href="#DejaVuSans-6f" x="35.205078"/>
      <use xlink:href="#DejaVuSans-72" x="96.386719"/>
      <use xlink:href="#DejaVuSans-6b" x="137.5"/>
     </g>
    </g>
   </g>
  </g>
 </g>
 <defs>
  <clipPath id="p137f283914">
   <rect x="108" y="43.2" width="669.6" height="277.2"/>
  </clipPath>
 </defs>
</svg>
