<?xml version="1.0" encoding="utf-8" standalone="no"?>
<!DOCTYPE svg PUBLIC "-//W3C//DTD SVG 1.1//EN"
  "http://www.w3.org/Graphics/SVG/1.1/DTD/svg11.dtd">
<svg xmlns:xlink="http://www.w3.org/1999/xlink" width="864pt" height="360pt" viewBox="0 0 864 360" xmlns="http://www.w3.org/2000/svg" version="1.1">
 <metadata>
  <rdf:RDF xmlns:dc="http://purl.org/dc/elements/1.1/" xmlns:cc="http://creativecommons.org/ns#" xmlns:rdf="http://www.w3.org/1999/02/22-rdf-syntax-ns#">
   <cc:Work>
    <dc:type rdf:resource="http://purl.org/dc/dcmitype/StillImage"/>
    <dc:date>2023-04-23T08:58:50.638994</dc:date>
    <dc:format>image/svg+xml</dc:format>
    <dc:creator>
     <cc:Agent>
      <dc:title>Matplotlib v3.7.1, https://matplotlib.org/</dc:title>
     </cc:Agent>
    </dc:creator>
   </cc:Work>
  </rdf:RDF>
 </metadata>
 <defs>
  <style type="text/css">*{stroke-linejoin: round; stroke-linecap: butt}</style>
 </defs>
 <g id="figure_1">
  <g id="patch_1">
   <path d="M 0 360 
L 864 360 
L 864 0 
L 0 0 
L 0 360 
z
" style="fill: none; opacity: 0"/>
  </g>
  <g id="axes_1">
   <g id="patch_2">
    <path d="M 108 320.4 
L 777.6 320.4 
L 777.6 43.2 
L 108 43.2 
L 108 320.4 
z
" style="fill: none; opacity: 0"/>
   </g>
   <g id="matplotlib.axis_1">
    <g id="xtick_1">
     <g id="line2d_1">
      <path d="M 116.49165 320.4 
L 116.49165 43.2 
" clip-path="url(#pc859bf6d10)" style="fill: none; stroke-dasharray: 5.12,1.28,0.8,1.28; stroke-dashoffset: 0; stroke: #b0b0b0; stroke-width: 0.8"/>
     </g>
     <g id="line2d_2">
      <defs>
       <path id="md12ca88a5c" d="M 0 0 
L 0 3.5 
" style="stroke: #a9a9a9; stroke-width: 0.8"/>
      </defs>
      <g>
       <use xlink:href="#md12ca88a5c" x="116.49165" y="320.4" style="fill: #a9a9a9; stroke: #a9a9a9; stroke-width: 0.8"/>
      </g>
     </g>
     <g id="text_1">
      <!-- 2021-07 -->
      <g style="fill: #a9a9a9" transform="translate(95.600244 334.998438) scale(0.1 -0.1)">
       <defs>
        <path id="DejaVuSans-32" d="M 1228 531 
L 3431 531 
L 3431 0 
L 469 0 
L 469 531 
Q 828 903 1448 1529 
Q 2069 2156 2228 2338 
Q 2531 2678 2651 2914 
Q 2772 3150 2772 3378 
Q 2772 3750 2511 3984 
Q 2250 4219 1831 4219 
Q 1534 4219 1204 4116 
Q 875 4013 500 3803 
L 500 4441 
Q 881 4594 1212 4672 
Q 1544 4750 1819 4750 
Q 2544 4750 2975 4387 
Q 3406 4025 3406 3419 
Q 3406 3131 3298 2873 
Q 3191 2616 2906 2266 
Q 2828 2175 2409 1742 
Q 1991 1309 1228 531 
z
" transform="scale(0.015625)"/>
        <path id="DejaVuSans-30" d="M 2034 4250 
Q 1547 4250 1301 3770 
Q 1056 3291 1056 2328 
Q 1056 1369 1301 889 
Q 1547 409 2034 409 
Q 2525 409 2770 889 
Q 3016 1369 3016 2328 
Q 3016 3291 2770 3770 
Q 2525 4250 2034 4250 
z
M 2034 4750 
Q 2819 4750 3233 4129 
Q 3647 3509 3647 2328 
Q 3647 1150 3233 529 
Q 2819 -91 2034 -91 
Q 1250 -91 836 529 
Q 422 1150 422 2328 
Q 422 3509 836 4129 
Q 1250 4750 2034 4750 
z
" transform="scale(0.015625)"/>
        <path id="DejaVuSans-31" d="M 794 531 
L 1825 531 
L 1825 4091 
L 703 3866 
L 703 4441 
L 1819 4666 
L 2450 4666 
L 2450 531 
L 3481 531 
L 3481 0 
L 794 0 
L 794 531 
z
" transform="scale(0.015625)"/>
        <path id="DejaVuSans-2d" d="M 313 2009 
L 1997 2009 
L 1997 1497 
L 313 1497 
L 313 2009 
z
" transform="scale(0.015625)"/>
        <path id="DejaVuSans-37" d="M 525 4666 
L 3525 4666 
L 3525 4397 
L 1831 0 
L 1172 0 
L 2766 4134 
L 525 4134 
L 525 4666 
z
" transform="scale(0.015625)"/>
       </defs>
       <use xlink:href="#DejaVuSans-32"/>
       <use xlink:href="#DejaVuSans-30" x="63.623047"/>
       <use xlink:href="#DejaVuSans-32" x="127.246094"/>
       <use xlink:href="#DejaVuSans-31" x="190.869141"/>
       <use xlink:href="#DejaVuSans-2d" x="254.492188"/>
       <use xlink:href="#DejaVuSans-30" x="290.576172"/>
       <use xlink:href="#DejaVuSans-37" x="354.199219"/>
      </g>
     </g>
    </g>
    <g id="xtick_2">
     <g id="line2d_3">
      <path d="M 204.270504 320.4 
L 204.270504 43.2 
" clip-path="url(#pc859bf6d10)" style="fill: none; stroke-dasharray: 5.12,1.28,0.8,1.28; stroke-dashoffset: 0; stroke: #b0b0b0; stroke-width: 0.8"/>
     </g>
     <g id="line2d_4">
      <g>
       <use xlink:href="#md12ca88a5c" x="204.270504" y="320.4" style="fill: #a9a9a9; stroke: #a9a9a9; stroke-width: 0.8"/>
      </g>
     </g>
     <g id="text_2">
      <!-- 2021-10 -->
      <g style="fill: #a9a9a9" transform="translate(183.379098 334.998438) scale(0.1 -0.1)">
       <use xlink:href="#DejaVuSans-32"/>
       <use xlink:href="#DejaVuSans-30" x="63.623047"/>
       <use xlink:href="#DejaVuSans-32" x="127.246094"/>
       <use xlink:href="#DejaVuSans-31" x="190.869141"/>
       <use xlink:href="#DejaVuSans-2d" x="254.492188"/>
       <use xlink:href="#DejaVuSans-31" x="290.576172"/>
       <use xlink:href="#DejaVuSans-30" x="354.199219"/>
      </g>
     </g>
    </g>
    <g id="xtick_3">
     <g id="line2d_5">
      <path d="M 292.049359 320.4 
L 292.049359 43.2 
" clip-path="url(#pc859bf6d10)" style="fill: none; stroke-dasharray: 5.12,1.28,0.8,1.28; stroke-dashoffset: 0; stroke: #b0b0b0; stroke-width: 0.8"/>
     </g>
     <g id="line2d_6">
      <g>
       <use xlink:href="#md12ca88a5c" x="292.049359" y="320.4" style="fill: #a9a9a9; stroke: #a9a9a9; stroke-width: 0.8"/>
      </g>
     </g>
     <g id="text_3">
      <!-- 2022-01 -->
      <g style="fill: #a9a9a9" transform="translate(271.157953 334.998438) scale(0.1 -0.1)">
       <use xlink:href="#DejaVuSans-32"/>
       <use xlink:href="#DejaVuSans-30" x="63.623047"/>
       <use xlink:href="#DejaVuSans-32" x="127.246094"/>
       <use xlink:href="#DejaVuSans-32" x="190.869141"/>
       <use xlink:href="#DejaVuSans-2d" x="254.492188"/>
       <use xlink:href="#DejaVuSans-30" x="290.576172"/>
       <use xlink:href="#DejaVuSans-31" x="354.199219"/>
      </g>
     </g>
    </g>
    <g id="xtick_4">
     <g id="line2d_7">
      <path d="M 377.919977 320.4 
L 377.919977 43.2 
" clip-path="url(#pc859bf6d10)" style="fill: none; stroke-dasharray: 5.12,1.28,0.8,1.28; stroke-dashoffset: 0; stroke: #b0b0b0; stroke-width: 0.8"/>
     </g>
     <g id="line2d_8">
      <g>
       <use xlink:href="#md12ca88a5c" x="377.919977" y="320.4" style="fill: #a9a9a9; stroke: #a9a9a9; stroke-width: 0.8"/>
      </g>
     </g>
     <g id="text_4">
      <!-- 2022-04 -->
      <g style="fill: #a9a9a9" transform="translate(357.028571 334.998438) scale(0.1 -0.1)">
       <defs>
        <path id="DejaVuSans-34" d="M 2419 4116 
L 825 1625 
L 2419 1625 
L 2419 4116 
z
M 2253 4666 
L 3047 4666 
L 3047 1625 
L 3713 1625 
L 3713 1100 
L 3047 1100 
L 3047 0 
L 2419 0 
L 2419 1100 
L 313 1100 
L 313 1709 
L 2253 4666 
z
" transform="scale(0.015625)"/>
       </defs>
       <use xlink:href="#DejaVuSans-32"/>
       <use xlink:href="#DejaVuSans-30" x="63.623047"/>
       <use xlink:href="#DejaVuSans-32" x="127.246094"/>
       <use xlink:href="#DejaVuSans-32" x="190.869141"/>
       <use xlink:href="#DejaVuSans-2d" x="254.492188"/>
       <use xlink:href="#DejaVuSans-30" x="290.576172"/>
       <use xlink:href="#DejaVuSans-34" x="354.199219"/>
      </g>
     </g>
    </g>
    <g id="xtick_5">
     <g id="line2d_9">
      <path d="M 464.744714 320.4 
L 464.744714 43.2 
" clip-path="url(#pc859bf6d10)" style="fill: none; stroke-dasharray: 5.12,1.28,0.8,1.28; stroke-dashoffset: 0; stroke: #b0b0b0; stroke-width: 0.8"/>
     </g>
     <g id="line2d_10">
      <g>
       <use xlink:href="#md12ca88a5c" x="464.744714" y="320.4" style="fill: #a9a9a9; stroke: #a9a9a9; stroke-width: 0.8"/>
      </g>
     </g>
     <g id="text_5">
      <!-- 2022-07 -->
      <g style="fill: #a9a9a9" transform="translate(443.853307 334.998438) scale(0.1 -0.1)">
       <use xlink:href="#DejaVuSans-32"/>
       <use xlink:href="#DejaVuSans-30" x="63.623047"/>
       <use xlink:href="#DejaVuSans-32" x="127.246094"/>
       <use xlink:href="#DejaVuSans-32" x="190.869141"/>
       <use xlink:href="#DejaVuSans-2d" x="254.492188"/>
       <use xlink:href="#DejaVuSans-30" x="290.576172"/>
       <use xlink:href="#DejaVuSans-37" x="354.199219"/>
      </g>
     </g>
    </g>
    <g id="xtick_6">
     <g id="line2d_11">
      <path d="M 552.523568 320.4 
L 552.523568 43.2 
" clip-path="url(#pc859bf6d10)" style="fill: none; stroke-dasharray: 5.12,1.28,0.8,1.28; stroke-dashoffset: 0; stroke: #b0b0b0; stroke-width: 0.8"/>
     </g>
     <g id="line2d_12">
      <g>
       <use xlink:href="#md12ca88a5c" x="552.523568" y="320.4" style="fill: #a9a9a9; stroke: #a9a9a9; stroke-width: 0.8"/>
      </g>
     </g>
     <g id="text_6">
      <!-- 2022-10 -->
      <g style="fill: #a9a9a9" transform="translate(531.632162 334.998438) scale(0.1 -0.1)">
       <use xlink:href="#DejaVuSans-32"/>
       <use xlink:href="#DejaVuSans-30" x="63.623047"/>
       <use xlink:href="#DejaVuSans-32" x="127.246094"/>
       <use xlink:href="#DejaVuSans-32" x="190.869141"/>
       <use xlink:href="#DejaVuSans-2d" x="254.492188"/>
       <use xlink:href="#DejaVuSans-31" x="290.576172"/>
       <use xlink:href="#DejaVuSans-30" x="354.199219"/>
      </g>
     </g>
    </g>
    <g id="xtick_7">
     <g id="line2d_13">
      <path d="M 640.302422 320.4 
L 640.302422 43.2 
" clip-path="url(#pc859bf6d10)" style="fill: none; stroke-dasharray: 5.12,1.28,0.8,1.28; stroke-dashoffset: 0; stroke: #b0b0b0; stroke-width: 0.8"/>
     </g>
     <g id="line2d_14">
      <g>
       <use xlink:href="#md12ca88a5c" x="640.302422" y="320.4" style="fill: #a9a9a9; stroke: #a9a9a9; stroke-width: 0.8"/>
      </g>
     </g>
     <g id="text_7">
      <!-- 2023-01 -->
      <g style="fill: #a9a9a9" transform="translate(619.411016 334.998438) scale(0.1 -0.1)">
       <defs>
        <path id="DejaVuSans-33" d="M 2597 2516 
Q 3050 2419 3304 2112 
Q 3559 1806 3559 1356 
Q 3559 666 3084 287 
Q 2609 -91 1734 -91 
Q 1441 -91 1130 -33 
Q 819 25 488 141 
L 488 750 
Q 750 597 1062 519 
Q 1375 441 1716 441 
Q 2309 441 2620 675 
Q 2931 909 2931 1356 
Q 2931 1769 2642 2001 
Q 2353 2234 1838 2234 
L 1294 2234 
L 1294 2753 
L 1863 2753 
Q 2328 2753 2575 2939 
Q 2822 3125 2822 3475 
Q 2822 3834 2567 4026 
Q 2313 4219 1838 4219 
Q 1578 4219 1281 4162 
Q 984 4106 628 3988 
L 628 4550 
Q 988 4650 1302 4700 
Q 1616 4750 1894 4750 
Q 2613 4750 3031 4423 
Q 3450 4097 3450 3541 
Q 3450 3153 3228 2886 
Q 3006 2619 2597 2516 
z
" transform="scale(0.015625)"/>
       </defs>
       <use xlink:href="#DejaVuSans-32"/>
       <use xlink:href="#DejaVuSans-30" x="63.623047"/>
       <use xlink:href="#DejaVuSans-32" x="127.246094"/>
       <use xlink:href="#DejaVuSans-33" x="190.869141"/>
       <use xlink:href="#DejaVuSans-2d" x="254.492188"/>
       <use xlink:href="#DejaVuSans-30" x="290.576172"/>
       <use xlink:href="#DejaVuSans-31" x="354.199219"/>
      </g>
     </g>
    </g>
    <g id="xtick_8">
     <g id="line2d_15">
      <path d="M 726.173041 320.4 
L 726.173041 43.2 
" clip-path="url(#pc859bf6d10)" style="fill: none; stroke-dasharray: 5.12,1.28,0.8,1.28; stroke-dashoffset: 0; stroke: #b0b0b0; stroke-width: 0.8"/>
     </g>
     <g id="line2d_16">
      <g>
       <use xlink:href="#md12ca88a5c" x="726.173041" y="320.4" style="fill: #a9a9a9; stroke: #a9a9a9; stroke-width: 0.8"/>
      </g>
     </g>
     <g id="text_8">
      <!-- 2023-04 -->
      <g style="fill: #a9a9a9" transform="translate(705.281635 334.998438) scale(0.1 -0.1)">
       <use xlink:href="#DejaVuSans-32"/>
       <use xlink:href="#DejaVuSans-30" x="63.623047"/>
       <use xlink:href="#DejaVuSans-32" x="127.246094"/>
       <use xlink:href="#DejaVuSans-33" x="190.869141"/>
       <use xlink:href="#DejaVuSans-2d" x="254.492188"/>
       <use xlink:href="#DejaVuSans-30" x="290.576172"/>
       <use xlink:href="#DejaVuSans-34" x="354.199219"/>
      </g>
     </g>
    </g>
   </g>
   <g id="matplotlib.axis_2">
    <g id="ytick_1">
     <g id="line2d_17">
      <path d="M 108 307.859603 
L 777.6 307.859603 
" clip-path="url(#pc859bf6d10)" style="fill: none; stroke-dasharray: 5.12,1.28,0.8,1.28; stroke-dashoffset: 0; stroke: #b0b0b0; stroke-width: 0.8"/>
     </g>
     <g id="line2d_18">
      <defs>
       <path id="m7a862ecc8f" d="M 0 0 
L -3.5 0 
" style="stroke: #a9a9a9; stroke-width: 0.8"/>
      </defs>
      <g>
       <use xlink:href="#m7a862ecc8f" x="108" y="307.859603" style="fill: #a9a9a9; stroke: #a9a9a9; stroke-width: 0.8"/>
      </g>
     </g>
     <g id="text_9">
      <!-- 0 -->
      <g style="fill: #a9a9a9" transform="translate(94.6375 311.658821) scale(0.1 -0.1)">
       <use xlink:href="#DejaVuSans-30"/>
      </g>
     </g>
    </g>
    <g id="ytick_2">
     <g id="line2d_19">
      <path d="M 108 278.058278 
L 777.6 278.058278 
" clip-path="url(#pc859bf6d10)" style="fill: none; stroke-dasharray: 5.12,1.28,0.8,1.28; stroke-dashoffset: 0; stroke: #b0b0b0; stroke-width: 0.8"/>
     </g>
     <g id="line2d_20">
      <g>
       <use xlink:href="#m7a862ecc8f" x="108" y="278.058278" style="fill: #a9a9a9; stroke: #a9a9a9; stroke-width: 0.8"/>
      </g>
     </g>
     <g id="text_10">
      <!-- 500 -->
      <g style="fill: #a9a9a9" transform="translate(81.9125 281.857497) scale(0.1 -0.1)">
       <defs>
        <path id="DejaVuSans-35" d="M 691 4666 
L 3169 4666 
L 3169 4134 
L 1269 4134 
L 1269 2991 
Q 1406 3038 1543 3061 
Q 1681 3084 1819 3084 
Q 2600 3084 3056 2656 
Q 3513 2228 3513 1497 
Q 3513 744 3044 326 
Q 2575 -91 1722 -91 
Q 1428 -91 1123 -41 
Q 819 9 494 109 
L 494 744 
Q 775 591 1075 516 
Q 1375 441 1709 441 
Q 2250 441 2565 725 
Q 2881 1009 2881 1497 
Q 2881 1984 2565 2268 
Q 2250 2553 1709 2553 
Q 1456 2553 1204 2497 
Q 953 2441 691 2322 
L 691 4666 
z
" transform="scale(0.015625)"/>
       </defs>
       <use xlink:href="#DejaVuSans-35"/>
       <use xlink:href="#DejaVuSans-30" x="63.623047"/>
       <use xlink:href="#DejaVuSans-30" x="127.246094"/>
      </g>
     </g>
    </g>
    <g id="ytick_3">
     <g id="line2d_21">
      <path d="M 108 248.256954 
L 777.6 248.256954 
" clip-path="url(#pc859bf6d10)" style="fill: none; stroke-dasharray: 5.12,1.28,0.8,1.28; stroke-dashoffset: 0; stroke: #b0b0b0; stroke-width: 0.8"/>
     </g>
     <g id="line2d_22">
      <g>
       <use xlink:href="#m7a862ecc8f" x="108" y="248.256954" style="fill: #a9a9a9; stroke: #a9a9a9; stroke-width: 0.8"/>
      </g>
     </g>
     <g id="text_11">
      <!-- 1000 -->
      <g style="fill: #a9a9a9" transform="translate(75.55 252.056172) scale(0.1 -0.1)">
       <use xlink:href="#DejaVuSans-31"/>
       <use xlink:href="#DejaVuSans-30" x="63.623047"/>
       <use xlink:href="#DejaVuSans-30" x="127.246094"/>
       <use xlink:href="#DejaVuSans-30" x="190.869141"/>
      </g>
     </g>
    </g>
    <g id="ytick_4">
     <g id="line2d_23">
      <path d="M 108 218.455629 
L 777.6 218.455629 
" clip-path="url(#pc859bf6d10)" style="fill: none; stroke-dasharray: 5.12,1.28,0.8,1.28; stroke-dashoffset: 0; stroke: #b0b0b0; stroke-width: 0.8"/>
     </g>
     <g id="line2d_24">
      <g>
       <use xlink:href="#m7a862ecc8f" x="108" y="218.455629" style="fill: #a9a9a9; stroke: #a9a9a9; stroke-width: 0.8"/>
      </g>
     </g>
     <g id="text_12">
      <!-- 1500 -->
      <g style="fill: #a9a9a9" transform="translate(75.55 222.254848) scale(0.1 -0.1)">
       <use xlink:href="#DejaVuSans-31"/>
       <use xlink:href="#DejaVuSans-35" x="63.623047"/>
       <use xlink:href="#DejaVuSans-30" x="127.246094"/>
       <use xlink:href="#DejaVuSans-30" x="190.869141"/>
      </g>
     </g>
    </g>
    <g id="ytick_5">
     <g id="line2d_25">
      <path d="M 108 188.654305 
L 777.6 188.654305 
" clip-path="url(#pc859bf6d10)" style="fill: none; stroke-dasharray: 5.12,1.28,0.8,1.28; stroke-dashoffset: 0; stroke: #b0b0b0; stroke-width: 0.8"/>
     </g>
     <g id="line2d_26">
      <g>
       <use xlink:href="#m7a862ecc8f" x="108" y="188.654305" style="fill: #a9a9a9; stroke: #a9a9a9; stroke-width: 0.8"/>
      </g>
     </g>
     <g id="text_13">
      <!-- 2000 -->
      <g style="fill: #a9a9a9" transform="translate(75.55 192.453523) scale(0.1 -0.1)">
       <use xlink:href="#DejaVuSans-32"/>
       <use xlink:href="#DejaVuSans-30" x="63.623047"/>
       <use xlink:href="#DejaVuSans-30" x="127.246094"/>
       <use xlink:href="#DejaVuSans-30" x="190.869141"/>
      </g>
     </g>
    </g>
    <g id="ytick_6">
     <g id="line2d_27">
      <path d="M 108 158.85298 
L 777.6 158.85298 
" clip-path="url(#pc859bf6d10)" style="fill: none; stroke-dasharray: 5.12,1.28,0.8,1.28; stroke-dashoffset: 0; stroke: #b0b0b0; stroke-width: 0.8"/>
     </g>
     <g id="line2d_28">
      <g>
       <use xlink:href="#m7a862ecc8f" x="108" y="158.85298" style="fill: #a9a9a9; stroke: #a9a9a9; stroke-width: 0.8"/>
      </g>
     </g>
     <g id="text_14">
      <!-- 2500 -->
      <g style="fill: #a9a9a9" transform="translate(75.55 162.652199) scale(0.1 -0.1)">
       <use xlink:href="#DejaVuSans-32"/>
       <use xlink:href="#DejaVuSans-35" x="63.623047"/>
       <use xlink:href="#DejaVuSans-30" x="127.246094"/>
       <use xlink:href="#DejaVuSans-30" x="190.869141"/>
      </g>
     </g>
    </g>
    <g id="ytick_7">
     <g id="line2d_29">
      <path d="M 108 129.051656 
L 777.6 129.051656 
" clip-path="url(#pc859bf6d10)" style="fill: none; stroke-dasharray: 5.12,1.28,0.8,1.28; stroke-dashoffset: 0; stroke: #b0b0b0; stroke-width: 0.8"/>
     </g>
     <g id="line2d_30">
      <g>
       <use xlink:href="#m7a862ecc8f" x="108" y="129.051656" style="fill: #a9a9a9; stroke: #a9a9a9; stroke-width: 0.8"/>
      </g>
     </g>
     <g id="text_15">
      <!-- 3000 -->
      <g style="fill: #a9a9a9" transform="translate(75.55 132.850874) scale(0.1 -0.1)">
       <use xlink:href="#DejaVuSans-33"/>
       <use xlink:href="#DejaVuSans-30" x="63.623047"/>
       <use xlink:href="#DejaVuSans-30" x="127.246094"/>
       <use xlink:href="#DejaVuSans-30" x="190.869141"/>
      </g>
     </g>
    </g>
    <g id="ytick_8">
     <g id="line2d_31">
      <path d="M 108 99.250331 
L 777.6 99.250331 
" clip-path="url(#pc859bf6d10)" style="fill: none; stroke-dasharray: 5.12,1.28,0.8,1.28; stroke-dashoffset: 0; stroke: #b0b0b0; stroke-width: 0.8"/>
     </g>
     <g id="line2d_32">
      <g>
       <use xlink:href="#m7a862ecc8f" x="108" y="99.250331" style="fill: #a9a9a9; stroke: #a9a9a9; stroke-width: 0.8"/>
      </g>
     </g>
     <g id="text_16">
      <!-- 3500 -->
      <g style="fill: #a9a9a9" transform="translate(75.55 103.04955) scale(0.1 -0.1)">
       <use xlink:href="#DejaVuSans-33"/>
       <use xlink:href="#DejaVuSans-35" x="63.623047"/>
       <use xlink:href="#DejaVuSans-30" x="127.246094"/>
       <use xlink:href="#DejaVuSans-30" x="190.869141"/>
      </g>
     </g>
    </g>
    <g id="ytick_9">
     <g id="line2d_33">
      <path d="M 108 69.449007 
L 777.6 69.449007 
" clip-path="url(#pc859bf6d10)" style="fill: none; stroke-dasharray: 5.12,1.28,0.8,1.28; stroke-dashoffset: 0; stroke: #b0b0b0; stroke-width: 0.8"/>
     </g>
     <g id="line2d_34">
      <g>
       <use xlink:href="#m7a862ecc8f" x="108" y="69.449007" style="fill: #a9a9a9; stroke: #a9a9a9; stroke-width: 0.8"/>
      </g>
     </g>
     <g id="text_17">
      <!-- 4000 -->
      <g style="fill: #a9a9a9" transform="translate(75.55 73.248225) scale(0.1 -0.1)">
       <use xlink:href="#DejaVuSans-34"/>
       <use xlink:href="#DejaVuSans-30" x="63.623047"/>
       <use xlink:href="#DejaVuSans-30" x="127.246094"/>
       <use xlink:href="#DejaVuSans-30" x="190.869141"/>
      </g>
     </g>
    </g>
   </g>
   <g id="line2d_35">
    <path d="M 138.436364 307.621192 
L 142.252836 307.323179 
L 143.206954 307.203974 
L 144.161072 307.203974 
L 145.11519 306.846358 
L 147.023425 306.727152 
L 153.702251 305.475497 
L 155.610487 305.356291 
L 156.564605 305.177483 
L 159.426959 304.998675 
L 160.381077 304.521854 
L 161.335195 304.283444 
L 162.289313 303.210596 
L 163.243431 302.61457 
L 164.197549 300.647682 
L 165.151667 300.528477 
L 166.105785 299.872848 
L 167.059903 299.515232 
L 168.014021 299.038411 
L 170.876375 296.833113 
L 172.784611 295.998675 
L 173.738729 295.64106 
L 174.692847 294.98543 
L 176.601083 294.210596 
L 177.555201 293.733775 
L 178.509319 293.435762 
L 179.463437 292.005298 
L 180.417555 291.290066 
L 182.325791 290.336424 
L 188.050499 289.561589 
L 189.004617 289.382781 
L 190.912853 289.263576 
L 191.866971 289.084768 
L 192.821089 288.607947 
L 194.729325 288.548344 
L 195.683443 288.548344 
L 199.499915 288.131126 
L 200.454032 287.833113 
L 205.224622 286.939073 
L 207.132858 286.760265 
L 208.086976 286.521854 
L 210.94933 286.223841 
L 211.903448 285.74702 
L 212.857566 285.627815 
L 213.811684 285.270199 
L 215.71992 284.972185 
L 216.674038 284.912583 
L 217.628156 284.61457 
L 221.444628 284.078146 
L 222.398746 283.780132 
L 224.306982 283.482119 
L 225.2611 283.482119 
L 230.03169 282.886093 
L 231.939926 282.349669 
L 232.894044 282.111258 
L 234.80228 281.93245 
L 235.756398 281.872848 
L 238.618752 281.336424 
L 239.57287 281.038411 
L 240.526988 279.846358 
L 241.481106 279.488742 
L 242.435224 279.011921 
L 243.389342 278.892715 
L 244.34346 278.654305 
L 245.297578 278.535099 
L 247.205814 277.760265 
L 248.159932 277.700662 
L 252.930522 276.508609 
L 253.884639 276.508609 
L 255.792875 276.270199 
L 257.701111 275.733775 
L 260.563465 275.078146 
L 261.517583 275.018543 
L 263.425819 274.243709 
L 264.379937 274.124503 
L 265.334055 273.707285 
L 267.242291 273.528477 
L 268.196409 273.468874 
L 271.058763 272.992053 
L 272.966999 272.69404 
L 277.737589 271.8 
L 279.645825 271.144371 
L 280.599943 270.607947 
L 281.554061 270.369536 
L 282.508179 270.250331 
L 284.416415 269.654305 
L 286.324651 268.64106 
L 287.278769 268.045033 
L 288.232887 267.925828 
L 289.187005 267.627815 
L 290.141123 267.508609 
L 291.095241 267.270199 
L 292.049359 267.150993 
L 293.003477 266.733775 
L 294.911713 266.435762 
L 296.819949 265.601325 
L 297.774067 265.362914 
L 298.728185 265.243709 
L 299.682303 264.945695 
L 303.498775 264.230464 
L 305.407011 263.455629 
L 306.361129 263.276821 
L 307.315247 262.919205 
L 308.269364 262.8 
L 309.223482 262.382781 
L 310.1776 262.144371 
L 312.085836 262.025166 
L 313.994072 261.429139 
L 314.94819 261.309934 
L 315.902308 261.309934 
L 316.856426 260.892715 
L 319.71878 260.296689 
L 321.627016 260.237086 
L 322.581134 260.117881 
L 323.535252 260.117881 
L 325.443488 259.819868 
L 328.305842 258.508609 
L 329.25996 258.091391 
L 330.214078 257.85298 
L 331.168196 257.256954 
L 332.122314 256.95894 
L 334.03055 256.124503 
L 334.984668 255.945695 
L 336.892904 255.290066 
L 338.80114 254.276821 
L 339.755258 253.323179 
L 340.709376 251.892715 
L 341.663494 250.760265 
L 342.617612 250.521854 
L 343.57173 250.521854 
L 345.479966 249.210596 
L 346.434084 248.972185 
L 347.388202 248.495364 
L 348.34232 248.316556 
L 349.296438 247.482119 
L 350.250556 247.243709 
L 353.11291 245.992053 
L 354.067028 244.919205 
L 355.021146 243.548344 
L 355.975264 243.011921 
L 356.929382 241.581457 
L 357.8835 240.687417 
L 358.837618 240.270199 
L 359.791736 240.031788 
L 361.699972 238.95894 
L 362.654089 238.541722 
L 366.470561 235.919205 
L 367.424679 234.66755 
L 368.378797 232.64106 
L 369.332915 231.329801 
L 370.287033 230.674172 
L 371.241151 230.316556 
L 375.057623 227.276821 
L 376.965859 225.846358 
L 377.919977 225.071523 
L 378.874095 223.819868 
L 379.828213 222.98543 
L 382.690567 221.137748 
L 384.598803 219.945695 
L 385.552921 219.170861 
L 386.507039 218.93245 
L 389.369393 217.561589 
L 391.277629 216.548344 
L 392.231747 216.190728 
L 394.139983 214.581457 
L 395.094101 213.508609 
L 397.002337 212.316556 
L 397.956455 212.078146 
L 398.910573 211.601325 
L 399.864691 210.945695 
L 401.772927 209.992053 
L 402.727045 209.872848 
L 403.681163 209.276821 
L 405.589399 208.382781 
L 406.543517 207.488742 
L 407.497635 206.892715 
L 408.451753 206.594702 
L 409.405871 205.998675 
L 412.268225 204.74702 
L 413.222343 204.150993 
L 414.176461 203.376159 
L 416.084696 202.72053 
L 417.038814 202.362914 
L 417.992932 202.184106 
L 418.94705 201.588079 
L 419.901168 201.409272 
L 421.809404 200.753642 
L 423.71764 200.098013 
L 425.625876 199.382781 
L 426.579994 199.144371 
L 427.534112 198.786755 
L 429.442348 198.488742 
L 431.350584 196.998675 
L 432.304702 196.64106 
L 437.075292 194.376159 
L 438.02941 194.137748 
L 438.983528 193.601325 
L 439.937646 193.362914 
L 442.8 191.69404 
L 445.662354 191.098013 
L 446.616472 190.8 
L 447.57059 190.621192 
L 450.432944 189.071523 
L 451.387062 188.952318 
L 452.34118 188.594702 
L 453.295298 188.475497 
L 454.249416 188.237086 
L 457.11177 186.329801 
L 458.065888 186.150993 
L 459.020006 185.85298 
L 459.974124 185.733775 
L 460.928242 185.435762 
L 461.88236 184.780132 
L 462.836478 184.482119 
L 463.790596 184.064901 
L 467.607068 183.051656 
L 468.561186 182.992053 
L 469.515304 182.69404 
L 471.423539 181.919205 
L 472.377657 181.621192 
L 473.331775 181.442384 
L 476.194129 180.309934 
L 478.102365 179.77351 
L 479.056483 179.713907 
L 480.964719 179.296689 
L 481.918837 178.87947 
L 482.872955 178.700662 
L 484.781191 177.925828 
L 488.597663 176.137748 
L 489.551781 175.541722 
L 490.505899 175.303311 
L 493.368253 173.93245 
L 495.276489 173.515232 
L 497.184725 172.621192 
L 498.138843 172.323179 
L 500.047079 172.025166 
L 501.001197 171.369536 
L 501.955315 170.952318 
L 502.909433 170.77351 
L 504.817669 170.058278 
L 505.771787 169.87947 
L 506.725905 169.402649 
L 510.542377 168.866225 
L 512.450613 168.031788 
L 513.404731 167.316556 
L 514.358849 165.766887 
L 515.312967 165.528477 
L 517.221203 165.230464 
L 521.037675 163.442384 
L 521.991793 163.263576 
L 527.7165 160.700662 
L 528.670618 160.104636 
L 529.624736 159.74702 
L 532.48709 159.210596 
L 534.395326 158.316556 
L 535.349444 157.95894 
L 536.303562 157.839735 
L 539.165916 156.766887 
L 541.074152 155.69404 
L 542.02827 155.098013 
L 542.982388 154.680795 
L 543.936506 154.561589 
L 544.890624 154.263576 
L 545.844742 154.203974 
L 549.661214 153.011921 
L 550.615332 152.952318 
L 551.56945 152.296689 
L 552.523568 152.058278 
L 554.431804 151.343046 
L 556.34004 150.806623 
L 557.294158 150.270199 
L 558.248276 149.972185 
L 559.202394 149.376159 
L 560.156512 149.018543 
L 561.11063 148.482119 
L 563.018866 147.82649 
L 563.972984 147.528477 
L 566.835338 146.336424 
L 567.789456 145.680795 
L 568.743574 144.66755 
L 569.697692 144.071523 
L 570.65181 143.892715 
L 572.560046 142.521854 
L 573.514164 142.343046 
L 574.468282 141.031788 
L 575.4224 140.674172 
L 576.376518 140.018543 
L 577.330636 139.899338 
L 578.284753 139.303311 
L 579.238871 138.886093 
L 580.192989 138.707285 
L 581.147107 138.349669 
L 582.101225 137.634437 
L 583.055343 137.336424 
L 585.917697 135.548344 
L 589.734169 133.819868 
L 590.688287 133.700662 
L 591.642405 133.343046 
L 593.550641 132.329801 
L 594.504759 130.899338 
L 595.458877 130.005298 
L 596.412995 129.528477 
L 597.367113 129.349669 
L 599.275349 128.276821 
L 600.229467 128.098013 
L 602.137703 127.263576 
L 605.000057 126.131126 
L 606.908293 124.87947 
L 608.816529 122.972185 
L 609.770647 122.256954 
L 611.678883 121.184106 
L 612.633001 120.290066 
L 615.495355 118.144371 
L 616.449473 117.66755 
L 617.403591 116.713907 
L 618.357709 116.058278 
L 620.265945 115.402649 
L 621.220063 114.568212 
L 623.128299 113.674172 
L 624.082417 113.435762 
L 625.036535 112.780132 
L 625.990653 112.541722 
L 628.853007 111.170861 
L 629.807125 110.515232 
L 630.761243 110.038411 
L 632.669478 109.501987 
L 633.623596 108.965563 
L 636.48595 108.131126 
L 638.394186 107.594702 
L 640.302422 106.700662 
L 641.25654 105.925828 
L 643.164776 105.210596 
L 646.02713 104.197351 
L 646.981248 103.541722 
L 649.843602 102.290066 
L 650.79772 101.634437 
L 651.751838 101.157616 
L 653.660074 97.700662 
L 655.56831 95.554967 
L 656.522428 94.899338 
L 660.3389 93.349669 
L 661.293018 93.230464 
L 662.247136 92.753642 
L 663.201254 92.515232 
L 664.155372 92.157616 
L 665.10949 91.919205 
L 667.971844 90.846358 
L 669.88008 89.535099 
L 671.788316 88.819868 
L 677.513024 85.839735 
L 678.467142 84.945695 
L 680.375378 83.992053 
L 681.329496 83.515232 
L 682.283614 83.217219 
L 683.237732 82.561589 
L 684.19185 82.203974 
L 687.054203 80.654305 
L 688.008321 80.117881 
L 688.962439 79.87947 
L 689.916557 79.223841 
L 690.870675 78.866225 
L 691.824793 78.687417 
L 693.733029 77.972185 
L 695.641265 77.435762 
L 696.595383 76.95894 
L 697.549501 76.303311 
L 698.503619 76.124503 
L 701.365973 75.170861 
L 702.320091 74.455629 
L 705.182445 73.382781 
L 706.136563 73.144371 
L 708.044799 71.952318 
L 708.998917 71.594702 
L 709.953035 71.117881 
L 711.861271 69.806623 
L 713.769507 69.210596 
L 714.723625 68.435762 
L 715.677743 68.256954 
L 716.631861 67.482119 
L 718.540097 66.468874 
L 720.448333 65.69404 
L 721.402451 64.8 
L 722.356569 64.323179 
L 724.264805 63.786755 
L 725.218923 63.250331 
L 726.173041 63.131126 
L 729.035395 61.760265 
L 731.897749 60.925828 
L 732.851867 60.687417 
L 733.805985 60.627815 
L 734.760103 60.449007 
L 735.714221 60.091391 
L 736.668339 59.912583 
L 738.576575 59.197351 
L 739.530693 59.137748 
L 742.393046 58.243709 
L 744.301282 57.170861 
L 746.209518 55.8 
L 747.163636 55.8 
L 747.163636 55.8 
" clip-path="url(#pc859bf6d10)" style="fill: none; stroke: #1f77b4; stroke-width: 1.5; stroke-linecap: square"/>
   </g>
   <g id="line2d_36">
    <path d="M 139.390482 307.8 
L 141.298718 307.8 
L 143.206954 307.561589 
L 148.931661 307.501987 
L 151.794015 307.382781 
L 154.656369 307.323179 
L 156.564605 307.263576 
L 159.426959 307.263576 
L 160.381077 307.025166 
L 163.243431 306.965563 
L 168.014021 306.429139 
L 175.646965 306.011921 
L 176.601083 306.011921 
L 177.555201 305.833113 
L 180.417555 305.77351 
L 182.325791 305.535099 
L 186.142263 305.535099 
L 187.096381 305.415894 
L 191.866971 305.356291 
L 194.729325 305.237086 
L 203.316386 305.177483 
L 205.224622 305.117881 
L 209.041094 305.058278 
L 211.903448 304.939073 
L 215.71992 304.939073 
L 216.674038 304.819868 
L 219.536392 304.760265 
L 223.352864 304.581457 
L 230.03169 304.521854 
L 231.939926 304.462252 
L 235.756398 304.402649 
L 238.618752 304.045033 
L 243.389342 303.98543 
L 248.159932 303.74702 
L 252.930522 303.687417 
L 255.792875 303.568212 
L 257.701111 303.508609 
L 259.609347 303.329801 
L 263.425819 303.150993 
L 266.288173 303.091391 
L 268.196409 303.031788 
L 270.104645 303.031788 
L 271.058763 302.912583 
L 273.921117 302.912583 
L 275.829353 302.733775 
L 278.691707 302.61457 
L 283.462297 302.554967 
L 286.324651 302.256954 
L 288.232887 302.137748 
L 289.187005 301.95894 
L 293.003477 301.899338 
L 303.498775 301.303311 
L 305.407011 301.243709 
L 308.269364 301.124503 
L 309.223482 301.124503 
L 311.131718 300.945695 
L 313.039954 300.886093 
L 313.994072 300.886093 
L 314.94819 300.766887 
L 316.856426 300.707285 
L 321.627016 300.468874 
L 323.535252 300.409272 
L 326.397606 300.290066 
L 329.25996 300.230464 
L 331.168196 300.170861 
L 335.938786 300.170861 
L 339.755258 299.753642 
L 340.709376 299.753642 
L 342.617612 299.574834 
L 344.525848 299.515232 
L 349.296438 299.217219 
L 350.250556 298.978808 
L 352.158792 298.859603 
L 353.11291 298.621192 
L 355.975264 298.382781 
L 357.8835 297.965563 
L 359.791736 297.90596 
L 361.699972 297.90596 
L 362.654089 297.786755 
L 363.608207 297.786755 
L 366.470561 297.369536 
L 367.424679 297.131126 
L 384.598803 296.117881 
L 385.552921 296.117881 
L 389.369393 295.64106 
L 390.323511 295.64106 
L 392.231747 295.343046 
L 394.139983 295.164238 
L 396.048219 295.104636 
L 397.956455 295.104636 
L 398.910573 294.866225 
L 401.772927 294.74702 
L 403.681163 294.74702 
L 405.589399 294.568212 
L 406.543517 294.568212 
L 409.405871 294.150993 
L 410.359989 293.912583 
L 412.268225 293.85298 
L 414.176461 293.793377 
L 415.130579 293.674172 
L 419.901168 293.61457 
L 433.25882 292.839735 
L 435.167056 292.839735 
L 437.075292 292.660927 
L 438.983528 292.660927 
L 441.845882 292.362914 
L 445.662354 292.184106 
L 447.57059 292.124503 
L 449.478826 292.064901 
L 452.34118 292.005298 
L 459.020006 291.647682 
L 463.790596 291.588079 
L 465.698832 291.528477 
L 466.65295 291.528477 
L 467.607068 291.349669 
L 469.515304 291.290066 
L 475.240011 291.230464 
L 477.148247 291.170861 
L 481.918837 291.111258 
L 482.872955 290.93245 
L 488.597663 290.872848 
L 490.505899 290.813245 
L 492.414135 290.753642 
L 494.322371 290.69404 
L 496.230607 290.634437 
L 502.909433 290.276821 
L 508.634141 290.217219 
L 511.496495 289.978808 
L 513.404731 289.8 
L 515.312967 289.740397 
L 517.221203 289.740397 
L 518.175321 289.621192 
L 521.037675 289.561589 
L 521.991793 289.323179 
L 525.808264 289.144371 
L 534.395326 289.084768 
L 539.165916 288.727152 
L 542.02827 288.429139 
L 546.79886 288.369536 
L 549.661214 288.071523 
L 555.385922 287.77351 
L 557.294158 287.713907 
L 561.11063 287.535099 
L 564.927102 287.475497 
L 567.789456 287.356291 
L 571.605928 287.296689 
L 574.468282 286.998675 
L 576.376518 286.939073 
L 580.192989 286.87947 
L 583.055343 286.64106 
L 584.009461 286.521854 
L 584.963579 286.521854 
L 586.871815 286.343046 
L 591.642405 286.283444 
L 593.550641 285.98543 
L 602.137703 285.925828 
L 604.045939 285.74702 
L 605.000057 285.627815 
L 606.908293 285.568212 
L 608.816529 285.508609 
L 609.770647 285.270199 
L 611.678883 285.210596 
L 612.633001 285.031788 
L 614.541237 285.031788 
L 617.403591 284.733775 
L 635.531832 283.660927 
L 637.440068 283.601325 
L 639.348304 283.541722 
L 650.79772 283.482119 
L 653.660074 283.362914 
L 654.614192 283.362914 
L 655.56831 283.124503 
L 657.476546 283.064901 
L 662.247136 283.005298 
L 665.10949 282.886093 
L 669.88008 282.82649 
L 672.742434 282.707285 
L 674.65067 282.707285 
L 676.558906 282.468874 
L 678.467142 282.409272 
L 685.145968 282.051656 
L 687.054203 282.051656 
L 688.962439 281.872848 
L 695.641265 281.813245 
L 697.549501 281.634437 
L 700.411855 281.515232 
L 705.182445 281.455629 
L 707.090681 281.396026 
L 710.907153 281.336424 
L 712.815389 281.276821 
L 714.723625 281.217219 
L 716.631861 281.157616 
L 722.356569 281.098013 
L 727.127159 280.859603 
L 732.851867 280.8 
L 737.622457 280.561589 
L 742.393046 280.561589 
L 743.347164 280.382781 
L 744.301282 280.382781 
L 746.209518 280.203974 
L 747.163636 280.203974 
L 747.163636 280.203974 
" clip-path="url(#pc859bf6d10)" style="fill: none; stroke: #ff7f0e; stroke-width: 1.5; stroke-linecap: square"/>
   </g>
   <g id="patch_3">
    <path d="M 108 320.4 
L 108 43.2 
" style="fill: none; stroke: #a9a9a9; stroke-width: 0.8; stroke-linejoin: miter; stroke-linecap: square"/>
   </g>
   <g id="patch_4">
    <path d="M 777.6 320.4 
L 777.6 43.2 
" style="fill: none"/>
   </g>
   <g id="patch_5">
    <path d="M 108 320.4 
L 777.6 320.4 
" style="fill: none; stroke: #a9a9a9; stroke-width: 0.8; stroke-linejoin: miter; stroke-linecap: square"/>
   </g>
   <g id="patch_6">
    <path d="M 108 43.2 
L 777.6 43.2 
" style="fill: none"/>
   </g>
   <g id="text_18">
    <!-- get_subscribe history -->
    <g style="fill: #a9a9a9" transform="translate(378.6075 37.2) scale(0.12 -0.12)">
     <defs>
      <path id="DejaVuSans-67" d="M 2906 1791 
Q 2906 2416 2648 2759 
Q 2391 3103 1925 3103 
Q 1463 3103 1205 2759 
Q 947 2416 947 1791 
Q 947 1169 1205 825 
Q 1463 481 1925 481 
Q 2391 481 2648 825 
Q 2906 1169 2906 1791 
z
M 3481 434 
Q 3481 -459 3084 -895 
Q 2688 -1331 1869 -1331 
Q 1566 -1331 1297 -1286 
Q 1028 -1241 775 -1147 
L 775 -588 
Q 1028 -725 1275 -790 
Q 1522 -856 1778 -856 
Q 2344 -856 2625 -561 
Q 2906 -266 2906 331 
L 2906 616 
Q 2728 306 2450 153 
Q 2172 0 1784 0 
Q 1141 0 747 490 
Q 353 981 353 1791 
Q 353 2603 747 3093 
Q 1141 3584 1784 3584 
Q 2172 3584 2450 3431 
Q 2728 3278 2906 2969 
L 2906 3500 
L 3481 3500 
L 3481 434 
z
" transform="scale(0.015625)"/>
      <path id="DejaVuSans-65" d="M 3597 1894 
L 3597 1613 
L 953 1613 
Q 991 1019 1311 708 
Q 1631 397 2203 397 
Q 2534 397 2845 478 
Q 3156 559 3463 722 
L 3463 178 
Q 3153 47 2828 -22 
Q 2503 -91 2169 -91 
Q 1331 -91 842 396 
Q 353 884 353 1716 
Q 353 2575 817 3079 
Q 1281 3584 2069 3584 
Q 2775 3584 3186 3129 
Q 3597 2675 3597 1894 
z
M 3022 2063 
Q 3016 2534 2758 2815 
Q 2500 3097 2075 3097 
Q 1594 3097 1305 2825 
Q 1016 2553 972 2059 
L 3022 2063 
z
" transform="scale(0.015625)"/>
      <path id="DejaVuSans-74" d="M 1172 4494 
L 1172 3500 
L 2356 3500 
L 2356 3053 
L 1172 3053 
L 1172 1153 
Q 1172 725 1289 603 
Q 1406 481 1766 481 
L 2356 481 
L 2356 0 
L 1766 0 
Q 1100 0 847 248 
Q 594 497 594 1153 
L 594 3053 
L 172 3053 
L 172 3500 
L 594 3500 
L 594 4494 
L 1172 4494 
z
" transform="scale(0.015625)"/>
      <path id="DejaVuSans-5f" d="M 3263 -1063 
L 3263 -1509 
L -63 -1509 
L -63 -1063 
L 3263 -1063 
z
" transform="scale(0.015625)"/>
      <path id="DejaVuSans-73" d="M 2834 3397 
L 2834 2853 
Q 2591 2978 2328 3040 
Q 2066 3103 1784 3103 
Q 1356 3103 1142 2972 
Q 928 2841 928 2578 
Q 928 2378 1081 2264 
Q 1234 2150 1697 2047 
L 1894 2003 
Q 2506 1872 2764 1633 
Q 3022 1394 3022 966 
Q 3022 478 2636 193 
Q 2250 -91 1575 -91 
Q 1294 -91 989 -36 
Q 684 19 347 128 
L 347 722 
Q 666 556 975 473 
Q 1284 391 1588 391 
Q 1994 391 2212 530 
Q 2431 669 2431 922 
Q 2431 1156 2273 1281 
Q 2116 1406 1581 1522 
L 1381 1569 
Q 847 1681 609 1914 
Q 372 2147 372 2553 
Q 372 3047 722 3315 
Q 1072 3584 1716 3584 
Q 2034 3584 2315 3537 
Q 2597 3491 2834 3397 
z
" transform="scale(0.015625)"/>
      <path id="DejaVuSans-75" d="M 544 1381 
L 544 3500 
L 1119 3500 
L 1119 1403 
Q 1119 906 1312 657 
Q 1506 409 1894 409 
Q 2359 409 2629 706 
Q 2900 1003 2900 1516 
L 2900 3500 
L 3475 3500 
L 3475 0 
L 2900 0 
L 2900 538 
Q 2691 219 2414 64 
Q 2138 -91 1772 -91 
Q 1169 -91 856 284 
Q 544 659 544 1381 
z
M 1991 3584 
L 1991 3584 
z
" transform="scale(0.015625)"/>
      <path id="DejaVuSans-62" d="M 3116 1747 
Q 3116 2381 2855 2742 
Q 2594 3103 2138 3103 
Q 1681 3103 1420 2742 
Q 1159 2381 1159 1747 
Q 1159 1113 1420 752 
Q 1681 391 2138 391 
Q 2594 391 2855 752 
Q 3116 1113 3116 1747 
z
M 1159 2969 
Q 1341 3281 1617 3432 
Q 1894 3584 2278 3584 
Q 2916 3584 3314 3078 
Q 3713 2572 3713 1747 
Q 3713 922 3314 415 
Q 2916 -91 2278 -91 
Q 1894 -91 1617 61 
Q 1341 213 1159 525 
L 1159 0 
L 581 0 
L 581 4863 
L 1159 4863 
L 1159 2969 
z
" transform="scale(0.015625)"/>
      <path id="DejaVuSans-63" d="M 3122 3366 
L 3122 2828 
Q 2878 2963 2633 3030 
Q 2388 3097 2138 3097 
Q 1578 3097 1268 2742 
Q 959 2388 959 1747 
Q 959 1106 1268 751 
Q 1578 397 2138 397 
Q 2388 397 2633 464 
Q 2878 531 3122 666 
L 3122 134 
Q 2881 22 2623 -34 
Q 2366 -91 2075 -91 
Q 1284 -91 818 406 
Q 353 903 353 1747 
Q 353 2603 823 3093 
Q 1294 3584 2113 3584 
Q 2378 3584 2631 3529 
Q 2884 3475 3122 3366 
z
" transform="scale(0.015625)"/>
      <path id="DejaVuSans-72" d="M 2631 2963 
Q 2534 3019 2420 3045 
Q 2306 3072 2169 3072 
Q 1681 3072 1420 2755 
Q 1159 2438 1159 1844 
L 1159 0 
L 581 0 
L 581 3500 
L 1159 3500 
L 1159 2956 
Q 1341 3275 1631 3429 
Q 1922 3584 2338 3584 
Q 2397 3584 2469 3576 
Q 2541 3569 2628 3553 
L 2631 2963 
z
" transform="scale(0.015625)"/>
      <path id="DejaVuSans-69" d="M 603 3500 
L 1178 3500 
L 1178 0 
L 603 0 
L 603 3500 
z
M 603 4863 
L 1178 4863 
L 1178 4134 
L 603 4134 
L 603 4863 
z
" transform="scale(0.015625)"/>
      <path id="DejaVuSans-20" transform="scale(0.015625)"/>
      <path id="DejaVuSans-68" d="M 3513 2113 
L 3513 0 
L 2938 0 
L 2938 2094 
Q 2938 2591 2744 2837 
Q 2550 3084 2163 3084 
Q 1697 3084 1428 2787 
Q 1159 2491 1159 1978 
L 1159 0 
L 581 0 
L 581 4863 
L 1159 4863 
L 1159 2956 
Q 1366 3272 1645 3428 
Q 1925 3584 2291 3584 
Q 2894 3584 3203 3211 
Q 3513 2838 3513 2113 
z
" transform="scale(0.015625)"/>
      <path id="DejaVuSans-6f" d="M 1959 3097 
Q 1497 3097 1228 2736 
Q 959 2375 959 1747 
Q 959 1119 1226 758 
Q 1494 397 1959 397 
Q 2419 397 2687 759 
Q 2956 1122 2956 1747 
Q 2956 2369 2687 2733 
Q 2419 3097 1959 3097 
z
M 1959 3584 
Q 2709 3584 3137 3096 
Q 3566 2609 3566 1747 
Q 3566 888 3137 398 
Q 2709 -91 1959 -91 
Q 1206 -91 779 398 
Q 353 888 353 1747 
Q 353 2609 779 3096 
Q 1206 3584 1959 3584 
z
" transform="scale(0.015625)"/>
      <path id="DejaVuSans-79" d="M 2059 -325 
Q 1816 -950 1584 -1140 
Q 1353 -1331 966 -1331 
L 506 -1331 
L 506 -850 
L 844 -850 
Q 1081 -850 1212 -737 
Q 1344 -625 1503 -206 
L 1606 56 
L 191 3500 
L 800 3500 
L 1894 763 
L 2988 3500 
L 3597 3500 
L 2059 -325 
z
" transform="scale(0.015625)"/>
     </defs>
     <use xlink:href="#DejaVuSans-67"/>
     <use xlink:href="#DejaVuSans-65" x="63.476562"/>
     <use xlink:href="#DejaVuSans-74" x="125"/>
     <use xlink:href="#DejaVuSans-5f" x="164.208984"/>
     <use xlink:href="#DejaVuSans-73" x="214.208984"/>
     <use xlink:href="#DejaVuSans-75" x="266.308594"/>
     <use xlink:href="#DejaVuSans-62" x="329.6875"/>
     <use xlink:href="#DejaVuSans-73" x="393.164062"/>
     <use xlink:href="#DejaVuSans-63" x="445.263672"/>
     <use xlink:href="#DejaVuSans-72" x="500.244141"/>
     <use xlink:href="#DejaVuSans-69" x="541.357422"/>
     <use xlink:href="#DejaVuSans-62" x="569.140625"/>
     <use xlink:href="#DejaVuSans-65" x="632.617188"/>
     <use xlink:href="#DejaVuSans-20" x="694.140625"/>
     <use xlink:href="#DejaVuSans-68" x="725.927734"/>
     <use xlink:href="#DejaVuSans-69" x="789.306641"/>
     <use xlink:href="#DejaVuSans-73" x="817.089844"/>
     <use xlink:href="#DejaVuSans-74" x="869.189453"/>
     <use xlink:href="#DejaVuSans-6f" x="908.398438"/>
     <use xlink:href="#DejaVuSans-72" x="969.580078"/>
     <use xlink:href="#DejaVuSans-79" x="1010.693359"/>
    </g>
   </g>
   <g id="legend_1">
    <g id="line2d_37">
     <path d="M 815.08 328.498438 
L 825.08 328.498438 
L 835.08 328.498438 
" style="fill: none; stroke: #1f77b4; stroke-width: 1.5; stroke-linecap: square"/>
    </g>
    <g id="text_19">
     <!-- star -->
     <g style="fill: #a9a9a9" transform="translate(843.08 331.998438) scale(0.1 -0.1)">
      <defs>
       <path id="DejaVuSans-61" d="M 2194 1759 
Q 1497 1759 1228 1600 
Q 959 1441 959 1056 
Q 959 750 1161 570 
Q 1363 391 1709 391 
Q 2188 391 2477 730 
Q 2766 1069 2766 1631 
L 2766 1759 
L 2194 1759 
z
M 3341 1997 
L 3341 0 
L 2766 0 
L 2766 531 
Q 2569 213 2275 61 
Q 1981 -91 1556 -91 
Q 1019 -91 701 211 
Q 384 513 384 1019 
Q 384 1609 779 1909 
Q 1175 2209 1959 2209 
L 2766 2209 
L 2766 2266 
Q 2766 2663 2505 2880 
Q 2244 3097 1772 3097 
Q 1472 3097 1187 3025 
Q 903 2953 641 2809 
L 641 3341 
Q 956 3463 1253 3523 
Q 1550 3584 1831 3584 
Q 2591 3584 2966 3190 
Q 3341 2797 3341 1997 
z
" transform="scale(0.015625)"/>
      </defs>
      <use xlink:href="#DejaVuSans-73"/>
      <use xlink:href="#DejaVuSans-74" x="52.099609"/>
      <use xlink:href="#DejaVuSans-61" x="91.308594"/>
      <use xlink:href="#DejaVuSans-72" x="152.587891"/>
     </g>
    </g>
    <g id="line2d_38">
     <path d="M 815.08 343.176562 
L 825.08 343.176562 
L 835.08 343.176562 
" style="fill: none; stroke: #ff7f0e; stroke-width: 1.5; stroke-linecap: square"/>
    </g>
    <g id="text_20">
     <!-- fork -->
     <g style="fill: #a9a9a9" transform="translate(843.08 346.676562) scale(0.1 -0.1)">
      <defs>
       <path id="DejaVuSans-66" d="M 2375 4863 
L 2375 4384 
L 1825 4384 
Q 1516 4384 1395 4259 
Q 1275 4134 1275 3809 
L 1275 3500 
L 2222 3500 
L 2222 3053 
L 1275 3053 
L 1275 0 
L 697 0 
L 697 3053 
L 147 3053 
L 147 3500 
L 697 3500 
L 697 3744 
Q 697 4328 969 4595 
Q 1241 4863 1831 4863 
L 2375 4863 
z
" transform="scale(0.015625)"/>
       <path id="DejaVuSans-6b" d="M 581 4863 
L 1159 4863 
L 1159 1991 
L 2875 3500 
L 3609 3500 
L 1753 1863 
L 3688 0 
L 2938 0 
L 1159 1709 
L 1159 0 
L 581 0 
L 581 4863 
z
" transform="scale(0.015625)"/>
      </defs>
      <use xlink:href="#DejaVuSans-66"/>
      <use xlink:href="#DejaVuSans-6f" x="35.205078"/>
      <use xlink:href="#DejaVuSans-72" x="96.386719"/>
      <use xlink:href="#DejaVuSans-6b" x="137.5"/>
     </g>
    </g>
   </g>
  </g>
 </g>
 <defs>
  <clipPath id="pc859bf6d10">
   <rect x="108" y="43.2" width="669.6" height="277.2"/>
  </clipPath>
 </defs>
</svg>
