<?xml version="1.0" encoding="utf-8" standalone="no"?>
<!DOCTYPE svg PUBLIC "-//W3C//DTD SVG 1.1//EN"
  "http://www.w3.org/Graphics/SVG/1.1/DTD/svg11.dtd">
<svg xmlns:xlink="http://www.w3.org/1999/xlink" width="864pt" height="360pt" viewBox="0 0 864 360" xmlns="http://www.w3.org/2000/svg" version="1.1">
 <metadata>
  <rdf:RDF xmlns:dc="http://purl.org/dc/elements/1.1/" xmlns:cc="http://creativecommons.org/ns#" xmlns:rdf="http://www.w3.org/1999/02/22-rdf-syntax-ns#">
   <cc:Work>
    <dc:type rdf:resource="http://purl.org/dc/dcmitype/StillImage"/>
    <dc:date>2023-04-20T20:20:33.829995</dc:date>
    <dc:format>image/svg+xml</dc:format>
    <dc:creator>
     <cc:Agent>
      <dc:title>Matplotlib v3.7.1, https://matplotlib.org/</dc:title>
     </cc:Agent>
    </dc:creator>
   </cc:Work>
  </rdf:RDF>
 </metadata>
 <defs>
  <style type="text/css">*{stroke-linejoin: round; stroke-linecap: butt}</style>
 </defs>
 <g id="figure_1">
  <g id="patch_1">
   <path d="M 0 360 
L 864 360 
L 864 0 
L 0 0 
L 0 360 
z
" style="fill: none; opacity: 0"/>
  </g>
  <g id="axes_1">
   <g id="patch_2">
    <path d="M 108 320.4 
L 777.6 320.4 
L 777.6 43.2 
L 108 43.2 
L 108 320.4 
z
" style="fill: none; opacity: 0"/>
   </g>
   <g id="matplotlib.axis_1">
    <g id="xtick_1">
     <g id="line2d_1">
      <path d="M 116.387974 320.4 
L 116.387974 43.2 
" clip-path="url(#p27b540f1aa)" style="fill: none; stroke-dasharray: 5.12,1.28,0.8,1.28; stroke-dashoffset: 0; stroke: #b0b0b0; stroke-width: 0.8"/>
     </g>
     <g id="line2d_2">
      <defs>
       <path id="md23d271992" d="M 0 0 
L 0 3.5 
" style="stroke: #a9a9a9; stroke-width: 0.8"/>
      </defs>
      <g>
       <use xlink:href="#md23d271992" x="116.387974" y="320.4" style="fill: #a9a9a9; stroke: #a9a9a9; stroke-width: 0.8"/>
      </g>
     </g>
     <g id="text_1">
      <!-- 2021-07 -->
      <g style="fill: #a9a9a9" transform="translate(95.496568 334.998438) scale(0.1 -0.1)">
       <defs>
        <path id="DejaVuSans-32" d="M 1228 531 
L 3431 531 
L 3431 0 
L 469 0 
L 469 531 
Q 828 903 1448 1529 
Q 2069 2156 2228 2338 
Q 2531 2678 2651 2914 
Q 2772 3150 2772 3378 
Q 2772 3750 2511 3984 
Q 2250 4219 1831 4219 
Q 1534 4219 1204 4116 
Q 875 4013 500 3803 
L 500 4441 
Q 881 4594 1212 4672 
Q 1544 4750 1819 4750 
Q 2544 4750 2975 4387 
Q 3406 4025 3406 3419 
Q 3406 3131 3298 2873 
Q 3191 2616 2906 2266 
Q 2828 2175 2409 1742 
Q 1991 1309 1228 531 
z
" transform="scale(0.015625)"/>
        <path id="DejaVuSans-30" d="M 2034 4250 
Q 1547 4250 1301 3770 
Q 1056 3291 1056 2328 
Q 1056 1369 1301 889 
Q 1547 409 2034 409 
Q 2525 409 2770 889 
Q 3016 1369 3016 2328 
Q 3016 3291 2770 3770 
Q 2525 4250 2034 4250 
z
M 2034 4750 
Q 2819 4750 3233 4129 
Q 3647 3509 3647 2328 
Q 3647 1150 3233 529 
Q 2819 -91 2034 -91 
Q 1250 -91 836 529 
Q 422 1150 422 2328 
Q 422 3509 836 4129 
Q 1250 4750 2034 4750 
z
" transform="scale(0.015625)"/>
        <path id="DejaVuSans-31" d="M 794 531 
L 1825 531 
L 1825 4091 
L 703 3866 
L 703 4441 
L 1819 4666 
L 2450 4666 
L 2450 531 
L 3481 531 
L 3481 0 
L 794 0 
L 794 531 
z
" transform="scale(0.015625)"/>
        <path id="DejaVuSans-2d" d="M 313 2009 
L 1997 2009 
L 1997 1497 
L 313 1497 
L 313 2009 
z
" transform="scale(0.015625)"/>
        <path id="DejaVuSans-37" d="M 525 4666 
L 3525 4666 
L 3525 4397 
L 1831 0 
L 1172 0 
L 2766 4134 
L 525 4134 
L 525 4666 
z
" transform="scale(0.015625)"/>
       </defs>
       <use xlink:href="#DejaVuSans-32"/>
       <use xlink:href="#DejaVuSans-30" x="63.623047"/>
       <use xlink:href="#DejaVuSans-32" x="127.246094"/>
       <use xlink:href="#DejaVuSans-31" x="190.869141"/>
       <use xlink:href="#DejaVuSans-2d" x="254.492188"/>
       <use xlink:href="#DejaVuSans-30" x="290.576172"/>
       <use xlink:href="#DejaVuSans-37" x="354.199219"/>
      </g>
     </g>
    </g>
    <g id="xtick_2">
     <g id="line2d_3">
      <path d="M 175.822763 320.4 
L 175.822763 43.2 
" clip-path="url(#p27b540f1aa)" style="fill: none; stroke-dasharray: 5.12,1.28,0.8,1.28; stroke-dashoffset: 0; stroke: #b0b0b0; stroke-width: 0.8"/>
     </g>
     <g id="line2d_4">
      <g>
       <use xlink:href="#md23d271992" x="175.822763" y="320.4" style="fill: #a9a9a9; stroke: #a9a9a9; stroke-width: 0.8"/>
      </g>
     </g>
     <g id="text_2">
      <!-- 2021-09 -->
      <g style="fill: #a9a9a9" transform="translate(154.931357 334.998438) scale(0.1 -0.1)">
       <defs>
        <path id="DejaVuSans-39" d="M 703 97 
L 703 672 
Q 941 559 1184 500 
Q 1428 441 1663 441 
Q 2288 441 2617 861 
Q 2947 1281 2994 2138 
Q 2813 1869 2534 1725 
Q 2256 1581 1919 1581 
Q 1219 1581 811 2004 
Q 403 2428 403 3163 
Q 403 3881 828 4315 
Q 1253 4750 1959 4750 
Q 2769 4750 3195 4129 
Q 3622 3509 3622 2328 
Q 3622 1225 3098 567 
Q 2575 -91 1691 -91 
Q 1453 -91 1209 -44 
Q 966 3 703 97 
z
M 1959 2075 
Q 2384 2075 2632 2365 
Q 2881 2656 2881 3163 
Q 2881 3666 2632 3958 
Q 2384 4250 1959 4250 
Q 1534 4250 1286 3958 
Q 1038 3666 1038 3163 
Q 1038 2656 1286 2365 
Q 1534 2075 1959 2075 
z
" transform="scale(0.015625)"/>
       </defs>
       <use xlink:href="#DejaVuSans-32"/>
       <use xlink:href="#DejaVuSans-30" x="63.623047"/>
       <use xlink:href="#DejaVuSans-32" x="127.246094"/>
       <use xlink:href="#DejaVuSans-31" x="190.869141"/>
       <use xlink:href="#DejaVuSans-2d" x="254.492188"/>
       <use xlink:href="#DejaVuSans-30" x="290.576172"/>
       <use xlink:href="#DejaVuSans-39" x="354.199219"/>
      </g>
     </g>
    </g>
    <g id="xtick_3">
     <g id="line2d_5">
      <path d="M 234.298926 320.4 
L 234.298926 43.2 
" clip-path="url(#p27b540f1aa)" style="fill: none; stroke-dasharray: 5.12,1.28,0.8,1.28; stroke-dashoffset: 0; stroke: #b0b0b0; stroke-width: 0.8"/>
     </g>
     <g id="line2d_6">
      <g>
       <use xlink:href="#md23d271992" x="234.298926" y="320.4" style="fill: #a9a9a9; stroke: #a9a9a9; stroke-width: 0.8"/>
      </g>
     </g>
     <g id="text_3">
      <!-- 2021-11 -->
      <g style="fill: #a9a9a9" transform="translate(213.40752 334.998438) scale(0.1 -0.1)">
       <use xlink:href="#DejaVuSans-32"/>
       <use xlink:href="#DejaVuSans-30" x="63.623047"/>
       <use xlink:href="#DejaVuSans-32" x="127.246094"/>
       <use xlink:href="#DejaVuSans-31" x="190.869141"/>
       <use xlink:href="#DejaVuSans-2d" x="254.492188"/>
       <use xlink:href="#DejaVuSans-31" x="290.576172"/>
       <use xlink:href="#DejaVuSans-31" x="354.199219"/>
      </g>
     </g>
    </g>
    <g id="xtick_4">
     <g id="line2d_7">
      <path d="M 292.775089 320.4 
L 292.775089 43.2 
" clip-path="url(#p27b540f1aa)" style="fill: none; stroke-dasharray: 5.12,1.28,0.8,1.28; stroke-dashoffset: 0; stroke: #b0b0b0; stroke-width: 0.8"/>
     </g>
     <g id="line2d_8">
      <g>
       <use xlink:href="#md23d271992" x="292.775089" y="320.4" style="fill: #a9a9a9; stroke: #a9a9a9; stroke-width: 0.8"/>
      </g>
     </g>
     <g id="text_4">
      <!-- 2022-01 -->
      <g style="fill: #a9a9a9" transform="translate(271.883683 334.998438) scale(0.1 -0.1)">
       <use xlink:href="#DejaVuSans-32"/>
       <use xlink:href="#DejaVuSans-30" x="63.623047"/>
       <use xlink:href="#DejaVuSans-32" x="127.246094"/>
       <use xlink:href="#DejaVuSans-32" x="190.869141"/>
       <use xlink:href="#DejaVuSans-2d" x="254.492188"/>
       <use xlink:href="#DejaVuSans-30" x="290.576172"/>
       <use xlink:href="#DejaVuSans-31" x="354.199219"/>
      </g>
     </g>
    </g>
    <g id="xtick_5">
     <g id="line2d_9">
      <path d="M 349.334001 320.4 
L 349.334001 43.2 
" clip-path="url(#p27b540f1aa)" style="fill: none; stroke-dasharray: 5.12,1.28,0.8,1.28; stroke-dashoffset: 0; stroke: #b0b0b0; stroke-width: 0.8"/>
     </g>
     <g id="line2d_10">
      <g>
       <use xlink:href="#md23d271992" x="349.334001" y="320.4" style="fill: #a9a9a9; stroke: #a9a9a9; stroke-width: 0.8"/>
      </g>
     </g>
     <g id="text_5">
      <!-- 2022-03 -->
      <g style="fill: #a9a9a9" transform="translate(328.442595 334.998438) scale(0.1 -0.1)">
       <defs>
        <path id="DejaVuSans-33" d="M 2597 2516 
Q 3050 2419 3304 2112 
Q 3559 1806 3559 1356 
Q 3559 666 3084 287 
Q 2609 -91 1734 -91 
Q 1441 -91 1130 -33 
Q 819 25 488 141 
L 488 750 
Q 750 597 1062 519 
Q 1375 441 1716 441 
Q 2309 441 2620 675 
Q 2931 909 2931 1356 
Q 2931 1769 2642 2001 
Q 2353 2234 1838 2234 
L 1294 2234 
L 1294 2753 
L 1863 2753 
Q 2328 2753 2575 2939 
Q 2822 3125 2822 3475 
Q 2822 3834 2567 4026 
Q 2313 4219 1838 4219 
Q 1578 4219 1281 4162 
Q 984 4106 628 3988 
L 628 4550 
Q 988 4650 1302 4700 
Q 1616 4750 1894 4750 
Q 2613 4750 3031 4423 
Q 3450 4097 3450 3541 
Q 3450 3153 3228 2886 
Q 3006 2619 2597 2516 
z
" transform="scale(0.015625)"/>
       </defs>
       <use xlink:href="#DejaVuSans-32"/>
       <use xlink:href="#DejaVuSans-30" x="63.623047"/>
       <use xlink:href="#DejaVuSans-32" x="127.246094"/>
       <use xlink:href="#DejaVuSans-32" x="190.869141"/>
       <use xlink:href="#DejaVuSans-2d" x="254.492188"/>
       <use xlink:href="#DejaVuSans-30" x="290.576172"/>
       <use xlink:href="#DejaVuSans-33" x="354.199219"/>
      </g>
     </g>
    </g>
    <g id="xtick_6">
     <g id="line2d_11">
      <path d="M 407.810165 320.4 
L 407.810165 43.2 
" clip-path="url(#p27b540f1aa)" style="fill: none; stroke-dasharray: 5.12,1.28,0.8,1.28; stroke-dashoffset: 0; stroke: #b0b0b0; stroke-width: 0.8"/>
     </g>
     <g id="line2d_12">
      <g>
       <use xlink:href="#md23d271992" x="407.810165" y="320.4" style="fill: #a9a9a9; stroke: #a9a9a9; stroke-width: 0.8"/>
      </g>
     </g>
     <g id="text_6">
      <!-- 2022-05 -->
      <g style="fill: #a9a9a9" transform="translate(386.918758 334.998438) scale(0.1 -0.1)">
       <defs>
        <path id="DejaVuSans-35" d="M 691 4666 
L 3169 4666 
L 3169 4134 
L 1269 4134 
L 1269 2991 
Q 1406 3038 1543 3061 
Q 1681 3084 1819 3084 
Q 2600 3084 3056 2656 
Q 3513 2228 3513 1497 
Q 3513 744 3044 326 
Q 2575 -91 1722 -91 
Q 1428 -91 1123 -41 
Q 819 9 494 109 
L 494 744 
Q 775 591 1075 516 
Q 1375 441 1709 441 
Q 2250 441 2565 725 
Q 2881 1009 2881 1497 
Q 2881 1984 2565 2268 
Q 2250 2553 1709 2553 
Q 1456 2553 1204 2497 
Q 953 2441 691 2322 
L 691 4666 
z
" transform="scale(0.015625)"/>
       </defs>
       <use xlink:href="#DejaVuSans-32"/>
       <use xlink:href="#DejaVuSans-30" x="63.623047"/>
       <use xlink:href="#DejaVuSans-32" x="127.246094"/>
       <use xlink:href="#DejaVuSans-32" x="190.869141"/>
       <use xlink:href="#DejaVuSans-2d" x="254.492188"/>
       <use xlink:href="#DejaVuSans-30" x="290.576172"/>
       <use xlink:href="#DejaVuSans-35" x="354.199219"/>
      </g>
     </g>
    </g>
    <g id="xtick_7">
     <g id="line2d_13">
      <path d="M 466.286328 320.4 
L 466.286328 43.2 
" clip-path="url(#p27b540f1aa)" style="fill: none; stroke-dasharray: 5.12,1.28,0.8,1.28; stroke-dashoffset: 0; stroke: #b0b0b0; stroke-width: 0.8"/>
     </g>
     <g id="line2d_14">
      <g>
       <use xlink:href="#md23d271992" x="466.286328" y="320.4" style="fill: #a9a9a9; stroke: #a9a9a9; stroke-width: 0.8"/>
      </g>
     </g>
     <g id="text_7">
      <!-- 2022-07 -->
      <g style="fill: #a9a9a9" transform="translate(445.394922 334.998438) scale(0.1 -0.1)">
       <use xlink:href="#DejaVuSans-32"/>
       <use xlink:href="#DejaVuSans-30" x="63.623047"/>
       <use xlink:href="#DejaVuSans-32" x="127.246094"/>
       <use xlink:href="#DejaVuSans-32" x="190.869141"/>
       <use xlink:href="#DejaVuSans-2d" x="254.492188"/>
       <use xlink:href="#DejaVuSans-30" x="290.576172"/>
       <use xlink:href="#DejaVuSans-37" x="354.199219"/>
      </g>
     </g>
    </g>
    <g id="xtick_8">
     <g id="line2d_15">
      <path d="M 525.721117 320.4 
L 525.721117 43.2 
" clip-path="url(#p27b540f1aa)" style="fill: none; stroke-dasharray: 5.12,1.28,0.8,1.28; stroke-dashoffset: 0; stroke: #b0b0b0; stroke-width: 0.8"/>
     </g>
     <g id="line2d_16">
      <g>
       <use xlink:href="#md23d271992" x="525.721117" y="320.4" style="fill: #a9a9a9; stroke: #a9a9a9; stroke-width: 0.8"/>
      </g>
     </g>
     <g id="text_8">
      <!-- 2022-09 -->
      <g style="fill: #a9a9a9" transform="translate(504.82971 334.998438) scale(0.1 -0.1)">
       <use xlink:href="#DejaVuSans-32"/>
       <use xlink:href="#DejaVuSans-30" x="63.623047"/>
       <use xlink:href="#DejaVuSans-32" x="127.246094"/>
       <use xlink:href="#DejaVuSans-32" x="190.869141"/>
       <use xlink:href="#DejaVuSans-2d" x="254.492188"/>
       <use xlink:href="#DejaVuSans-30" x="290.576172"/>
       <use xlink:href="#DejaVuSans-39" x="354.199219"/>
      </g>
     </g>
    </g>
    <g id="xtick_9">
     <g id="line2d_17">
      <path d="M 584.19728 320.4 
L 584.19728 43.2 
" clip-path="url(#p27b540f1aa)" style="fill: none; stroke-dasharray: 5.12,1.28,0.8,1.28; stroke-dashoffset: 0; stroke: #b0b0b0; stroke-width: 0.8"/>
     </g>
     <g id="line2d_18">
      <g>
       <use xlink:href="#md23d271992" x="584.19728" y="320.4" style="fill: #a9a9a9; stroke: #a9a9a9; stroke-width: 0.8"/>
      </g>
     </g>
     <g id="text_9">
      <!-- 2022-11 -->
      <g style="fill: #a9a9a9" transform="translate(563.305874 334.998438) scale(0.1 -0.1)">
       <use xlink:href="#DejaVuSans-32"/>
       <use xlink:href="#DejaVuSans-30" x="63.623047"/>
       <use xlink:href="#DejaVuSans-32" x="127.246094"/>
       <use xlink:href="#DejaVuSans-32" x="190.869141"/>
       <use xlink:href="#DejaVuSans-2d" x="254.492188"/>
       <use xlink:href="#DejaVuSans-31" x="290.576172"/>
       <use xlink:href="#DejaVuSans-31" x="354.199219"/>
      </g>
     </g>
    </g>
    <g id="xtick_10">
     <g id="line2d_19">
      <path d="M 642.673443 320.4 
L 642.673443 43.2 
" clip-path="url(#p27b540f1aa)" style="fill: none; stroke-dasharray: 5.12,1.28,0.8,1.28; stroke-dashoffset: 0; stroke: #b0b0b0; stroke-width: 0.8"/>
     </g>
     <g id="line2d_20">
      <g>
       <use xlink:href="#md23d271992" x="642.673443" y="320.4" style="fill: #a9a9a9; stroke: #a9a9a9; stroke-width: 0.8"/>
      </g>
     </g>
     <g id="text_10">
      <!-- 2023-01 -->
      <g style="fill: #a9a9a9" transform="translate(621.782037 334.998438) scale(0.1 -0.1)">
       <use xlink:href="#DejaVuSans-32"/>
       <use xlink:href="#DejaVuSans-30" x="63.623047"/>
       <use xlink:href="#DejaVuSans-32" x="127.246094"/>
       <use xlink:href="#DejaVuSans-33" x="190.869141"/>
       <use xlink:href="#DejaVuSans-2d" x="254.492188"/>
       <use xlink:href="#DejaVuSans-30" x="290.576172"/>
       <use xlink:href="#DejaVuSans-31" x="354.199219"/>
      </g>
     </g>
    </g>
    <g id="xtick_11">
     <g id="line2d_21">
      <path d="M 699.232355 320.4 
L 699.232355 43.2 
" clip-path="url(#p27b540f1aa)" style="fill: none; stroke-dasharray: 5.12,1.28,0.8,1.28; stroke-dashoffset: 0; stroke: #b0b0b0; stroke-width: 0.8"/>
     </g>
     <g id="line2d_22">
      <g>
       <use xlink:href="#md23d271992" x="699.232355" y="320.4" style="fill: #a9a9a9; stroke: #a9a9a9; stroke-width: 0.8"/>
      </g>
     </g>
     <g id="text_11">
      <!-- 2023-03 -->
      <g style="fill: #a9a9a9" transform="translate(678.340949 334.998438) scale(0.1 -0.1)">
       <use xlink:href="#DejaVuSans-32"/>
       <use xlink:href="#DejaVuSans-30" x="63.623047"/>
       <use xlink:href="#DejaVuSans-32" x="127.246094"/>
       <use xlink:href="#DejaVuSans-33" x="190.869141"/>
       <use xlink:href="#DejaVuSans-2d" x="254.492188"/>
       <use xlink:href="#DejaVuSans-30" x="290.576172"/>
       <use xlink:href="#DejaVuSans-33" x="354.199219"/>
      </g>
     </g>
    </g>
    <g id="xtick_12">
     <g id="line2d_23">
      <path d="M 757.708518 320.4 
L 757.708518 43.2 
" clip-path="url(#p27b540f1aa)" style="fill: none; stroke-dasharray: 5.12,1.28,0.8,1.28; stroke-dashoffset: 0; stroke: #b0b0b0; stroke-width: 0.8"/>
     </g>
     <g id="line2d_24">
      <g>
       <use xlink:href="#md23d271992" x="757.708518" y="320.4" style="fill: #a9a9a9; stroke: #a9a9a9; stroke-width: 0.8"/>
      </g>
     </g>
     <g id="text_12">
      <!-- 2023-05 -->
      <g style="fill: #a9a9a9" transform="translate(736.817112 334.998438) scale(0.1 -0.1)">
       <use xlink:href="#DejaVuSans-32"/>
       <use xlink:href="#DejaVuSans-30" x="63.623047"/>
       <use xlink:href="#DejaVuSans-32" x="127.246094"/>
       <use xlink:href="#DejaVuSans-33" x="190.869141"/>
       <use xlink:href="#DejaVuSans-2d" x="254.492188"/>
       <use xlink:href="#DejaVuSans-30" x="290.576172"/>
       <use xlink:href="#DejaVuSans-35" x="354.199219"/>
      </g>
     </g>
    </g>
   </g>
   <g id="matplotlib.axis_2">
    <g id="ytick_1">
     <g id="line2d_25">
      <path d="M 108 307.859943 
L 777.6 307.859943 
" clip-path="url(#p27b540f1aa)" style="fill: none; stroke-dasharray: 5.12,1.28,0.8,1.28; stroke-dashoffset: 0; stroke: #b0b0b0; stroke-width: 0.8"/>
     </g>
     <g id="line2d_26">
      <defs>
       <path id="mfbc972eb1c" d="M 0 0 
L -3.5 0 
" style="stroke: #a9a9a9; stroke-width: 0.8"/>
      </defs>
      <g>
       <use xlink:href="#mfbc972eb1c" x="108" y="307.859943" style="fill: #a9a9a9; stroke: #a9a9a9; stroke-width: 0.8"/>
      </g>
     </g>
     <g id="text_13">
      <!-- 0 -->
      <g style="fill: #a9a9a9" transform="translate(94.6375 311.659162) scale(0.1 -0.1)">
       <use xlink:href="#DejaVuSans-30"/>
      </g>
     </g>
    </g>
    <g id="ytick_2">
     <g id="line2d_27">
      <path d="M 108 277.888487 
L 777.6 277.888487 
" clip-path="url(#p27b540f1aa)" style="fill: none; stroke-dasharray: 5.12,1.28,0.8,1.28; stroke-dashoffset: 0; stroke: #b0b0b0; stroke-width: 0.8"/>
     </g>
     <g id="line2d_28">
      <g>
       <use xlink:href="#mfbc972eb1c" x="108" y="277.888487" style="fill: #a9a9a9; stroke: #a9a9a9; stroke-width: 0.8"/>
      </g>
     </g>
     <g id="text_14">
      <!-- 500 -->
      <g style="fill: #a9a9a9" transform="translate(81.9125 281.687706) scale(0.1 -0.1)">
       <use xlink:href="#DejaVuSans-35"/>
       <use xlink:href="#DejaVuSans-30" x="63.623047"/>
       <use xlink:href="#DejaVuSans-30" x="127.246094"/>
      </g>
     </g>
    </g>
    <g id="ytick_3">
     <g id="line2d_29">
      <path d="M 108 247.917031 
L 777.6 247.917031 
" clip-path="url(#p27b540f1aa)" style="fill: none; stroke-dasharray: 5.12,1.28,0.8,1.28; stroke-dashoffset: 0; stroke: #b0b0b0; stroke-width: 0.8"/>
     </g>
     <g id="line2d_30">
      <g>
       <use xlink:href="#mfbc972eb1c" x="108" y="247.917031" style="fill: #a9a9a9; stroke: #a9a9a9; stroke-width: 0.8"/>
      </g>
     </g>
     <g id="text_15">
      <!-- 1000 -->
      <g style="fill: #a9a9a9" transform="translate(75.55 251.71625) scale(0.1 -0.1)">
       <use xlink:href="#DejaVuSans-31"/>
       <use xlink:href="#DejaVuSans-30" x="63.623047"/>
       <use xlink:href="#DejaVuSans-30" x="127.246094"/>
       <use xlink:href="#DejaVuSans-30" x="190.869141"/>
      </g>
     </g>
    </g>
    <g id="ytick_4">
     <g id="line2d_31">
      <path d="M 108 217.945576 
L 777.6 217.945576 
" clip-path="url(#p27b540f1aa)" style="fill: none; stroke-dasharray: 5.12,1.28,0.8,1.28; stroke-dashoffset: 0; stroke: #b0b0b0; stroke-width: 0.8"/>
     </g>
     <g id="line2d_32">
      <g>
       <use xlink:href="#mfbc972eb1c" x="108" y="217.945576" style="fill: #a9a9a9; stroke: #a9a9a9; stroke-width: 0.8"/>
      </g>
     </g>
     <g id="text_16">
      <!-- 1500 -->
      <g style="fill: #a9a9a9" transform="translate(75.55 221.744794) scale(0.1 -0.1)">
       <use xlink:href="#DejaVuSans-31"/>
       <use xlink:href="#DejaVuSans-35" x="63.623047"/>
       <use xlink:href="#DejaVuSans-30" x="127.246094"/>
       <use xlink:href="#DejaVuSans-30" x="190.869141"/>
      </g>
     </g>
    </g>
    <g id="ytick_5">
     <g id="line2d_33">
      <path d="M 108 187.97412 
L 777.6 187.97412 
" clip-path="url(#p27b540f1aa)" style="fill: none; stroke-dasharray: 5.12,1.28,0.8,1.28; stroke-dashoffset: 0; stroke: #b0b0b0; stroke-width: 0.8"/>
     </g>
     <g id="line2d_34">
      <g>
       <use xlink:href="#mfbc972eb1c" x="108" y="187.97412" style="fill: #a9a9a9; stroke: #a9a9a9; stroke-width: 0.8"/>
      </g>
     </g>
     <g id="text_17">
      <!-- 2000 -->
      <g style="fill: #a9a9a9" transform="translate(75.55 191.773339) scale(0.1 -0.1)">
       <use xlink:href="#DejaVuSans-32"/>
       <use xlink:href="#DejaVuSans-30" x="63.623047"/>
       <use xlink:href="#DejaVuSans-30" x="127.246094"/>
       <use xlink:href="#DejaVuSans-30" x="190.869141"/>
      </g>
     </g>
    </g>
    <g id="ytick_6">
     <g id="line2d_35">
      <path d="M 108 158.002664 
L 777.6 158.002664 
" clip-path="url(#p27b540f1aa)" style="fill: none; stroke-dasharray: 5.12,1.28,0.8,1.28; stroke-dashoffset: 0; stroke: #b0b0b0; stroke-width: 0.8"/>
     </g>
     <g id="line2d_36">
      <g>
       <use xlink:href="#mfbc972eb1c" x="108" y="158.002664" style="fill: #a9a9a9; stroke: #a9a9a9; stroke-width: 0.8"/>
      </g>
     </g>
     <g id="text_18">
      <!-- 2500 -->
      <g style="fill: #a9a9a9" transform="translate(75.55 161.801883) scale(0.1 -0.1)">
       <use xlink:href="#DejaVuSans-32"/>
       <use xlink:href="#DejaVuSans-35" x="63.623047"/>
       <use xlink:href="#DejaVuSans-30" x="127.246094"/>
       <use xlink:href="#DejaVuSans-30" x="190.869141"/>
      </g>
     </g>
    </g>
    <g id="ytick_7">
     <g id="line2d_37">
      <path d="M 108 128.031208 
L 777.6 128.031208 
" clip-path="url(#p27b540f1aa)" style="fill: none; stroke-dasharray: 5.12,1.28,0.8,1.28; stroke-dashoffset: 0; stroke: #b0b0b0; stroke-width: 0.8"/>
     </g>
     <g id="line2d_38">
      <g>
       <use xlink:href="#mfbc972eb1c" x="108" y="128.031208" style="fill: #a9a9a9; stroke: #a9a9a9; stroke-width: 0.8"/>
      </g>
     </g>
     <g id="text_19">
      <!-- 3000 -->
      <g style="fill: #a9a9a9" transform="translate(75.55 131.830427) scale(0.1 -0.1)">
       <use xlink:href="#DejaVuSans-33"/>
       <use xlink:href="#DejaVuSans-30" x="63.623047"/>
       <use xlink:href="#DejaVuSans-30" x="127.246094"/>
       <use xlink:href="#DejaVuSans-30" x="190.869141"/>
      </g>
     </g>
    </g>
    <g id="ytick_8">
     <g id="line2d_39">
      <path d="M 108 98.059753 
L 777.6 98.059753 
" clip-path="url(#p27b540f1aa)" style="fill: none; stroke-dasharray: 5.12,1.28,0.8,1.28; stroke-dashoffset: 0; stroke: #b0b0b0; stroke-width: 0.8"/>
     </g>
     <g id="line2d_40">
      <g>
       <use xlink:href="#mfbc972eb1c" x="108" y="98.059753" style="fill: #a9a9a9; stroke: #a9a9a9; stroke-width: 0.8"/>
      </g>
     </g>
     <g id="text_20">
      <!-- 3500 -->
      <g style="fill: #a9a9a9" transform="translate(75.55 101.858971) scale(0.1 -0.1)">
       <use xlink:href="#DejaVuSans-33"/>
       <use xlink:href="#DejaVuSans-35" x="63.623047"/>
       <use xlink:href="#DejaVuSans-30" x="127.246094"/>
       <use xlink:href="#DejaVuSans-30" x="190.869141"/>
      </g>
     </g>
    </g>
    <g id="ytick_9">
     <g id="line2d_41">
      <path d="M 108 68.088297 
L 777.6 68.088297 
" clip-path="url(#p27b540f1aa)" style="fill: none; stroke-dasharray: 5.12,1.28,0.8,1.28; stroke-dashoffset: 0; stroke: #b0b0b0; stroke-width: 0.8"/>
     </g>
     <g id="line2d_42">
      <g>
       <use xlink:href="#mfbc972eb1c" x="108" y="68.088297" style="fill: #a9a9a9; stroke: #a9a9a9; stroke-width: 0.8"/>
      </g>
     </g>
     <g id="text_21">
      <!-- 4000 -->
      <g style="fill: #a9a9a9" transform="translate(75.55 71.887516) scale(0.1 -0.1)">
       <defs>
        <path id="DejaVuSans-34" d="M 2419 4116 
L 825 1625 
L 2419 1625 
L 2419 4116 
z
M 2253 4666 
L 3047 4666 
L 3047 1625 
L 3713 1625 
L 3713 1100 
L 3047 1100 
L 3047 0 
L 2419 0 
L 2419 1100 
L 313 1100 
L 313 1709 
L 2253 4666 
z
" transform="scale(0.015625)"/>
       </defs>
       <use xlink:href="#DejaVuSans-34"/>
       <use xlink:href="#DejaVuSans-30" x="63.623047"/>
       <use xlink:href="#DejaVuSans-30" x="127.246094"/>
       <use xlink:href="#DejaVuSans-30" x="190.869141"/>
      </g>
     </g>
    </g>
   </g>
   <g id="line2d_43">
    <path d="M 138.436364 307.620171 
L 142.270866 307.320457 
L 143.229492 307.200571 
L 144.188117 307.200571 
L 145.146743 306.840913 
L 147.063994 306.721028 
L 153.774374 305.462226 
L 155.691625 305.342341 
L 156.650251 305.162512 
L 159.526127 304.982683 
L 160.484753 304.50314 
L 161.443379 304.263368 
L 162.402004 303.184396 
L 163.36063 302.584967 
L 164.319256 300.606851 
L 165.277881 300.486965 
L 166.236507 299.827593 
L 167.195132 299.467935 
L 168.153758 298.988392 
L 171.029635 296.770504 
L 172.946886 295.931304 
L 173.905512 295.571646 
L 174.864137 294.912274 
L 176.781389 294.133016 
L 177.740014 293.653473 
L 178.69864 293.353758 
L 179.657266 291.915128 
L 180.615891 291.195814 
L 182.533142 290.236727 
L 188.284896 289.457469 
L 189.243522 289.27764 
L 191.160773 289.157755 
L 192.119399 288.977926 
L 193.078024 288.498382 
L 194.995276 288.43844 
L 195.953901 288.43844 
L 199.788404 288.018839 
L 200.747029 287.719125 
L 205.540157 286.819981 
L 207.457409 286.640152 
L 208.416034 286.400381 
L 211.291911 286.100666 
L 212.250537 285.621123 
L 213.209162 285.501237 
L 214.167788 285.141579 
L 215.126414 284.901808 
L 217.043665 284.721979 
L 218.002291 284.422265 
L 221.836793 283.882778 
L 222.795419 283.583064 
L 224.71267 283.283349 
L 225.671296 283.283349 
L 230.464424 282.68392 
L 232.381675 282.144434 
L 233.340301 281.904662 
L 235.257552 281.724833 
L 236.216178 281.664891 
L 239.092054 281.125404 
L 240.05068 280.82569 
L 241.009306 279.626832 
L 241.967931 279.267174 
L 242.926557 278.787631 
L 243.885183 278.667745 
L 244.843808 278.427973 
L 245.802434 278.308088 
L 247.719685 277.52883 
L 248.678311 277.468887 
L 253.471439 276.270029 
L 254.430064 276.270029 
L 256.347316 276.030257 
L 258.264567 275.490771 
L 261.140444 274.831399 
L 262.099069 274.771456 
L 264.016321 273.992198 
L 264.974946 273.872312 
L 265.933572 273.452712 
L 267.850823 273.272883 
L 268.809449 273.21294 
L 271.685326 272.733397 
L 273.602577 272.433682 
L 278.395705 271.534539 
L 280.312956 270.875167 
L 281.271582 270.33568 
L 282.230208 270.095909 
L 283.188833 269.976023 
L 285.106084 269.376594 
L 287.023336 268.357564 
L 287.981961 267.758135 
L 288.940587 267.638249 
L 289.899213 267.338535 
L 290.857838 267.218649 
L 291.816464 266.978877 
L 292.775089 266.858991 
L 293.733715 266.439391 
L 295.650966 266.139676 
L 297.568218 265.300476 
L 298.526843 265.060704 
L 299.485469 264.940818 
L 300.444094 264.641104 
L 304.278597 263.921789 
L 306.195848 263.142531 
L 307.154474 262.962702 
L 308.113099 262.603045 
L 309.071725 262.483159 
L 310.030351 262.063559 
L 310.988976 261.823787 
L 312.906228 261.703901 
L 314.823479 261.104472 
L 315.782105 260.984586 
L 316.74073 260.984586 
L 317.699356 260.564986 
L 320.575233 259.965557 
L 322.492484 259.905614 
L 323.45111 259.785728 
L 324.409735 259.785728 
L 326.326986 259.486013 
L 329.202863 258.167269 
L 330.161489 257.747669 
L 331.120115 257.507897 
L 332.07874 256.908468 
L 333.037366 256.608754 
L 334.954617 255.769553 
L 335.913243 255.589724 
L 337.830494 254.930352 
L 339.747745 253.911323 
L 340.706371 252.952236 
L 341.664996 251.513606 
L 342.623622 250.374691 
L 343.582248 250.134919 
L 344.540873 250.134919 
L 346.458125 248.816175 
L 347.41675 248.576403 
L 348.375376 248.09686 
L 349.334001 247.917031 
L 350.292627 247.077831 
L 351.251253 246.838059 
L 354.12713 245.579258 
L 355.085755 244.500285 
L 356.044381 243.121598 
L 357.003006 242.582112 
L 357.961632 241.143482 
L 358.920258 240.244339 
L 359.878883 239.824738 
L 360.837509 239.584967 
L 362.75476 238.505994 
L 363.713386 238.086394 
L 367.547888 235.448906 
L 368.506514 234.190105 
L 369.46514 232.152046 
L 370.423765 230.833302 
L 371.382391 230.17393 
L 372.341016 229.814272 
L 376.175519 226.757184 
L 378.09277 225.318554 
L 379.051396 224.539296 
L 380.010021 223.280495 
L 380.968647 222.441294 
L 383.844524 220.583064 
L 385.761775 219.384206 
L 386.720401 218.604948 
L 387.679026 218.365176 
L 390.554903 216.986489 
L 392.472155 215.96746 
L 393.43078 215.607802 
L 395.348031 213.989343 
L 396.306657 212.910371 
L 398.223908 211.711513 
L 399.182534 211.471741 
L 400.14116 210.992198 
L 401.099785 210.332826 
L 403.017037 209.373739 
L 403.975662 209.253853 
L 404.934288 208.654424 
L 406.851539 207.755281 
L 407.810165 206.856137 
L 408.76879 206.256708 
L 409.727416 205.956993 
L 410.686042 205.357564 
L 413.561918 204.098763 
L 414.520544 203.499334 
L 415.47917 202.720076 
L 417.396421 202.060704 
L 418.355047 201.701047 
L 419.313672 201.521218 
L 420.272298 200.921789 
L 421.230923 200.74196 
L 423.148175 200.082588 
L 425.065426 199.423216 
L 426.982677 198.703901 
L 427.941303 198.464129 
L 428.899928 198.104472 
L 430.81718 197.804757 
L 432.734431 196.306185 
L 433.693057 195.946527 
L 438.486185 193.668696 
L 439.44481 193.428925 
L 440.403436 192.889439 
L 441.362062 192.649667 
L 444.237938 190.971265 
L 447.113815 190.371836 
L 448.072441 190.072122 
L 449.031067 189.892293 
L 451.906943 188.333777 
L 452.865569 188.213892 
L 453.824195 187.854234 
L 454.78282 187.734348 
L 455.741446 187.494577 
L 458.617323 185.576403 
L 459.575948 185.396575 
L 460.534574 185.09686 
L 461.4932 184.976974 
L 462.451825 184.67726 
L 463.410451 184.017888 
L 464.369077 183.718173 
L 465.327702 183.298573 
L 469.162205 182.279543 
L 470.12083 182.2196 
L 471.079456 181.919886 
L 472.996707 181.140628 
L 473.955333 180.840913 
L 474.913958 180.661085 
L 477.789835 179.522169 
L 479.707087 178.982683 
L 480.665712 178.92274 
L 482.582963 178.50314 
L 483.541589 178.083539 
L 484.500215 177.903711 
L 486.417466 177.124453 
L 490.251969 175.326166 
L 491.210594 174.726736 
L 492.16922 174.486965 
L 495.045097 173.108278 
L 496.962348 172.688677 
L 498.879599 171.789534 
L 499.838225 171.489819 
L 501.755476 171.190105 
L 502.714102 170.530733 
L 503.672727 170.111132 
L 504.631353 169.931304 
L 506.548604 169.211989 
L 507.50723 169.03216 
L 508.465855 168.552617 
L 512.300358 168.01313 
L 514.217609 167.17393 
L 515.176235 166.454615 
L 516.13486 164.896099 
L 517.093486 164.656327 
L 519.010737 164.356613 
L 522.84524 162.558325 
L 523.803865 162.378497 
L 529.555619 159.800951 
L 530.514245 159.201522 
L 531.47287 158.841865 
L 534.348747 158.302379 
L 536.265999 157.403235 
L 537.224624 157.043578 
L 538.18325 156.923692 
L 541.059127 155.844719 
L 542.976378 154.765747 
L 543.935004 154.166318 
L 544.893629 153.746717 
L 545.852255 153.626832 
L 546.81088 153.327117 
L 547.769506 153.267174 
L 551.604009 152.068316 
L 552.562634 152.008373 
L 553.52126 151.349001 
L 554.479885 151.109229 
L 556.397137 150.389914 
L 558.314388 149.850428 
L 559.273014 149.310942 
L 560.231639 149.011227 
L 561.190265 148.411798 
L 562.14889 148.052141 
L 563.107516 147.512655 
L 565.024767 146.853283 
L 565.983393 146.553568 
L 568.85927 145.35471 
L 569.817895 144.695338 
L 570.776521 143.676308 
L 571.735147 143.076879 
L 572.693772 142.89705 
L 574.611024 141.518363 
L 575.569649 141.338535 
L 576.528275 140.019791 
L 577.486901 139.660133 
L 578.445526 139.000761 
L 579.404152 138.880875 
L 580.362777 138.281446 
L 581.321403 137.861846 
L 582.280029 137.682017 
L 583.238654 137.32236 
L 584.19728 136.603045 
L 585.155906 136.30333 
L 588.031782 134.505043 
L 591.866285 132.766698 
L 592.824911 132.646813 
L 593.783536 132.287155 
L 595.700787 131.268126 
L 596.659413 129.829496 
L 597.618039 128.930352 
L 598.576664 128.450809 
L 599.53529 128.27098 
L 601.452541 127.192008 
L 602.411167 127.012179 
L 604.328418 126.172978 
L 607.204295 125.034063 
L 609.121546 123.775262 
L 611.038797 121.857088 
L 611.997423 121.137774 
L 613.914674 120.058801 
L 614.8733 119.159657 
L 617.749177 117.001713 
L 618.707802 116.522169 
L 619.666428 115.563083 
L 620.625054 114.903711 
L 622.542305 114.244339 
L 623.500931 113.405138 
L 625.418182 112.505994 
L 626.376807 112.266223 
L 627.335433 111.606851 
L 628.294059 111.367079 
L 631.169936 109.988392 
L 632.128561 109.32902 
L 633.087187 108.849477 
L 635.004438 108.30999 
L 635.963064 107.770504 
L 638.838941 106.931304 
L 640.756192 106.391817 
L 642.673443 105.492674 
L 643.632069 104.713416 
L 645.54932 103.994101 
L 648.425197 102.975071 
L 649.383822 102.315699 
L 652.259699 101.056898 
L 653.218325 100.397526 
L 654.176951 99.917983 
L 656.094202 96.441294 
L 658.011453 94.283349 
L 658.970079 93.623977 
L 662.804581 92.065461 
L 663.763207 91.945576 
L 664.721832 91.466032 
L 665.680458 91.226261 
L 666.639084 90.866603 
L 667.597709 90.626832 
L 670.473586 89.547859 
L 672.390838 88.229115 
L 674.308089 87.5098 
L 680.059843 84.512655 
L 681.018468 83.613511 
L 682.935719 82.654424 
L 683.894345 82.174881 
L 684.852971 81.875167 
L 685.811596 81.215794 
L 686.770222 80.856137 
L 689.646099 79.297621 
L 690.604724 78.758135 
L 691.56335 78.518363 
L 692.521976 77.858991 
L 693.480601 77.499334 
L 694.439227 77.319505 
L 696.356478 76.60019 
L 698.273729 76.060704 
L 699.232355 75.581161 
L 700.190981 74.921789 
L 701.149606 74.74196 
L 704.025483 73.782873 
L 704.984109 73.063559 
L 707.859986 71.984586 
L 708.818611 71.744814 
L 710.735863 70.545956 
L 711.694488 70.186299 
L 712.653114 69.706755 
L 714.570365 68.328069 
L 716.487616 67.728639 
L 717.446242 66.949382 
L 718.404868 66.769553 
L 719.363493 65.990295 
L 721.280744 64.971265 
L 723.197996 64.192008 
L 724.156621 63.292864 
L 725.115247 62.813321 
L 727.032498 62.273834 
L 727.991124 61.734348 
L 728.949749 61.614462 
L 731.825626 60.235775 
L 734.701503 59.396575 
L 735.660129 59.156803 
L 736.618754 59.09686 
L 737.57738 58.917031 
L 738.536006 58.557374 
L 739.494631 58.377545 
L 741.411883 57.65823 
L 742.370508 57.598287 
L 745.246385 56.699144 
L 747.163636 55.8 
L 747.163636 55.8 
" clip-path="url(#p27b540f1aa)" style="fill: none; stroke: #1f77b4; stroke-width: 1.5; stroke-linecap: square"/>
   </g>
   <g id="line2d_44">
    <path d="M 139.394989 307.8 
L 141.312241 307.8 
L 143.229492 307.560228 
L 148.981246 307.500285 
L 151.857122 307.3804 
L 154.732999 307.320457 
L 156.650251 307.260514 
L 159.526127 307.260514 
L 160.484753 307.020742 
L 163.36063 306.960799 
L 168.153758 306.421313 
L 175.822763 306.001713 
L 176.781389 306.001713 
L 177.740014 305.821884 
L 180.615891 305.761941 
L 182.533142 305.522169 
L 186.367645 305.522169 
L 187.326271 305.402284 
L 192.119399 305.342341 
L 194.995276 305.222455 
L 203.622906 305.162512 
L 205.540157 305.102569 
L 209.37466 305.042626 
L 212.250537 304.92274 
L 216.085039 304.92274 
L 217.043665 304.802854 
L 219.919542 304.742912 
L 223.754044 304.563083 
L 230.464424 304.50314 
L 232.381675 304.443197 
L 236.216178 304.383254 
L 239.092054 304.023597 
L 243.885183 303.963654 
L 248.678311 303.723882 
L 253.471439 303.663939 
L 256.347316 303.544053 
L 258.264567 303.48411 
L 260.181818 303.304282 
L 264.016321 303.124453 
L 266.892198 303.06451 
L 268.809449 303.004567 
L 270.7267 303.004567 
L 271.685326 302.884681 
L 274.561203 302.884681 
L 276.478454 302.704853 
L 279.354331 302.584967 
L 284.147459 302.525024 
L 287.023336 302.225309 
L 288.940587 302.105423 
L 289.899213 301.925595 
L 293.733715 301.865652 
L 304.278597 301.266223 
L 306.195848 301.20628 
L 309.071725 301.086394 
L 310.030351 301.086394 
L 311.947602 300.906565 
L 313.864853 300.846622 
L 314.823479 300.846622 
L 315.782105 300.726736 
L 317.699356 300.666794 
L 322.492484 300.427022 
L 324.409735 300.367079 
L 327.285612 300.247193 
L 330.161489 300.18725 
L 332.07874 300.127307 
L 336.871868 300.127307 
L 340.706371 299.707707 
L 341.664996 299.707707 
L 343.582248 299.527878 
L 345.499499 299.467935 
L 350.292627 299.168221 
L 351.251253 298.928449 
L 353.168504 298.808563 
L 354.12713 298.568792 
L 357.003006 298.32902 
L 358.920258 297.90942 
L 360.837509 297.849477 
L 362.75476 297.849477 
L 363.713386 297.729591 
L 364.672011 297.729591 
L 367.547888 297.30999 
L 368.506514 297.070219 
L 385.761775 296.051189 
L 386.720401 296.051189 
L 390.554903 295.571646 
L 391.513529 295.571646 
L 393.43078 295.271931 
L 395.348031 295.092103 
L 397.265283 295.03216 
L 399.182534 295.03216 
L 400.14116 294.792388 
L 403.017037 294.672502 
L 404.934288 294.672502 
L 406.851539 294.492674 
L 407.810165 294.492674 
L 410.686042 294.073073 
L 411.644667 293.833302 
L 413.561918 293.773359 
L 415.47917 293.713416 
L 416.437795 293.59353 
L 421.230923 293.533587 
L 434.651682 292.754329 
L 436.568933 292.754329 
L 438.486185 292.5745 
L 440.403436 292.5745 
L 443.279313 292.274786 
L 447.113815 292.094957 
L 449.031067 292.035014 
L 450.948318 291.975071 
L 453.824195 291.915128 
L 460.534574 291.555471 
L 465.327702 291.495528 
L 467.244953 291.435585 
L 468.203579 291.435585 
L 469.162205 291.255756 
L 471.079456 291.195814 
L 476.83121 291.135871 
L 478.748461 291.075928 
L 483.541589 291.015985 
L 484.500215 290.836156 
L 490.251969 290.776213 
L 492.16922 290.71627 
L 494.086471 290.656327 
L 496.003722 290.596384 
L 497.920974 290.536441 
L 504.631353 290.176784 
L 510.383107 290.116841 
L 513.258984 289.877069 
L 515.176235 289.697241 
L 517.093486 289.637298 
L 519.010737 289.637298 
L 519.969363 289.517412 
L 522.84524 289.457469 
L 523.803865 289.217697 
L 527.638368 289.037869 
L 536.265999 288.977926 
L 541.059127 288.618268 
L 543.935004 288.318554 
L 548.728132 288.258611 
L 551.604009 287.958896 
L 557.355762 287.659182 
L 559.273014 287.599239 
L 563.107516 287.41941 
L 566.942019 287.359467 
L 569.817895 287.239581 
L 573.652398 287.179638 
L 576.528275 286.879924 
L 578.445526 286.819981 
L 582.280029 286.760038 
L 585.155906 286.520266 
L 586.114531 286.400381 
L 587.073157 286.400381 
L 588.031782 286.220552 
L 589.949034 286.160609 
L 593.783536 286.100666 
L 595.700787 285.800951 
L 604.328418 285.741009 
L 606.245669 285.56118 
L 607.204295 285.441294 
L 609.121546 285.381351 
L 611.038797 285.321408 
L 611.997423 285.081637 
L 613.914674 285.021694 
L 614.8733 284.841865 
L 616.790551 284.841865 
L 619.666428 284.54215 
L 637.880315 283.463178 
L 639.797566 283.403235 
L 641.714817 283.343292 
L 653.218325 283.283349 
L 656.094202 283.163463 
L 657.052827 283.163463 
L 658.011453 282.923692 
L 659.928704 282.863749 
L 664.721832 282.803806 
L 667.597709 282.68392 
L 672.390838 282.623977 
L 675.266714 282.504091 
L 677.183966 282.504091 
L 679.101217 282.26432 
L 681.018468 282.204377 
L 687.728848 281.844719 
L 689.646099 281.844719 
L 691.56335 281.664891 
L 698.273729 281.604948 
L 700.190981 281.425119 
L 703.066858 281.305233 
L 707.859986 281.24529 
L 709.777237 281.185347 
L 713.611739 281.125404 
L 715.528991 281.065461 
L 717.446242 281.005519 
L 719.363493 280.945576 
L 725.115247 280.885633 
L 729.908375 280.645861 
L 735.660129 280.585918 
L 740.453257 280.346147 
L 745.246385 280.346147 
L 746.205011 280.166318 
L 747.163636 280.166318 
L 747.163636 280.166318 
" clip-path="url(#p27b540f1aa)" style="fill: none; stroke: #ff7f0e; stroke-width: 1.5; stroke-linecap: square"/>
   </g>
   <g id="patch_3">
    <path d="M 108 320.4 
L 108 43.2 
" style="fill: none; stroke: #a9a9a9; stroke-width: 0.8; stroke-linejoin: miter; stroke-linecap: square"/>
   </g>
   <g id="patch_4">
    <path d="M 777.6 320.4 
L 777.6 43.2 
" style="fill: none"/>
   </g>
   <g id="patch_5">
    <path d="M 108 320.4 
L 777.6 320.4 
" style="fill: none; stroke: #a9a9a9; stroke-width: 0.8; stroke-linejoin: miter; stroke-linecap: square"/>
   </g>
   <g id="patch_6">
    <path d="M 108 43.2 
L 777.6 43.2 
" style="fill: none"/>
   </g>
   <g id="text_22">
    <!-- get_subscribe history -->
    <g style="fill: #a9a9a9" transform="translate(378.6075 37.2) scale(0.12 -0.12)">
     <defs>
      <path id="DejaVuSans-67" d="M 2906 1791 
Q 2906 2416 2648 2759 
Q 2391 3103 1925 3103 
Q 1463 3103 1205 2759 
Q 947 2416 947 1791 
Q 947 1169 1205 825 
Q 1463 481 1925 481 
Q 2391 481 2648 825 
Q 2906 1169 2906 1791 
z
M 3481 434 
Q 3481 -459 3084 -895 
Q 2688 -1331 1869 -1331 
Q 1566 -1331 1297 -1286 
Q 1028 -1241 775 -1147 
L 775 -588 
Q 1028 -725 1275 -790 
Q 1522 -856 1778 -856 
Q 2344 -856 2625 -561 
Q 2906 -266 2906 331 
L 2906 616 
Q 2728 306 2450 153 
Q 2172 0 1784 0 
Q 1141 0 747 490 
Q 353 981 353 1791 
Q 353 2603 747 3093 
Q 1141 3584 1784 3584 
Q 2172 3584 2450 3431 
Q 2728 3278 2906 2969 
L 2906 3500 
L 3481 3500 
L 3481 434 
z
" transform="scale(0.015625)"/>
      <path id="DejaVuSans-65" d="M 3597 1894 
L 3597 1613 
L 953 1613 
Q 991 1019 1311 708 
Q 1631 397 2203 397 
Q 2534 397 2845 478 
Q 3156 559 3463 722 
L 3463 178 
Q 3153 47 2828 -22 
Q 2503 -91 2169 -91 
Q 1331 -91 842 396 
Q 353 884 353 1716 
Q 353 2575 817 3079 
Q 1281 3584 2069 3584 
Q 2775 3584 3186 3129 
Q 3597 2675 3597 1894 
z
M 3022 2063 
Q 3016 2534 2758 2815 
Q 2500 3097 2075 3097 
Q 1594 3097 1305 2825 
Q 1016 2553 972 2059 
L 3022 2063 
z
" transform="scale(0.015625)"/>
      <path id="DejaVuSans-74" d="M 1172 4494 
L 1172 3500 
L 2356 3500 
L 2356 3053 
L 1172 3053 
L 1172 1153 
Q 1172 725 1289 603 
Q 1406 481 1766 481 
L 2356 481 
L 2356 0 
L 1766 0 
Q 1100 0 847 248 
Q 594 497 594 1153 
L 594 3053 
L 172 3053 
L 172 3500 
L 594 3500 
L 594 4494 
L 1172 4494 
z
" transform="scale(0.015625)"/>
      <path id="DejaVuSans-5f" d="M 3263 -1063 
L 3263 -1509 
L -63 -1509 
L -63 -1063 
L 3263 -1063 
z
" transform="scale(0.015625)"/>
      <path id="DejaVuSans-73" d="M 2834 3397 
L 2834 2853 
Q 2591 2978 2328 3040 
Q 2066 3103 1784 3103 
Q 1356 3103 1142 2972 
Q 928 2841 928 2578 
Q 928 2378 1081 2264 
Q 1234 2150 1697 2047 
L 1894 2003 
Q 2506 1872 2764 1633 
Q 3022 1394 3022 966 
Q 3022 478 2636 193 
Q 2250 -91 1575 -91 
Q 1294 -91 989 -36 
Q 684 19 347 128 
L 347 722 
Q 666 556 975 473 
Q 1284 391 1588 391 
Q 1994 391 2212 530 
Q 2431 669 2431 922 
Q 2431 1156 2273 1281 
Q 2116 1406 1581 1522 
L 1381 1569 
Q 847 1681 609 1914 
Q 372 2147 372 2553 
Q 372 3047 722 3315 
Q 1072 3584 1716 3584 
Q 2034 3584 2315 3537 
Q 2597 3491 2834 3397 
z
" transform="scale(0.015625)"/>
      <path id="DejaVuSans-75" d="M 544 1381 
L 544 3500 
L 1119 3500 
L 1119 1403 
Q 1119 906 1312 657 
Q 1506 409 1894 409 
Q 2359 409 2629 706 
Q 2900 1003 2900 1516 
L 2900 3500 
L 3475 3500 
L 3475 0 
L 2900 0 
L 2900 538 
Q 2691 219 2414 64 
Q 2138 -91 1772 -91 
Q 1169 -91 856 284 
Q 544 659 544 1381 
z
M 1991 3584 
L 1991 3584 
z
" transform="scale(0.015625)"/>
      <path id="DejaVuSans-62" d="M 3116 1747 
Q 3116 2381 2855 2742 
Q 2594 3103 2138 3103 
Q 1681 3103 1420 2742 
Q 1159 2381 1159 1747 
Q 1159 1113 1420 752 
Q 1681 391 2138 391 
Q 2594 391 2855 752 
Q 3116 1113 3116 1747 
z
M 1159 2969 
Q 1341 3281 1617 3432 
Q 1894 3584 2278 3584 
Q 2916 3584 3314 3078 
Q 3713 2572 3713 1747 
Q 3713 922 3314 415 
Q 2916 -91 2278 -91 
Q 1894 -91 1617 61 
Q 1341 213 1159 525 
L 1159 0 
L 581 0 
L 581 4863 
L 1159 4863 
L 1159 2969 
z
" transform="scale(0.015625)"/>
      <path id="DejaVuSans-63" d="M 3122 3366 
L 3122 2828 
Q 2878 2963 2633 3030 
Q 2388 3097 2138 3097 
Q 1578 3097 1268 2742 
Q 959 2388 959 1747 
Q 959 1106 1268 751 
Q 1578 397 2138 397 
Q 2388 397 2633 464 
Q 2878 531 3122 666 
L 3122 134 
Q 2881 22 2623 -34 
Q 2366 -91 2075 -91 
Q 1284 -91 818 406 
Q 353 903 353 1747 
Q 353 2603 823 3093 
Q 1294 3584 2113 3584 
Q 2378 3584 2631 3529 
Q 2884 3475 3122 3366 
z
" transform="scale(0.015625)"/>
      <path id="DejaVuSans-72" d="M 2631 2963 
Q 2534 3019 2420 3045 
Q 2306 3072 2169 3072 
Q 1681 3072 1420 2755 
Q 1159 2438 1159 1844 
L 1159 0 
L 581 0 
L 581 3500 
L 1159 3500 
L 1159 2956 
Q 1341 3275 1631 3429 
Q 1922 3584 2338 3584 
Q 2397 3584 2469 3576 
Q 2541 3569 2628 3553 
L 2631 2963 
z
" transform="scale(0.015625)"/>
      <path id="DejaVuSans-69" d="M 603 3500 
L 1178 3500 
L 1178 0 
L 603 0 
L 603 3500 
z
M 603 4863 
L 1178 4863 
L 1178 4134 
L 603 4134 
L 603 4863 
z
" transform="scale(0.015625)"/>
      <path id="DejaVuSans-20" transform="scale(0.015625)"/>
      <path id="DejaVuSans-68" d="M 3513 2113 
L 3513 0 
L 2938 0 
L 2938 2094 
Q 2938 2591 2744 2837 
Q 2550 3084 2163 3084 
Q 1697 3084 1428 2787 
Q 1159 2491 1159 1978 
L 1159 0 
L 581 0 
L 581 4863 
L 1159 4863 
L 1159 2956 
Q 1366 3272 1645 3428 
Q 1925 3584 2291 3584 
Q 2894 3584 3203 3211 
Q 3513 2838 3513 2113 
z
" transform="scale(0.015625)"/>
      <path id="DejaVuSans-6f" d="M 1959 3097 
Q 1497 3097 1228 2736 
Q 959 2375 959 1747 
Q 959 1119 1226 758 
Q 1494 397 1959 397 
Q 2419 397 2687 759 
Q 2956 1122 2956 1747 
Q 2956 2369 2687 2733 
Q 2419 3097 1959 3097 
z
M 1959 3584 
Q 2709 3584 3137 3096 
Q 3566 2609 3566 1747 
Q 3566 888 3137 398 
Q 2709 -91 1959 -91 
Q 1206 -91 779 398 
Q 353 888 353 1747 
Q 353 2609 779 3096 
Q 1206 3584 1959 3584 
z
" transform="scale(0.015625)"/>
      <path id="DejaVuSans-79" d="M 2059 -325 
Q 1816 -950 1584 -1140 
Q 1353 -1331 966 -1331 
L 506 -1331 
L 506 -850 
L 844 -850 
Q 1081 -850 1212 -737 
Q 1344 -625 1503 -206 
L 1606 56 
L 191 3500 
L 800 3500 
L 1894 763 
L 2988 3500 
L 3597 3500 
L 2059 -325 
z
" transform="scale(0.015625)"/>
     </defs>
     <use xlink:href="#DejaVuSans-67"/>
     <use xlink:href="#DejaVuSans-65" x="63.476562"/>
     <use xlink:href="#DejaVuSans-74" x="125"/>
     <use xlink:href="#DejaVuSans-5f" x="164.208984"/>
     <use xlink:href="#DejaVuSans-73" x="214.208984"/>
     <use xlink:href="#DejaVuSans-75" x="266.308594"/>
     <use xlink:href="#DejaVuSans-62" x="329.6875"/>
     <use xlink:href="#DejaVuSans-73" x="393.164062"/>
     <use xlink:href="#DejaVuSans-63" x="445.263672"/>
     <use xlink:href="#DejaVuSans-72" x="500.244141"/>
     <use xlink:href="#DejaVuSans-69" x="541.357422"/>
     <use xlink:href="#DejaVuSans-62" x="569.140625"/>
     <use xlink:href="#DejaVuSans-65" x="632.617188"/>
     <use xlink:href="#DejaVuSans-20" x="694.140625"/>
     <use xlink:href="#DejaVuSans-68" x="725.927734"/>
     <use xlink:href="#DejaVuSans-69" x="789.306641"/>
     <use xlink:href="#DejaVuSans-73" x="817.089844"/>
     <use xlink:href="#DejaVuSans-74" x="869.189453"/>
     <use xlink:href="#DejaVuSans-6f" x="908.398438"/>
     <use xlink:href="#DejaVuSans-72" x="969.580078"/>
     <use xlink:href="#DejaVuSans-79" x="1010.693359"/>
    </g>
   </g>
   <g id="legend_1">
    <g id="line2d_45">
     <path d="M 815.08 328.498438 
L 825.08 328.498438 
L 835.08 328.498438 
" style="fill: none; stroke: #1f77b4; stroke-width: 1.5; stroke-linecap: square"/>
    </g>
    <g id="text_23">
     <!-- star -->
     <g style="fill: #a9a9a9" transform="translate(843.08 331.998438) scale(0.1 -0.1)">
      <defs>
       <path id="DejaVuSans-61" d="M 2194 1759 
Q 1497 1759 1228 1600 
Q 959 1441 959 1056 
Q 959 750 1161 570 
Q 1363 391 1709 391 
Q 2188 391 2477 730 
Q 2766 1069 2766 1631 
L 2766 1759 
L 2194 1759 
z
M 3341 1997 
L 3341 0 
L 2766 0 
L 2766 531 
Q 2569 213 2275 61 
Q 1981 -91 1556 -91 
Q 1019 -91 701 211 
Q 384 513 384 1019 
Q 384 1609 779 1909 
Q 1175 2209 1959 2209 
L 2766 2209 
L 2766 2266 
Q 2766 2663 2505 2880 
Q 2244 3097 1772 3097 
Q 1472 3097 1187 3025 
Q 903 2953 641 2809 
L 641 3341 
Q 956 3463 1253 3523 
Q 1550 3584 1831 3584 
Q 2591 3584 2966 3190 
Q 3341 2797 3341 1997 
z
" transform="scale(0.015625)"/>
      </defs>
      <use xlink:href="#DejaVuSans-73"/>
      <use xlink:href="#DejaVuSans-74" x="52.099609"/>
      <use xlink:href="#DejaVuSans-61" x="91.308594"/>
      <use xlink:href="#DejaVuSans-72" x="152.587891"/>
     </g>
    </g>
    <g id="line2d_46">
     <path d="M 815.08 343.176562 
L 825.08 343.176562 
L 835.08 343.176562 
" style="fill: none; stroke: #ff7f0e; stroke-width: 1.5; stroke-linecap: square"/>
    </g>
    <g id="text_24">
     <!-- fork -->
     <g style="fill: #a9a9a9" transform="translate(843.08 346.676562) scale(0.1 -0.1)">
      <defs>
       <path id="DejaVuSans-66" d="M 2375 4863 
L 2375 4384 
L 1825 4384 
Q 1516 4384 1395 4259 
Q 1275 4134 1275 3809 
L 1275 3500 
L 2222 3500 
L 2222 3053 
L 1275 3053 
L 1275 0 
L 697 0 
L 697 3053 
L 147 3053 
L 147 3500 
L 697 3500 
L 697 3744 
Q 697 4328 969 4595 
Q 1241 4863 1831 4863 
L 2375 4863 
z
" transform="scale(0.015625)"/>
       <path id="DejaVuSans-6b" d="M 581 4863 
L 1159 4863 
L 1159 1991 
L 2875 3500 
L 3609 3500 
L 1753 1863 
L 3688 0 
L 2938 0 
L 1159 1709 
L 1159 0 
L 581 0 
L 581 4863 
z
" transform="scale(0.015625)"/>
      </defs>
      <use xlink:href="#DejaVuSans-66"/>
      <use xlink:href="#DejaVuSans-6f" x="35.205078"/>
      <use xlink:href="#DejaVuSans-72" x="96.386719"/>
      <use xlink:href="#DejaVuSans-6b" x="137.5"/>
     </g>
    </g>
   </g>
  </g>
 </g>
 <defs>
  <clipPath id="p27b540f1aa">
   <rect x="108" y="43.2" width="669.6" height="277.2"/>
  </clipPath>
 </defs>
</svg>
