<?xml version="1.0" encoding="utf-8" standalone="no"?>
<!DOCTYPE svg PUBLIC "-//W3C//DTD SVG 1.1//EN"
  "http://www.w3.org/Graphics/SVG/1.1/DTD/svg11.dtd">
<svg xmlns:xlink="http://www.w3.org/1999/xlink" width="864pt" height="360pt" viewBox="0 0 864 360" xmlns="http://www.w3.org/2000/svg" version="1.1">
 <metadata>
  <rdf:RDF xmlns:dc="http://purl.org/dc/elements/1.1/" xmlns:cc="http://creativecommons.org/ns#" xmlns:rdf="http://www.w3.org/1999/02/22-rdf-syntax-ns#">
   <cc:Work>
    <dc:type rdf:resource="http://purl.org/dc/dcmitype/StillImage"/>
    <dc:date>2023-04-21T20:19:40.412702</dc:date>
    <dc:format>image/svg+xml</dc:format>
    <dc:creator>
     <cc:Agent>
      <dc:title>Matplotlib v3.7.1, https://matplotlib.org/</dc:title>
     </cc:Agent>
    </dc:creator>
   </cc:Work>
  </rdf:RDF>
 </metadata>
 <defs>
  <style type="text/css">*{stroke-linejoin: round; stroke-linecap: butt}</style>
 </defs>
 <g id="figure_1">
  <g id="patch_1">
   <path d="M 0 360 
L 864 360 
L 864 0 
L 0 0 
L 0 360 
z
" style="fill: none; opacity: 0"/>
  </g>
  <g id="axes_1">
   <g id="patch_2">
    <path d="M 108 320.4 
L 777.6 320.4 
L 777.6 43.2 
L 108 43.2 
L 108 320.4 
z
" style="fill: none; opacity: 0"/>
   </g>
   <g id="matplotlib.axis_1">
    <g id="xtick_1">
     <g id="line2d_1">
      <path d="M 116.422642 320.4 
L 116.422642 43.2 
" clip-path="url(#p3f0becba2e)" style="fill: none; stroke-dasharray: 5.12,1.28,0.8,1.28; stroke-dashoffset: 0; stroke: #b0b0b0; stroke-width: 0.8"/>
     </g>
     <g id="line2d_2">
      <defs>
       <path id="m71dfd49afc" d="M 0 0 
L 0 3.5 
" style="stroke: #a9a9a9; stroke-width: 0.8"/>
      </defs>
      <g>
       <use xlink:href="#m71dfd49afc" x="116.422642" y="320.4" style="fill: #a9a9a9; stroke: #a9a9a9; stroke-width: 0.8"/>
      </g>
     </g>
     <g id="text_1">
      <!-- 2021-07 -->
      <g style="fill: #a9a9a9" transform="translate(95.531235 334.998438) scale(0.1 -0.1)">
       <defs>
        <path id="DejaVuSans-32" d="M 1228 531 
L 3431 531 
L 3431 0 
L 469 0 
L 469 531 
Q 828 903 1448 1529 
Q 2069 2156 2228 2338 
Q 2531 2678 2651 2914 
Q 2772 3150 2772 3378 
Q 2772 3750 2511 3984 
Q 2250 4219 1831 4219 
Q 1534 4219 1204 4116 
Q 875 4013 500 3803 
L 500 4441 
Q 881 4594 1212 4672 
Q 1544 4750 1819 4750 
Q 2544 4750 2975 4387 
Q 3406 4025 3406 3419 
Q 3406 3131 3298 2873 
Q 3191 2616 2906 2266 
Q 2828 2175 2409 1742 
Q 1991 1309 1228 531 
z
" transform="scale(0.015625)"/>
        <path id="DejaVuSans-30" d="M 2034 4250 
Q 1547 4250 1301 3770 
Q 1056 3291 1056 2328 
Q 1056 1369 1301 889 
Q 1547 409 2034 409 
Q 2525 409 2770 889 
Q 3016 1369 3016 2328 
Q 3016 3291 2770 3770 
Q 2525 4250 2034 4250 
z
M 2034 4750 
Q 2819 4750 3233 4129 
Q 3647 3509 3647 2328 
Q 3647 1150 3233 529 
Q 2819 -91 2034 -91 
Q 1250 -91 836 529 
Q 422 1150 422 2328 
Q 422 3509 836 4129 
Q 1250 4750 2034 4750 
z
" transform="scale(0.015625)"/>
        <path id="DejaVuSans-31" d="M 794 531 
L 1825 531 
L 1825 4091 
L 703 3866 
L 703 4441 
L 1819 4666 
L 2450 4666 
L 2450 531 
L 3481 531 
L 3481 0 
L 794 0 
L 794 531 
z
" transform="scale(0.015625)"/>
        <path id="DejaVuSans-2d" d="M 313 2009 
L 1997 2009 
L 1997 1497 
L 313 1497 
L 313 2009 
z
" transform="scale(0.015625)"/>
        <path id="DejaVuSans-37" d="M 525 4666 
L 3525 4666 
L 3525 4397 
L 1831 0 
L 1172 0 
L 2766 4134 
L 525 4134 
L 525 4666 
z
" transform="scale(0.015625)"/>
       </defs>
       <use xlink:href="#DejaVuSans-32"/>
       <use xlink:href="#DejaVuSans-30" x="63.623047"/>
       <use xlink:href="#DejaVuSans-32" x="127.246094"/>
       <use xlink:href="#DejaVuSans-31" x="190.869141"/>
       <use xlink:href="#DejaVuSans-2d" x="254.492188"/>
       <use xlink:href="#DejaVuSans-30" x="290.576172"/>
       <use xlink:href="#DejaVuSans-37" x="354.199219"/>
      </g>
     </g>
    </g>
    <g id="xtick_2">
     <g id="line2d_3">
      <path d="M 204.47753 320.4 
L 204.47753 43.2 
" clip-path="url(#p3f0becba2e)" style="fill: none; stroke-dasharray: 5.12,1.28,0.8,1.28; stroke-dashoffset: 0; stroke: #b0b0b0; stroke-width: 0.8"/>
     </g>
     <g id="line2d_4">
      <g>
       <use xlink:href="#m71dfd49afc" x="204.47753" y="320.4" style="fill: #a9a9a9; stroke: #a9a9a9; stroke-width: 0.8"/>
      </g>
     </g>
     <g id="text_2">
      <!-- 2021-10 -->
      <g style="fill: #a9a9a9" transform="translate(183.586124 334.998438) scale(0.1 -0.1)">
       <use xlink:href="#DejaVuSans-32"/>
       <use xlink:href="#DejaVuSans-30" x="63.623047"/>
       <use xlink:href="#DejaVuSans-32" x="127.246094"/>
       <use xlink:href="#DejaVuSans-31" x="190.869141"/>
       <use xlink:href="#DejaVuSans-2d" x="254.492188"/>
       <use xlink:href="#DejaVuSans-31" x="290.576172"/>
       <use xlink:href="#DejaVuSans-30" x="354.199219"/>
      </g>
     </g>
    </g>
    <g id="xtick_3">
     <g id="line2d_5">
      <path d="M 292.532419 320.4 
L 292.532419 43.2 
" clip-path="url(#p3f0becba2e)" style="fill: none; stroke-dasharray: 5.12,1.28,0.8,1.28; stroke-dashoffset: 0; stroke: #b0b0b0; stroke-width: 0.8"/>
     </g>
     <g id="line2d_6">
      <g>
       <use xlink:href="#m71dfd49afc" x="292.532419" y="320.4" style="fill: #a9a9a9; stroke: #a9a9a9; stroke-width: 0.8"/>
      </g>
     </g>
     <g id="text_3">
      <!-- 2022-01 -->
      <g style="fill: #a9a9a9" transform="translate(271.641012 334.998438) scale(0.1 -0.1)">
       <use xlink:href="#DejaVuSans-32"/>
       <use xlink:href="#DejaVuSans-30" x="63.623047"/>
       <use xlink:href="#DejaVuSans-32" x="127.246094"/>
       <use xlink:href="#DejaVuSans-32" x="190.869141"/>
       <use xlink:href="#DejaVuSans-2d" x="254.492188"/>
       <use xlink:href="#DejaVuSans-30" x="290.576172"/>
       <use xlink:href="#DejaVuSans-31" x="354.199219"/>
      </g>
     </g>
    </g>
    <g id="xtick_4">
     <g id="line2d_7">
      <path d="M 378.67307 320.4 
L 378.67307 43.2 
" clip-path="url(#p3f0becba2e)" style="fill: none; stroke-dasharray: 5.12,1.28,0.8,1.28; stroke-dashoffset: 0; stroke: #b0b0b0; stroke-width: 0.8"/>
     </g>
     <g id="line2d_8">
      <g>
       <use xlink:href="#m71dfd49afc" x="378.67307" y="320.4" style="fill: #a9a9a9; stroke: #a9a9a9; stroke-width: 0.8"/>
      </g>
     </g>
     <g id="text_4">
      <!-- 2022-04 -->
      <g style="fill: #a9a9a9" transform="translate(357.781664 334.998438) scale(0.1 -0.1)">
       <defs>
        <path id="DejaVuSans-34" d="M 2419 4116 
L 825 1625 
L 2419 1625 
L 2419 4116 
z
M 2253 4666 
L 3047 4666 
L 3047 1625 
L 3713 1625 
L 3713 1100 
L 3047 1100 
L 3047 0 
L 2419 0 
L 2419 1100 
L 313 1100 
L 313 1709 
L 2253 4666 
z
" transform="scale(0.015625)"/>
       </defs>
       <use xlink:href="#DejaVuSans-32"/>
       <use xlink:href="#DejaVuSans-30" x="63.623047"/>
       <use xlink:href="#DejaVuSans-32" x="127.246094"/>
       <use xlink:href="#DejaVuSans-32" x="190.869141"/>
       <use xlink:href="#DejaVuSans-2d" x="254.492188"/>
       <use xlink:href="#DejaVuSans-30" x="290.576172"/>
       <use xlink:href="#DejaVuSans-34" x="354.199219"/>
      </g>
     </g>
    </g>
    <g id="xtick_5">
     <g id="line2d_9">
      <path d="M 465.77084 320.4 
L 465.77084 43.2 
" clip-path="url(#p3f0becba2e)" style="fill: none; stroke-dasharray: 5.12,1.28,0.8,1.28; stroke-dashoffset: 0; stroke: #b0b0b0; stroke-width: 0.8"/>
     </g>
     <g id="line2d_10">
      <g>
       <use xlink:href="#m71dfd49afc" x="465.77084" y="320.4" style="fill: #a9a9a9; stroke: #a9a9a9; stroke-width: 0.8"/>
      </g>
     </g>
     <g id="text_5">
      <!-- 2022-07 -->
      <g style="fill: #a9a9a9" transform="translate(444.879434 334.998438) scale(0.1 -0.1)">
       <use xlink:href="#DejaVuSans-32"/>
       <use xlink:href="#DejaVuSans-30" x="63.623047"/>
       <use xlink:href="#DejaVuSans-32" x="127.246094"/>
       <use xlink:href="#DejaVuSans-32" x="190.869141"/>
       <use xlink:href="#DejaVuSans-2d" x="254.492188"/>
       <use xlink:href="#DejaVuSans-30" x="290.576172"/>
       <use xlink:href="#DejaVuSans-37" x="354.199219"/>
      </g>
     </g>
    </g>
    <g id="xtick_6">
     <g id="line2d_11">
      <path d="M 553.825729 320.4 
L 553.825729 43.2 
" clip-path="url(#p3f0becba2e)" style="fill: none; stroke-dasharray: 5.12,1.28,0.8,1.28; stroke-dashoffset: 0; stroke: #b0b0b0; stroke-width: 0.8"/>
     </g>
     <g id="line2d_12">
      <g>
       <use xlink:href="#m71dfd49afc" x="553.825729" y="320.4" style="fill: #a9a9a9; stroke: #a9a9a9; stroke-width: 0.8"/>
      </g>
     </g>
     <g id="text_6">
      <!-- 2022-10 -->
      <g style="fill: #a9a9a9" transform="translate(532.934323 334.998438) scale(0.1 -0.1)">
       <use xlink:href="#DejaVuSans-32"/>
       <use xlink:href="#DejaVuSans-30" x="63.623047"/>
       <use xlink:href="#DejaVuSans-32" x="127.246094"/>
       <use xlink:href="#DejaVuSans-32" x="190.869141"/>
       <use xlink:href="#DejaVuSans-2d" x="254.492188"/>
       <use xlink:href="#DejaVuSans-31" x="290.576172"/>
       <use xlink:href="#DejaVuSans-30" x="354.199219"/>
      </g>
     </g>
    </g>
    <g id="xtick_7">
     <g id="line2d_13">
      <path d="M 641.880617 320.4 
L 641.880617 43.2 
" clip-path="url(#p3f0becba2e)" style="fill: none; stroke-dasharray: 5.12,1.28,0.8,1.28; stroke-dashoffset: 0; stroke: #b0b0b0; stroke-width: 0.8"/>
     </g>
     <g id="line2d_14">
      <g>
       <use xlink:href="#m71dfd49afc" x="641.880617" y="320.4" style="fill: #a9a9a9; stroke: #a9a9a9; stroke-width: 0.8"/>
      </g>
     </g>
     <g id="text_7">
      <!-- 2023-01 -->
      <g style="fill: #a9a9a9" transform="translate(620.989211 334.998438) scale(0.1 -0.1)">
       <defs>
        <path id="DejaVuSans-33" d="M 2597 2516 
Q 3050 2419 3304 2112 
Q 3559 1806 3559 1356 
Q 3559 666 3084 287 
Q 2609 -91 1734 -91 
Q 1441 -91 1130 -33 
Q 819 25 488 141 
L 488 750 
Q 750 597 1062 519 
Q 1375 441 1716 441 
Q 2309 441 2620 675 
Q 2931 909 2931 1356 
Q 2931 1769 2642 2001 
Q 2353 2234 1838 2234 
L 1294 2234 
L 1294 2753 
L 1863 2753 
Q 2328 2753 2575 2939 
Q 2822 3125 2822 3475 
Q 2822 3834 2567 4026 
Q 2313 4219 1838 4219 
Q 1578 4219 1281 4162 
Q 984 4106 628 3988 
L 628 4550 
Q 988 4650 1302 4700 
Q 1616 4750 1894 4750 
Q 2613 4750 3031 4423 
Q 3450 4097 3450 3541 
Q 3450 3153 3228 2886 
Q 3006 2619 2597 2516 
z
" transform="scale(0.015625)"/>
       </defs>
       <use xlink:href="#DejaVuSans-32"/>
       <use xlink:href="#DejaVuSans-30" x="63.623047"/>
       <use xlink:href="#DejaVuSans-32" x="127.246094"/>
       <use xlink:href="#DejaVuSans-33" x="190.869141"/>
       <use xlink:href="#DejaVuSans-2d" x="254.492188"/>
       <use xlink:href="#DejaVuSans-30" x="290.576172"/>
       <use xlink:href="#DejaVuSans-31" x="354.199219"/>
      </g>
     </g>
    </g>
    <g id="xtick_8">
     <g id="line2d_15">
      <path d="M 728.021269 320.4 
L 728.021269 43.2 
" clip-path="url(#p3f0becba2e)" style="fill: none; stroke-dasharray: 5.12,1.28,0.8,1.28; stroke-dashoffset: 0; stroke: #b0b0b0; stroke-width: 0.8"/>
     </g>
     <g id="line2d_16">
      <g>
       <use xlink:href="#m71dfd49afc" x="728.021269" y="320.4" style="fill: #a9a9a9; stroke: #a9a9a9; stroke-width: 0.8"/>
      </g>
     </g>
     <g id="text_8">
      <!-- 2023-04 -->
      <g style="fill: #a9a9a9" transform="translate(707.129863 334.998438) scale(0.1 -0.1)">
       <use xlink:href="#DejaVuSans-32"/>
       <use xlink:href="#DejaVuSans-30" x="63.623047"/>
       <use xlink:href="#DejaVuSans-32" x="127.246094"/>
       <use xlink:href="#DejaVuSans-33" x="190.869141"/>
       <use xlink:href="#DejaVuSans-2d" x="254.492188"/>
       <use xlink:href="#DejaVuSans-30" x="290.576172"/>
       <use xlink:href="#DejaVuSans-34" x="354.199219"/>
      </g>
     </g>
    </g>
   </g>
   <g id="matplotlib.axis_2">
    <g id="ytick_1">
     <g id="line2d_17">
      <path d="M 108 307.859772 
L 777.6 307.859772 
" clip-path="url(#p3f0becba2e)" style="fill: none; stroke-dasharray: 5.12,1.28,0.8,1.28; stroke-dashoffset: 0; stroke: #b0b0b0; stroke-width: 0.8"/>
     </g>
     <g id="line2d_18">
      <defs>
       <path id="m124a50537a" d="M 0 0 
L -3.5 0 
" style="stroke: #a9a9a9; stroke-width: 0.8"/>
      </defs>
      <g>
       <use xlink:href="#m124a50537a" x="108" y="307.859772" style="fill: #a9a9a9; stroke: #a9a9a9; stroke-width: 0.8"/>
      </g>
     </g>
     <g id="text_9">
      <!-- 0 -->
      <g style="fill: #a9a9a9" transform="translate(94.6375 311.658991) scale(0.1 -0.1)">
       <use xlink:href="#DejaVuSans-30"/>
      </g>
     </g>
    </g>
    <g id="ytick_2">
     <g id="line2d_19">
      <path d="M 108 277.973624 
L 777.6 277.973624 
" clip-path="url(#p3f0becba2e)" style="fill: none; stroke-dasharray: 5.12,1.28,0.8,1.28; stroke-dashoffset: 0; stroke: #b0b0b0; stroke-width: 0.8"/>
     </g>
     <g id="line2d_20">
      <g>
       <use xlink:href="#m124a50537a" x="108" y="277.973624" style="fill: #a9a9a9; stroke: #a9a9a9; stroke-width: 0.8"/>
      </g>
     </g>
     <g id="text_10">
      <!-- 500 -->
      <g style="fill: #a9a9a9" transform="translate(81.9125 281.772843) scale(0.1 -0.1)">
       <defs>
        <path id="DejaVuSans-35" d="M 691 4666 
L 3169 4666 
L 3169 4134 
L 1269 4134 
L 1269 2991 
Q 1406 3038 1543 3061 
Q 1681 3084 1819 3084 
Q 2600 3084 3056 2656 
Q 3513 2228 3513 1497 
Q 3513 744 3044 326 
Q 2575 -91 1722 -91 
Q 1428 -91 1123 -41 
Q 819 9 494 109 
L 494 744 
Q 775 591 1075 516 
Q 1375 441 1709 441 
Q 2250 441 2565 725 
Q 2881 1009 2881 1497 
Q 2881 1984 2565 2268 
Q 2250 2553 1709 2553 
Q 1456 2553 1204 2497 
Q 953 2441 691 2322 
L 691 4666 
z
" transform="scale(0.015625)"/>
       </defs>
       <use xlink:href="#DejaVuSans-35"/>
       <use xlink:href="#DejaVuSans-30" x="63.623047"/>
       <use xlink:href="#DejaVuSans-30" x="127.246094"/>
      </g>
     </g>
    </g>
    <g id="ytick_3">
     <g id="line2d_21">
      <path d="M 108 248.087476 
L 777.6 248.087476 
" clip-path="url(#p3f0becba2e)" style="fill: none; stroke-dasharray: 5.12,1.28,0.8,1.28; stroke-dashoffset: 0; stroke: #b0b0b0; stroke-width: 0.8"/>
     </g>
     <g id="line2d_22">
      <g>
       <use xlink:href="#m124a50537a" x="108" y="248.087476" style="fill: #a9a9a9; stroke: #a9a9a9; stroke-width: 0.8"/>
      </g>
     </g>
     <g id="text_11">
      <!-- 1000 -->
      <g style="fill: #a9a9a9" transform="translate(75.55 251.886695) scale(0.1 -0.1)">
       <use xlink:href="#DejaVuSans-31"/>
       <use xlink:href="#DejaVuSans-30" x="63.623047"/>
       <use xlink:href="#DejaVuSans-30" x="127.246094"/>
       <use xlink:href="#DejaVuSans-30" x="190.869141"/>
      </g>
     </g>
    </g>
    <g id="ytick_4">
     <g id="line2d_23">
      <path d="M 108 218.201328 
L 777.6 218.201328 
" clip-path="url(#p3f0becba2e)" style="fill: none; stroke-dasharray: 5.12,1.28,0.8,1.28; stroke-dashoffset: 0; stroke: #b0b0b0; stroke-width: 0.8"/>
     </g>
     <g id="line2d_24">
      <g>
       <use xlink:href="#m124a50537a" x="108" y="218.201328" style="fill: #a9a9a9; stroke: #a9a9a9; stroke-width: 0.8"/>
      </g>
     </g>
     <g id="text_12">
      <!-- 1500 -->
      <g style="fill: #a9a9a9" transform="translate(75.55 222.000547) scale(0.1 -0.1)">
       <use xlink:href="#DejaVuSans-31"/>
       <use xlink:href="#DejaVuSans-35" x="63.623047"/>
       <use xlink:href="#DejaVuSans-30" x="127.246094"/>
       <use xlink:href="#DejaVuSans-30" x="190.869141"/>
      </g>
     </g>
    </g>
    <g id="ytick_5">
     <g id="line2d_25">
      <path d="M 108 188.31518 
L 777.6 188.31518 
" clip-path="url(#p3f0becba2e)" style="fill: none; stroke-dasharray: 5.12,1.28,0.8,1.28; stroke-dashoffset: 0; stroke: #b0b0b0; stroke-width: 0.8"/>
     </g>
     <g id="line2d_26">
      <g>
       <use xlink:href="#m124a50537a" x="108" y="188.31518" style="fill: #a9a9a9; stroke: #a9a9a9; stroke-width: 0.8"/>
      </g>
     </g>
     <g id="text_13">
      <!-- 2000 -->
      <g style="fill: #a9a9a9" transform="translate(75.55 192.114399) scale(0.1 -0.1)">
       <use xlink:href="#DejaVuSans-32"/>
       <use xlink:href="#DejaVuSans-30" x="63.623047"/>
       <use xlink:href="#DejaVuSans-30" x="127.246094"/>
       <use xlink:href="#DejaVuSans-30" x="190.869141"/>
      </g>
     </g>
    </g>
    <g id="ytick_6">
     <g id="line2d_27">
      <path d="M 108 158.429032 
L 777.6 158.429032 
" clip-path="url(#p3f0becba2e)" style="fill: none; stroke-dasharray: 5.12,1.28,0.8,1.28; stroke-dashoffset: 0; stroke: #b0b0b0; stroke-width: 0.8"/>
     </g>
     <g id="line2d_28">
      <g>
       <use xlink:href="#m124a50537a" x="108" y="158.429032" style="fill: #a9a9a9; stroke: #a9a9a9; stroke-width: 0.8"/>
      </g>
     </g>
     <g id="text_14">
      <!-- 2500 -->
      <g style="fill: #a9a9a9" transform="translate(75.55 162.228251) scale(0.1 -0.1)">
       <use xlink:href="#DejaVuSans-32"/>
       <use xlink:href="#DejaVuSans-35" x="63.623047"/>
       <use xlink:href="#DejaVuSans-30" x="127.246094"/>
       <use xlink:href="#DejaVuSans-30" x="190.869141"/>
      </g>
     </g>
    </g>
    <g id="ytick_7">
     <g id="line2d_29">
      <path d="M 108 128.542884 
L 777.6 128.542884 
" clip-path="url(#p3f0becba2e)" style="fill: none; stroke-dasharray: 5.12,1.28,0.8,1.28; stroke-dashoffset: 0; stroke: #b0b0b0; stroke-width: 0.8"/>
     </g>
     <g id="line2d_30">
      <g>
       <use xlink:href="#m124a50537a" x="108" y="128.542884" style="fill: #a9a9a9; stroke: #a9a9a9; stroke-width: 0.8"/>
      </g>
     </g>
     <g id="text_15">
      <!-- 3000 -->
      <g style="fill: #a9a9a9" transform="translate(75.55 132.342103) scale(0.1 -0.1)">
       <use xlink:href="#DejaVuSans-33"/>
       <use xlink:href="#DejaVuSans-30" x="63.623047"/>
       <use xlink:href="#DejaVuSans-30" x="127.246094"/>
       <use xlink:href="#DejaVuSans-30" x="190.869141"/>
      </g>
     </g>
    </g>
    <g id="ytick_8">
     <g id="line2d_31">
      <path d="M 108 98.656736 
L 777.6 98.656736 
" clip-path="url(#p3f0becba2e)" style="fill: none; stroke-dasharray: 5.12,1.28,0.8,1.28; stroke-dashoffset: 0; stroke: #b0b0b0; stroke-width: 0.8"/>
     </g>
     <g id="line2d_32">
      <g>
       <use xlink:href="#m124a50537a" x="108" y="98.656736" style="fill: #a9a9a9; stroke: #a9a9a9; stroke-width: 0.8"/>
      </g>
     </g>
     <g id="text_16">
      <!-- 3500 -->
      <g style="fill: #a9a9a9" transform="translate(75.55 102.455955) scale(0.1 -0.1)">
       <use xlink:href="#DejaVuSans-33"/>
       <use xlink:href="#DejaVuSans-35" x="63.623047"/>
       <use xlink:href="#DejaVuSans-30" x="127.246094"/>
       <use xlink:href="#DejaVuSans-30" x="190.869141"/>
      </g>
     </g>
    </g>
    <g id="ytick_9">
     <g id="line2d_33">
      <path d="M 108 68.770588 
L 777.6 68.770588 
" clip-path="url(#p3f0becba2e)" style="fill: none; stroke-dasharray: 5.12,1.28,0.8,1.28; stroke-dashoffset: 0; stroke: #b0b0b0; stroke-width: 0.8"/>
     </g>
     <g id="line2d_34">
      <g>
       <use xlink:href="#m124a50537a" x="108" y="68.770588" style="fill: #a9a9a9; stroke: #a9a9a9; stroke-width: 0.8"/>
      </g>
     </g>
     <g id="text_17">
      <!-- 4000 -->
      <g style="fill: #a9a9a9" transform="translate(75.55 72.569807) scale(0.1 -0.1)">
       <use xlink:href="#DejaVuSans-34"/>
       <use xlink:href="#DejaVuSans-30" x="63.623047"/>
       <use xlink:href="#DejaVuSans-30" x="127.246094"/>
       <use xlink:href="#DejaVuSans-30" x="190.869141"/>
      </g>
     </g>
    </g>
   </g>
   <g id="line2d_35">
    <path d="M 138.436364 307.620683 
L 142.264837 307.321822 
L 143.221955 307.202277 
L 144.179074 307.202277 
L 145.136192 306.843643 
L 147.050429 306.724099 
L 153.750257 305.46888 
L 155.664494 305.349336 
L 156.621612 305.170019 
L 159.492967 304.990702 
L 160.450086 304.512524 
L 161.407204 304.273435 
L 162.364322 303.197533 
L 163.321441 302.59981 
L 164.278559 300.627324 
L 165.235678 300.50778 
L 166.192796 299.850285 
L 167.149914 299.491651 
L 168.107033 299.013472 
L 170.978388 296.801898 
L 172.892624 295.965085 
L 173.849743 295.606452 
L 174.806861 294.948956 
L 176.721098 294.171917 
L 177.678216 293.693738 
L 178.635334 293.394877 
L 179.592453 291.960342 
L 180.549571 291.243074 
L 182.463808 290.286717 
L 188.206518 289.509677 
L 189.163636 289.330361 
L 191.077873 289.210816 
L 192.034991 289.031499 
L 192.99211 288.553321 
L 194.906346 288.493548 
L 195.863465 288.493548 
L 199.691938 288.075142 
L 200.649057 287.776281 
L 205.434648 286.879696 
L 207.348885 286.70038 
L 208.306003 286.46129 
L 211.177358 286.162429 
L 212.134477 285.68425 
L 213.091595 285.564706 
L 214.048714 285.206072 
L 215.005832 284.966983 
L 216.920069 284.787666 
L 217.877187 284.488805 
L 221.70566 283.950854 
L 222.662779 283.651992 
L 224.577015 283.353131 
L 225.534134 283.353131 
L 230.319726 282.755408 
L 232.233962 282.217457 
L 233.191081 281.978368 
L 235.105317 281.799051 
L 236.062436 281.739279 
L 238.933791 281.201328 
L 239.890909 280.902467 
L 240.848027 279.707021 
L 241.805146 279.348387 
L 242.762264 278.870209 
L 243.719383 278.750664 
L 244.676501 278.511575 
L 245.633619 278.39203 
L 247.547856 277.614991 
L 248.504974 277.555218 
L 253.290566 276.359772 
L 254.247684 276.359772 
L 256.161921 276.120683 
L 258.076158 275.582732 
L 260.947513 274.925237 
L 261.904631 274.865465 
L 263.818868 274.088425 
L 264.775986 273.96888 
L 265.733105 273.550474 
L 267.647341 273.371157 
L 268.60446 273.311385 
L 271.475815 272.833207 
L 273.390051 272.534345 
L 278.175643 271.637761 
L 280.08988 270.980266 
L 281.046998 270.442315 
L 282.004117 270.203226 
L 282.961235 270.083681 
L 284.875472 269.485958 
L 286.789708 268.469829 
L 287.746827 267.872106 
L 288.703945 267.752562 
L 289.661063 267.4537 
L 290.618182 267.334156 
L 291.5753 267.095066 
L 292.532419 266.975522 
L 293.489537 266.557116 
L 295.403774 266.258254 
L 297.31801 265.421442 
L 298.275129 265.182353 
L 299.232247 265.062808 
L 300.189365 264.763947 
L 304.017839 264.046679 
L 305.932075 263.269639 
L 306.889194 263.090323 
L 307.846312 262.731689 
L 308.803431 262.612144 
L 309.760549 262.193738 
L 310.717667 261.954649 
L 312.631904 261.835104 
L 314.546141 261.237381 
L 315.503259 261.117837 
L 316.460377 261.117837 
L 317.417496 260.699431 
L 320.288851 260.101708 
L 322.203087 260.041935 
L 323.160206 259.922391 
L 324.117324 259.922391 
L 326.031561 259.623529 
L 328.902916 258.308539 
L 329.860034 257.890133 
L 330.817153 257.651044 
L 331.774271 257.053321 
L 332.731389 256.754459 
L 334.645626 255.917647 
L 335.602744 255.73833 
L 337.516981 255.080835 
L 339.431218 254.064706 
L 340.388336 253.108349 
L 341.345455 251.673814 
L 342.302573 250.53814 
L 343.259691 250.299051 
L 344.21681 250.299051 
L 346.131046 248.984061 
L 347.088165 248.744972 
L 348.045283 248.266793 
L 349.002401 248.087476 
L 349.95952 247.250664 
L 350.916638 247.011575 
L 353.787993 245.756357 
L 354.745111 244.680455 
L 355.70223 243.305693 
L 356.659348 242.767742 
L 357.616467 241.333207 
L 358.573585 240.436622 
L 359.530703 240.018216 
L 360.487822 239.779127 
L 362.402058 238.703226 
L 363.359177 238.28482 
L 367.18765 235.654839 
L 368.144768 234.39962 
L 369.101887 232.367362 
L 370.059005 231.052372 
L 371.016123 230.394877 
L 371.973242 230.036243 
L 375.801715 226.987856 
L 377.715952 225.553321 
L 378.67307 224.776281 
L 379.630189 223.521063 
L 380.587307 222.68425 
L 383.458662 220.831309 
L 385.372899 219.635863 
L 386.330017 218.858824 
L 387.287136 218.619734 
L 390.158491 217.244972 
L 392.072727 216.228843 
L 393.029846 215.870209 
L 394.944082 214.256357 
L 395.901201 213.180455 
L 397.815437 211.985009 
L 398.772556 211.74592 
L 399.729674 211.267742 
L 400.686792 210.610247 
L 402.601029 209.65389 
L 403.558148 209.534345 
L 404.515266 208.936622 
L 406.429503 208.040038 
L 407.386621 207.143454 
L 408.343739 206.545731 
L 409.300858 206.246869 
L 410.257976 205.649146 
L 413.129331 204.393928 
L 414.086449 203.796205 
L 415.043568 203.019165 
L 416.957804 202.36167 
L 417.914923 202.003036 
L 418.872041 201.823719 
L 419.82916 201.225996 
L 420.786278 201.046679 
L 422.700515 200.389184 
L 424.614751 199.731689 
L 426.528988 199.014421 
L 427.486106 198.775332 
L 428.443225 198.416698 
L 430.357461 198.117837 
L 432.271698 196.623529 
L 433.228816 196.264896 
L 438.014408 193.993548 
L 438.971527 193.754459 
L 439.928645 193.216509 
L 440.885763 192.977419 
L 443.757118 191.303795 
L 446.628473 190.706072 
L 447.585592 190.407211 
L 448.54271 190.227894 
L 451.414065 188.673814 
L 452.371184 188.554269 
L 453.328302 188.195636 
L 454.28542 188.076091 
L 455.242539 187.837002 
L 458.113894 185.924288 
L 459.071012 185.744972 
L 460.02813 185.44611 
L 460.985249 185.326565 
L 461.942367 185.027704 
L 462.899485 184.370209 
L 463.856604 184.071347 
L 464.813722 183.652941 
L 468.642196 182.636812 
L 469.599314 182.57704 
L 470.556432 182.278178 
L 472.470669 181.501139 
L 473.427787 181.202277 
L 474.384906 181.02296 
L 477.256261 179.887287 
L 479.170497 179.349336 
L 480.127616 179.289564 
L 482.041852 178.871157 
L 482.998971 178.452751 
L 483.956089 178.273435 
L 485.870326 177.496395 
L 489.698799 175.703226 
L 490.655918 175.105503 
L 491.613036 174.866414 
L 494.484391 173.491651 
L 496.398628 173.073245 
L 498.312864 172.17666 
L 499.269983 171.877799 
L 501.18422 171.578937 
L 502.141338 170.921442 
L 503.098456 170.503036 
L 504.055575 170.323719 
L 505.969811 169.606452 
L 506.92693 169.427135 
L 507.884048 168.948956 
L 511.712521 168.411006 
L 513.626758 167.574194 
L 514.583877 166.856926 
L 515.540995 165.302846 
L 516.498113 165.063757 
L 518.41235 164.764896 
L 522.240823 162.971727 
L 523.197942 162.79241 
L 528.940652 160.222201 
L 529.89777 159.624478 
L 530.854889 159.265844 
L 533.726244 158.727894 
L 535.64048 157.831309 
L 536.597599 157.472676 
L 537.554717 157.353131 
L 540.426072 156.27723 
L 542.340309 155.201328 
L 543.297427 154.603605 
L 544.254545 154.185199 
L 545.211664 154.065655 
L 546.168782 153.766793 
L 547.125901 153.707021 
L 550.954374 152.511575 
L 551.911492 152.451803 
L 552.868611 151.794307 
L 553.825729 151.555218 
L 555.739966 150.837951 
L 557.654202 150.3 
L 558.611321 149.762049 
L 559.568439 149.463188 
L 560.525557 148.865465 
L 561.482676 148.506831 
L 562.439794 147.96888 
L 564.354031 147.311385 
L 565.311149 147.012524 
L 568.182504 145.817078 
L 569.139623 145.159583 
L 570.096741 144.143454 
L 571.053859 143.545731 
L 572.010978 143.366414 
L 573.925214 141.991651 
L 574.882333 141.812334 
L 575.839451 140.497343 
L 576.796569 140.13871 
L 577.753688 139.481214 
L 578.710806 139.36167 
L 579.667925 138.763947 
L 580.625043 138.345541 
L 581.582161 138.166224 
L 582.53928 137.80759 
L 583.496398 137.090323 
L 584.453516 136.791461 
L 587.324871 134.998292 
L 591.153345 133.264896 
L 592.110463 133.145351 
L 593.067581 132.786717 
L 594.981818 131.770588 
L 595.938937 130.336053 
L 596.896055 129.439469 
L 597.853173 128.96129 
L 598.810292 128.781973 
L 600.724528 127.706072 
L 601.681647 127.526755 
L 603.595883 126.689943 
L 606.467238 125.554269 
L 608.381475 124.299051 
L 610.295712 122.386338 
L 611.25283 121.66907 
L 613.167067 120.593169 
L 614.124185 119.696584 
L 616.99554 117.544782 
L 617.952659 117.066603 
L 618.909777 116.110247 
L 619.866895 115.452751 
L 621.781132 114.795256 
L 622.73825 113.958444 
L 624.652487 113.06186 
L 625.609605 112.82277 
L 626.566724 112.165275 
L 627.523842 111.926186 
L 630.395197 110.551423 
L 631.352316 109.893928 
L 632.309434 109.41575 
L 634.223671 108.877799 
L 635.180789 108.339848 
L 638.052144 107.503036 
L 639.966381 106.965085 
L 641.880617 106.068501 
L 642.837736 105.291461 
L 644.751973 104.574194 
L 647.623328 103.558065 
L 648.580446 102.900569 
L 651.451801 101.645351 
L 652.408919 100.987856 
L 653.366038 100.509677 
L 655.280274 97.042884 
L 657.194511 94.891082 
L 658.15163 94.233586 
L 661.980103 92.679507 
L 662.937221 92.559962 
L 663.89434 92.081784 
L 664.851458 91.842694 
L 665.808576 91.484061 
L 666.765695 91.244972 
L 669.63705 90.16907 
L 671.551286 88.85408 
L 673.465523 88.136812 
L 679.208233 85.148197 
L 680.165352 84.251613 
L 682.079588 83.295256 
L 683.036707 82.817078 
L 683.993825 82.518216 
L 684.950943 81.860721 
L 685.908062 81.502087 
L 688.779417 79.948008 
L 689.736535 79.410057 
L 690.693654 79.170968 
L 691.650772 78.513472 
L 692.60789 78.154839 
L 693.565009 77.975522 
L 695.479245 77.258254 
L 697.393482 76.720304 
L 698.3506 76.242125 
L 699.307719 75.58463 
L 700.264837 75.405313 
L 703.136192 74.448956 
L 704.09331 73.731689 
L 706.964666 72.655787 
L 707.921784 72.416698 
L 709.836021 71.221252 
L 710.793139 70.862619 
L 711.750257 70.38444 
L 713.664494 69.009677 
L 715.578731 68.411954 
L 716.535849 67.634915 
L 717.492967 67.455598 
L 718.450086 66.678558 
L 720.364322 65.662429 
L 722.278559 64.885389 
L 723.235678 63.988805 
L 724.192796 63.510626 
L 726.107033 62.972676 
L 727.064151 62.434725 
L 728.021269 62.31518 
L 730.892624 60.940417 
L 733.763979 60.103605 
L 734.721098 59.864516 
L 735.678216 59.804744 
L 736.635334 59.625427 
L 737.592453 59.266793 
L 738.549571 59.087476 
L 740.463808 58.370209 
L 741.420926 58.310436 
L 744.292281 57.413852 
L 746.206518 56.337951 
L 747.163636 55.8 
L 747.163636 55.8 
" clip-path="url(#p3f0becba2e)" style="fill: none; stroke: #1f77b4; stroke-width: 1.5; stroke-linecap: square"/>
   </g>
   <g id="line2d_36">
    <path d="M 139.393482 307.8 
L 141.307719 307.8 
L 143.221955 307.560911 
L 148.964666 307.501139 
L 151.836021 307.381594 
L 154.707376 307.321822 
L 156.621612 307.262049 
L 159.492967 307.262049 
L 160.450086 307.02296 
L 163.321441 306.963188 
L 168.107033 306.425237 
L 175.763979 306.006831 
L 176.721098 306.006831 
L 177.678216 305.827514 
L 180.549571 305.767742 
L 182.463808 305.528653 
L 186.292281 305.528653 
L 187.2494 305.409108 
L 192.034991 305.349336 
L 194.906346 305.229791 
L 203.520412 305.170019 
L 205.434648 305.110247 
L 209.263122 305.050474 
L 212.134477 304.93093 
L 215.96295 304.93093 
L 216.920069 304.811385 
L 219.791424 304.751613 
L 223.619897 304.572296 
L 230.319726 304.512524 
L 232.233962 304.452751 
L 236.062436 304.392979 
L 238.933791 304.034345 
L 243.719383 303.974573 
L 248.504974 303.735484 
L 253.290566 303.675712 
L 256.161921 303.556167 
L 258.076158 303.496395 
L 259.990395 303.317078 
L 263.818868 303.137761 
L 266.690223 303.077989 
L 268.60446 303.018216 
L 270.518696 303.018216 
L 271.475815 302.898672 
L 274.34717 302.898672 
L 276.261407 302.719355 
L 279.132762 302.59981 
L 283.918353 302.540038 
L 286.789708 302.241176 
L 288.703945 302.121632 
L 289.661063 301.942315 
L 293.489537 301.882543 
L 304.017839 301.28482 
L 305.932075 301.225047 
L 308.803431 301.105503 
L 309.760549 301.105503 
L 311.674786 300.926186 
L 313.589022 300.866414 
L 314.546141 300.866414 
L 315.503259 300.746869 
L 317.417496 300.687097 
L 322.203087 300.448008 
L 324.117324 300.388235 
L 326.988679 300.268691 
L 329.860034 300.208918 
L 331.774271 300.149146 
L 336.559863 300.149146 
L 340.388336 299.73074 
L 341.345455 299.73074 
L 343.259691 299.551423 
L 345.173928 299.491651 
L 349.95952 299.192789 
L 350.916638 298.9537 
L 352.830875 298.834156 
L 353.787993 298.595066 
L 356.659348 298.355977 
L 358.573585 297.937571 
L 360.487822 297.877799 
L 362.402058 297.877799 
L 363.359177 297.758254 
L 364.316295 297.758254 
L 367.18765 297.339848 
L 368.144768 297.100759 
L 385.372899 296.08463 
L 386.330017 296.08463 
L 390.158491 295.606452 
L 391.115609 295.606452 
L 393.029846 295.30759 
L 394.944082 295.128273 
L 396.858319 295.068501 
L 398.772556 295.068501 
L 399.729674 294.829412 
L 402.601029 294.709867 
L 404.515266 294.709867 
L 406.429503 294.53055 
L 407.386621 294.53055 
L 410.257976 294.112144 
L 411.215094 293.873055 
L 413.129331 293.813283 
L 415.043568 293.75351 
L 416.000686 293.633966 
L 420.786278 293.574194 
L 434.185935 292.797154 
L 436.100172 292.797154 
L 438.014408 292.617837 
L 439.928645 292.617837 
L 442.8 292.318975 
L 446.628473 292.139658 
L 448.54271 292.079886 
L 450.456947 292.020114 
L 453.328302 291.960342 
L 460.02813 291.601708 
L 464.813722 291.541935 
L 466.727959 291.482163 
L 467.685077 291.482163 
L 468.642196 291.302846 
L 470.556432 291.243074 
L 476.299142 291.183302 
L 478.213379 291.123529 
L 482.998971 291.063757 
L 483.956089 290.88444 
L 489.698799 290.824668 
L 491.613036 290.764896 
L 493.527273 290.705123 
L 495.441509 290.645351 
L 497.355746 290.585579 
L 504.055575 290.226945 
L 509.798285 290.167173 
L 512.66964 289.928083 
L 514.583877 289.748767 
L 516.498113 289.688994 
L 518.41235 289.688994 
L 519.369468 289.56945 
L 522.240823 289.509677 
L 523.197942 289.270588 
L 527.026415 289.091271 
L 535.64048 289.031499 
L 540.426072 288.672865 
L 543.297427 288.374004 
L 548.083019 288.314231 
L 550.954374 288.01537 
L 556.697084 287.716509 
L 558.611321 287.656736 
L 562.439794 287.477419 
L 566.268268 287.417647 
L 569.139623 287.298102 
L 572.968096 287.23833 
L 575.839451 286.939469 
L 577.753688 286.879696 
L 581.582161 286.819924 
L 584.453516 286.580835 
L 585.410635 286.46129 
L 586.367753 286.46129 
L 588.28199 286.281973 
L 593.067581 286.222201 
L 594.981818 285.92334 
L 603.595883 285.863567 
L 605.51012 285.68425 
L 606.467238 285.564706 
L 608.381475 285.504934 
L 610.295712 285.445161 
L 611.25283 285.206072 
L 613.167067 285.1463 
L 614.124185 284.966983 
L 616.038422 284.966983 
L 618.909777 284.668121 
L 637.095026 283.59222 
L 639.009262 283.532448 
L 640.923499 283.472676 
L 652.408919 283.412903 
L 655.280274 283.293359 
L 656.237393 283.293359 
L 657.194511 283.054269 
L 659.108748 282.994497 
L 663.89434 282.934725 
L 666.765695 282.81518 
L 671.551286 282.755408 
L 674.422642 282.635863 
L 676.336878 282.635863 
L 678.251115 282.396774 
L 680.165352 282.337002 
L 686.86518 281.978368 
L 688.779417 281.978368 
L 690.693654 281.799051 
L 697.393482 281.739279 
L 699.307719 281.559962 
L 702.179074 281.440417 
L 706.964666 281.380645 
L 708.878902 281.320873 
L 712.707376 281.261101 
L 714.621612 281.201328 
L 716.535849 281.141556 
L 718.450086 281.081784 
L 724.192796 281.022011 
L 728.978388 280.782922 
L 734.721098 280.72315 
L 739.50669 280.484061 
L 744.292281 280.484061 
L 745.2494 280.304744 
L 746.206518 280.304744 
L 747.163636 280.185199 
L 747.163636 280.185199 
" clip-path="url(#p3f0becba2e)" style="fill: none; stroke: #ff7f0e; stroke-width: 1.5; stroke-linecap: square"/>
   </g>
   <g id="patch_3">
    <path d="M 108 320.4 
L 108 43.2 
" style="fill: none; stroke: #a9a9a9; stroke-width: 0.8; stroke-linejoin: miter; stroke-linecap: square"/>
   </g>
   <g id="patch_4">
    <path d="M 777.6 320.4 
L 777.6 43.2 
" style="fill: none"/>
   </g>
   <g id="patch_5">
    <path d="M 108 320.4 
L 777.6 320.4 
" style="fill: none; stroke: #a9a9a9; stroke-width: 0.8; stroke-linejoin: miter; stroke-linecap: square"/>
   </g>
   <g id="patch_6">
    <path d="M 108 43.2 
L 777.6 43.2 
" style="fill: none"/>
   </g>
   <g id="text_18">
    <!-- get_subscribe history -->
    <g style="fill: #a9a9a9" transform="translate(378.6075 37.2) scale(0.12 -0.12)">
     <defs>
      <path id="DejaVuSans-67" d="M 2906 1791 
Q 2906 2416 2648 2759 
Q 2391 3103 1925 3103 
Q 1463 3103 1205 2759 
Q 947 2416 947 1791 
Q 947 1169 1205 825 
Q 1463 481 1925 481 
Q 2391 481 2648 825 
Q 2906 1169 2906 1791 
z
M 3481 434 
Q 3481 -459 3084 -895 
Q 2688 -1331 1869 -1331 
Q 1566 -1331 1297 -1286 
Q 1028 -1241 775 -1147 
L 775 -588 
Q 1028 -725 1275 -790 
Q 1522 -856 1778 -856 
Q 2344 -856 2625 -561 
Q 2906 -266 2906 331 
L 2906 616 
Q 2728 306 2450 153 
Q 2172 0 1784 0 
Q 1141 0 747 490 
Q 353 981 353 1791 
Q 353 2603 747 3093 
Q 1141 3584 1784 3584 
Q 2172 3584 2450 3431 
Q 2728 3278 2906 2969 
L 2906 3500 
L 3481 3500 
L 3481 434 
z
" transform="scale(0.015625)"/>
      <path id="DejaVuSans-65" d="M 3597 1894 
L 3597 1613 
L 953 1613 
Q 991 1019 1311 708 
Q 1631 397 2203 397 
Q 2534 397 2845 478 
Q 3156 559 3463 722 
L 3463 178 
Q 3153 47 2828 -22 
Q 2503 -91 2169 -91 
Q 1331 -91 842 396 
Q 353 884 353 1716 
Q 353 2575 817 3079 
Q 1281 3584 2069 3584 
Q 2775 3584 3186 3129 
Q 3597 2675 3597 1894 
z
M 3022 2063 
Q 3016 2534 2758 2815 
Q 2500 3097 2075 3097 
Q 1594 3097 1305 2825 
Q 1016 2553 972 2059 
L 3022 2063 
z
" transform="scale(0.015625)"/>
      <path id="DejaVuSans-74" d="M 1172 4494 
L 1172 3500 
L 2356 3500 
L 2356 3053 
L 1172 3053 
L 1172 1153 
Q 1172 725 1289 603 
Q 1406 481 1766 481 
L 2356 481 
L 2356 0 
L 1766 0 
Q 1100 0 847 248 
Q 594 497 594 1153 
L 594 3053 
L 172 3053 
L 172 3500 
L 594 3500 
L 594 4494 
L 1172 4494 
z
" transform="scale(0.015625)"/>
      <path id="DejaVuSans-5f" d="M 3263 -1063 
L 3263 -1509 
L -63 -1509 
L -63 -1063 
L 3263 -1063 
z
" transform="scale(0.015625)"/>
      <path id="DejaVuSans-73" d="M 2834 3397 
L 2834 2853 
Q 2591 2978 2328 3040 
Q 2066 3103 1784 3103 
Q 1356 3103 1142 2972 
Q 928 2841 928 2578 
Q 928 2378 1081 2264 
Q 1234 2150 1697 2047 
L 1894 2003 
Q 2506 1872 2764 1633 
Q 3022 1394 3022 966 
Q 3022 478 2636 193 
Q 2250 -91 1575 -91 
Q 1294 -91 989 -36 
Q 684 19 347 128 
L 347 722 
Q 666 556 975 473 
Q 1284 391 1588 391 
Q 1994 391 2212 530 
Q 2431 669 2431 922 
Q 2431 1156 2273 1281 
Q 2116 1406 1581 1522 
L 1381 1569 
Q 847 1681 609 1914 
Q 372 2147 372 2553 
Q 372 3047 722 3315 
Q 1072 3584 1716 3584 
Q 2034 3584 2315 3537 
Q 2597 3491 2834 3397 
z
" transform="scale(0.015625)"/>
      <path id="DejaVuSans-75" d="M 544 1381 
L 544 3500 
L 1119 3500 
L 1119 1403 
Q 1119 906 1312 657 
Q 1506 409 1894 409 
Q 2359 409 2629 706 
Q 2900 1003 2900 1516 
L 2900 3500 
L 3475 3500 
L 3475 0 
L 2900 0 
L 2900 538 
Q 2691 219 2414 64 
Q 2138 -91 1772 -91 
Q 1169 -91 856 284 
Q 544 659 544 1381 
z
M 1991 3584 
L 1991 3584 
z
" transform="scale(0.015625)"/>
      <path id="DejaVuSans-62" d="M 3116 1747 
Q 3116 2381 2855 2742 
Q 2594 3103 2138 3103 
Q 1681 3103 1420 2742 
Q 1159 2381 1159 1747 
Q 1159 1113 1420 752 
Q 1681 391 2138 391 
Q 2594 391 2855 752 
Q 3116 1113 3116 1747 
z
M 1159 2969 
Q 1341 3281 1617 3432 
Q 1894 3584 2278 3584 
Q 2916 3584 3314 3078 
Q 3713 2572 3713 1747 
Q 3713 922 3314 415 
Q 2916 -91 2278 -91 
Q 1894 -91 1617 61 
Q 1341 213 1159 525 
L 1159 0 
L 581 0 
L 581 4863 
L 1159 4863 
L 1159 2969 
z
" transform="scale(0.015625)"/>
      <path id="DejaVuSans-63" d="M 3122 3366 
L 3122 2828 
Q 2878 2963 2633 3030 
Q 2388 3097 2138 3097 
Q 1578 3097 1268 2742 
Q 959 2388 959 1747 
Q 959 1106 1268 751 
Q 1578 397 2138 397 
Q 2388 397 2633 464 
Q 2878 531 3122 666 
L 3122 134 
Q 2881 22 2623 -34 
Q 2366 -91 2075 -91 
Q 1284 -91 818 406 
Q 353 903 353 1747 
Q 353 2603 823 3093 
Q 1294 3584 2113 3584 
Q 2378 3584 2631 3529 
Q 2884 3475 3122 3366 
z
" transform="scale(0.015625)"/>
      <path id="DejaVuSans-72" d="M 2631 2963 
Q 2534 3019 2420 3045 
Q 2306 3072 2169 3072 
Q 1681 3072 1420 2755 
Q 1159 2438 1159 1844 
L 1159 0 
L 581 0 
L 581 3500 
L 1159 3500 
L 1159 2956 
Q 1341 3275 1631 3429 
Q 1922 3584 2338 3584 
Q 2397 3584 2469 3576 
Q 2541 3569 2628 3553 
L 2631 2963 
z
" transform="scale(0.015625)"/>
      <path id="DejaVuSans-69" d="M 603 3500 
L 1178 3500 
L 1178 0 
L 603 0 
L 603 3500 
z
M 603 4863 
L 1178 4863 
L 1178 4134 
L 603 4134 
L 603 4863 
z
" transform="scale(0.015625)"/>
      <path id="DejaVuSans-20" transform="scale(0.015625)"/>
      <path id="DejaVuSans-68" d="M 3513 2113 
L 3513 0 
L 2938 0 
L 2938 2094 
Q 2938 2591 2744 2837 
Q 2550 3084 2163 3084 
Q 1697 3084 1428 2787 
Q 1159 2491 1159 1978 
L 1159 0 
L 581 0 
L 581 4863 
L 1159 4863 
L 1159 2956 
Q 1366 3272 1645 3428 
Q 1925 3584 2291 3584 
Q 2894 3584 3203 3211 
Q 3513 2838 3513 2113 
z
" transform="scale(0.015625)"/>
      <path id="DejaVuSans-6f" d="M 1959 3097 
Q 1497 3097 1228 2736 
Q 959 2375 959 1747 
Q 959 1119 1226 758 
Q 1494 397 1959 397 
Q 2419 397 2687 759 
Q 2956 1122 2956 1747 
Q 2956 2369 2687 2733 
Q 2419 3097 1959 3097 
z
M 1959 3584 
Q 2709 3584 3137 3096 
Q 3566 2609 3566 1747 
Q 3566 888 3137 398 
Q 2709 -91 1959 -91 
Q 1206 -91 779 398 
Q 353 888 353 1747 
Q 353 2609 779 3096 
Q 1206 3584 1959 3584 
z
" transform="scale(0.015625)"/>
      <path id="DejaVuSans-79" d="M 2059 -325 
Q 1816 -950 1584 -1140 
Q 1353 -1331 966 -1331 
L 506 -1331 
L 506 -850 
L 844 -850 
Q 1081 -850 1212 -737 
Q 1344 -625 1503 -206 
L 1606 56 
L 191 3500 
L 800 3500 
L 1894 763 
L 2988 3500 
L 3597 3500 
L 2059 -325 
z
" transform="scale(0.015625)"/>
     </defs>
     <use xlink:href="#DejaVuSans-67"/>
     <use xlink:href="#DejaVuSans-65" x="63.476562"/>
     <use xlink:href="#DejaVuSans-74" x="125"/>
     <use xlink:href="#DejaVuSans-5f" x="164.208984"/>
     <use xlink:href="#DejaVuSans-73" x="214.208984"/>
     <use xlink:href="#DejaVuSans-75" x="266.308594"/>
     <use xlink:href="#DejaVuSans-62" x="329.6875"/>
     <use xlink:href="#DejaVuSans-73" x="393.164062"/>
     <use xlink:href="#DejaVuSans-63" x="445.263672"/>
     <use xlink:href="#DejaVuSans-72" x="500.244141"/>
     <use xlink:href="#DejaVuSans-69" x="541.357422"/>
     <use xlink:href="#DejaVuSans-62" x="569.140625"/>
     <use xlink:href="#DejaVuSans-65" x="632.617188"/>
     <use xlink:href="#DejaVuSans-20" x="694.140625"/>
     <use xlink:href="#DejaVuSans-68" x="725.927734"/>
     <use xlink:href="#DejaVuSans-69" x="789.306641"/>
     <use xlink:href="#DejaVuSans-73" x="817.089844"/>
     <use xlink:href="#DejaVuSans-74" x="869.189453"/>
     <use xlink:href="#DejaVuSans-6f" x="908.398438"/>
     <use xlink:href="#DejaVuSans-72" x="969.580078"/>
     <use xlink:href="#DejaVuSans-79" x="1010.693359"/>
    </g>
   </g>
   <g id="legend_1">
    <g id="line2d_37">
     <path d="M 815.08 328.498438 
L 825.08 328.498438 
L 835.08 328.498438 
" style="fill: none; stroke: #1f77b4; stroke-width: 1.5; stroke-linecap: square"/>
    </g>
    <g id="text_19">
     <!-- star -->
     <g style="fill: #a9a9a9" transform="translate(843.08 331.998438) scale(0.1 -0.1)">
      <defs>
       <path id="DejaVuSans-61" d="M 2194 1759 
Q 1497 1759 1228 1600 
Q 959 1441 959 1056 
Q 959 750 1161 570 
Q 1363 391 1709 391 
Q 2188 391 2477 730 
Q 2766 1069 2766 1631 
L 2766 1759 
L 2194 1759 
z
M 3341 1997 
L 3341 0 
L 2766 0 
L 2766 531 
Q 2569 213 2275 61 
Q 1981 -91 1556 -91 
Q 1019 -91 701 211 
Q 384 513 384 1019 
Q 384 1609 779 1909 
Q 1175 2209 1959 2209 
L 2766 2209 
L 2766 2266 
Q 2766 2663 2505 2880 
Q 2244 3097 1772 3097 
Q 1472 3097 1187 3025 
Q 903 2953 641 2809 
L 641 3341 
Q 956 3463 1253 3523 
Q 1550 3584 1831 3584 
Q 2591 3584 2966 3190 
Q 3341 2797 3341 1997 
z
" transform="scale(0.015625)"/>
      </defs>
      <use xlink:href="#DejaVuSans-73"/>
      <use xlink:href="#DejaVuSans-74" x="52.099609"/>
      <use xlink:href="#DejaVuSans-61" x="91.308594"/>
      <use xlink:href="#DejaVuSans-72" x="152.587891"/>
     </g>
    </g>
    <g id="line2d_38">
     <path d="M 815.08 343.176562 
L 825.08 343.176562 
L 835.08 343.176562 
" style="fill: none; stroke: #ff7f0e; stroke-width: 1.5; stroke-linecap: square"/>
    </g>
    <g id="text_20">
     <!-- fork -->
     <g style="fill: #a9a9a9" transform="translate(843.08 346.676562) scale(0.1 -0.1)">
      <defs>
       <path id="DejaVuSans-66" d="M 2375 4863 
L 2375 4384 
L 1825 4384 
Q 1516 4384 1395 4259 
Q 1275 4134 1275 3809 
L 1275 3500 
L 2222 3500 
L 2222 3053 
L 1275 3053 
L 1275 0 
L 697 0 
L 697 3053 
L 147 3053 
L 147 3500 
L 697 3500 
L 697 3744 
Q 697 4328 969 4595 
Q 1241 4863 1831 4863 
L 2375 4863 
z
" transform="scale(0.015625)"/>
       <path id="DejaVuSans-6b" d="M 581 4863 
L 1159 4863 
L 1159 1991 
L 2875 3500 
L 3609 3500 
L 1753 1863 
L 3688 0 
L 2938 0 
L 1159 1709 
L 1159 0 
L 581 0 
L 581 4863 
z
" transform="scale(0.015625)"/>
      </defs>
      <use xlink:href="#DejaVuSans-66"/>
      <use xlink:href="#DejaVuSans-6f" x="35.205078"/>
      <use xlink:href="#DejaVuSans-72" x="96.386719"/>
      <use xlink:href="#DejaVuSans-6b" x="137.5"/>
     </g>
    </g>
   </g>
  </g>
 </g>
 <defs>
  <clipPath id="p3f0becba2e">
   <rect x="108" y="43.2" width="669.6" height="277.2"/>
  </clipPath>
 </defs>
</svg>
