<?xml version="1.0" encoding="utf-8" standalone="no"?>
<!DOCTYPE svg PUBLIC "-//W3C//DTD SVG 1.1//EN"
  "http://www.w3.org/Graphics/SVG/1.1/DTD/svg11.dtd">
<svg xmlns:xlink="http://www.w3.org/1999/xlink" width="864pt" height="360pt" viewBox="0 0 864 360" xmlns="http://www.w3.org/2000/svg" version="1.1">
 <metadata>
  <rdf:RDF xmlns:dc="http://purl.org/dc/elements/1.1/" xmlns:cc="http://creativecommons.org/ns#" xmlns:rdf="http://www.w3.org/1999/02/22-rdf-syntax-ns#">
   <cc:Work>
    <dc:type rdf:resource="http://purl.org/dc/dcmitype/StillImage"/>
    <dc:date>2023-04-22T20:19:01.639855</dc:date>
    <dc:format>image/svg+xml</dc:format>
    <dc:creator>
     <cc:Agent>
      <dc:title>Matplotlib v3.7.1, https://matplotlib.org/</dc:title>
     </cc:Agent>
    </dc:creator>
   </cc:Work>
  </rdf:RDF>
 </metadata>
 <defs>
  <style type="text/css">*{stroke-linejoin: round; stroke-linecap: butt}</style>
 </defs>
 <g id="figure_1">
  <g id="patch_1">
   <path d="M 0 360 
L 864 360 
L 864 0 
L 0 0 
L 0 360 
z
" style="fill: none; opacity: 0"/>
  </g>
  <g id="axes_1">
   <g id="patch_2">
    <path d="M 108 320.4 
L 777.6 320.4 
L 777.6 43.2 
L 108 43.2 
L 108 320.4 
z
" style="fill: none; opacity: 0"/>
   </g>
   <g id="matplotlib.axis_1">
    <g id="xtick_1">
     <g id="line2d_1">
      <path d="M 116.4572 320.4 
L 116.4572 43.2 
" clip-path="url(#p97d7a2b529)" style="fill: none; stroke-dasharray: 5.12,1.28,0.8,1.28; stroke-dashoffset: 0; stroke: #b0b0b0; stroke-width: 0.8"/>
     </g>
     <g id="line2d_2">
      <defs>
       <path id="m37b9e30bdf" d="M 0 0 
L 0 3.5 
" style="stroke: #a9a9a9; stroke-width: 0.8"/>
      </defs>
      <g>
       <use xlink:href="#m37b9e30bdf" x="116.4572" y="320.4" style="fill: #a9a9a9; stroke: #a9a9a9; stroke-width: 0.8"/>
      </g>
     </g>
     <g id="text_1">
      <!-- 2021-07 -->
      <g style="fill: #a9a9a9" transform="translate(95.565794 334.998438) scale(0.1 -0.1)">
       <defs>
        <path id="DejaVuSans-32" d="M 1228 531 
L 3431 531 
L 3431 0 
L 469 0 
L 469 531 
Q 828 903 1448 1529 
Q 2069 2156 2228 2338 
Q 2531 2678 2651 2914 
Q 2772 3150 2772 3378 
Q 2772 3750 2511 3984 
Q 2250 4219 1831 4219 
Q 1534 4219 1204 4116 
Q 875 4013 500 3803 
L 500 4441 
Q 881 4594 1212 4672 
Q 1544 4750 1819 4750 
Q 2544 4750 2975 4387 
Q 3406 4025 3406 3419 
Q 3406 3131 3298 2873 
Q 3191 2616 2906 2266 
Q 2828 2175 2409 1742 
Q 1991 1309 1228 531 
z
" transform="scale(0.015625)"/>
        <path id="DejaVuSans-30" d="M 2034 4250 
Q 1547 4250 1301 3770 
Q 1056 3291 1056 2328 
Q 1056 1369 1301 889 
Q 1547 409 2034 409 
Q 2525 409 2770 889 
Q 3016 1369 3016 2328 
Q 3016 3291 2770 3770 
Q 2525 4250 2034 4250 
z
M 2034 4750 
Q 2819 4750 3233 4129 
Q 3647 3509 3647 2328 
Q 3647 1150 3233 529 
Q 2819 -91 2034 -91 
Q 1250 -91 836 529 
Q 422 1150 422 2328 
Q 422 3509 836 4129 
Q 1250 4750 2034 4750 
z
" transform="scale(0.015625)"/>
        <path id="DejaVuSans-31" d="M 794 531 
L 1825 531 
L 1825 4091 
L 703 3866 
L 703 4441 
L 1819 4666 
L 2450 4666 
L 2450 531 
L 3481 531 
L 3481 0 
L 794 0 
L 794 531 
z
" transform="scale(0.015625)"/>
        <path id="DejaVuSans-2d" d="M 313 2009 
L 1997 2009 
L 1997 1497 
L 313 1497 
L 313 2009 
z
" transform="scale(0.015625)"/>
        <path id="DejaVuSans-37" d="M 525 4666 
L 3525 4666 
L 3525 4397 
L 1831 0 
L 1172 0 
L 2766 4134 
L 525 4134 
L 525 4666 
z
" transform="scale(0.015625)"/>
       </defs>
       <use xlink:href="#DejaVuSans-32"/>
       <use xlink:href="#DejaVuSans-30" x="63.623047"/>
       <use xlink:href="#DejaVuSans-32" x="127.246094"/>
       <use xlink:href="#DejaVuSans-31" x="190.869141"/>
       <use xlink:href="#DejaVuSans-2d" x="254.492188"/>
       <use xlink:href="#DejaVuSans-30" x="290.576172"/>
       <use xlink:href="#DejaVuSans-37" x="354.199219"/>
      </g>
     </g>
    </g>
    <g id="xtick_2">
     <g id="line2d_3">
      <path d="M 204.373855 320.4 
L 204.373855 43.2 
" clip-path="url(#p97d7a2b529)" style="fill: none; stroke-dasharray: 5.12,1.28,0.8,1.28; stroke-dashoffset: 0; stroke: #b0b0b0; stroke-width: 0.8"/>
     </g>
     <g id="line2d_4">
      <g>
       <use xlink:href="#m37b9e30bdf" x="204.373855" y="320.4" style="fill: #a9a9a9; stroke: #a9a9a9; stroke-width: 0.8"/>
      </g>
     </g>
     <g id="text_2">
      <!-- 2021-10 -->
      <g style="fill: #a9a9a9" transform="translate(183.482448 334.998438) scale(0.1 -0.1)">
       <use xlink:href="#DejaVuSans-32"/>
       <use xlink:href="#DejaVuSans-30" x="63.623047"/>
       <use xlink:href="#DejaVuSans-32" x="127.246094"/>
       <use xlink:href="#DejaVuSans-31" x="190.869141"/>
       <use xlink:href="#DejaVuSans-2d" x="254.492188"/>
       <use xlink:href="#DejaVuSans-31" x="290.576172"/>
       <use xlink:href="#DejaVuSans-30" x="354.199219"/>
      </g>
     </g>
    </g>
    <g id="xtick_3">
     <g id="line2d_5">
      <path d="M 292.290509 320.4 
L 292.290509 43.2 
" clip-path="url(#p97d7a2b529)" style="fill: none; stroke-dasharray: 5.12,1.28,0.8,1.28; stroke-dashoffset: 0; stroke: #b0b0b0; stroke-width: 0.8"/>
     </g>
     <g id="line2d_6">
      <g>
       <use xlink:href="#m37b9e30bdf" x="292.290509" y="320.4" style="fill: #a9a9a9; stroke: #a9a9a9; stroke-width: 0.8"/>
      </g>
     </g>
     <g id="text_3">
      <!-- 2022-01 -->
      <g style="fill: #a9a9a9" transform="translate(271.399103 334.998438) scale(0.1 -0.1)">
       <use xlink:href="#DejaVuSans-32"/>
       <use xlink:href="#DejaVuSans-30" x="63.623047"/>
       <use xlink:href="#DejaVuSans-32" x="127.246094"/>
       <use xlink:href="#DejaVuSans-32" x="190.869141"/>
       <use xlink:href="#DejaVuSans-2d" x="254.492188"/>
       <use xlink:href="#DejaVuSans-30" x="290.576172"/>
       <use xlink:href="#DejaVuSans-31" x="354.199219"/>
      </g>
     </g>
    </g>
    <g id="xtick_4">
     <g id="line2d_7">
      <path d="M 378.295933 320.4 
L 378.295933 43.2 
" clip-path="url(#p97d7a2b529)" style="fill: none; stroke-dasharray: 5.12,1.28,0.8,1.28; stroke-dashoffset: 0; stroke: #b0b0b0; stroke-width: 0.8"/>
     </g>
     <g id="line2d_8">
      <g>
       <use xlink:href="#m37b9e30bdf" x="378.295933" y="320.4" style="fill: #a9a9a9; stroke: #a9a9a9; stroke-width: 0.8"/>
      </g>
     </g>
     <g id="text_4">
      <!-- 2022-04 -->
      <g style="fill: #a9a9a9" transform="translate(357.404526 334.998438) scale(0.1 -0.1)">
       <defs>
        <path id="DejaVuSans-34" d="M 2419 4116 
L 825 1625 
L 2419 1625 
L 2419 4116 
z
M 2253 4666 
L 3047 4666 
L 3047 1625 
L 3713 1625 
L 3713 1100 
L 3047 1100 
L 3047 0 
L 2419 0 
L 2419 1100 
L 313 1100 
L 313 1709 
L 2253 4666 
z
" transform="scale(0.015625)"/>
       </defs>
       <use xlink:href="#DejaVuSans-32"/>
       <use xlink:href="#DejaVuSans-30" x="63.623047"/>
       <use xlink:href="#DejaVuSans-32" x="127.246094"/>
       <use xlink:href="#DejaVuSans-32" x="190.869141"/>
       <use xlink:href="#DejaVuSans-2d" x="254.492188"/>
       <use xlink:href="#DejaVuSans-30" x="290.576172"/>
       <use xlink:href="#DejaVuSans-34" x="354.199219"/>
      </g>
     </g>
    </g>
    <g id="xtick_5">
     <g id="line2d_9">
      <path d="M 465.256972 320.4 
L 465.256972 43.2 
" clip-path="url(#p97d7a2b529)" style="fill: none; stroke-dasharray: 5.12,1.28,0.8,1.28; stroke-dashoffset: 0; stroke: #b0b0b0; stroke-width: 0.8"/>
     </g>
     <g id="line2d_10">
      <g>
       <use xlink:href="#m37b9e30bdf" x="465.256972" y="320.4" style="fill: #a9a9a9; stroke: #a9a9a9; stroke-width: 0.8"/>
      </g>
     </g>
     <g id="text_5">
      <!-- 2022-07 -->
      <g style="fill: #a9a9a9" transform="translate(444.365565 334.998438) scale(0.1 -0.1)">
       <use xlink:href="#DejaVuSans-32"/>
       <use xlink:href="#DejaVuSans-30" x="63.623047"/>
       <use xlink:href="#DejaVuSans-32" x="127.246094"/>
       <use xlink:href="#DejaVuSans-32" x="190.869141"/>
       <use xlink:href="#DejaVuSans-2d" x="254.492188"/>
       <use xlink:href="#DejaVuSans-30" x="290.576172"/>
       <use xlink:href="#DejaVuSans-37" x="354.199219"/>
      </g>
     </g>
    </g>
    <g id="xtick_6">
     <g id="line2d_11">
      <path d="M 553.173626 320.4 
L 553.173626 43.2 
" clip-path="url(#p97d7a2b529)" style="fill: none; stroke-dasharray: 5.12,1.28,0.8,1.28; stroke-dashoffset: 0; stroke: #b0b0b0; stroke-width: 0.8"/>
     </g>
     <g id="line2d_12">
      <g>
       <use xlink:href="#m37b9e30bdf" x="553.173626" y="320.4" style="fill: #a9a9a9; stroke: #a9a9a9; stroke-width: 0.8"/>
      </g>
     </g>
     <g id="text_6">
      <!-- 2022-10 -->
      <g style="fill: #a9a9a9" transform="translate(532.28222 334.998438) scale(0.1 -0.1)">
       <use xlink:href="#DejaVuSans-32"/>
       <use xlink:href="#DejaVuSans-30" x="63.623047"/>
       <use xlink:href="#DejaVuSans-32" x="127.246094"/>
       <use xlink:href="#DejaVuSans-32" x="190.869141"/>
       <use xlink:href="#DejaVuSans-2d" x="254.492188"/>
       <use xlink:href="#DejaVuSans-31" x="290.576172"/>
       <use xlink:href="#DejaVuSans-30" x="354.199219"/>
      </g>
     </g>
    </g>
    <g id="xtick_7">
     <g id="line2d_13">
      <path d="M 641.090281 320.4 
L 641.090281 43.2 
" clip-path="url(#p97d7a2b529)" style="fill: none; stroke-dasharray: 5.12,1.28,0.8,1.28; stroke-dashoffset: 0; stroke: #b0b0b0; stroke-width: 0.8"/>
     </g>
     <g id="line2d_14">
      <g>
       <use xlink:href="#m37b9e30bdf" x="641.090281" y="320.4" style="fill: #a9a9a9; stroke: #a9a9a9; stroke-width: 0.8"/>
      </g>
     </g>
     <g id="text_7">
      <!-- 2023-01 -->
      <g style="fill: #a9a9a9" transform="translate(620.198875 334.998438) scale(0.1 -0.1)">
       <defs>
        <path id="DejaVuSans-33" d="M 2597 2516 
Q 3050 2419 3304 2112 
Q 3559 1806 3559 1356 
Q 3559 666 3084 287 
Q 2609 -91 1734 -91 
Q 1441 -91 1130 -33 
Q 819 25 488 141 
L 488 750 
Q 750 597 1062 519 
Q 1375 441 1716 441 
Q 2309 441 2620 675 
Q 2931 909 2931 1356 
Q 2931 1769 2642 2001 
Q 2353 2234 1838 2234 
L 1294 2234 
L 1294 2753 
L 1863 2753 
Q 2328 2753 2575 2939 
Q 2822 3125 2822 3475 
Q 2822 3834 2567 4026 
Q 2313 4219 1838 4219 
Q 1578 4219 1281 4162 
Q 984 4106 628 3988 
L 628 4550 
Q 988 4650 1302 4700 
Q 1616 4750 1894 4750 
Q 2613 4750 3031 4423 
Q 3450 4097 3450 3541 
Q 3450 3153 3228 2886 
Q 3006 2619 2597 2516 
z
" transform="scale(0.015625)"/>
       </defs>
       <use xlink:href="#DejaVuSans-32"/>
       <use xlink:href="#DejaVuSans-30" x="63.623047"/>
       <use xlink:href="#DejaVuSans-32" x="127.246094"/>
       <use xlink:href="#DejaVuSans-33" x="190.869141"/>
       <use xlink:href="#DejaVuSans-2d" x="254.492188"/>
       <use xlink:href="#DejaVuSans-30" x="290.576172"/>
       <use xlink:href="#DejaVuSans-31" x="354.199219"/>
      </g>
     </g>
    </g>
    <g id="xtick_8">
     <g id="line2d_15">
      <path d="M 727.095704 320.4 
L 727.095704 43.2 
" clip-path="url(#p97d7a2b529)" style="fill: none; stroke-dasharray: 5.12,1.28,0.8,1.28; stroke-dashoffset: 0; stroke: #b0b0b0; stroke-width: 0.8"/>
     </g>
     <g id="line2d_16">
      <g>
       <use xlink:href="#m37b9e30bdf" x="727.095704" y="320.4" style="fill: #a9a9a9; stroke: #a9a9a9; stroke-width: 0.8"/>
      </g>
     </g>
     <g id="text_8">
      <!-- 2023-04 -->
      <g style="fill: #a9a9a9" transform="translate(706.204298 334.998438) scale(0.1 -0.1)">
       <use xlink:href="#DejaVuSans-32"/>
       <use xlink:href="#DejaVuSans-30" x="63.623047"/>
       <use xlink:href="#DejaVuSans-32" x="127.246094"/>
       <use xlink:href="#DejaVuSans-33" x="190.869141"/>
       <use xlink:href="#DejaVuSans-2d" x="254.492188"/>
       <use xlink:href="#DejaVuSans-30" x="290.576172"/>
       <use xlink:href="#DejaVuSans-34" x="354.199219"/>
      </g>
     </g>
    </g>
   </g>
   <g id="matplotlib.axis_2">
    <g id="ytick_1">
     <g id="line2d_17">
      <path d="M 108 307.859631 
L 777.6 307.859631 
" clip-path="url(#p97d7a2b529)" style="fill: none; stroke-dasharray: 5.12,1.28,0.8,1.28; stroke-dashoffset: 0; stroke: #b0b0b0; stroke-width: 0.8"/>
     </g>
     <g id="line2d_18">
      <defs>
       <path id="ma102188f08" d="M 0 0 
L -3.5 0 
" style="stroke: #a9a9a9; stroke-width: 0.8"/>
      </defs>
      <g>
       <use xlink:href="#ma102188f08" x="108" y="307.859631" style="fill: #a9a9a9; stroke: #a9a9a9; stroke-width: 0.8"/>
      </g>
     </g>
     <g id="text_9">
      <!-- 0 -->
      <g style="fill: #a9a9a9" transform="translate(94.6375 311.65885) scale(0.1 -0.1)">
       <use xlink:href="#DejaVuSans-30"/>
      </g>
     </g>
    </g>
    <g id="ytick_2">
     <g id="line2d_19">
      <path d="M 108 278.044203 
L 777.6 278.044203 
" clip-path="url(#p97d7a2b529)" style="fill: none; stroke-dasharray: 5.12,1.28,0.8,1.28; stroke-dashoffset: 0; stroke: #b0b0b0; stroke-width: 0.8"/>
     </g>
     <g id="line2d_20">
      <g>
       <use xlink:href="#ma102188f08" x="108" y="278.044203" style="fill: #a9a9a9; stroke: #a9a9a9; stroke-width: 0.8"/>
      </g>
     </g>
     <g id="text_10">
      <!-- 500 -->
      <g style="fill: #a9a9a9" transform="translate(81.9125 281.843421) scale(0.1 -0.1)">
       <defs>
        <path id="DejaVuSans-35" d="M 691 4666 
L 3169 4666 
L 3169 4134 
L 1269 4134 
L 1269 2991 
Q 1406 3038 1543 3061 
Q 1681 3084 1819 3084 
Q 2600 3084 3056 2656 
Q 3513 2228 3513 1497 
Q 3513 744 3044 326 
Q 2575 -91 1722 -91 
Q 1428 -91 1123 -41 
Q 819 9 494 109 
L 494 744 
Q 775 591 1075 516 
Q 1375 441 1709 441 
Q 2250 441 2565 725 
Q 2881 1009 2881 1497 
Q 2881 1984 2565 2268 
Q 2250 2553 1709 2553 
Q 1456 2553 1204 2497 
Q 953 2441 691 2322 
L 691 4666 
z
" transform="scale(0.015625)"/>
       </defs>
       <use xlink:href="#DejaVuSans-35"/>
       <use xlink:href="#DejaVuSans-30" x="63.623047"/>
       <use xlink:href="#DejaVuSans-30" x="127.246094"/>
      </g>
     </g>
    </g>
    <g id="ytick_3">
     <g id="line2d_21">
      <path d="M 108 248.228774 
L 777.6 248.228774 
" clip-path="url(#p97d7a2b529)" style="fill: none; stroke-dasharray: 5.12,1.28,0.8,1.28; stroke-dashoffset: 0; stroke: #b0b0b0; stroke-width: 0.8"/>
     </g>
     <g id="line2d_22">
      <g>
       <use xlink:href="#ma102188f08" x="108" y="248.228774" style="fill: #a9a9a9; stroke: #a9a9a9; stroke-width: 0.8"/>
      </g>
     </g>
     <g id="text_11">
      <!-- 1000 -->
      <g style="fill: #a9a9a9" transform="translate(75.55 252.027993) scale(0.1 -0.1)">
       <use xlink:href="#DejaVuSans-31"/>
       <use xlink:href="#DejaVuSans-30" x="63.623047"/>
       <use xlink:href="#DejaVuSans-30" x="127.246094"/>
       <use xlink:href="#DejaVuSans-30" x="190.869141"/>
      </g>
     </g>
    </g>
    <g id="ytick_4">
     <g id="line2d_23">
      <path d="M 108 218.413346 
L 777.6 218.413346 
" clip-path="url(#p97d7a2b529)" style="fill: none; stroke-dasharray: 5.12,1.28,0.8,1.28; stroke-dashoffset: 0; stroke: #b0b0b0; stroke-width: 0.8"/>
     </g>
     <g id="line2d_24">
      <g>
       <use xlink:href="#ma102188f08" x="108" y="218.413346" style="fill: #a9a9a9; stroke: #a9a9a9; stroke-width: 0.8"/>
      </g>
     </g>
     <g id="text_12">
      <!-- 1500 -->
      <g style="fill: #a9a9a9" transform="translate(75.55 222.212565) scale(0.1 -0.1)">
       <use xlink:href="#DejaVuSans-31"/>
       <use xlink:href="#DejaVuSans-35" x="63.623047"/>
       <use xlink:href="#DejaVuSans-30" x="127.246094"/>
       <use xlink:href="#DejaVuSans-30" x="190.869141"/>
      </g>
     </g>
    </g>
    <g id="ytick_5">
     <g id="line2d_25">
      <path d="M 108 188.597918 
L 777.6 188.597918 
" clip-path="url(#p97d7a2b529)" style="fill: none; stroke-dasharray: 5.12,1.28,0.8,1.28; stroke-dashoffset: 0; stroke: #b0b0b0; stroke-width: 0.8"/>
     </g>
     <g id="line2d_26">
      <g>
       <use xlink:href="#ma102188f08" x="108" y="188.597918" style="fill: #a9a9a9; stroke: #a9a9a9; stroke-width: 0.8"/>
      </g>
     </g>
     <g id="text_13">
      <!-- 2000 -->
      <g style="fill: #a9a9a9" transform="translate(75.55 192.397136) scale(0.1 -0.1)">
       <use xlink:href="#DejaVuSans-32"/>
       <use xlink:href="#DejaVuSans-30" x="63.623047"/>
       <use xlink:href="#DejaVuSans-30" x="127.246094"/>
       <use xlink:href="#DejaVuSans-30" x="190.869141"/>
      </g>
     </g>
    </g>
    <g id="ytick_6">
     <g id="line2d_27">
      <path d="M 108 158.782489 
L 777.6 158.782489 
" clip-path="url(#p97d7a2b529)" style="fill: none; stroke-dasharray: 5.12,1.28,0.8,1.28; stroke-dashoffset: 0; stroke: #b0b0b0; stroke-width: 0.8"/>
     </g>
     <g id="line2d_28">
      <g>
       <use xlink:href="#ma102188f08" x="108" y="158.782489" style="fill: #a9a9a9; stroke: #a9a9a9; stroke-width: 0.8"/>
      </g>
     </g>
     <g id="text_14">
      <!-- 2500 -->
      <g style="fill: #a9a9a9" transform="translate(75.55 162.581708) scale(0.1 -0.1)">
       <use xlink:href="#DejaVuSans-32"/>
       <use xlink:href="#DejaVuSans-35" x="63.623047"/>
       <use xlink:href="#DejaVuSans-30" x="127.246094"/>
       <use xlink:href="#DejaVuSans-30" x="190.869141"/>
      </g>
     </g>
    </g>
    <g id="ytick_7">
     <g id="line2d_29">
      <path d="M 108 128.967061 
L 777.6 128.967061 
" clip-path="url(#p97d7a2b529)" style="fill: none; stroke-dasharray: 5.12,1.28,0.8,1.28; stroke-dashoffset: 0; stroke: #b0b0b0; stroke-width: 0.8"/>
     </g>
     <g id="line2d_30">
      <g>
       <use xlink:href="#ma102188f08" x="108" y="128.967061" style="fill: #a9a9a9; stroke: #a9a9a9; stroke-width: 0.8"/>
      </g>
     </g>
     <g id="text_15">
      <!-- 3000 -->
      <g style="fill: #a9a9a9" transform="translate(75.55 132.76628) scale(0.1 -0.1)">
       <use xlink:href="#DejaVuSans-33"/>
       <use xlink:href="#DejaVuSans-30" x="63.623047"/>
       <use xlink:href="#DejaVuSans-30" x="127.246094"/>
       <use xlink:href="#DejaVuSans-30" x="190.869141"/>
      </g>
     </g>
    </g>
    <g id="ytick_8">
     <g id="line2d_31">
      <path d="M 108 99.151633 
L 777.6 99.151633 
" clip-path="url(#p97d7a2b529)" style="fill: none; stroke-dasharray: 5.12,1.28,0.8,1.28; stroke-dashoffset: 0; stroke: #b0b0b0; stroke-width: 0.8"/>
     </g>
     <g id="line2d_32">
      <g>
       <use xlink:href="#ma102188f08" x="108" y="99.151633" style="fill: #a9a9a9; stroke: #a9a9a9; stroke-width: 0.8"/>
      </g>
     </g>
     <g id="text_16">
      <!-- 3500 -->
      <g style="fill: #a9a9a9" transform="translate(75.55 102.950851) scale(0.1 -0.1)">
       <use xlink:href="#DejaVuSans-33"/>
       <use xlink:href="#DejaVuSans-35" x="63.623047"/>
       <use xlink:href="#DejaVuSans-30" x="127.246094"/>
       <use xlink:href="#DejaVuSans-30" x="190.869141"/>
      </g>
     </g>
    </g>
    <g id="ytick_9">
     <g id="line2d_33">
      <path d="M 108 69.336204 
L 777.6 69.336204 
" clip-path="url(#p97d7a2b529)" style="fill: none; stroke-dasharray: 5.12,1.28,0.8,1.28; stroke-dashoffset: 0; stroke: #b0b0b0; stroke-width: 0.8"/>
     </g>
     <g id="line2d_34">
      <g>
       <use xlink:href="#ma102188f08" x="108" y="69.336204" style="fill: #a9a9a9; stroke: #a9a9a9; stroke-width: 0.8"/>
      </g>
     </g>
     <g id="text_17">
      <!-- 4000 -->
      <g style="fill: #a9a9a9" transform="translate(75.55 73.135423) scale(0.1 -0.1)">
       <use xlink:href="#DejaVuSans-34"/>
       <use xlink:href="#DejaVuSans-30" x="63.623047"/>
       <use xlink:href="#DejaVuSans-30" x="127.246094"/>
       <use xlink:href="#DejaVuSans-30" x="190.869141"/>
      </g>
     </g>
    </g>
   </g>
   <g id="line2d_35">
    <path d="M 138.436364 307.621107 
L 142.258827 307.322953 
L 143.214443 307.203691 
L 144.170059 307.203691 
L 145.125674 306.845906 
L 147.036906 306.726645 
L 153.726217 305.474397 
L 155.637448 305.355135 
L 156.593064 305.176242 
L 159.459912 304.99735 
L 160.415527 304.520303 
L 161.371143 304.281779 
L 162.326759 303.208424 
L 163.282375 302.612115 
L 164.237991 300.644297 
L 165.193606 300.525035 
L 166.149222 299.869096 
L 167.104838 299.511311 
L 168.060454 299.034264 
L 170.927301 296.827922 
L 172.838533 295.99309 
L 173.794149 295.635305 
L 174.749765 294.979366 
L 176.660996 294.204165 
L 177.616612 293.727118 
L 178.572228 293.428964 
L 179.527844 291.997823 
L 180.483459 291.282253 
L 182.394691 290.328159 
L 188.128386 289.552958 
L 189.084002 289.374065 
L 190.995233 289.254804 
L 191.950849 289.075911 
L 192.906465 288.598864 
L 194.817697 288.539233 
L 195.773312 288.539233 
L 199.595776 288.121817 
L 200.551391 287.823663 
L 205.329471 286.9292 
L 207.240702 286.750308 
L 208.196318 286.511784 
L 211.063165 286.21363 
L 212.018781 285.736583 
L 212.974397 285.617321 
L 213.930013 285.259536 
L 215.841244 284.961382 
L 216.79686 284.901751 
L 217.752476 284.603597 
L 221.574939 284.066919 
L 222.530555 283.768765 
L 224.441787 283.470611 
L 225.397403 283.470611 
L 230.175482 282.874302 
L 232.086713 282.337624 
L 233.042329 282.099101 
L 234.953561 281.920208 
L 235.909177 281.860577 
L 238.776024 281.3239 
L 239.73164 281.025745 
L 240.687256 279.833128 
L 241.642871 279.475343 
L 242.598487 278.998296 
L 243.554103 278.879035 
L 244.509719 278.640511 
L 245.465335 278.521249 
L 247.376566 277.746048 
L 248.332182 277.686417 
L 253.110261 276.4938 
L 254.065877 276.4938 
L 255.977109 276.255277 
L 257.88834 275.718599 
L 260.755188 275.06266 
L 261.710803 275.003029 
L 263.622035 274.227828 
L 264.577651 274.108566 
L 265.533267 273.69115 
L 267.444498 273.512257 
L 268.400114 273.452627 
L 271.266962 272.97558 
L 273.178193 272.677425 
L 277.956272 271.782963 
L 279.867504 271.127023 
L 280.82312 270.590345 
L 281.778736 270.351822 
L 282.734351 270.23256 
L 284.645583 269.636252 
L 286.556815 268.622527 
L 287.51243 268.026219 
L 288.468046 267.906957 
L 289.423662 267.608803 
L 290.379278 267.489541 
L 291.334894 267.251018 
L 292.290509 267.131756 
L 293.246125 266.71434 
L 295.157357 266.416186 
L 297.068589 265.581354 
L 298.024204 265.34283 
L 298.97982 265.223568 
L 299.935436 264.925414 
L 303.757899 264.209844 
L 305.669131 263.434643 
L 306.624747 263.25575 
L 307.580362 262.897965 
L 308.535978 262.778703 
L 309.491594 262.361287 
L 310.44721 262.122764 
L 312.358442 262.003502 
L 314.269673 261.407194 
L 315.225289 261.287932 
L 316.180905 261.287932 
L 317.136521 260.870516 
L 320.003368 260.274207 
L 321.9146 260.214576 
L 322.870215 260.095315 
L 323.825831 260.095315 
L 325.737063 259.79716 
L 328.60391 258.485282 
L 329.559526 258.067866 
L 330.515142 257.829342 
L 331.470758 257.233034 
L 332.426374 256.934879 
L 334.337605 256.100047 
L 335.293221 255.921155 
L 337.204453 255.265215 
L 339.115684 254.251491 
L 340.0713 253.297397 
L 341.026916 251.866257 
L 341.982532 250.73327 
L 342.938148 250.494747 
L 343.893763 250.494747 
L 345.804995 249.182868 
L 346.760611 248.944345 
L 347.716227 248.467298 
L 348.671842 248.288405 
L 349.627458 247.453573 
L 350.583074 247.21505 
L 353.449922 245.962802 
L 354.405537 244.889446 
L 355.361153 243.517937 
L 356.316769 242.981259 
L 357.272385 241.550118 
L 358.228001 240.655655 
L 359.183616 240.238239 
L 360.139232 239.999716 
L 362.050464 238.926361 
L 363.00608 238.508945 
L 366.828543 235.885187 
L 367.784159 234.632939 
L 368.739775 232.60549 
L 369.69539 231.293611 
L 370.651006 230.637672 
L 371.606622 230.279886 
L 375.429085 227.238713 
L 377.340317 225.807572 
L 378.295933 225.032371 
L 379.251548 223.780123 
L 380.207164 222.945291 
L 383.074012 221.096735 
L 384.985243 219.904117 
L 385.940859 219.128916 
L 386.896475 218.890393 
L 389.763322 217.518883 
L 391.674554 216.505159 
L 392.63017 216.147373 
L 394.541401 214.53734 
L 395.497017 213.463985 
L 397.408249 212.271368 
L 398.363865 212.032844 
L 399.319481 211.555797 
L 400.275096 210.899858 
L 402.186328 209.945764 
L 403.141944 209.826503 
L 404.09756 209.230194 
L 406.008791 208.335731 
L 406.964407 207.441268 
L 407.920023 206.84496 
L 408.875639 206.546805 
L 409.831254 205.950497 
L 412.698102 204.698249 
L 413.653718 204.10194 
L 414.609334 203.326739 
L 416.520565 202.6708 
L 417.476181 202.313015 
L 418.431797 202.134122 
L 419.387413 201.537814 
L 420.343028 201.358921 
L 422.25426 200.702982 
L 424.165492 200.047042 
L 426.076723 199.331472 
L 427.032339 199.092948 
L 427.987955 198.735163 
L 429.899187 198.437009 
L 431.810418 196.946238 
L 432.766034 196.588452 
L 437.544113 194.32248 
L 438.499729 194.083956 
L 439.455345 193.547279 
L 440.41096 193.308755 
L 443.277808 191.639091 
L 446.144655 191.042783 
L 447.100271 190.744628 
L 448.055887 190.565736 
L 450.922734 189.015334 
L 451.87835 188.896072 
L 452.833966 188.538287 
L 453.789582 188.419025 
L 454.745198 188.180502 
L 457.612045 186.272314 
L 458.567661 186.093422 
L 459.523277 185.795267 
L 460.478893 185.676006 
L 461.434508 185.377851 
L 462.390124 184.721912 
L 463.34574 184.423758 
L 464.301356 184.006342 
L 468.123819 182.992617 
L 469.079435 182.932986 
L 470.035051 182.634832 
L 471.946282 181.859631 
L 472.901898 181.561477 
L 473.857514 181.382584 
L 476.724361 180.249598 
L 478.635593 179.71292 
L 479.591209 179.653289 
L 481.50244 179.235873 
L 482.458056 178.818457 
L 483.413672 178.639565 
L 485.324904 177.864363 
L 489.147367 176.075438 
L 490.102983 175.479129 
L 491.058599 175.240606 
L 493.925446 173.869096 
L 495.836678 173.45168 
L 497.747909 172.557217 
L 498.703525 172.259063 
L 500.614757 171.960909 
L 501.570372 171.304969 
L 502.525988 170.887553 
L 503.481604 170.708661 
L 505.392836 169.99309 
L 506.348452 169.814198 
L 507.304067 169.337151 
L 511.126531 168.800473 
L 513.037762 167.965641 
L 513.993378 167.250071 
L 514.948994 165.699669 
L 515.90461 165.461145 
L 517.815841 165.162991 
L 521.638305 163.374065 
L 522.59392 163.195173 
L 528.327615 160.631046 
L 529.283231 160.034737 
L 530.238847 159.676952 
L 533.105694 159.140274 
L 535.016926 158.245812 
L 535.972542 157.888027 
L 536.928158 157.768765 
L 539.795005 156.695409 
L 541.706237 155.622054 
L 542.661852 155.025745 
L 543.617468 154.608329 
L 544.573084 154.489068 
L 545.5287 154.190913 
L 546.484316 154.131283 
L 550.306779 152.938665 
L 551.262395 152.879035 
L 552.218011 152.223095 
L 553.173626 151.984572 
L 555.084858 151.269001 
L 556.99609 150.732324 
L 557.951705 150.195646 
L 558.907321 149.897492 
L 559.862937 149.301183 
L 560.818553 148.943398 
L 561.774169 148.40672 
L 563.6854 147.750781 
L 564.641016 147.452627 
L 567.507864 146.260009 
L 568.463479 145.60407 
L 569.419095 144.590345 
L 570.374711 143.994037 
L 571.330327 143.815144 
L 573.241558 142.443635 
L 574.197174 142.264742 
L 575.15279 140.952863 
L 576.108406 140.595078 
L 577.064022 139.939139 
L 578.019638 139.819877 
L 578.975253 139.223568 
L 579.930869 138.806152 
L 580.886485 138.62726 
L 581.842101 138.269475 
L 582.797717 137.553904 
L 583.753332 137.25575 
L 586.62018 135.466824 
L 590.442643 133.73753 
L 591.398259 133.618268 
L 592.353875 133.260483 
L 594.265106 132.246758 
L 595.220722 130.815618 
L 596.176338 129.921155 
L 597.131954 129.444108 
L 598.08757 129.265215 
L 599.998801 128.19186 
L 600.954417 128.012967 
L 602.865649 127.178135 
L 605.732496 126.045149 
L 607.643728 124.792901 
L 609.554959 122.884714 
L 610.510575 122.169143 
L 612.421807 121.095788 
L 613.377423 120.201325 
L 616.24427 118.054614 
L 617.199886 117.577567 
L 618.155502 116.623474 
L 619.111117 115.967534 
L 621.022349 115.311595 
L 621.977965 114.476763 
L 623.889197 113.5823 
L 624.844812 113.343777 
L 625.800428 112.687837 
L 626.756044 112.449314 
L 629.622891 111.077804 
L 630.578507 110.421865 
L 631.534123 109.944818 
L 633.445355 109.40814 
L 634.40097 108.871462 
L 637.267818 108.03663 
L 639.17905 107.499953 
L 641.090281 106.60549 
L 642.045897 105.830289 
L 643.957129 105.114718 
L 646.823976 104.100994 
L 647.779592 103.445054 
L 650.646439 102.192806 
L 651.602055 101.536867 
L 652.557671 101.05982 
L 654.468903 97.60123 
L 656.380134 95.45452 
L 657.33575 94.79858 
L 661.158213 93.248178 
L 662.113829 93.128916 
L 663.069445 92.651869 
L 664.025061 92.413346 
L 664.980676 92.055561 
L 665.936292 91.817037 
L 668.80314 90.743682 
L 670.714371 89.431803 
L 672.625603 88.716233 
L 678.359298 85.73469 
L 679.314914 84.840227 
L 681.226145 83.886133 
L 682.181761 83.409087 
L 683.137377 83.110932 
L 684.092993 82.454993 
L 685.048609 82.097208 
L 687.915456 80.546805 
L 688.871072 80.010128 
L 689.826688 79.771604 
L 690.782303 79.115665 
L 691.737919 78.75788 
L 692.693535 78.578987 
L 694.604767 77.863417 
L 696.515998 77.326739 
L 697.471614 76.849692 
L 698.42723 76.193753 
L 699.382846 76.01486 
L 702.249693 75.060767 
L 703.205309 74.345196 
L 706.072156 73.271841 
L 707.027772 73.033318 
L 708.939004 71.8407 
L 709.89462 71.482915 
L 710.850235 71.005868 
L 712.761467 69.69399 
L 714.672699 69.097681 
L 715.628315 68.32248 
L 716.58393 68.143587 
L 717.539546 67.368386 
L 719.450778 66.354662 
L 721.362009 65.57946 
L 722.317625 64.684998 
L 723.273241 64.207951 
L 725.184473 63.671273 
L 726.140088 63.134595 
L 727.095704 63.015334 
L 729.962552 61.643824 
L 732.829399 60.808992 
L 733.785015 60.570469 
L 734.740631 60.510838 
L 735.696247 60.331945 
L 736.651862 59.97416 
L 737.607478 59.795267 
L 739.51871 59.079697 
L 740.474326 59.020066 
L 743.341173 58.125603 
L 745.252405 57.052248 
L 746.208021 56.336678 
L 747.163636 55.8 
L 747.163636 55.8 
" clip-path="url(#p97d7a2b529)" style="fill: none; stroke: #1f77b4; stroke-width: 1.5; stroke-linecap: square"/>
   </g>
   <g id="line2d_36">
    <path d="M 139.391979 307.8 
L 141.303211 307.8 
L 143.214443 307.561477 
L 148.948138 307.501846 
L 151.814985 307.382584 
L 154.681832 307.322953 
L 156.593064 307.263322 
L 159.459912 307.263322 
L 160.415527 307.024799 
L 163.282375 306.965168 
L 168.060454 306.42849 
L 175.70538 306.011074 
L 176.660996 306.011074 
L 177.616612 305.832182 
L 180.483459 305.772551 
L 182.394691 305.534027 
L 186.217154 305.534027 
L 187.17277 305.414766 
L 191.950849 305.355135 
L 194.817697 305.235873 
L 203.418239 305.176242 
L 205.329471 305.116611 
L 209.151934 305.056981 
L 212.018781 304.937719 
L 215.841244 304.937719 
L 216.79686 304.818457 
L 219.663708 304.758826 
L 223.486171 304.579934 
L 230.175482 304.520303 
L 232.086713 304.460672 
L 235.909177 304.401041 
L 238.776024 304.043256 
L 243.554103 303.983625 
L 248.332182 303.745102 
L 253.110261 303.685471 
L 255.977109 303.566209 
L 257.88834 303.506578 
L 259.799572 303.327686 
L 263.622035 303.148793 
L 266.488883 303.089162 
L 268.400114 303.029531 
L 270.311346 303.029531 
L 271.266962 302.91027 
L 274.133809 302.91027 
L 276.045041 302.731377 
L 278.911888 302.612115 
L 283.689967 302.552485 
L 286.556815 302.25433 
L 288.468046 302.135069 
L 289.423662 301.956176 
L 293.246125 301.896545 
L 303.757899 301.300237 
L 305.669131 301.240606 
L 308.535978 301.121344 
L 309.491594 301.121344 
L 311.402826 300.942451 
L 313.314057 300.882821 
L 314.269673 300.882821 
L 315.225289 300.763559 
L 317.136521 300.703928 
L 321.9146 300.465405 
L 323.825831 300.405774 
L 326.692679 300.286512 
L 329.559526 300.226881 
L 331.470758 300.16725 
L 336.248837 300.16725 
L 340.0713 299.749834 
L 341.026916 299.749834 
L 342.938148 299.570942 
L 344.849379 299.511311 
L 349.627458 299.213157 
L 350.583074 298.974633 
L 352.494306 298.855372 
L 353.449922 298.616848 
L 356.316769 298.378325 
L 358.228001 297.960909 
L 360.139232 297.901278 
L 362.050464 297.901278 
L 363.00608 297.782016 
L 363.961695 297.782016 
L 366.828543 297.3646 
L 367.784159 297.126077 
L 384.985243 296.112352 
L 385.940859 296.112352 
L 389.763322 295.635305 
L 390.718938 295.635305 
L 392.63017 295.337151 
L 394.541401 295.158258 
L 396.452633 295.098628 
L 398.363865 295.098628 
L 399.319481 294.860104 
L 402.186328 294.740842 
L 404.09756 294.740842 
L 406.008791 294.56195 
L 406.964407 294.56195 
L 409.831254 294.144534 
L 410.78687 293.90601 
L 412.698102 293.84638 
L 414.609334 293.786749 
L 415.564949 293.667487 
L 420.343028 293.607856 
L 433.72165 292.832655 
L 435.632881 292.832655 
L 437.544113 292.653762 
L 439.455345 292.653762 
L 442.322192 292.355608 
L 446.144655 292.176716 
L 448.055887 292.117085 
L 449.967119 292.057454 
L 452.833966 291.997823 
L 459.523277 291.640038 
L 464.301356 291.580407 
L 466.212587 291.520776 
L 467.168203 291.520776 
L 468.123819 291.341884 
L 470.035051 291.282253 
L 475.768746 291.222622 
L 477.679977 291.162991 
L 482.458056 291.10336 
L 483.413672 290.924468 
L 489.147367 290.864837 
L 491.058599 290.805206 
L 492.96983 290.745575 
L 494.881062 290.685944 
L 496.792293 290.626313 
L 503.481604 290.268528 
L 509.215299 290.208897 
L 512.082146 289.970374 
L 513.993378 289.791481 
L 515.90461 289.73185 
L 517.815841 289.73185 
L 518.771457 289.612589 
L 521.638305 289.552958 
L 522.59392 289.314434 
L 526.416384 289.135542 
L 535.016926 289.075911 
L 539.795005 288.718126 
L 542.661852 288.419972 
L 547.439931 288.360341 
L 550.306779 288.062186 
L 556.040474 287.764032 
L 557.951705 287.704401 
L 561.774169 287.525509 
L 565.596632 287.465878 
L 568.463479 287.346616 
L 572.285943 287.286985 
L 575.15279 286.988831 
L 577.064022 286.9292 
L 580.886485 286.869569 
L 583.753332 286.631046 
L 584.708948 286.511784 
L 585.664564 286.511784 
L 587.575796 286.332892 
L 592.353875 286.273261 
L 594.265106 285.975106 
L 602.865649 285.915476 
L 604.77688 285.736583 
L 605.732496 285.617321 
L 607.643728 285.55769 
L 609.554959 285.49806 
L 610.510575 285.259536 
L 612.421807 285.199905 
L 613.377423 285.021013 
L 615.288654 285.021013 
L 618.155502 284.722858 
L 636.312202 283.649503 
L 638.223434 283.589872 
L 640.134665 283.530241 
L 651.602055 283.470611 
L 654.468903 283.351349 
L 655.424518 283.351349 
L 656.380134 283.112825 
L 658.291366 283.053195 
L 663.069445 282.993564 
L 665.936292 282.874302 
L 670.714371 282.814671 
L 673.581219 282.695409 
L 675.49245 282.695409 
L 677.403682 282.456886 
L 679.314914 282.397255 
L 686.004224 282.03947 
L 687.915456 282.03947 
L 689.826688 281.860577 
L 696.515998 281.800947 
L 698.42723 281.622054 
L 701.294077 281.502792 
L 706.072156 281.443161 
L 707.983388 281.383531 
L 711.805851 281.3239 
L 713.717083 281.264269 
L 715.628315 281.204638 
L 717.539546 281.145007 
L 723.273241 281.085376 
L 728.05132 280.846853 
L 733.785015 280.787222 
L 738.563094 280.548699 
L 743.341173 280.548699 
L 744.296789 280.369806 
L 745.252405 280.369806 
L 747.163636 280.190913 
L 747.163636 280.190913 
" clip-path="url(#p97d7a2b529)" style="fill: none; stroke: #ff7f0e; stroke-width: 1.5; stroke-linecap: square"/>
   </g>
   <g id="patch_3">
    <path d="M 108 320.4 
L 108 43.2 
" style="fill: none; stroke: #a9a9a9; stroke-width: 0.8; stroke-linejoin: miter; stroke-linecap: square"/>
   </g>
   <g id="patch_4">
    <path d="M 777.6 320.4 
L 777.6 43.2 
" style="fill: none"/>
   </g>
   <g id="patch_5">
    <path d="M 108 320.4 
L 777.6 320.4 
" style="fill: none; stroke: #a9a9a9; stroke-width: 0.8; stroke-linejoin: miter; stroke-linecap: square"/>
   </g>
   <g id="patch_6">
    <path d="M 108 43.2 
L 777.6 43.2 
" style="fill: none"/>
   </g>
   <g id="text_18">
    <!-- get_subscribe history -->
    <g style="fill: #a9a9a9" transform="translate(378.6075 37.2) scale(0.12 -0.12)">
     <defs>
      <path id="DejaVuSans-67" d="M 2906 1791 
Q 2906 2416 2648 2759 
Q 2391 3103 1925 3103 
Q 1463 3103 1205 2759 
Q 947 2416 947 1791 
Q 947 1169 1205 825 
Q 1463 481 1925 481 
Q 2391 481 2648 825 
Q 2906 1169 2906 1791 
z
M 3481 434 
Q 3481 -459 3084 -895 
Q 2688 -1331 1869 -1331 
Q 1566 -1331 1297 -1286 
Q 1028 -1241 775 -1147 
L 775 -588 
Q 1028 -725 1275 -790 
Q 1522 -856 1778 -856 
Q 2344 -856 2625 -561 
Q 2906 -266 2906 331 
L 2906 616 
Q 2728 306 2450 153 
Q 2172 0 1784 0 
Q 1141 0 747 490 
Q 353 981 353 1791 
Q 353 2603 747 3093 
Q 1141 3584 1784 3584 
Q 2172 3584 2450 3431 
Q 2728 3278 2906 2969 
L 2906 3500 
L 3481 3500 
L 3481 434 
z
" transform="scale(0.015625)"/>
      <path id="DejaVuSans-65" d="M 3597 1894 
L 3597 1613 
L 953 1613 
Q 991 1019 1311 708 
Q 1631 397 2203 397 
Q 2534 397 2845 478 
Q 3156 559 3463 722 
L 3463 178 
Q 3153 47 2828 -22 
Q 2503 -91 2169 -91 
Q 1331 -91 842 396 
Q 353 884 353 1716 
Q 353 2575 817 3079 
Q 1281 3584 2069 3584 
Q 2775 3584 3186 3129 
Q 3597 2675 3597 1894 
z
M 3022 2063 
Q 3016 2534 2758 2815 
Q 2500 3097 2075 3097 
Q 1594 3097 1305 2825 
Q 1016 2553 972 2059 
L 3022 2063 
z
" transform="scale(0.015625)"/>
      <path id="DejaVuSans-74" d="M 1172 4494 
L 1172 3500 
L 2356 3500 
L 2356 3053 
L 1172 3053 
L 1172 1153 
Q 1172 725 1289 603 
Q 1406 481 1766 481 
L 2356 481 
L 2356 0 
L 1766 0 
Q 1100 0 847 248 
Q 594 497 594 1153 
L 594 3053 
L 172 3053 
L 172 3500 
L 594 3500 
L 594 4494 
L 1172 4494 
z
" transform="scale(0.015625)"/>
      <path id="DejaVuSans-5f" d="M 3263 -1063 
L 3263 -1509 
L -63 -1509 
L -63 -1063 
L 3263 -1063 
z
" transform="scale(0.015625)"/>
      <path id="DejaVuSans-73" d="M 2834 3397 
L 2834 2853 
Q 2591 2978 2328 3040 
Q 2066 3103 1784 3103 
Q 1356 3103 1142 2972 
Q 928 2841 928 2578 
Q 928 2378 1081 2264 
Q 1234 2150 1697 2047 
L 1894 2003 
Q 2506 1872 2764 1633 
Q 3022 1394 3022 966 
Q 3022 478 2636 193 
Q 2250 -91 1575 -91 
Q 1294 -91 989 -36 
Q 684 19 347 128 
L 347 722 
Q 666 556 975 473 
Q 1284 391 1588 391 
Q 1994 391 2212 530 
Q 2431 669 2431 922 
Q 2431 1156 2273 1281 
Q 2116 1406 1581 1522 
L 1381 1569 
Q 847 1681 609 1914 
Q 372 2147 372 2553 
Q 372 3047 722 3315 
Q 1072 3584 1716 3584 
Q 2034 3584 2315 3537 
Q 2597 3491 2834 3397 
z
" transform="scale(0.015625)"/>
      <path id="DejaVuSans-75" d="M 544 1381 
L 544 3500 
L 1119 3500 
L 1119 1403 
Q 1119 906 1312 657 
Q 1506 409 1894 409 
Q 2359 409 2629 706 
Q 2900 1003 2900 1516 
L 2900 3500 
L 3475 3500 
L 3475 0 
L 2900 0 
L 2900 538 
Q 2691 219 2414 64 
Q 2138 -91 1772 -91 
Q 1169 -91 856 284 
Q 544 659 544 1381 
z
M 1991 3584 
L 1991 3584 
z
" transform="scale(0.015625)"/>
      <path id="DejaVuSans-62" d="M 3116 1747 
Q 3116 2381 2855 2742 
Q 2594 3103 2138 3103 
Q 1681 3103 1420 2742 
Q 1159 2381 1159 1747 
Q 1159 1113 1420 752 
Q 1681 391 2138 391 
Q 2594 391 2855 752 
Q 3116 1113 3116 1747 
z
M 1159 2969 
Q 1341 3281 1617 3432 
Q 1894 3584 2278 3584 
Q 2916 3584 3314 3078 
Q 3713 2572 3713 1747 
Q 3713 922 3314 415 
Q 2916 -91 2278 -91 
Q 1894 -91 1617 61 
Q 1341 213 1159 525 
L 1159 0 
L 581 0 
L 581 4863 
L 1159 4863 
L 1159 2969 
z
" transform="scale(0.015625)"/>
      <path id="DejaVuSans-63" d="M 3122 3366 
L 3122 2828 
Q 2878 2963 2633 3030 
Q 2388 3097 2138 3097 
Q 1578 3097 1268 2742 
Q 959 2388 959 1747 
Q 959 1106 1268 751 
Q 1578 397 2138 397 
Q 2388 397 2633 464 
Q 2878 531 3122 666 
L 3122 134 
Q 2881 22 2623 -34 
Q 2366 -91 2075 -91 
Q 1284 -91 818 406 
Q 353 903 353 1747 
Q 353 2603 823 3093 
Q 1294 3584 2113 3584 
Q 2378 3584 2631 3529 
Q 2884 3475 3122 3366 
z
" transform="scale(0.015625)"/>
      <path id="DejaVuSans-72" d="M 2631 2963 
Q 2534 3019 2420 3045 
Q 2306 3072 2169 3072 
Q 1681 3072 1420 2755 
Q 1159 2438 1159 1844 
L 1159 0 
L 581 0 
L 581 3500 
L 1159 3500 
L 1159 2956 
Q 1341 3275 1631 3429 
Q 1922 3584 2338 3584 
Q 2397 3584 2469 3576 
Q 2541 3569 2628 3553 
L 2631 2963 
z
" transform="scale(0.015625)"/>
      <path id="DejaVuSans-69" d="M 603 3500 
L 1178 3500 
L 1178 0 
L 603 0 
L 603 3500 
z
M 603 4863 
L 1178 4863 
L 1178 4134 
L 603 4134 
L 603 4863 
z
" transform="scale(0.015625)"/>
      <path id="DejaVuSans-20" transform="scale(0.015625)"/>
      <path id="DejaVuSans-68" d="M 3513 2113 
L 3513 0 
L 2938 0 
L 2938 2094 
Q 2938 2591 2744 2837 
Q 2550 3084 2163 3084 
Q 1697 3084 1428 2787 
Q 1159 2491 1159 1978 
L 1159 0 
L 581 0 
L 581 4863 
L 1159 4863 
L 1159 2956 
Q 1366 3272 1645 3428 
Q 1925 3584 2291 3584 
Q 2894 3584 3203 3211 
Q 3513 2838 3513 2113 
z
" transform="scale(0.015625)"/>
      <path id="DejaVuSans-6f" d="M 1959 3097 
Q 1497 3097 1228 2736 
Q 959 2375 959 1747 
Q 959 1119 1226 758 
Q 1494 397 1959 397 
Q 2419 397 2687 759 
Q 2956 1122 2956 1747 
Q 2956 2369 2687 2733 
Q 2419 3097 1959 3097 
z
M 1959 3584 
Q 2709 3584 3137 3096 
Q 3566 2609 3566 1747 
Q 3566 888 3137 398 
Q 2709 -91 1959 -91 
Q 1206 -91 779 398 
Q 353 888 353 1747 
Q 353 2609 779 3096 
Q 1206 3584 1959 3584 
z
" transform="scale(0.015625)"/>
      <path id="DejaVuSans-79" d="M 2059 -325 
Q 1816 -950 1584 -1140 
Q 1353 -1331 966 -1331 
L 506 -1331 
L 506 -850 
L 844 -850 
Q 1081 -850 1212 -737 
Q 1344 -625 1503 -206 
L 1606 56 
L 191 3500 
L 800 3500 
L 1894 763 
L 2988 3500 
L 3597 3500 
L 2059 -325 
z
" transform="scale(0.015625)"/>
     </defs>
     <use xlink:href="#DejaVuSans-67"/>
     <use xlink:href="#DejaVuSans-65" x="63.476562"/>
     <use xlink:href="#DejaVuSans-74" x="125"/>
     <use xlink:href="#DejaVuSans-5f" x="164.208984"/>
     <use xlink:href="#DejaVuSans-73" x="214.208984"/>
     <use xlink:href="#DejaVuSans-75" x="266.308594"/>
     <use xlink:href="#DejaVuSans-62" x="329.6875"/>
     <use xlink:href="#DejaVuSans-73" x="393.164062"/>
     <use xlink:href="#DejaVuSans-63" x="445.263672"/>
     <use xlink:href="#DejaVuSans-72" x="500.244141"/>
     <use xlink:href="#DejaVuSans-69" x="541.357422"/>
     <use xlink:href="#DejaVuSans-62" x="569.140625"/>
     <use xlink:href="#DejaVuSans-65" x="632.617188"/>
     <use xlink:href="#DejaVuSans-20" x="694.140625"/>
     <use xlink:href="#DejaVuSans-68" x="725.927734"/>
     <use xlink:href="#DejaVuSans-69" x="789.306641"/>
     <use xlink:href="#DejaVuSans-73" x="817.089844"/>
     <use xlink:href="#DejaVuSans-74" x="869.189453"/>
     <use xlink:href="#DejaVuSans-6f" x="908.398438"/>
     <use xlink:href="#DejaVuSans-72" x="969.580078"/>
     <use xlink:href="#DejaVuSans-79" x="1010.693359"/>
    </g>
   </g>
   <g id="legend_1">
    <g id="line2d_37">
     <path d="M 815.08 328.498438 
L 825.08 328.498438 
L 835.08 328.498438 
" style="fill: none; stroke: #1f77b4; stroke-width: 1.5; stroke-linecap: square"/>
    </g>
    <g id="text_19">
     <!-- star -->
     <g style="fill: #a9a9a9" transform="translate(843.08 331.998438) scale(0.1 -0.1)">
      <defs>
       <path id="DejaVuSans-61" d="M 2194 1759 
Q 1497 1759 1228 1600 
Q 959 1441 959 1056 
Q 959 750 1161 570 
Q 1363 391 1709 391 
Q 2188 391 2477 730 
Q 2766 1069 2766 1631 
L 2766 1759 
L 2194 1759 
z
M 3341 1997 
L 3341 0 
L 2766 0 
L 2766 531 
Q 2569 213 2275 61 
Q 1981 -91 1556 -91 
Q 1019 -91 701 211 
Q 384 513 384 1019 
Q 384 1609 779 1909 
Q 1175 2209 1959 2209 
L 2766 2209 
L 2766 2266 
Q 2766 2663 2505 2880 
Q 2244 3097 1772 3097 
Q 1472 3097 1187 3025 
Q 903 2953 641 2809 
L 641 3341 
Q 956 3463 1253 3523 
Q 1550 3584 1831 3584 
Q 2591 3584 2966 3190 
Q 3341 2797 3341 1997 
z
" transform="scale(0.015625)"/>
      </defs>
      <use xlink:href="#DejaVuSans-73"/>
      <use xlink:href="#DejaVuSans-74" x="52.099609"/>
      <use xlink:href="#DejaVuSans-61" x="91.308594"/>
      <use xlink:href="#DejaVuSans-72" x="152.587891"/>
     </g>
    </g>
    <g id="line2d_38">
     <path d="M 815.08 343.176562 
L 825.08 343.176562 
L 835.08 343.176562 
" style="fill: none; stroke: #ff7f0e; stroke-width: 1.5; stroke-linecap: square"/>
    </g>
    <g id="text_20">
     <!-- fork -->
     <g style="fill: #a9a9a9" transform="translate(843.08 346.676562) scale(0.1 -0.1)">
      <defs>
       <path id="DejaVuSans-66" d="M 2375 4863 
L 2375 4384 
L 1825 4384 
Q 1516 4384 1395 4259 
Q 1275 4134 1275 3809 
L 1275 3500 
L 2222 3500 
L 2222 3053 
L 1275 3053 
L 1275 0 
L 697 0 
L 697 3053 
L 147 3053 
L 147 3500 
L 697 3500 
L 697 3744 
Q 697 4328 969 4595 
Q 1241 4863 1831 4863 
L 2375 4863 
z
" transform="scale(0.015625)"/>
       <path id="DejaVuSans-6b" d="M 581 4863 
L 1159 4863 
L 1159 1991 
L 2875 3500 
L 3609 3500 
L 1753 1863 
L 3688 0 
L 2938 0 
L 1159 1709 
L 1159 0 
L 581 0 
L 581 4863 
z
" transform="scale(0.015625)"/>
      </defs>
      <use xlink:href="#DejaVuSans-66"/>
      <use xlink:href="#DejaVuSans-6f" x="35.205078"/>
      <use xlink:href="#DejaVuSans-72" x="96.386719"/>
      <use xlink:href="#DejaVuSans-6b" x="137.5"/>
     </g>
    </g>
   </g>
  </g>
 </g>
 <defs>
  <clipPath id="p97d7a2b529">
   <rect x="108" y="43.2" width="669.6" height="277.2"/>
  </clipPath>
 </defs>
</svg>
