<?xml version="1.0" encoding="utf-8" standalone="no"?>
<!DOCTYPE svg PUBLIC "-//W3C//DTD SVG 1.1//EN"
  "http://www.w3.org/Graphics/SVG/1.1/DTD/svg11.dtd">
<svg xmlns:xlink="http://www.w3.org/1999/xlink" width="864pt" height="360pt" viewBox="0 0 864 360" xmlns="http://www.w3.org/2000/svg" version="1.1">
 <metadata>
  <rdf:RDF xmlns:dc="http://purl.org/dc/elements/1.1/" xmlns:cc="http://creativecommons.org/ns#" xmlns:rdf="http://www.w3.org/1999/02/22-rdf-syntax-ns#">
   <cc:Work>
    <dc:type rdf:resource="http://purl.org/dc/dcmitype/StillImage"/>
    <dc:date>2023-04-22T08:54:47.816293</dc:date>
    <dc:format>image/svg+xml</dc:format>
    <dc:creator>
     <cc:Agent>
      <dc:title>Matplotlib v3.7.1, https://matplotlib.org/</dc:title>
     </cc:Agent>
    </dc:creator>
   </cc:Work>
  </rdf:RDF>
 </metadata>
 <defs>
  <style type="text/css">*{stroke-linejoin: round; stroke-linecap: butt}</style>
 </defs>
 <g id="figure_1">
  <g id="patch_1">
   <path d="M 0 360 
L 864 360 
L 864 0 
L 0 0 
L 0 360 
z
" style="fill: none; opacity: 0"/>
  </g>
  <g id="axes_1">
   <g id="patch_2">
    <path d="M 108 320.4 
L 777.6 320.4 
L 777.6 43.2 
L 108 43.2 
L 108 320.4 
z
" style="fill: none; opacity: 0"/>
   </g>
   <g id="matplotlib.axis_1">
    <g id="xtick_1">
     <g id="line2d_1">
      <path d="M 116.4572 320.4 
L 116.4572 43.2 
" clip-path="url(#p259236f1aa)" style="fill: none; stroke-dasharray: 5.12,1.28,0.8,1.28; stroke-dashoffset: 0; stroke: #b0b0b0; stroke-width: 0.8"/>
     </g>
     <g id="line2d_2">
      <defs>
       <path id="m8444dc494d" d="M 0 0 
L 0 3.5 
" style="stroke: #a9a9a9; stroke-width: 0.8"/>
      </defs>
      <g>
       <use xlink:href="#m8444dc494d" x="116.4572" y="320.4" style="fill: #a9a9a9; stroke: #a9a9a9; stroke-width: 0.8"/>
      </g>
     </g>
     <g id="text_1">
      <!-- 2021-07 -->
      <g style="fill: #a9a9a9" transform="translate(95.565794 334.998438) scale(0.1 -0.1)">
       <defs>
        <path id="DejaVuSans-32" d="M 1228 531 
L 3431 531 
L 3431 0 
L 469 0 
L 469 531 
Q 828 903 1448 1529 
Q 2069 2156 2228 2338 
Q 2531 2678 2651 2914 
Q 2772 3150 2772 3378 
Q 2772 3750 2511 3984 
Q 2250 4219 1831 4219 
Q 1534 4219 1204 4116 
Q 875 4013 500 3803 
L 500 4441 
Q 881 4594 1212 4672 
Q 1544 4750 1819 4750 
Q 2544 4750 2975 4387 
Q 3406 4025 3406 3419 
Q 3406 3131 3298 2873 
Q 3191 2616 2906 2266 
Q 2828 2175 2409 1742 
Q 1991 1309 1228 531 
z
" transform="scale(0.015625)"/>
        <path id="DejaVuSans-30" d="M 2034 4250 
Q 1547 4250 1301 3770 
Q 1056 3291 1056 2328 
Q 1056 1369 1301 889 
Q 1547 409 2034 409 
Q 2525 409 2770 889 
Q 3016 1369 3016 2328 
Q 3016 3291 2770 3770 
Q 2525 4250 2034 4250 
z
M 2034 4750 
Q 2819 4750 3233 4129 
Q 3647 3509 3647 2328 
Q 3647 1150 3233 529 
Q 2819 -91 2034 -91 
Q 1250 -91 836 529 
Q 422 1150 422 2328 
Q 422 3509 836 4129 
Q 1250 4750 2034 4750 
z
" transform="scale(0.015625)"/>
        <path id="DejaVuSans-31" d="M 794 531 
L 1825 531 
L 1825 4091 
L 703 3866 
L 703 4441 
L 1819 4666 
L 2450 4666 
L 2450 531 
L 3481 531 
L 3481 0 
L 794 0 
L 794 531 
z
" transform="scale(0.015625)"/>
        <path id="DejaVuSans-2d" d="M 313 2009 
L 1997 2009 
L 1997 1497 
L 313 1497 
L 313 2009 
z
" transform="scale(0.015625)"/>
        <path id="DejaVuSans-37" d="M 525 4666 
L 3525 4666 
L 3525 4397 
L 1831 0 
L 1172 0 
L 2766 4134 
L 525 4134 
L 525 4666 
z
" transform="scale(0.015625)"/>
       </defs>
       <use xlink:href="#DejaVuSans-32"/>
       <use xlink:href="#DejaVuSans-30" x="63.623047"/>
       <use xlink:href="#DejaVuSans-32" x="127.246094"/>
       <use xlink:href="#DejaVuSans-31" x="190.869141"/>
       <use xlink:href="#DejaVuSans-2d" x="254.492188"/>
       <use xlink:href="#DejaVuSans-30" x="290.576172"/>
       <use xlink:href="#DejaVuSans-37" x="354.199219"/>
      </g>
     </g>
    </g>
    <g id="xtick_2">
     <g id="line2d_3">
      <path d="M 204.373855 320.4 
L 204.373855 43.2 
" clip-path="url(#p259236f1aa)" style="fill: none; stroke-dasharray: 5.12,1.28,0.8,1.28; stroke-dashoffset: 0; stroke: #b0b0b0; stroke-width: 0.8"/>
     </g>
     <g id="line2d_4">
      <g>
       <use xlink:href="#m8444dc494d" x="204.373855" y="320.4" style="fill: #a9a9a9; stroke: #a9a9a9; stroke-width: 0.8"/>
      </g>
     </g>
     <g id="text_2">
      <!-- 2021-10 -->
      <g style="fill: #a9a9a9" transform="translate(183.482448 334.998438) scale(0.1 -0.1)">
       <use xlink:href="#DejaVuSans-32"/>
       <use xlink:href="#DejaVuSans-30" x="63.623047"/>
       <use xlink:href="#DejaVuSans-32" x="127.246094"/>
       <use xlink:href="#DejaVuSans-31" x="190.869141"/>
       <use xlink:href="#DejaVuSans-2d" x="254.492188"/>
       <use xlink:href="#DejaVuSans-31" x="290.576172"/>
       <use xlink:href="#DejaVuSans-30" x="354.199219"/>
      </g>
     </g>
    </g>
    <g id="xtick_3">
     <g id="line2d_5">
      <path d="M 292.290509 320.4 
L 292.290509 43.2 
" clip-path="url(#p259236f1aa)" style="fill: none; stroke-dasharray: 5.12,1.28,0.8,1.28; stroke-dashoffset: 0; stroke: #b0b0b0; stroke-width: 0.8"/>
     </g>
     <g id="line2d_6">
      <g>
       <use xlink:href="#m8444dc494d" x="292.290509" y="320.4" style="fill: #a9a9a9; stroke: #a9a9a9; stroke-width: 0.8"/>
      </g>
     </g>
     <g id="text_3">
      <!-- 2022-01 -->
      <g style="fill: #a9a9a9" transform="translate(271.399103 334.998438) scale(0.1 -0.1)">
       <use xlink:href="#DejaVuSans-32"/>
       <use xlink:href="#DejaVuSans-30" x="63.623047"/>
       <use xlink:href="#DejaVuSans-32" x="127.246094"/>
       <use xlink:href="#DejaVuSans-32" x="190.869141"/>
       <use xlink:href="#DejaVuSans-2d" x="254.492188"/>
       <use xlink:href="#DejaVuSans-30" x="290.576172"/>
       <use xlink:href="#DejaVuSans-31" x="354.199219"/>
      </g>
     </g>
    </g>
    <g id="xtick_4">
     <g id="line2d_7">
      <path d="M 378.295933 320.4 
L 378.295933 43.2 
" clip-path="url(#p259236f1aa)" style="fill: none; stroke-dasharray: 5.12,1.28,0.8,1.28; stroke-dashoffset: 0; stroke: #b0b0b0; stroke-width: 0.8"/>
     </g>
     <g id="line2d_8">
      <g>
       <use xlink:href="#m8444dc494d" x="378.295933" y="320.4" style="fill: #a9a9a9; stroke: #a9a9a9; stroke-width: 0.8"/>
      </g>
     </g>
     <g id="text_4">
      <!-- 2022-04 -->
      <g style="fill: #a9a9a9" transform="translate(357.404526 334.998438) scale(0.1 -0.1)">
       <defs>
        <path id="DejaVuSans-34" d="M 2419 4116 
L 825 1625 
L 2419 1625 
L 2419 4116 
z
M 2253 4666 
L 3047 4666 
L 3047 1625 
L 3713 1625 
L 3713 1100 
L 3047 1100 
L 3047 0 
L 2419 0 
L 2419 1100 
L 313 1100 
L 313 1709 
L 2253 4666 
z
" transform="scale(0.015625)"/>
       </defs>
       <use xlink:href="#DejaVuSans-32"/>
       <use xlink:href="#DejaVuSans-30" x="63.623047"/>
       <use xlink:href="#DejaVuSans-32" x="127.246094"/>
       <use xlink:href="#DejaVuSans-32" x="190.869141"/>
       <use xlink:href="#DejaVuSans-2d" x="254.492188"/>
       <use xlink:href="#DejaVuSans-30" x="290.576172"/>
       <use xlink:href="#DejaVuSans-34" x="354.199219"/>
      </g>
     </g>
    </g>
    <g id="xtick_5">
     <g id="line2d_9">
      <path d="M 465.256972 320.4 
L 465.256972 43.2 
" clip-path="url(#p259236f1aa)" style="fill: none; stroke-dasharray: 5.12,1.28,0.8,1.28; stroke-dashoffset: 0; stroke: #b0b0b0; stroke-width: 0.8"/>
     </g>
     <g id="line2d_10">
      <g>
       <use xlink:href="#m8444dc494d" x="465.256972" y="320.4" style="fill: #a9a9a9; stroke: #a9a9a9; stroke-width: 0.8"/>
      </g>
     </g>
     <g id="text_5">
      <!-- 2022-07 -->
      <g style="fill: #a9a9a9" transform="translate(444.365565 334.998438) scale(0.1 -0.1)">
       <use xlink:href="#DejaVuSans-32"/>
       <use xlink:href="#DejaVuSans-30" x="63.623047"/>
       <use xlink:href="#DejaVuSans-32" x="127.246094"/>
       <use xlink:href="#DejaVuSans-32" x="190.869141"/>
       <use xlink:href="#DejaVuSans-2d" x="254.492188"/>
       <use xlink:href="#DejaVuSans-30" x="290.576172"/>
       <use xlink:href="#DejaVuSans-37" x="354.199219"/>
      </g>
     </g>
    </g>
    <g id="xtick_6">
     <g id="line2d_11">
      <path d="M 553.173626 320.4 
L 553.173626 43.2 
" clip-path="url(#p259236f1aa)" style="fill: none; stroke-dasharray: 5.12,1.28,0.8,1.28; stroke-dashoffset: 0; stroke: #b0b0b0; stroke-width: 0.8"/>
     </g>
     <g id="line2d_12">
      <g>
       <use xlink:href="#m8444dc494d" x="553.173626" y="320.4" style="fill: #a9a9a9; stroke: #a9a9a9; stroke-width: 0.8"/>
      </g>
     </g>
     <g id="text_6">
      <!-- 2022-10 -->
      <g style="fill: #a9a9a9" transform="translate(532.28222 334.998438) scale(0.1 -0.1)">
       <use xlink:href="#DejaVuSans-32"/>
       <use xlink:href="#DejaVuSans-30" x="63.623047"/>
       <use xlink:href="#DejaVuSans-32" x="127.246094"/>
       <use xlink:href="#DejaVuSans-32" x="190.869141"/>
       <use xlink:href="#DejaVuSans-2d" x="254.492188"/>
       <use xlink:href="#DejaVuSans-31" x="290.576172"/>
       <use xlink:href="#DejaVuSans-30" x="354.199219"/>
      </g>
     </g>
    </g>
    <g id="xtick_7">
     <g id="line2d_13">
      <path d="M 641.090281 320.4 
L 641.090281 43.2 
" clip-path="url(#p259236f1aa)" style="fill: none; stroke-dasharray: 5.12,1.28,0.8,1.28; stroke-dashoffset: 0; stroke: #b0b0b0; stroke-width: 0.8"/>
     </g>
     <g id="line2d_14">
      <g>
       <use xlink:href="#m8444dc494d" x="641.090281" y="320.4" style="fill: #a9a9a9; stroke: #a9a9a9; stroke-width: 0.8"/>
      </g>
     </g>
     <g id="text_7">
      <!-- 2023-01 -->
      <g style="fill: #a9a9a9" transform="translate(620.198875 334.998438) scale(0.1 -0.1)">
       <defs>
        <path id="DejaVuSans-33" d="M 2597 2516 
Q 3050 2419 3304 2112 
Q 3559 1806 3559 1356 
Q 3559 666 3084 287 
Q 2609 -91 1734 -91 
Q 1441 -91 1130 -33 
Q 819 25 488 141 
L 488 750 
Q 750 597 1062 519 
Q 1375 441 1716 441 
Q 2309 441 2620 675 
Q 2931 909 2931 1356 
Q 2931 1769 2642 2001 
Q 2353 2234 1838 2234 
L 1294 2234 
L 1294 2753 
L 1863 2753 
Q 2328 2753 2575 2939 
Q 2822 3125 2822 3475 
Q 2822 3834 2567 4026 
Q 2313 4219 1838 4219 
Q 1578 4219 1281 4162 
Q 984 4106 628 3988 
L 628 4550 
Q 988 4650 1302 4700 
Q 1616 4750 1894 4750 
Q 2613 4750 3031 4423 
Q 3450 4097 3450 3541 
Q 3450 3153 3228 2886 
Q 3006 2619 2597 2516 
z
" transform="scale(0.015625)"/>
       </defs>
       <use xlink:href="#DejaVuSans-32"/>
       <use xlink:href="#DejaVuSans-30" x="63.623047"/>
       <use xlink:href="#DejaVuSans-32" x="127.246094"/>
       <use xlink:href="#DejaVuSans-33" x="190.869141"/>
       <use xlink:href="#DejaVuSans-2d" x="254.492188"/>
       <use xlink:href="#DejaVuSans-30" x="290.576172"/>
       <use xlink:href="#DejaVuSans-31" x="354.199219"/>
      </g>
     </g>
    </g>
    <g id="xtick_8">
     <g id="line2d_15">
      <path d="M 727.095704 320.4 
L 727.095704 43.2 
" clip-path="url(#p259236f1aa)" style="fill: none; stroke-dasharray: 5.12,1.28,0.8,1.28; stroke-dashoffset: 0; stroke: #b0b0b0; stroke-width: 0.8"/>
     </g>
     <g id="line2d_16">
      <g>
       <use xlink:href="#m8444dc494d" x="727.095704" y="320.4" style="fill: #a9a9a9; stroke: #a9a9a9; stroke-width: 0.8"/>
      </g>
     </g>
     <g id="text_8">
      <!-- 2023-04 -->
      <g style="fill: #a9a9a9" transform="translate(706.204298 334.998438) scale(0.1 -0.1)">
       <use xlink:href="#DejaVuSans-32"/>
       <use xlink:href="#DejaVuSans-30" x="63.623047"/>
       <use xlink:href="#DejaVuSans-32" x="127.246094"/>
       <use xlink:href="#DejaVuSans-33" x="190.869141"/>
       <use xlink:href="#DejaVuSans-2d" x="254.492188"/>
       <use xlink:href="#DejaVuSans-30" x="290.576172"/>
       <use xlink:href="#DejaVuSans-34" x="354.199219"/>
      </g>
     </g>
    </g>
   </g>
   <g id="matplotlib.axis_2">
    <g id="ytick_1">
     <g id="line2d_17">
      <path d="M 108 307.85973 
L 777.6 307.85973 
" clip-path="url(#p259236f1aa)" style="fill: none; stroke-dasharray: 5.12,1.28,0.8,1.28; stroke-dashoffset: 0; stroke: #b0b0b0; stroke-width: 0.8"/>
     </g>
     <g id="line2d_18">
      <defs>
       <path id="m191e4fbc19" d="M 0 0 
L -3.5 0 
" style="stroke: #a9a9a9; stroke-width: 0.8"/>
      </defs>
      <g>
       <use xlink:href="#m191e4fbc19" x="108" y="307.85973" style="fill: #a9a9a9; stroke: #a9a9a9; stroke-width: 0.8"/>
      </g>
     </g>
     <g id="text_9">
      <!-- 0 -->
      <g style="fill: #a9a9a9" transform="translate(94.6375 311.658949) scale(0.1 -0.1)">
       <use xlink:href="#DejaVuSans-30"/>
      </g>
     </g>
    </g>
    <g id="ytick_2">
     <g id="line2d_19">
      <path d="M 108 277.994833 
L 777.6 277.994833 
" clip-path="url(#p259236f1aa)" style="fill: none; stroke-dasharray: 5.12,1.28,0.8,1.28; stroke-dashoffset: 0; stroke: #b0b0b0; stroke-width: 0.8"/>
     </g>
     <g id="line2d_20">
      <g>
       <use xlink:href="#m191e4fbc19" x="108" y="277.994833" style="fill: #a9a9a9; stroke: #a9a9a9; stroke-width: 0.8"/>
      </g>
     </g>
     <g id="text_10">
      <!-- 500 -->
      <g style="fill: #a9a9a9" transform="translate(81.9125 281.794052) scale(0.1 -0.1)">
       <defs>
        <path id="DejaVuSans-35" d="M 691 4666 
L 3169 4666 
L 3169 4134 
L 1269 4134 
L 1269 2991 
Q 1406 3038 1543 3061 
Q 1681 3084 1819 3084 
Q 2600 3084 3056 2656 
Q 3513 2228 3513 1497 
Q 3513 744 3044 326 
Q 2575 -91 1722 -91 
Q 1428 -91 1123 -41 
Q 819 9 494 109 
L 494 744 
Q 775 591 1075 516 
Q 1375 441 1709 441 
Q 2250 441 2565 725 
Q 2881 1009 2881 1497 
Q 2881 1984 2565 2268 
Q 2250 2553 1709 2553 
Q 1456 2553 1204 2497 
Q 953 2441 691 2322 
L 691 4666 
z
" transform="scale(0.015625)"/>
       </defs>
       <use xlink:href="#DejaVuSans-35"/>
       <use xlink:href="#DejaVuSans-30" x="63.623047"/>
       <use xlink:href="#DejaVuSans-30" x="127.246094"/>
      </g>
     </g>
    </g>
    <g id="ytick_3">
     <g id="line2d_21">
      <path d="M 108 248.129936 
L 777.6 248.129936 
" clip-path="url(#p259236f1aa)" style="fill: none; stroke-dasharray: 5.12,1.28,0.8,1.28; stroke-dashoffset: 0; stroke: #b0b0b0; stroke-width: 0.8"/>
     </g>
     <g id="line2d_22">
      <g>
       <use xlink:href="#m191e4fbc19" x="108" y="248.129936" style="fill: #a9a9a9; stroke: #a9a9a9; stroke-width: 0.8"/>
      </g>
     </g>
     <g id="text_11">
      <!-- 1000 -->
      <g style="fill: #a9a9a9" transform="translate(75.55 251.929155) scale(0.1 -0.1)">
       <use xlink:href="#DejaVuSans-31"/>
       <use xlink:href="#DejaVuSans-30" x="63.623047"/>
       <use xlink:href="#DejaVuSans-30" x="127.246094"/>
       <use xlink:href="#DejaVuSans-30" x="190.869141"/>
      </g>
     </g>
    </g>
    <g id="ytick_4">
     <g id="line2d_23">
      <path d="M 108 218.265039 
L 777.6 218.265039 
" clip-path="url(#p259236f1aa)" style="fill: none; stroke-dasharray: 5.12,1.28,0.8,1.28; stroke-dashoffset: 0; stroke: #b0b0b0; stroke-width: 0.8"/>
     </g>
     <g id="line2d_24">
      <g>
       <use xlink:href="#m191e4fbc19" x="108" y="218.265039" style="fill: #a9a9a9; stroke: #a9a9a9; stroke-width: 0.8"/>
      </g>
     </g>
     <g id="text_12">
      <!-- 1500 -->
      <g style="fill: #a9a9a9" transform="translate(75.55 222.064258) scale(0.1 -0.1)">
       <use xlink:href="#DejaVuSans-31"/>
       <use xlink:href="#DejaVuSans-35" x="63.623047"/>
       <use xlink:href="#DejaVuSans-30" x="127.246094"/>
       <use xlink:href="#DejaVuSans-30" x="190.869141"/>
      </g>
     </g>
    </g>
    <g id="ytick_5">
     <g id="line2d_25">
      <path d="M 108 188.400142 
L 777.6 188.400142 
" clip-path="url(#p259236f1aa)" style="fill: none; stroke-dasharray: 5.12,1.28,0.8,1.28; stroke-dashoffset: 0; stroke: #b0b0b0; stroke-width: 0.8"/>
     </g>
     <g id="line2d_26">
      <g>
       <use xlink:href="#m191e4fbc19" x="108" y="188.400142" style="fill: #a9a9a9; stroke: #a9a9a9; stroke-width: 0.8"/>
      </g>
     </g>
     <g id="text_13">
      <!-- 2000 -->
      <g style="fill: #a9a9a9" transform="translate(75.55 192.199361) scale(0.1 -0.1)">
       <use xlink:href="#DejaVuSans-32"/>
       <use xlink:href="#DejaVuSans-30" x="63.623047"/>
       <use xlink:href="#DejaVuSans-30" x="127.246094"/>
       <use xlink:href="#DejaVuSans-30" x="190.869141"/>
      </g>
     </g>
    </g>
    <g id="ytick_6">
     <g id="line2d_27">
      <path d="M 108 158.535245 
L 777.6 158.535245 
" clip-path="url(#p259236f1aa)" style="fill: none; stroke-dasharray: 5.12,1.28,0.8,1.28; stroke-dashoffset: 0; stroke: #b0b0b0; stroke-width: 0.8"/>
     </g>
     <g id="line2d_28">
      <g>
       <use xlink:href="#m191e4fbc19" x="108" y="158.535245" style="fill: #a9a9a9; stroke: #a9a9a9; stroke-width: 0.8"/>
      </g>
     </g>
     <g id="text_14">
      <!-- 2500 -->
      <g style="fill: #a9a9a9" transform="translate(75.55 162.334464) scale(0.1 -0.1)">
       <use xlink:href="#DejaVuSans-32"/>
       <use xlink:href="#DejaVuSans-35" x="63.623047"/>
       <use xlink:href="#DejaVuSans-30" x="127.246094"/>
       <use xlink:href="#DejaVuSans-30" x="190.869141"/>
      </g>
     </g>
    </g>
    <g id="ytick_7">
     <g id="line2d_29">
      <path d="M 108 128.670348 
L 777.6 128.670348 
" clip-path="url(#p259236f1aa)" style="fill: none; stroke-dasharray: 5.12,1.28,0.8,1.28; stroke-dashoffset: 0; stroke: #b0b0b0; stroke-width: 0.8"/>
     </g>
     <g id="line2d_30">
      <g>
       <use xlink:href="#m191e4fbc19" x="108" y="128.670348" style="fill: #a9a9a9; stroke: #a9a9a9; stroke-width: 0.8"/>
      </g>
     </g>
     <g id="text_15">
      <!-- 3000 -->
      <g style="fill: #a9a9a9" transform="translate(75.55 132.469567) scale(0.1 -0.1)">
       <use xlink:href="#DejaVuSans-33"/>
       <use xlink:href="#DejaVuSans-30" x="63.623047"/>
       <use xlink:href="#DejaVuSans-30" x="127.246094"/>
       <use xlink:href="#DejaVuSans-30" x="190.869141"/>
      </g>
     </g>
    </g>
    <g id="ytick_8">
     <g id="line2d_31">
      <path d="M 108 98.805452 
L 777.6 98.805452 
" clip-path="url(#p259236f1aa)" style="fill: none; stroke-dasharray: 5.12,1.28,0.8,1.28; stroke-dashoffset: 0; stroke: #b0b0b0; stroke-width: 0.8"/>
     </g>
     <g id="line2d_32">
      <g>
       <use xlink:href="#m191e4fbc19" x="108" y="98.805452" style="fill: #a9a9a9; stroke: #a9a9a9; stroke-width: 0.8"/>
      </g>
     </g>
     <g id="text_16">
      <!-- 3500 -->
      <g style="fill: #a9a9a9" transform="translate(75.55 102.60467) scale(0.1 -0.1)">
       <use xlink:href="#DejaVuSans-33"/>
       <use xlink:href="#DejaVuSans-35" x="63.623047"/>
       <use xlink:href="#DejaVuSans-30" x="127.246094"/>
       <use xlink:href="#DejaVuSans-30" x="190.869141"/>
      </g>
     </g>
    </g>
    <g id="ytick_9">
     <g id="line2d_33">
      <path d="M 108 68.940555 
L 777.6 68.940555 
" clip-path="url(#p259236f1aa)" style="fill: none; stroke-dasharray: 5.12,1.28,0.8,1.28; stroke-dashoffset: 0; stroke: #b0b0b0; stroke-width: 0.8"/>
     </g>
     <g id="line2d_34">
      <g>
       <use xlink:href="#m191e4fbc19" x="108" y="68.940555" style="fill: #a9a9a9; stroke: #a9a9a9; stroke-width: 0.8"/>
      </g>
     </g>
     <g id="text_17">
      <!-- 4000 -->
      <g style="fill: #a9a9a9" transform="translate(75.55 72.739773) scale(0.1 -0.1)">
       <use xlink:href="#DejaVuSans-34"/>
       <use xlink:href="#DejaVuSans-30" x="63.623047"/>
       <use xlink:href="#DejaVuSans-30" x="127.246094"/>
       <use xlink:href="#DejaVuSans-30" x="190.869141"/>
      </g>
     </g>
    </g>
   </g>
   <g id="line2d_35">
    <path d="M 138.436364 307.620811 
L 142.258827 307.322162 
L 143.214443 307.202702 
L 144.170059 307.202702 
L 145.125674 306.844323 
L 147.036906 306.724864 
L 153.726217 305.470538 
L 155.637448 305.351078 
L 156.593064 305.171889 
L 159.459912 304.9927 
L 160.415527 304.514861 
L 161.371143 304.275942 
L 162.326759 303.200806 
L 163.282375 302.603508 
L 164.237991 300.632425 
L 165.193606 300.512965 
L 166.149222 299.855937 
L 167.104838 299.497559 
L 168.060454 299.01972 
L 170.927301 296.809718 
L 172.838533 295.973501 
L 173.794149 295.615122 
L 174.749765 294.958094 
L 176.660996 294.181607 
L 177.616612 293.703769 
L 178.572228 293.40512 
L 179.527844 291.971605 
L 180.483459 291.254847 
L 182.394691 290.29917 
L 188.128386 289.522683 
L 189.084002 289.343494 
L 190.995233 289.224034 
L 191.950849 289.044845 
L 192.906465 288.567006 
L 194.817697 288.507277 
L 195.773312 288.507277 
L 199.595776 288.089168 
L 200.551391 287.790519 
L 205.329471 286.894572 
L 207.240702 286.715383 
L 208.196318 286.476464 
L 211.063165 286.177815 
L 212.018781 285.699976 
L 212.974397 285.580517 
L 213.930013 285.222138 
L 214.885629 284.983219 
L 216.79686 284.804029 
L 217.752476 284.50538 
L 221.574939 283.967812 
L 222.530555 283.669163 
L 224.441787 283.370514 
L 225.397403 283.370514 
L 230.175482 282.773216 
L 232.086713 282.235648 
L 233.042329 281.996729 
L 234.953561 281.81754 
L 235.909177 281.75781 
L 238.776024 281.220242 
L 239.73164 280.921593 
L 240.687256 279.726997 
L 241.642871 279.368618 
L 242.598487 278.89078 
L 243.554103 278.77132 
L 244.509719 278.532401 
L 245.465335 278.412941 
L 247.376566 277.636454 
L 248.332182 277.576724 
L 253.110261 276.382128 
L 254.065877 276.382128 
L 255.977109 276.143209 
L 257.88834 275.605641 
L 260.755188 274.948613 
L 261.710803 274.888884 
L 263.622035 274.112396 
L 264.577651 273.992937 
L 265.533267 273.574828 
L 267.444498 273.395639 
L 268.400114 273.335909 
L 271.266962 272.858071 
L 273.178193 272.559422 
L 277.956272 271.663475 
L 279.867504 271.006447 
L 280.82312 270.468879 
L 281.778736 270.22996 
L 282.734351 270.1105 
L 284.645583 269.513202 
L 286.556815 268.497796 
L 287.51243 267.900498 
L 288.468046 267.781038 
L 289.423662 267.482389 
L 290.379278 267.36293 
L 291.334894 267.12401 
L 292.290509 267.004551 
L 293.246125 266.586442 
L 295.157357 266.287793 
L 297.068589 265.451576 
L 298.024204 265.212657 
L 298.97982 265.093197 
L 299.935436 264.794548 
L 303.757899 264.077791 
L 305.669131 263.301304 
L 306.624747 263.122114 
L 307.580362 262.763735 
L 308.535978 262.644276 
L 309.491594 262.226167 
L 310.44721 261.987248 
L 312.358442 261.867789 
L 314.269673 261.270491 
L 315.225289 261.151031 
L 316.180905 261.151031 
L 317.136521 260.732922 
L 320.003368 260.135625 
L 321.9146 260.075895 
L 322.870215 259.956435 
L 323.825831 259.956435 
L 325.737063 259.657786 
L 328.60391 258.343731 
L 329.559526 257.925622 
L 330.515142 257.686703 
L 331.470758 257.089405 
L 332.426374 256.790756 
L 334.337605 255.954539 
L 335.293221 255.77535 
L 337.204453 255.118322 
L 339.115684 254.102915 
L 340.0713 253.147239 
L 341.026916 251.713724 
L 341.982532 250.578858 
L 342.938148 250.339938 
L 343.893763 250.339938 
L 345.804995 249.025883 
L 346.760611 248.786964 
L 347.716227 248.309125 
L 348.671842 248.129936 
L 349.627458 247.293719 
L 350.583074 247.0548 
L 353.449922 245.800474 
L 354.405537 244.725338 
L 355.361153 243.351553 
L 356.316769 242.813984 
L 357.272385 241.380469 
L 358.228001 240.484522 
L 359.183616 240.066414 
L 360.139232 239.827495 
L 362.050464 238.752358 
L 363.00608 238.33425 
L 366.828543 235.706139 
L 367.784159 234.451813 
L 368.739775 232.421 
L 369.69539 231.106945 
L 370.651006 230.449917 
L 371.606622 230.091538 
L 375.429085 227.045319 
L 377.340317 225.611804 
L 378.295933 224.835316 
L 379.251548 223.580991 
L 380.207164 222.744774 
L 383.074012 220.89315 
L 384.985243 219.698554 
L 385.940859 218.922067 
L 386.896475 218.683148 
L 389.763322 217.309362 
L 391.674554 216.293956 
L 392.63017 215.935577 
L 394.541401 214.322873 
L 395.497017 213.247736 
L 397.408249 212.053141 
L 398.363865 211.814221 
L 399.319481 211.336383 
L 400.275096 210.679355 
L 402.186328 209.723679 
L 403.141944 209.604219 
L 404.09756 209.006921 
L 406.008791 208.110974 
L 406.964407 207.215027 
L 407.920023 206.617729 
L 408.875639 206.31908 
L 409.831254 205.721782 
L 412.698102 204.467457 
L 413.653718 203.870159 
L 414.609334 203.093671 
L 416.520565 202.436644 
L 417.476181 202.078265 
L 418.431797 201.899076 
L 419.387413 201.301778 
L 420.343028 201.122588 
L 422.25426 200.465561 
L 424.165492 199.808533 
L 426.076723 199.091775 
L 427.032339 198.852856 
L 427.987955 198.494477 
L 429.899187 198.195828 
L 431.810418 196.702584 
L 432.766034 196.344205 
L 437.544113 194.074473 
L 438.499729 193.835553 
L 439.455345 193.297985 
L 440.41096 193.059066 
L 443.277808 191.386632 
L 446.144655 190.789334 
L 447.100271 190.490685 
L 448.055887 190.311496 
L 450.922734 188.758521 
L 451.87835 188.639061 
L 452.833966 188.280683 
L 453.789582 188.161223 
L 454.745198 187.922304 
L 457.612045 186.01095 
L 458.567661 185.831761 
L 459.523277 185.533112 
L 460.478893 185.413653 
L 461.434508 185.115004 
L 462.390124 184.457976 
L 463.34574 184.159327 
L 464.301356 183.741218 
L 468.123819 182.725812 
L 469.079435 182.666082 
L 470.035051 182.367433 
L 471.946282 181.590946 
L 472.901898 181.292297 
L 473.857514 181.113107 
L 476.724361 179.978241 
L 478.635593 179.440673 
L 479.591209 179.380943 
L 481.50244 178.962835 
L 482.458056 178.544726 
L 483.413672 178.365537 
L 485.324904 177.58905 
L 489.147367 175.797156 
L 490.102983 175.199858 
L 491.058599 174.960939 
L 493.925446 173.587153 
L 495.836678 173.169045 
L 497.747909 172.273098 
L 498.703525 171.974449 
L 500.614757 171.6758 
L 501.570372 171.018772 
L 502.525988 170.600664 
L 503.481604 170.421474 
L 505.392836 169.704717 
L 506.348452 169.525527 
L 507.304067 169.047689 
L 511.126531 168.510121 
L 513.037762 167.673904 
L 513.993378 166.957146 
L 514.948994 165.404172 
L 515.90461 165.165252 
L 517.815841 164.866603 
L 521.638305 163.07471 
L 522.59392 162.89552 
L 528.327615 160.327139 
L 529.283231 159.729841 
L 530.238847 159.371462 
L 533.105694 158.833894 
L 535.016926 157.937947 
L 535.972542 157.579569 
L 536.928158 157.460109 
L 539.795005 156.384973 
L 541.706237 155.309836 
L 542.661852 154.712539 
L 543.617468 154.29443 
L 544.573084 154.17497 
L 545.5287 153.876321 
L 546.484316 153.816592 
L 550.306779 152.621996 
L 551.262395 152.562266 
L 552.218011 151.905238 
L 553.173626 151.666319 
L 555.084858 150.949562 
L 556.99609 150.411993 
L 557.951705 149.874425 
L 558.907321 149.575776 
L 559.862937 148.978478 
L 560.818553 148.6201 
L 561.774169 148.082531 
L 563.6854 147.425504 
L 564.641016 147.126855 
L 567.507864 145.932259 
L 568.463479 145.275231 
L 569.419095 144.259825 
L 570.374711 143.662527 
L 571.330327 143.483337 
L 573.241558 142.109552 
L 574.197174 141.930363 
L 575.15279 140.616307 
L 576.108406 140.257928 
L 577.064022 139.600901 
L 578.019638 139.481441 
L 578.975253 138.884143 
L 579.930869 138.466035 
L 580.886485 138.286845 
L 581.842101 137.928466 
L 582.797717 137.211709 
L 583.753332 136.91306 
L 586.62018 135.121166 
L 590.442643 133.389002 
L 591.398259 133.269543 
L 592.353875 132.911164 
L 594.265106 131.895757 
L 595.220722 130.462242 
L 596.176338 129.566295 
L 597.131954 129.088457 
L 598.08757 128.909268 
L 599.998801 127.834131 
L 600.954417 127.654942 
L 602.865649 126.818725 
L 605.732496 125.683859 
L 607.643728 124.429533 
L 609.554959 122.51818 
L 610.510575 121.801422 
L 612.421807 120.726286 
L 613.377423 119.830339 
L 616.24427 117.680066 
L 617.199886 117.202228 
L 618.155502 116.246551 
L 619.111117 115.589524 
L 621.022349 114.932496 
L 621.977965 114.096279 
L 623.889197 113.200332 
L 624.844812 112.961413 
L 625.800428 112.304385 
L 626.756044 112.065466 
L 629.622891 110.69168 
L 630.578507 110.034653 
L 631.534123 109.556814 
L 633.445355 109.019246 
L 634.40097 108.481678 
L 637.267818 107.645461 
L 639.17905 107.107893 
L 641.090281 106.211946 
L 642.045897 105.435459 
L 643.957129 104.718701 
L 646.823976 103.703295 
L 647.779592 103.046267 
L 650.646439 101.791941 
L 651.602055 101.134913 
L 652.557671 100.657075 
L 654.468903 97.192747 
L 656.380134 95.042475 
L 657.33575 94.385447 
L 661.158213 92.832472 
L 662.113829 92.713013 
L 663.069445 92.235174 
L 664.025061 91.996255 
L 664.980676 91.637876 
L 665.936292 91.398957 
L 668.80314 90.323821 
L 670.714371 89.009765 
L 672.625603 88.293008 
L 678.359298 85.306518 
L 679.314914 84.410571 
L 681.226145 83.454895 
L 682.181761 82.977056 
L 683.137377 82.678407 
L 684.092993 82.021379 
L 685.048609 81.663001 
L 687.915456 80.110026 
L 688.871072 79.572458 
L 689.826688 79.333539 
L 690.782303 78.676511 
L 691.737919 78.318132 
L 692.693535 78.138943 
L 694.604767 77.422185 
L 696.515998 76.884617 
L 697.471614 76.406779 
L 698.42723 75.749751 
L 699.382846 75.570562 
L 702.249693 74.614885 
L 703.205309 73.898128 
L 706.072156 72.822991 
L 707.027772 72.584072 
L 708.939004 71.389476 
L 709.89462 71.031097 
L 710.850235 70.553259 
L 712.761467 69.239204 
L 714.672699 68.641906 
L 715.628315 67.865418 
L 716.58393 67.686229 
L 717.539546 66.909742 
L 719.450778 65.894335 
L 721.362009 65.117848 
L 722.317625 64.221901 
L 723.273241 63.744063 
L 725.184473 63.206494 
L 726.140088 62.668926 
L 727.095704 62.549467 
L 729.962552 61.175681 
L 732.829399 60.339464 
L 733.785015 60.100545 
L 734.740631 60.040815 
L 735.696247 59.861626 
L 736.651862 59.503247 
L 737.607478 59.324058 
L 739.51871 58.6073 
L 740.474326 58.547571 
L 743.341173 57.651624 
L 745.252405 56.576487 
L 746.208021 55.85973 
L 747.163636 55.8 
L 747.163636 55.8 
" clip-path="url(#p259236f1aa)" style="fill: none; stroke: #1f77b4; stroke-width: 1.5; stroke-linecap: square"/>
   </g>
   <g id="line2d_36">
    <path d="M 139.391979 307.8 
L 141.303211 307.8 
L 143.214443 307.561081 
L 148.948138 307.501351 
L 151.814985 307.381891 
L 154.681832 307.322162 
L 156.593064 307.262432 
L 159.459912 307.262432 
L 160.415527 307.023513 
L 163.282375 306.963783 
L 168.060454 306.426215 
L 175.70538 306.008106 
L 176.660996 306.008106 
L 177.616612 305.828917 
L 180.483459 305.769187 
L 182.394691 305.530268 
L 186.217154 305.530268 
L 187.17277 305.410808 
L 191.950849 305.351078 
L 194.817697 305.231619 
L 203.418239 305.171889 
L 205.329471 305.112159 
L 209.151934 305.052429 
L 212.018781 304.93297 
L 215.841244 304.93297 
L 216.79686 304.81351 
L 219.663708 304.753781 
L 223.486171 304.574591 
L 230.175482 304.514861 
L 232.086713 304.455132 
L 235.909177 304.395402 
L 238.776024 304.037023 
L 243.554103 303.977293 
L 248.332182 303.738374 
L 253.110261 303.678644 
L 255.977109 303.559185 
L 257.88834 303.499455 
L 259.799572 303.320265 
L 263.622035 303.141076 
L 266.488883 303.081346 
L 268.400114 303.021616 
L 270.311346 303.021616 
L 271.266962 302.902157 
L 274.133809 302.902157 
L 276.045041 302.722968 
L 278.911888 302.603508 
L 283.689967 302.543778 
L 286.556815 302.245129 
L 288.468046 302.12567 
L 289.423662 301.94648 
L 293.246125 301.88675 
L 303.757899 301.289452 
L 305.669131 301.229723 
L 308.535978 301.110263 
L 309.491594 301.110263 
L 311.402826 300.931074 
L 313.314057 300.871344 
L 314.269673 300.871344 
L 315.225289 300.751884 
L 317.136521 300.692155 
L 321.9146 300.453235 
L 323.825831 300.393506 
L 326.692679 300.274046 
L 329.559526 300.214316 
L 331.470758 300.154586 
L 336.248837 300.154586 
L 340.0713 299.736478 
L 341.026916 299.736478 
L 342.938148 299.557288 
L 344.849379 299.497559 
L 349.627458 299.19891 
L 350.583074 298.959991 
L 352.494306 298.840531 
L 353.449922 298.601612 
L 356.316769 298.362693 
L 358.228001 297.944584 
L 360.139232 297.884854 
L 362.050464 297.884854 
L 363.00608 297.765395 
L 363.961695 297.765395 
L 366.828543 297.347286 
L 367.784159 297.108367 
L 384.985243 296.09296 
L 385.940859 296.09296 
L 389.763322 295.615122 
L 390.718938 295.615122 
L 392.63017 295.316473 
L 394.541401 295.137284 
L 396.452633 295.077554 
L 398.363865 295.077554 
L 399.319481 294.838635 
L 402.186328 294.719175 
L 404.09756 294.719175 
L 406.008791 294.539986 
L 406.964407 294.539986 
L 409.831254 294.121877 
L 410.78687 293.882958 
L 412.698102 293.823228 
L 414.609334 293.763498 
L 415.564949 293.644039 
L 420.343028 293.584309 
L 433.72165 292.807822 
L 435.632881 292.807822 
L 437.544113 292.628632 
L 439.455345 292.628632 
L 442.322192 292.329983 
L 446.144655 292.150794 
L 448.055887 292.091064 
L 449.967119 292.031334 
L 452.833966 291.971605 
L 459.523277 291.613226 
L 464.301356 291.553496 
L 466.212587 291.493766 
L 467.168203 291.493766 
L 468.123819 291.314577 
L 470.035051 291.254847 
L 475.768746 291.195117 
L 477.679977 291.135388 
L 482.458056 291.075658 
L 483.413672 290.896468 
L 489.147367 290.836739 
L 491.058599 290.777009 
L 492.96983 290.717279 
L 494.881062 290.657549 
L 496.792293 290.597819 
L 503.481604 290.239441 
L 509.215299 290.179711 
L 512.082146 289.940792 
L 513.993378 289.761602 
L 515.90461 289.701872 
L 517.815841 289.701872 
L 518.771457 289.582413 
L 521.638305 289.522683 
L 522.59392 289.283764 
L 526.416384 289.104575 
L 535.016926 289.044845 
L 539.795005 288.686466 
L 542.661852 288.387817 
L 547.439931 288.328087 
L 550.306779 288.029438 
L 556.040474 287.730789 
L 557.951705 287.671059 
L 561.774169 287.49187 
L 565.596632 287.43214 
L 568.463479 287.312681 
L 572.285943 287.252951 
L 575.15279 286.954302 
L 577.064022 286.894572 
L 580.886485 286.834842 
L 583.753332 286.595923 
L 584.708948 286.476464 
L 585.664564 286.476464 
L 587.575796 286.297274 
L 592.353875 286.237544 
L 594.265106 285.938895 
L 602.865649 285.879166 
L 604.77688 285.699976 
L 605.732496 285.580517 
L 607.643728 285.520787 
L 609.554959 285.461057 
L 610.510575 285.222138 
L 612.421807 285.162408 
L 613.377423 284.983219 
L 615.288654 284.983219 
L 618.155502 284.68457 
L 636.312202 283.609434 
L 638.223434 283.549704 
L 640.134665 283.489974 
L 651.602055 283.430244 
L 654.468903 283.310785 
L 655.424518 283.310785 
L 656.380134 283.071865 
L 658.291366 283.012136 
L 663.069445 282.952406 
L 665.936292 282.832946 
L 670.714371 282.773216 
L 673.581219 282.653757 
L 675.49245 282.653757 
L 677.403682 282.414838 
L 679.314914 282.355108 
L 686.004224 281.996729 
L 687.915456 281.996729 
L 689.826688 281.81754 
L 696.515998 281.75781 
L 698.42723 281.578621 
L 701.294077 281.459161 
L 706.072156 281.399431 
L 707.983388 281.339701 
L 711.805851 281.279972 
L 713.717083 281.220242 
L 715.628315 281.160512 
L 717.539546 281.100782 
L 723.273241 281.041052 
L 728.05132 280.802133 
L 733.785015 280.742403 
L 738.563094 280.503484 
L 743.341173 280.503484 
L 744.296789 280.324295 
L 745.252405 280.324295 
L 746.208021 280.204835 
L 747.163636 280.204835 
L 747.163636 280.204835 
" clip-path="url(#p259236f1aa)" style="fill: none; stroke: #ff7f0e; stroke-width: 1.5; stroke-linecap: square"/>
   </g>
   <g id="patch_3">
    <path d="M 108 320.4 
L 108 43.2 
" style="fill: none; stroke: #a9a9a9; stroke-width: 0.8; stroke-linejoin: miter; stroke-linecap: square"/>
   </g>
   <g id="patch_4">
    <path d="M 777.6 320.4 
L 777.6 43.2 
" style="fill: none"/>
   </g>
   <g id="patch_5">
    <path d="M 108 320.4 
L 777.6 320.4 
" style="fill: none; stroke: #a9a9a9; stroke-width: 0.8; stroke-linejoin: miter; stroke-linecap: square"/>
   </g>
   <g id="patch_6">
    <path d="M 108 43.2 
L 777.6 43.2 
" style="fill: none"/>
   </g>
   <g id="text_18">
    <!-- get_subscribe history -->
    <g style="fill: #a9a9a9" transform="translate(378.6075 37.2) scale(0.12 -0.12)">
     <defs>
      <path id="DejaVuSans-67" d="M 2906 1791 
Q 2906 2416 2648 2759 
Q 2391 3103 1925 3103 
Q 1463 3103 1205 2759 
Q 947 2416 947 1791 
Q 947 1169 1205 825 
Q 1463 481 1925 481 
Q 2391 481 2648 825 
Q 2906 1169 2906 1791 
z
M 3481 434 
Q 3481 -459 3084 -895 
Q 2688 -1331 1869 -1331 
Q 1566 -1331 1297 -1286 
Q 1028 -1241 775 -1147 
L 775 -588 
Q 1028 -725 1275 -790 
Q 1522 -856 1778 -856 
Q 2344 -856 2625 -561 
Q 2906 -266 2906 331 
L 2906 616 
Q 2728 306 2450 153 
Q 2172 0 1784 0 
Q 1141 0 747 490 
Q 353 981 353 1791 
Q 353 2603 747 3093 
Q 1141 3584 1784 3584 
Q 2172 3584 2450 3431 
Q 2728 3278 2906 2969 
L 2906 3500 
L 3481 3500 
L 3481 434 
z
" transform="scale(0.015625)"/>
      <path id="DejaVuSans-65" d="M 3597 1894 
L 3597 1613 
L 953 1613 
Q 991 1019 1311 708 
Q 1631 397 2203 397 
Q 2534 397 2845 478 
Q 3156 559 3463 722 
L 3463 178 
Q 3153 47 2828 -22 
Q 2503 -91 2169 -91 
Q 1331 -91 842 396 
Q 353 884 353 1716 
Q 353 2575 817 3079 
Q 1281 3584 2069 3584 
Q 2775 3584 3186 3129 
Q 3597 2675 3597 1894 
z
M 3022 2063 
Q 3016 2534 2758 2815 
Q 2500 3097 2075 3097 
Q 1594 3097 1305 2825 
Q 1016 2553 972 2059 
L 3022 2063 
z
" transform="scale(0.015625)"/>
      <path id="DejaVuSans-74" d="M 1172 4494 
L 1172 3500 
L 2356 3500 
L 2356 3053 
L 1172 3053 
L 1172 1153 
Q 1172 725 1289 603 
Q 1406 481 1766 481 
L 2356 481 
L 2356 0 
L 1766 0 
Q 1100 0 847 248 
Q 594 497 594 1153 
L 594 3053 
L 172 3053 
L 172 3500 
L 594 3500 
L 594 4494 
L 1172 4494 
z
" transform="scale(0.015625)"/>
      <path id="DejaVuSans-5f" d="M 3263 -1063 
L 3263 -1509 
L -63 -1509 
L -63 -1063 
L 3263 -1063 
z
" transform="scale(0.015625)"/>
      <path id="DejaVuSans-73" d="M 2834 3397 
L 2834 2853 
Q 2591 2978 2328 3040 
Q 2066 3103 1784 3103 
Q 1356 3103 1142 2972 
Q 928 2841 928 2578 
Q 928 2378 1081 2264 
Q 1234 2150 1697 2047 
L 1894 2003 
Q 2506 1872 2764 1633 
Q 3022 1394 3022 966 
Q 3022 478 2636 193 
Q 2250 -91 1575 -91 
Q 1294 -91 989 -36 
Q 684 19 347 128 
L 347 722 
Q 666 556 975 473 
Q 1284 391 1588 391 
Q 1994 391 2212 530 
Q 2431 669 2431 922 
Q 2431 1156 2273 1281 
Q 2116 1406 1581 1522 
L 1381 1569 
Q 847 1681 609 1914 
Q 372 2147 372 2553 
Q 372 3047 722 3315 
Q 1072 3584 1716 3584 
Q 2034 3584 2315 3537 
Q 2597 3491 2834 3397 
z
" transform="scale(0.015625)"/>
      <path id="DejaVuSans-75" d="M 544 1381 
L 544 3500 
L 1119 3500 
L 1119 1403 
Q 1119 906 1312 657 
Q 1506 409 1894 409 
Q 2359 409 2629 706 
Q 2900 1003 2900 1516 
L 2900 3500 
L 3475 3500 
L 3475 0 
L 2900 0 
L 2900 538 
Q 2691 219 2414 64 
Q 2138 -91 1772 -91 
Q 1169 -91 856 284 
Q 544 659 544 1381 
z
M 1991 3584 
L 1991 3584 
z
" transform="scale(0.015625)"/>
      <path id="DejaVuSans-62" d="M 3116 1747 
Q 3116 2381 2855 2742 
Q 2594 3103 2138 3103 
Q 1681 3103 1420 2742 
Q 1159 2381 1159 1747 
Q 1159 1113 1420 752 
Q 1681 391 2138 391 
Q 2594 391 2855 752 
Q 3116 1113 3116 1747 
z
M 1159 2969 
Q 1341 3281 1617 3432 
Q 1894 3584 2278 3584 
Q 2916 3584 3314 3078 
Q 3713 2572 3713 1747 
Q 3713 922 3314 415 
Q 2916 -91 2278 -91 
Q 1894 -91 1617 61 
Q 1341 213 1159 525 
L 1159 0 
L 581 0 
L 581 4863 
L 1159 4863 
L 1159 2969 
z
" transform="scale(0.015625)"/>
      <path id="DejaVuSans-63" d="M 3122 3366 
L 3122 2828 
Q 2878 2963 2633 3030 
Q 2388 3097 2138 3097 
Q 1578 3097 1268 2742 
Q 959 2388 959 1747 
Q 959 1106 1268 751 
Q 1578 397 2138 397 
Q 2388 397 2633 464 
Q 2878 531 3122 666 
L 3122 134 
Q 2881 22 2623 -34 
Q 2366 -91 2075 -91 
Q 1284 -91 818 406 
Q 353 903 353 1747 
Q 353 2603 823 3093 
Q 1294 3584 2113 3584 
Q 2378 3584 2631 3529 
Q 2884 3475 3122 3366 
z
" transform="scale(0.015625)"/>
      <path id="DejaVuSans-72" d="M 2631 2963 
Q 2534 3019 2420 3045 
Q 2306 3072 2169 3072 
Q 1681 3072 1420 2755 
Q 1159 2438 1159 1844 
L 1159 0 
L 581 0 
L 581 3500 
L 1159 3500 
L 1159 2956 
Q 1341 3275 1631 3429 
Q 1922 3584 2338 3584 
Q 2397 3584 2469 3576 
Q 2541 3569 2628 3553 
L 2631 2963 
z
" transform="scale(0.015625)"/>
      <path id="DejaVuSans-69" d="M 603 3500 
L 1178 3500 
L 1178 0 
L 603 0 
L 603 3500 
z
M 603 4863 
L 1178 4863 
L 1178 4134 
L 603 4134 
L 603 4863 
z
" transform="scale(0.015625)"/>
      <path id="DejaVuSans-20" transform="scale(0.015625)"/>
      <path id="DejaVuSans-68" d="M 3513 2113 
L 3513 0 
L 2938 0 
L 2938 2094 
Q 2938 2591 2744 2837 
Q 2550 3084 2163 3084 
Q 1697 3084 1428 2787 
Q 1159 2491 1159 1978 
L 1159 0 
L 581 0 
L 581 4863 
L 1159 4863 
L 1159 2956 
Q 1366 3272 1645 3428 
Q 1925 3584 2291 3584 
Q 2894 3584 3203 3211 
Q 3513 2838 3513 2113 
z
" transform="scale(0.015625)"/>
      <path id="DejaVuSans-6f" d="M 1959 3097 
Q 1497 3097 1228 2736 
Q 959 2375 959 1747 
Q 959 1119 1226 758 
Q 1494 397 1959 397 
Q 2419 397 2687 759 
Q 2956 1122 2956 1747 
Q 2956 2369 2687 2733 
Q 2419 3097 1959 3097 
z
M 1959 3584 
Q 2709 3584 3137 3096 
Q 3566 2609 3566 1747 
Q 3566 888 3137 398 
Q 2709 -91 1959 -91 
Q 1206 -91 779 398 
Q 353 888 353 1747 
Q 353 2609 779 3096 
Q 1206 3584 1959 3584 
z
" transform="scale(0.015625)"/>
      <path id="DejaVuSans-79" d="M 2059 -325 
Q 1816 -950 1584 -1140 
Q 1353 -1331 966 -1331 
L 506 -1331 
L 506 -850 
L 844 -850 
Q 1081 -850 1212 -737 
Q 1344 -625 1503 -206 
L 1606 56 
L 191 3500 
L 800 3500 
L 1894 763 
L 2988 3500 
L 3597 3500 
L 2059 -325 
z
" transform="scale(0.015625)"/>
     </defs>
     <use xlink:href="#DejaVuSans-67"/>
     <use xlink:href="#DejaVuSans-65" x="63.476562"/>
     <use xlink:href="#DejaVuSans-74" x="125"/>
     <use xlink:href="#DejaVuSans-5f" x="164.208984"/>
     <use xlink:href="#DejaVuSans-73" x="214.208984"/>
     <use xlink:href="#DejaVuSans-75" x="266.308594"/>
     <use xlink:href="#DejaVuSans-62" x="329.6875"/>
     <use xlink:href="#DejaVuSans-73" x="393.164062"/>
     <use xlink:href="#DejaVuSans-63" x="445.263672"/>
     <use xlink:href="#DejaVuSans-72" x="500.244141"/>
     <use xlink:href="#DejaVuSans-69" x="541.357422"/>
     <use xlink:href="#DejaVuSans-62" x="569.140625"/>
     <use xlink:href="#DejaVuSans-65" x="632.617188"/>
     <use xlink:href="#DejaVuSans-20" x="694.140625"/>
     <use xlink:href="#DejaVuSans-68" x="725.927734"/>
     <use xlink:href="#DejaVuSans-69" x="789.306641"/>
     <use xlink:href="#DejaVuSans-73" x="817.089844"/>
     <use xlink:href="#DejaVuSans-74" x="869.189453"/>
     <use xlink:href="#DejaVuSans-6f" x="908.398438"/>
     <use xlink:href="#DejaVuSans-72" x="969.580078"/>
     <use xlink:href="#DejaVuSans-79" x="1010.693359"/>
    </g>
   </g>
   <g id="legend_1">
    <g id="line2d_37">
     <path d="M 815.08 328.498438 
L 825.08 328.498438 
L 835.08 328.498438 
" style="fill: none; stroke: #1f77b4; stroke-width: 1.5; stroke-linecap: square"/>
    </g>
    <g id="text_19">
     <!-- star -->
     <g style="fill: #a9a9a9" transform="translate(843.08 331.998438) scale(0.1 -0.1)">
      <defs>
       <path id="DejaVuSans-61" d="M 2194 1759 
Q 1497 1759 1228 1600 
Q 959 1441 959 1056 
Q 959 750 1161 570 
Q 1363 391 1709 391 
Q 2188 391 2477 730 
Q 2766 1069 2766 1631 
L 2766 1759 
L 2194 1759 
z
M 3341 1997 
L 3341 0 
L 2766 0 
L 2766 531 
Q 2569 213 2275 61 
Q 1981 -91 1556 -91 
Q 1019 -91 701 211 
Q 384 513 384 1019 
Q 384 1609 779 1909 
Q 1175 2209 1959 2209 
L 2766 2209 
L 2766 2266 
Q 2766 2663 2505 2880 
Q 2244 3097 1772 3097 
Q 1472 3097 1187 3025 
Q 903 2953 641 2809 
L 641 3341 
Q 956 3463 1253 3523 
Q 1550 3584 1831 3584 
Q 2591 3584 2966 3190 
Q 3341 2797 3341 1997 
z
" transform="scale(0.015625)"/>
      </defs>
      <use xlink:href="#DejaVuSans-73"/>
      <use xlink:href="#DejaVuSans-74" x="52.099609"/>
      <use xlink:href="#DejaVuSans-61" x="91.308594"/>
      <use xlink:href="#DejaVuSans-72" x="152.587891"/>
     </g>
    </g>
    <g id="line2d_38">
     <path d="M 815.08 343.176562 
L 825.08 343.176562 
L 835.08 343.176562 
" style="fill: none; stroke: #ff7f0e; stroke-width: 1.5; stroke-linecap: square"/>
    </g>
    <g id="text_20">
     <!-- fork -->
     <g style="fill: #a9a9a9" transform="translate(843.08 346.676562) scale(0.1 -0.1)">
      <defs>
       <path id="DejaVuSans-66" d="M 2375 4863 
L 2375 4384 
L 1825 4384 
Q 1516 4384 1395 4259 
Q 1275 4134 1275 3809 
L 1275 3500 
L 2222 3500 
L 2222 3053 
L 1275 3053 
L 1275 0 
L 697 0 
L 697 3053 
L 147 3053 
L 147 3500 
L 697 3500 
L 697 3744 
Q 697 4328 969 4595 
Q 1241 4863 1831 4863 
L 2375 4863 
z
" transform="scale(0.015625)"/>
       <path id="DejaVuSans-6b" d="M 581 4863 
L 1159 4863 
L 1159 1991 
L 2875 3500 
L 3609 3500 
L 1753 1863 
L 3688 0 
L 2938 0 
L 1159 1709 
L 1159 0 
L 581 0 
L 581 4863 
z
" transform="scale(0.015625)"/>
      </defs>
      <use xlink:href="#DejaVuSans-66"/>
      <use xlink:href="#DejaVuSans-6f" x="35.205078"/>
      <use xlink:href="#DejaVuSans-72" x="96.386719"/>
      <use xlink:href="#DejaVuSans-6b" x="137.5"/>
     </g>
    </g>
   </g>
  </g>
 </g>
 <defs>
  <clipPath id="p259236f1aa">
   <rect x="108" y="43.2" width="669.6" height="277.2"/>
  </clipPath>
 </defs>
</svg>
