<?xml version="1.0" encoding="utf-8" standalone="no"?>
<!DOCTYPE svg PUBLIC "-//W3C//DTD SVG 1.1//EN"
  "http://www.w3.org/Graphics/SVG/1.1/DTD/svg11.dtd">
<svg xmlns:xlink="http://www.w3.org/1999/xlink" width="864pt" height="360pt" viewBox="0 0 864 360" xmlns="http://www.w3.org/2000/svg" version="1.1">
 <metadata>
  <rdf:RDF xmlns:dc="http://purl.org/dc/elements/1.1/" xmlns:cc="http://creativecommons.org/ns#" xmlns:rdf="http://www.w3.org/1999/02/22-rdf-syntax-ns#">
   <cc:Work>
    <dc:type rdf:resource="http://purl.org/dc/dcmitype/StillImage"/>
    <dc:date>2023-04-19T08:55:41.157822</dc:date>
    <dc:format>image/svg+xml</dc:format>
    <dc:creator>
     <cc:Agent>
      <dc:title>Matplotlib v3.7.1, https://matplotlib.org/</dc:title>
     </cc:Agent>
    </dc:creator>
   </cc:Work>
  </rdf:RDF>
 </metadata>
 <defs>
  <style type="text/css">*{stroke-linejoin: round; stroke-linecap: butt}</style>
 </defs>
 <g id="figure_1">
  <g id="patch_1">
   <path d="M 0 360 
L 864 360 
L 864 0 
L 0 0 
L 0 360 
z
" style="fill: none; opacity: 0"/>
  </g>
  <g id="axes_1">
   <g id="patch_2">
    <path d="M 108 320.4 
L 777.6 320.4 
L 777.6 43.2 
L 108 43.2 
L 108 320.4 
z
" style="fill: none; opacity: 0"/>
   </g>
   <g id="matplotlib.axis_1">
    <g id="xtick_1">
     <g id="line2d_1">
      <path d="M 116.353198 320.4 
L 116.353198 43.2 
" clip-path="url(#p8f688d0849)" style="fill: none; stroke-dasharray: 5.12,1.28,0.8,1.28; stroke-dashoffset: 0; stroke: #b0b0b0; stroke-width: 0.8"/>
     </g>
     <g id="line2d_2">
      <defs>
       <path id="m1a910acc87" d="M 0 0 
L 0 3.5 
" style="stroke: #a9a9a9; stroke-width: 0.8"/>
      </defs>
      <g>
       <use xlink:href="#m1a910acc87" x="116.353198" y="320.4" style="fill: #a9a9a9; stroke: #a9a9a9; stroke-width: 0.8"/>
      </g>
     </g>
     <g id="text_1">
      <!-- 2021-07 -->
      <g style="fill: #a9a9a9" transform="translate(95.461791 334.998438) scale(0.1 -0.1)">
       <defs>
        <path id="DejaVuSans-32" d="M 1228 531 
L 3431 531 
L 3431 0 
L 469 0 
L 469 531 
Q 828 903 1448 1529 
Q 2069 2156 2228 2338 
Q 2531 2678 2651 2914 
Q 2772 3150 2772 3378 
Q 2772 3750 2511 3984 
Q 2250 4219 1831 4219 
Q 1534 4219 1204 4116 
Q 875 4013 500 3803 
L 500 4441 
Q 881 4594 1212 4672 
Q 1544 4750 1819 4750 
Q 2544 4750 2975 4387 
Q 3406 4025 3406 3419 
Q 3406 3131 3298 2873 
Q 3191 2616 2906 2266 
Q 2828 2175 2409 1742 
Q 1991 1309 1228 531 
z
" transform="scale(0.015625)"/>
        <path id="DejaVuSans-30" d="M 2034 4250 
Q 1547 4250 1301 3770 
Q 1056 3291 1056 2328 
Q 1056 1369 1301 889 
Q 1547 409 2034 409 
Q 2525 409 2770 889 
Q 3016 1369 3016 2328 
Q 3016 3291 2770 3770 
Q 2525 4250 2034 4250 
z
M 2034 4750 
Q 2819 4750 3233 4129 
Q 3647 3509 3647 2328 
Q 3647 1150 3233 529 
Q 2819 -91 2034 -91 
Q 1250 -91 836 529 
Q 422 1150 422 2328 
Q 422 3509 836 4129 
Q 1250 4750 2034 4750 
z
" transform="scale(0.015625)"/>
        <path id="DejaVuSans-31" d="M 794 531 
L 1825 531 
L 1825 4091 
L 703 3866 
L 703 4441 
L 1819 4666 
L 2450 4666 
L 2450 531 
L 3481 531 
L 3481 0 
L 794 0 
L 794 531 
z
" transform="scale(0.015625)"/>
        <path id="DejaVuSans-2d" d="M 313 2009 
L 1997 2009 
L 1997 1497 
L 313 1497 
L 313 2009 
z
" transform="scale(0.015625)"/>
        <path id="DejaVuSans-37" d="M 525 4666 
L 3525 4666 
L 3525 4397 
L 1831 0 
L 1172 0 
L 2766 4134 
L 525 4134 
L 525 4666 
z
" transform="scale(0.015625)"/>
       </defs>
       <use xlink:href="#DejaVuSans-32"/>
       <use xlink:href="#DejaVuSans-30" x="63.623047"/>
       <use xlink:href="#DejaVuSans-32" x="127.246094"/>
       <use xlink:href="#DejaVuSans-31" x="190.869141"/>
       <use xlink:href="#DejaVuSans-2d" x="254.492188"/>
       <use xlink:href="#DejaVuSans-30" x="290.576172"/>
       <use xlink:href="#DejaVuSans-37" x="354.199219"/>
      </g>
     </g>
    </g>
    <g id="xtick_2">
     <g id="line2d_3">
      <path d="M 175.881732 320.4 
L 175.881732 43.2 
" clip-path="url(#p8f688d0849)" style="fill: none; stroke-dasharray: 5.12,1.28,0.8,1.28; stroke-dashoffset: 0; stroke: #b0b0b0; stroke-width: 0.8"/>
     </g>
     <g id="line2d_4">
      <g>
       <use xlink:href="#m1a910acc87" x="175.881732" y="320.4" style="fill: #a9a9a9; stroke: #a9a9a9; stroke-width: 0.8"/>
      </g>
     </g>
     <g id="text_2">
      <!-- 2021-09 -->
      <g style="fill: #a9a9a9" transform="translate(154.990326 334.998438) scale(0.1 -0.1)">
       <defs>
        <path id="DejaVuSans-39" d="M 703 97 
L 703 672 
Q 941 559 1184 500 
Q 1428 441 1663 441 
Q 2288 441 2617 861 
Q 2947 1281 2994 2138 
Q 2813 1869 2534 1725 
Q 2256 1581 1919 1581 
Q 1219 1581 811 2004 
Q 403 2428 403 3163 
Q 403 3881 828 4315 
Q 1253 4750 1959 4750 
Q 2769 4750 3195 4129 
Q 3622 3509 3622 2328 
Q 3622 1225 3098 567 
Q 2575 -91 1691 -91 
Q 1453 -91 1209 -44 
Q 966 3 703 97 
z
M 1959 2075 
Q 2384 2075 2632 2365 
Q 2881 2656 2881 3163 
Q 2881 3666 2632 3958 
Q 2384 4250 1959 4250 
Q 1534 4250 1286 3958 
Q 1038 3666 1038 3163 
Q 1038 2656 1286 2365 
Q 1534 2075 1959 2075 
z
" transform="scale(0.015625)"/>
       </defs>
       <use xlink:href="#DejaVuSans-32"/>
       <use xlink:href="#DejaVuSans-30" x="63.623047"/>
       <use xlink:href="#DejaVuSans-32" x="127.246094"/>
       <use xlink:href="#DejaVuSans-31" x="190.869141"/>
       <use xlink:href="#DejaVuSans-2d" x="254.492188"/>
       <use xlink:href="#DejaVuSans-30" x="290.576172"/>
       <use xlink:href="#DejaVuSans-39" x="354.199219"/>
      </g>
     </g>
    </g>
    <g id="xtick_3">
     <g id="line2d_5">
      <path d="M 234.450129 320.4 
L 234.450129 43.2 
" clip-path="url(#p8f688d0849)" style="fill: none; stroke-dasharray: 5.12,1.28,0.8,1.28; stroke-dashoffset: 0; stroke: #b0b0b0; stroke-width: 0.8"/>
     </g>
     <g id="line2d_6">
      <g>
       <use xlink:href="#m1a910acc87" x="234.450129" y="320.4" style="fill: #a9a9a9; stroke: #a9a9a9; stroke-width: 0.8"/>
      </g>
     </g>
     <g id="text_3">
      <!-- 2021-11 -->
      <g style="fill: #a9a9a9" transform="translate(213.558723 334.998438) scale(0.1 -0.1)">
       <use xlink:href="#DejaVuSans-32"/>
       <use xlink:href="#DejaVuSans-30" x="63.623047"/>
       <use xlink:href="#DejaVuSans-32" x="127.246094"/>
       <use xlink:href="#DejaVuSans-31" x="190.869141"/>
       <use xlink:href="#DejaVuSans-2d" x="254.492188"/>
       <use xlink:href="#DejaVuSans-31" x="290.576172"/>
       <use xlink:href="#DejaVuSans-31" x="354.199219"/>
      </g>
     </g>
    </g>
    <g id="xtick_4">
     <g id="line2d_7">
      <path d="M 293.018526 320.4 
L 293.018526 43.2 
" clip-path="url(#p8f688d0849)" style="fill: none; stroke-dasharray: 5.12,1.28,0.8,1.28; stroke-dashoffset: 0; stroke: #b0b0b0; stroke-width: 0.8"/>
     </g>
     <g id="line2d_8">
      <g>
       <use xlink:href="#m1a910acc87" x="293.018526" y="320.4" style="fill: #a9a9a9; stroke: #a9a9a9; stroke-width: 0.8"/>
      </g>
     </g>
     <g id="text_4">
      <!-- 2022-01 -->
      <g style="fill: #a9a9a9" transform="translate(272.12712 334.998438) scale(0.1 -0.1)">
       <use xlink:href="#DejaVuSans-32"/>
       <use xlink:href="#DejaVuSans-30" x="63.623047"/>
       <use xlink:href="#DejaVuSans-32" x="127.246094"/>
       <use xlink:href="#DejaVuSans-32" x="190.869141"/>
       <use xlink:href="#DejaVuSans-2d" x="254.492188"/>
       <use xlink:href="#DejaVuSans-30" x="290.576172"/>
       <use xlink:href="#DejaVuSans-31" x="354.199219"/>
      </g>
     </g>
    </g>
    <g id="xtick_5">
     <g id="line2d_9">
      <path d="M 349.666648 320.4 
L 349.666648 43.2 
" clip-path="url(#p8f688d0849)" style="fill: none; stroke-dasharray: 5.12,1.28,0.8,1.28; stroke-dashoffset: 0; stroke: #b0b0b0; stroke-width: 0.8"/>
     </g>
     <g id="line2d_10">
      <g>
       <use xlink:href="#m1a910acc87" x="349.666648" y="320.4" style="fill: #a9a9a9; stroke: #a9a9a9; stroke-width: 0.8"/>
      </g>
     </g>
     <g id="text_5">
      <!-- 2022-03 -->
      <g style="fill: #a9a9a9" transform="translate(328.775241 334.998438) scale(0.1 -0.1)">
       <defs>
        <path id="DejaVuSans-33" d="M 2597 2516 
Q 3050 2419 3304 2112 
Q 3559 1806 3559 1356 
Q 3559 666 3084 287 
Q 2609 -91 1734 -91 
Q 1441 -91 1130 -33 
Q 819 25 488 141 
L 488 750 
Q 750 597 1062 519 
Q 1375 441 1716 441 
Q 2309 441 2620 675 
Q 2931 909 2931 1356 
Q 2931 1769 2642 2001 
Q 2353 2234 1838 2234 
L 1294 2234 
L 1294 2753 
L 1863 2753 
Q 2328 2753 2575 2939 
Q 2822 3125 2822 3475 
Q 2822 3834 2567 4026 
Q 2313 4219 1838 4219 
Q 1578 4219 1281 4162 
Q 984 4106 628 3988 
L 628 4550 
Q 988 4650 1302 4700 
Q 1616 4750 1894 4750 
Q 2613 4750 3031 4423 
Q 3450 4097 3450 3541 
Q 3450 3153 3228 2886 
Q 3006 2619 2597 2516 
z
" transform="scale(0.015625)"/>
       </defs>
       <use xlink:href="#DejaVuSans-32"/>
       <use xlink:href="#DejaVuSans-30" x="63.623047"/>
       <use xlink:href="#DejaVuSans-32" x="127.246094"/>
       <use xlink:href="#DejaVuSans-32" x="190.869141"/>
       <use xlink:href="#DejaVuSans-2d" x="254.492188"/>
       <use xlink:href="#DejaVuSans-30" x="290.576172"/>
       <use xlink:href="#DejaVuSans-33" x="354.199219"/>
      </g>
     </g>
    </g>
    <g id="xtick_6">
     <g id="line2d_11">
      <path d="M 408.235044 320.4 
L 408.235044 43.2 
" clip-path="url(#p8f688d0849)" style="fill: none; stroke-dasharray: 5.12,1.28,0.8,1.28; stroke-dashoffset: 0; stroke: #b0b0b0; stroke-width: 0.8"/>
     </g>
     <g id="line2d_12">
      <g>
       <use xlink:href="#m1a910acc87" x="408.235044" y="320.4" style="fill: #a9a9a9; stroke: #a9a9a9; stroke-width: 0.8"/>
      </g>
     </g>
     <g id="text_6">
      <!-- 2022-05 -->
      <g style="fill: #a9a9a9" transform="translate(387.343638 334.998438) scale(0.1 -0.1)">
       <defs>
        <path id="DejaVuSans-35" d="M 691 4666 
L 3169 4666 
L 3169 4134 
L 1269 4134 
L 1269 2991 
Q 1406 3038 1543 3061 
Q 1681 3084 1819 3084 
Q 2600 3084 3056 2656 
Q 3513 2228 3513 1497 
Q 3513 744 3044 326 
Q 2575 -91 1722 -91 
Q 1428 -91 1123 -41 
Q 819 9 494 109 
L 494 744 
Q 775 591 1075 516 
Q 1375 441 1709 441 
Q 2250 441 2565 725 
Q 2881 1009 2881 1497 
Q 2881 1984 2565 2268 
Q 2250 2553 1709 2553 
Q 1456 2553 1204 2497 
Q 953 2441 691 2322 
L 691 4666 
z
" transform="scale(0.015625)"/>
       </defs>
       <use xlink:href="#DejaVuSans-32"/>
       <use xlink:href="#DejaVuSans-30" x="63.623047"/>
       <use xlink:href="#DejaVuSans-32" x="127.246094"/>
       <use xlink:href="#DejaVuSans-32" x="190.869141"/>
       <use xlink:href="#DejaVuSans-2d" x="254.492188"/>
       <use xlink:href="#DejaVuSans-30" x="290.576172"/>
       <use xlink:href="#DejaVuSans-35" x="354.199219"/>
      </g>
     </g>
    </g>
    <g id="xtick_7">
     <g id="line2d_13">
      <path d="M 466.803441 320.4 
L 466.803441 43.2 
" clip-path="url(#p8f688d0849)" style="fill: none; stroke-dasharray: 5.12,1.28,0.8,1.28; stroke-dashoffset: 0; stroke: #b0b0b0; stroke-width: 0.8"/>
     </g>
     <g id="line2d_14">
      <g>
       <use xlink:href="#m1a910acc87" x="466.803441" y="320.4" style="fill: #a9a9a9; stroke: #a9a9a9; stroke-width: 0.8"/>
      </g>
     </g>
     <g id="text_7">
      <!-- 2022-07 -->
      <g style="fill: #a9a9a9" transform="translate(445.912035 334.998438) scale(0.1 -0.1)">
       <use xlink:href="#DejaVuSans-32"/>
       <use xlink:href="#DejaVuSans-30" x="63.623047"/>
       <use xlink:href="#DejaVuSans-32" x="127.246094"/>
       <use xlink:href="#DejaVuSans-32" x="190.869141"/>
       <use xlink:href="#DejaVuSans-2d" x="254.492188"/>
       <use xlink:href="#DejaVuSans-30" x="290.576172"/>
       <use xlink:href="#DejaVuSans-37" x="354.199219"/>
      </g>
     </g>
    </g>
    <g id="xtick_8">
     <g id="line2d_15">
      <path d="M 526.331976 320.4 
L 526.331976 43.2 
" clip-path="url(#p8f688d0849)" style="fill: none; stroke-dasharray: 5.12,1.28,0.8,1.28; stroke-dashoffset: 0; stroke: #b0b0b0; stroke-width: 0.8"/>
     </g>
     <g id="line2d_16">
      <g>
       <use xlink:href="#m1a910acc87" x="526.331976" y="320.4" style="fill: #a9a9a9; stroke: #a9a9a9; stroke-width: 0.8"/>
      </g>
     </g>
     <g id="text_8">
      <!-- 2022-09 -->
      <g style="fill: #a9a9a9" transform="translate(505.44057 334.998438) scale(0.1 -0.1)">
       <use xlink:href="#DejaVuSans-32"/>
       <use xlink:href="#DejaVuSans-30" x="63.623047"/>
       <use xlink:href="#DejaVuSans-32" x="127.246094"/>
       <use xlink:href="#DejaVuSans-32" x="190.869141"/>
       <use xlink:href="#DejaVuSans-2d" x="254.492188"/>
       <use xlink:href="#DejaVuSans-30" x="290.576172"/>
       <use xlink:href="#DejaVuSans-39" x="354.199219"/>
      </g>
     </g>
    </g>
    <g id="xtick_9">
     <g id="line2d_17">
      <path d="M 584.900373 320.4 
L 584.900373 43.2 
" clip-path="url(#p8f688d0849)" style="fill: none; stroke-dasharray: 5.12,1.28,0.8,1.28; stroke-dashoffset: 0; stroke: #b0b0b0; stroke-width: 0.8"/>
     </g>
     <g id="line2d_18">
      <g>
       <use xlink:href="#m1a910acc87" x="584.900373" y="320.4" style="fill: #a9a9a9; stroke: #a9a9a9; stroke-width: 0.8"/>
      </g>
     </g>
     <g id="text_9">
      <!-- 2022-11 -->
      <g style="fill: #a9a9a9" transform="translate(564.008967 334.998438) scale(0.1 -0.1)">
       <use xlink:href="#DejaVuSans-32"/>
       <use xlink:href="#DejaVuSans-30" x="63.623047"/>
       <use xlink:href="#DejaVuSans-32" x="127.246094"/>
       <use xlink:href="#DejaVuSans-32" x="190.869141"/>
       <use xlink:href="#DejaVuSans-2d" x="254.492188"/>
       <use xlink:href="#DejaVuSans-31" x="290.576172"/>
       <use xlink:href="#DejaVuSans-31" x="354.199219"/>
      </g>
     </g>
    </g>
    <g id="xtick_10">
     <g id="line2d_19">
      <path d="M 643.46877 320.4 
L 643.46877 43.2 
" clip-path="url(#p8f688d0849)" style="fill: none; stroke-dasharray: 5.12,1.28,0.8,1.28; stroke-dashoffset: 0; stroke: #b0b0b0; stroke-width: 0.8"/>
     </g>
     <g id="line2d_20">
      <g>
       <use xlink:href="#m1a910acc87" x="643.46877" y="320.4" style="fill: #a9a9a9; stroke: #a9a9a9; stroke-width: 0.8"/>
      </g>
     </g>
     <g id="text_10">
      <!-- 2023-01 -->
      <g style="fill: #a9a9a9" transform="translate(622.577363 334.998438) scale(0.1 -0.1)">
       <use xlink:href="#DejaVuSans-32"/>
       <use xlink:href="#DejaVuSans-30" x="63.623047"/>
       <use xlink:href="#DejaVuSans-32" x="127.246094"/>
       <use xlink:href="#DejaVuSans-33" x="190.869141"/>
       <use xlink:href="#DejaVuSans-2d" x="254.492188"/>
       <use xlink:href="#DejaVuSans-30" x="290.576172"/>
       <use xlink:href="#DejaVuSans-31" x="354.199219"/>
      </g>
     </g>
    </g>
    <g id="xtick_11">
     <g id="line2d_21">
      <path d="M 700.116891 320.4 
L 700.116891 43.2 
" clip-path="url(#p8f688d0849)" style="fill: none; stroke-dasharray: 5.12,1.28,0.8,1.28; stroke-dashoffset: 0; stroke: #b0b0b0; stroke-width: 0.8"/>
     </g>
     <g id="line2d_22">
      <g>
       <use xlink:href="#m1a910acc87" x="700.116891" y="320.4" style="fill: #a9a9a9; stroke: #a9a9a9; stroke-width: 0.8"/>
      </g>
     </g>
     <g id="text_11">
      <!-- 2023-03 -->
      <g style="fill: #a9a9a9" transform="translate(679.225485 334.998438) scale(0.1 -0.1)">
       <use xlink:href="#DejaVuSans-32"/>
       <use xlink:href="#DejaVuSans-30" x="63.623047"/>
       <use xlink:href="#DejaVuSans-32" x="127.246094"/>
       <use xlink:href="#DejaVuSans-33" x="190.869141"/>
       <use xlink:href="#DejaVuSans-2d" x="254.492188"/>
       <use xlink:href="#DejaVuSans-30" x="290.576172"/>
       <use xlink:href="#DejaVuSans-33" x="354.199219"/>
      </g>
     </g>
    </g>
    <g id="xtick_12">
     <g id="line2d_23">
      <path d="M 758.685288 320.4 
L 758.685288 43.2 
" clip-path="url(#p8f688d0849)" style="fill: none; stroke-dasharray: 5.12,1.28,0.8,1.28; stroke-dashoffset: 0; stroke: #b0b0b0; stroke-width: 0.8"/>
     </g>
     <g id="line2d_24">
      <g>
       <use xlink:href="#m1a910acc87" x="758.685288" y="320.4" style="fill: #a9a9a9; stroke: #a9a9a9; stroke-width: 0.8"/>
      </g>
     </g>
     <g id="text_12">
      <!-- 2023-05 -->
      <g style="fill: #a9a9a9" transform="translate(737.793882 334.998438) scale(0.1 -0.1)">
       <use xlink:href="#DejaVuSans-32"/>
       <use xlink:href="#DejaVuSans-30" x="63.623047"/>
       <use xlink:href="#DejaVuSans-32" x="127.246094"/>
       <use xlink:href="#DejaVuSans-33" x="190.869141"/>
       <use xlink:href="#DejaVuSans-2d" x="254.492188"/>
       <use xlink:href="#DejaVuSans-30" x="290.576172"/>
       <use xlink:href="#DejaVuSans-35" x="354.199219"/>
      </g>
     </g>
    </g>
   </g>
   <g id="matplotlib.axis_2">
    <g id="ytick_1">
     <g id="line2d_25">
      <path d="M 108 307.860143 
L 777.6 307.860143 
" clip-path="url(#p8f688d0849)" style="fill: none; stroke-dasharray: 5.12,1.28,0.8,1.28; stroke-dashoffset: 0; stroke: #b0b0b0; stroke-width: 0.8"/>
     </g>
     <g id="line2d_26">
      <defs>
       <path id="mb72b2da699" d="M 0 0 
L -3.5 0 
" style="stroke: #a9a9a9; stroke-width: 0.8"/>
      </defs>
      <g>
       <use xlink:href="#mb72b2da699" x="108" y="307.860143" style="fill: #a9a9a9; stroke: #a9a9a9; stroke-width: 0.8"/>
      </g>
     </g>
     <g id="text_13">
      <!-- 0 -->
      <g style="fill: #a9a9a9" transform="translate(94.6375 311.659362) scale(0.1 -0.1)">
       <use xlink:href="#DejaVuSans-30"/>
      </g>
     </g>
    </g>
    <g id="ytick_2">
     <g id="line2d_27">
      <path d="M 108 277.788544 
L 777.6 277.788544 
" clip-path="url(#p8f688d0849)" style="fill: none; stroke-dasharray: 5.12,1.28,0.8,1.28; stroke-dashoffset: 0; stroke: #b0b0b0; stroke-width: 0.8"/>
     </g>
     <g id="line2d_28">
      <g>
       <use xlink:href="#mb72b2da699" x="108" y="277.788544" style="fill: #a9a9a9; stroke: #a9a9a9; stroke-width: 0.8"/>
      </g>
     </g>
     <g id="text_14">
      <!-- 500 -->
      <g style="fill: #a9a9a9" transform="translate(81.9125 281.587763) scale(0.1 -0.1)">
       <use xlink:href="#DejaVuSans-35"/>
       <use xlink:href="#DejaVuSans-30" x="63.623047"/>
       <use xlink:href="#DejaVuSans-30" x="127.246094"/>
      </g>
     </g>
    </g>
    <g id="ytick_3">
     <g id="line2d_29">
      <path d="M 108 247.716945 
L 777.6 247.716945 
" clip-path="url(#p8f688d0849)" style="fill: none; stroke-dasharray: 5.12,1.28,0.8,1.28; stroke-dashoffset: 0; stroke: #b0b0b0; stroke-width: 0.8"/>
     </g>
     <g id="line2d_30">
      <g>
       <use xlink:href="#mb72b2da699" x="108" y="247.716945" style="fill: #a9a9a9; stroke: #a9a9a9; stroke-width: 0.8"/>
      </g>
     </g>
     <g id="text_15">
      <!-- 1000 -->
      <g style="fill: #a9a9a9" transform="translate(75.55 251.516164) scale(0.1 -0.1)">
       <use xlink:href="#DejaVuSans-31"/>
       <use xlink:href="#DejaVuSans-30" x="63.623047"/>
       <use xlink:href="#DejaVuSans-30" x="127.246094"/>
       <use xlink:href="#DejaVuSans-30" x="190.869141"/>
      </g>
     </g>
    </g>
    <g id="ytick_4">
     <g id="line2d_31">
      <path d="M 108 217.645346 
L 777.6 217.645346 
" clip-path="url(#p8f688d0849)" style="fill: none; stroke-dasharray: 5.12,1.28,0.8,1.28; stroke-dashoffset: 0; stroke: #b0b0b0; stroke-width: 0.8"/>
     </g>
     <g id="line2d_32">
      <g>
       <use xlink:href="#mb72b2da699" x="108" y="217.645346" style="fill: #a9a9a9; stroke: #a9a9a9; stroke-width: 0.8"/>
      </g>
     </g>
     <g id="text_16">
      <!-- 1500 -->
      <g style="fill: #a9a9a9" transform="translate(75.55 221.444565) scale(0.1 -0.1)">
       <use xlink:href="#DejaVuSans-31"/>
       <use xlink:href="#DejaVuSans-35" x="63.623047"/>
       <use xlink:href="#DejaVuSans-30" x="127.246094"/>
       <use xlink:href="#DejaVuSans-30" x="190.869141"/>
      </g>
     </g>
    </g>
    <g id="ytick_5">
     <g id="line2d_33">
      <path d="M 108 187.573747 
L 777.6 187.573747 
" clip-path="url(#p8f688d0849)" style="fill: none; stroke-dasharray: 5.12,1.28,0.8,1.28; stroke-dashoffset: 0; stroke: #b0b0b0; stroke-width: 0.8"/>
     </g>
     <g id="line2d_34">
      <g>
       <use xlink:href="#mb72b2da699" x="108" y="187.573747" style="fill: #a9a9a9; stroke: #a9a9a9; stroke-width: 0.8"/>
      </g>
     </g>
     <g id="text_17">
      <!-- 2000 -->
      <g style="fill: #a9a9a9" transform="translate(75.55 191.372966) scale(0.1 -0.1)">
       <use xlink:href="#DejaVuSans-32"/>
       <use xlink:href="#DejaVuSans-30" x="63.623047"/>
       <use xlink:href="#DejaVuSans-30" x="127.246094"/>
       <use xlink:href="#DejaVuSans-30" x="190.869141"/>
      </g>
     </g>
    </g>
    <g id="ytick_6">
     <g id="line2d_35">
      <path d="M 108 157.502148 
L 777.6 157.502148 
" clip-path="url(#p8f688d0849)" style="fill: none; stroke-dasharray: 5.12,1.28,0.8,1.28; stroke-dashoffset: 0; stroke: #b0b0b0; stroke-width: 0.8"/>
     </g>
     <g id="line2d_36">
      <g>
       <use xlink:href="#mb72b2da699" x="108" y="157.502148" style="fill: #a9a9a9; stroke: #a9a9a9; stroke-width: 0.8"/>
      </g>
     </g>
     <g id="text_18">
      <!-- 2500 -->
      <g style="fill: #a9a9a9" transform="translate(75.55 161.301367) scale(0.1 -0.1)">
       <use xlink:href="#DejaVuSans-32"/>
       <use xlink:href="#DejaVuSans-35" x="63.623047"/>
       <use xlink:href="#DejaVuSans-30" x="127.246094"/>
       <use xlink:href="#DejaVuSans-30" x="190.869141"/>
      </g>
     </g>
    </g>
    <g id="ytick_7">
     <g id="line2d_37">
      <path d="M 108 127.430549 
L 777.6 127.430549 
" clip-path="url(#p8f688d0849)" style="fill: none; stroke-dasharray: 5.12,1.28,0.8,1.28; stroke-dashoffset: 0; stroke: #b0b0b0; stroke-width: 0.8"/>
     </g>
     <g id="line2d_38">
      <g>
       <use xlink:href="#mb72b2da699" x="108" y="127.430549" style="fill: #a9a9a9; stroke: #a9a9a9; stroke-width: 0.8"/>
      </g>
     </g>
     <g id="text_19">
      <!-- 3000 -->
      <g style="fill: #a9a9a9" transform="translate(75.55 131.229768) scale(0.1 -0.1)">
       <use xlink:href="#DejaVuSans-33"/>
       <use xlink:href="#DejaVuSans-30" x="63.623047"/>
       <use xlink:href="#DejaVuSans-30" x="127.246094"/>
       <use xlink:href="#DejaVuSans-30" x="190.869141"/>
      </g>
     </g>
    </g>
    <g id="ytick_8">
     <g id="line2d_39">
      <path d="M 108 97.35895 
L 777.6 97.35895 
" clip-path="url(#p8f688d0849)" style="fill: none; stroke-dasharray: 5.12,1.28,0.8,1.28; stroke-dashoffset: 0; stroke: #b0b0b0; stroke-width: 0.8"/>
     </g>
     <g id="line2d_40">
      <g>
       <use xlink:href="#mb72b2da699" x="108" y="97.35895" style="fill: #a9a9a9; stroke: #a9a9a9; stroke-width: 0.8"/>
      </g>
     </g>
     <g id="text_20">
      <!-- 3500 -->
      <g style="fill: #a9a9a9" transform="translate(75.55 101.158169) scale(0.1 -0.1)">
       <use xlink:href="#DejaVuSans-33"/>
       <use xlink:href="#DejaVuSans-35" x="63.623047"/>
       <use xlink:href="#DejaVuSans-30" x="127.246094"/>
       <use xlink:href="#DejaVuSans-30" x="190.869141"/>
      </g>
     </g>
    </g>
    <g id="ytick_9">
     <g id="line2d_41">
      <path d="M 108 67.287351 
L 777.6 67.287351 
" clip-path="url(#p8f688d0849)" style="fill: none; stroke-dasharray: 5.12,1.28,0.8,1.28; stroke-dashoffset: 0; stroke: #b0b0b0; stroke-width: 0.8"/>
     </g>
     <g id="line2d_42">
      <g>
       <use xlink:href="#mb72b2da699" x="108" y="67.287351" style="fill: #a9a9a9; stroke: #a9a9a9; stroke-width: 0.8"/>
      </g>
     </g>
     <g id="text_21">
      <!-- 4000 -->
      <g style="fill: #a9a9a9" transform="translate(75.55 71.08657) scale(0.1 -0.1)">
       <defs>
        <path id="DejaVuSans-34" d="M 2419 4116 
L 825 1625 
L 2419 1625 
L 2419 4116 
z
M 2253 4666 
L 3047 4666 
L 3047 1625 
L 3713 1625 
L 3713 1100 
L 3047 1100 
L 3047 0 
L 2419 0 
L 2419 1100 
L 313 1100 
L 313 1709 
L 2253 4666 
z
" transform="scale(0.015625)"/>
       </defs>
       <use xlink:href="#DejaVuSans-34"/>
       <use xlink:href="#DejaVuSans-30" x="63.623047"/>
       <use xlink:href="#DejaVuSans-30" x="127.246094"/>
       <use xlink:href="#DejaVuSans-30" x="190.869141"/>
      </g>
     </g>
    </g>
   </g>
   <g id="line2d_43">
    <path d="M 138.436364 307.61957 
L 142.276914 307.318854 
L 143.237052 307.198568 
L 144.19719 307.198568 
L 145.157327 306.837709 
L 147.077603 306.717422 
L 153.798566 305.454415 
L 155.718841 305.334129 
L 156.678979 305.153699 
L 159.559392 304.97327 
L 160.51953 304.492124 
L 161.479667 304.251551 
L 162.439805 303.168974 
L 163.399943 302.567542 
L 164.36008 300.582816 
L 165.320218 300.46253 
L 166.280356 299.800955 
L 167.240493 299.440095 
L 168.200631 298.95895 
L 171.081044 296.733652 
L 173.001319 295.891647 
L 173.961457 295.530788 
L 174.921594 294.869212 
L 176.84187 294.087351 
L 177.802007 293.606205 
L 178.762145 293.305489 
L 179.722283 291.862053 
L 180.68242 291.140334 
L 182.602696 290.178043 
L 188.363522 289.396181 
L 189.323659 289.215752 
L 191.243935 289.095465 
L 192.204072 288.915036 
L 193.16421 288.43389 
L 195.084485 288.373747 
L 196.044623 288.373747 
L 199.885174 287.952745 
L 200.845311 287.652029 
L 205.645999 286.749881 
L 207.566275 286.569451 
L 208.526412 286.328878 
L 211.406825 286.028162 
L 212.366963 285.547017 
L 213.327101 285.42673 
L 215.247376 284.765155 
L 217.167651 284.584726 
L 218.127789 284.28401 
L 221.96834 283.742721 
L 222.928477 283.442005 
L 224.848753 283.141289 
L 225.80889 283.141289 
L 230.609578 282.539857 
L 232.529854 281.998568 
L 233.489991 281.757995 
L 235.410267 281.577566 
L 236.370404 281.517422 
L 239.250817 280.976134 
L 240.210955 280.675418 
L 241.171093 279.472554 
L 242.13123 279.111695 
L 243.091368 278.630549 
L 244.051506 278.510263 
L 245.011643 278.26969 
L 245.971781 278.149403 
L 247.892056 277.367542 
L 248.852194 277.307399 
L 253.652882 276.104535 
L 254.61302 276.104535 
L 256.533295 275.863962 
L 258.45357 275.322673 
L 261.333983 274.661098 
L 262.294121 274.600955 
L 264.214396 273.819093 
L 265.174534 273.698807 
L 266.134672 273.277804 
L 268.054947 273.097375 
L 269.015085 273.037232 
L 271.895498 272.556086 
L 273.815773 272.25537 
L 278.616461 271.353222 
L 280.536736 270.691647 
L 281.496874 270.150358 
L 282.457012 269.909785 
L 283.417149 269.789499 
L 285.337425 269.188067 
L 287.2577 268.165632 
L 288.217838 267.5642 
L 289.177975 267.443914 
L 290.138113 267.143198 
L 291.098251 267.022912 
L 292.058388 266.782339 
L 293.018526 266.662053 
L 293.978664 266.24105 
L 295.898939 265.940334 
L 297.819214 265.098329 
L 298.779352 264.857757 
L 299.73949 264.73747 
L 300.699627 264.436754 
L 304.540178 263.715036 
L 306.460453 262.933174 
L 307.420591 262.752745 
L 308.380728 262.391885 
L 309.340866 262.271599 
L 310.301004 261.850597 
L 311.261141 261.610024 
L 313.181417 261.489737 
L 315.101692 260.888305 
L 316.06183 260.768019 
L 317.021967 260.768019 
L 317.982105 260.347017 
L 320.862518 259.745585 
L 322.782793 259.685442 
L 323.742931 259.565155 
L 324.703069 259.565155 
L 326.623344 259.264439 
L 329.503757 257.941289 
L 330.463894 257.520286 
L 331.424032 257.279714 
L 332.38417 256.678282 
L 333.344307 256.377566 
L 335.264583 255.535561 
L 336.22472 255.355131 
L 338.144996 254.693556 
L 340.065271 253.671122 
L 341.025409 252.708831 
L 341.985546 251.265394 
L 342.945684 250.122673 
L 343.905822 249.8821 
L 344.865959 249.8821 
L 346.786235 248.55895 
L 347.746372 248.318377 
L 348.70651 247.837232 
L 349.666648 247.656802 
L 350.626785 246.814797 
L 351.586923 246.574224 
L 354.467336 245.311217 
L 355.427473 244.22864 
L 356.387611 242.845346 
L 357.347749 242.304057 
L 358.307886 240.860621 
L 359.268024 239.958473 
L 360.228162 239.53747 
L 361.188299 239.296897 
L 363.108575 238.21432 
L 364.068712 237.793317 
L 367.909263 235.147017 
L 368.869401 233.88401 
L 369.829538 231.839141 
L 370.789676 230.51599 
L 371.749814 229.854415 
L 372.709951 229.493556 
L 376.550502 226.426253 
L 378.470777 224.982816 
L 379.430915 224.200955 
L 380.391052 222.937947 
L 381.35119 222.095943 
L 384.231603 220.231504 
L 386.151878 219.02864 
L 387.112016 218.246778 
L 388.072154 218.006205 
L 390.952567 216.622912 
L 392.872842 215.600477 
L 393.83298 215.239618 
L 395.753255 213.615752 
L 396.713393 212.533174 
L 398.633668 211.33031 
L 399.593806 211.089737 
L 400.553943 210.608592 
L 401.514081 209.947017 
L 403.434356 208.984726 
L 404.394494 208.864439 
L 405.354631 208.263007 
L 407.274907 207.360859 
L 408.235044 206.458711 
L 409.195182 205.857279 
L 410.15532 205.556563 
L 411.115457 204.955131 
L 413.99587 203.692124 
L 414.956008 203.090692 
L 415.916146 202.308831 
L 417.836421 201.647255 
L 418.796559 201.286396 
L 419.756696 201.105967 
L 420.716834 200.504535 
L 421.676972 200.324105 
L 423.597247 199.66253 
L 425.517522 199.000955 
L 427.437798 198.279236 
L 428.397935 198.038663 
L 429.358073 197.677804 
L 431.278348 197.377088 
L 433.198623 195.873508 
L 434.158761 195.512649 
L 438.959449 193.227208 
L 439.919587 192.986635 
L 440.879725 192.445346 
L 441.839862 192.204773 
L 444.720275 190.520764 
L 447.600688 189.919332 
L 448.560826 189.618616 
L 449.520964 189.438186 
L 452.401377 187.874463 
L 453.361514 187.754177 
L 454.321652 187.393317 
L 455.28179 187.273031 
L 456.241927 187.032458 
L 459.12234 185.107876 
L 460.082478 184.927446 
L 461.042615 184.62673 
L 462.002753 184.506444 
L 462.962891 184.205728 
L 463.923028 183.544153 
L 464.883166 183.243437 
L 465.843304 182.822434 
L 469.683854 181.8 
L 470.643992 181.739857 
L 471.60413 181.439141 
L 473.524405 180.657279 
L 474.484543 180.356563 
L 475.44468 180.176134 
L 478.325093 179.033413 
L 480.245369 178.492124 
L 481.205506 178.431981 
L 483.125781 178.010979 
L 484.085919 177.589976 
L 485.046057 177.409547 
L 486.966332 176.627685 
L 490.806883 174.823389 
L 491.76702 174.221957 
L 492.727158 173.981384 
L 495.607571 172.598091 
L 497.527846 172.177088 
L 499.448122 171.27494 
L 500.408259 170.974224 
L 502.328535 170.673508 
L 503.288672 170.011933 
L 504.24881 169.590931 
L 505.208948 169.410501 
L 507.129223 168.688783 
L 508.08936 168.508353 
L 509.049498 168.027208 
L 512.890049 167.485919 
L 514.810324 166.643914 
L 515.770462 165.922196 
L 516.730599 164.358473 
L 517.690737 164.1179 
L 519.611012 163.817184 
L 523.451563 162.012888 
L 524.411701 161.832458 
L 530.172527 159.246301 
L 531.132664 158.644869 
L 532.092802 158.28401 
L 534.973215 157.742721 
L 536.89349 156.840573 
L 537.853628 156.479714 
L 538.813765 156.359427 
L 541.694178 155.27685 
L 543.614454 154.194272 
L 544.574591 153.59284 
L 545.534729 153.171838 
L 546.494867 153.051551 
L 547.455004 152.750835 
L 548.415142 152.690692 
L 552.255693 151.487828 
L 553.21583 151.427685 
L 554.175968 150.76611 
L 555.136106 150.525537 
L 557.056381 149.803819 
L 558.976656 149.26253 
L 559.936794 148.721241 
L 560.896931 148.420525 
L 561.857069 147.819093 
L 562.817207 147.458234 
L 563.777344 146.916945 
L 565.69762 146.25537 
L 566.657757 145.954654 
L 569.53817 144.75179 
L 570.498308 144.090215 
L 571.458446 143.06778 
L 572.418583 142.466348 
L 573.378721 142.285919 
L 575.298996 140.902625 
L 576.259134 140.722196 
L 577.219272 139.399045 
L 578.179409 139.038186 
L 579.139547 138.376611 
L 580.099685 138.256325 
L 581.059822 137.654893 
L 582.01996 137.23389 
L 582.980098 137.053461 
L 583.940235 136.692601 
L 584.900373 135.970883 
L 585.86051 135.670167 
L 588.740923 133.865871 
L 592.581474 132.121718 
L 593.541612 132.001432 
L 594.501749 131.640573 
L 596.422025 130.618138 
L 597.382162 129.174702 
L 598.3423 128.272554 
L 599.302438 127.791408 
L 600.262575 127.610979 
L 602.182851 126.528401 
L 603.142988 126.347971 
L 605.063264 125.505967 
L 607.943677 124.363246 
L 609.863952 123.100239 
L 611.784227 121.175656 
L 612.744365 120.453938 
L 614.66464 119.37136 
L 615.624778 118.469212 
L 618.505191 116.304057 
L 619.465328 115.822912 
L 620.425466 114.860621 
L 621.385604 114.199045 
L 623.305879 113.53747 
L 624.266017 112.695465 
L 626.186292 111.793317 
L 627.14643 111.552745 
L 628.106567 110.891169 
L 629.066705 110.650597 
L 631.947118 109.267303 
L 632.907256 108.605728 
L 633.867393 108.124582 
L 635.787668 107.583294 
L 636.747806 107.042005 
L 639.628219 106.2 
L 641.548494 105.658711 
L 643.46877 104.756563 
L 644.428907 103.974702 
L 646.349183 103.252983 
L 649.229596 102.230549 
L 650.189733 101.568974 
L 653.070146 100.305967 
L 654.030284 99.644391 
L 654.990422 99.163246 
L 656.910697 95.67494 
L 658.830972 93.509785 
L 659.79111 92.84821 
L 663.63166 91.284487 
L 664.591798 91.1642 
L 665.551936 90.683055 
L 666.512073 90.442482 
L 667.472211 90.081623 
L 668.432349 89.84105 
L 671.312762 88.758473 
L 673.233037 87.435322 
L 675.153312 86.713604 
L 680.914138 83.706444 
L 681.874276 82.804296 
L 683.794551 81.842005 
L 684.754689 81.360859 
L 685.714826 81.060143 
L 686.674964 80.398568 
L 687.635102 80.037709 
L 690.515515 78.473986 
L 691.475652 77.932697 
L 692.43579 77.692124 
L 693.395928 77.030549 
L 694.356065 76.66969 
L 695.316203 76.48926 
L 697.236478 75.767542 
L 699.156754 75.226253 
L 700.116891 74.745107 
L 701.077029 74.083532 
L 702.037167 73.903103 
L 704.91758 72.940811 
L 705.877717 72.219093 
L 708.75813 71.136516 
L 709.718268 70.895943 
L 711.638543 69.693079 
L 712.598681 69.33222 
L 713.558818 68.851074 
L 715.479094 67.46778 
L 717.399369 66.866348 
L 718.359507 66.084487 
L 719.319644 65.904057 
L 720.279782 65.122196 
L 722.200057 64.099761 
L 724.120333 63.3179 
L 725.08047 62.415752 
L 726.040608 61.934606 
L 727.960883 61.393317 
L 728.921021 60.852029 
L 729.881159 60.731742 
L 732.761572 59.348449 
L 735.641985 58.506444 
L 736.602122 58.265871 
L 737.56226 58.205728 
L 738.522397 58.025298 
L 739.482535 57.664439 
L 740.442673 57.48401 
L 742.362948 56.762291 
L 743.323086 56.702148 
L 746.203499 55.8 
L 747.163636 55.8 
L 747.163636 55.8 
" clip-path="url(#p8f688d0849)" style="fill: none; stroke: #1f77b4; stroke-width: 1.5; stroke-linecap: square"/>
   </g>
   <g id="line2d_44">
    <path d="M 139.396501 307.8 
L 141.316777 307.8 
L 143.237052 307.559427 
L 148.997878 307.499284 
L 151.878291 307.378998 
L 154.758704 307.318854 
L 156.678979 307.258711 
L 159.559392 307.258711 
L 160.51953 307.018138 
L 163.399943 306.957995 
L 168.200631 306.416706 
L 175.881732 305.995704 
L 176.84187 305.995704 
L 177.802007 305.815274 
L 180.68242 305.755131 
L 182.602696 305.514558 
L 186.443246 305.514558 
L 187.403384 305.394272 
L 192.204072 305.334129 
L 195.084485 305.213842 
L 203.725724 305.153699 
L 205.645999 305.093556 
L 209.48655 305.033413 
L 212.366963 304.913126 
L 216.207514 304.913126 
L 217.167651 304.79284 
L 220.048064 304.732697 
L 223.888615 304.552267 
L 230.609578 304.492124 
L 232.529854 304.431981 
L 236.370404 304.371838 
L 239.250817 304.010979 
L 244.051506 303.950835 
L 248.852194 303.710263 
L 253.652882 303.650119 
L 256.533295 303.529833 
L 258.45357 303.46969 
L 260.373846 303.28926 
L 264.214396 303.108831 
L 267.094809 303.048687 
L 269.015085 302.988544 
L 270.93536 302.988544 
L 271.895498 302.868258 
L 274.775911 302.868258 
L 276.696186 302.687828 
L 279.576599 302.567542 
L 284.377287 302.507399 
L 287.2577 302.206683 
L 289.177975 302.086396 
L 290.138113 301.905967 
L 293.978664 301.845823 
L 304.540178 301.244391 
L 306.460453 301.184248 
L 309.340866 301.063962 
L 310.301004 301.063962 
L 312.221279 300.883532 
L 314.141554 300.823389 
L 315.101692 300.823389 
L 316.06183 300.703103 
L 317.982105 300.642959 
L 322.782793 300.402387 
L 324.703069 300.342243 
L 327.583482 300.221957 
L 330.463894 300.161814 
L 332.38417 300.101671 
L 337.184858 300.101671 
L 341.025409 299.680668 
L 341.985546 299.680668 
L 343.905822 299.500239 
L 345.826097 299.440095 
L 350.626785 299.139379 
L 351.586923 298.898807 
L 353.507198 298.77852 
L 354.467336 298.537947 
L 357.347749 298.297375 
L 359.268024 297.876372 
L 361.188299 297.816229 
L 363.108575 297.816229 
L 364.068712 297.695943 
L 365.02885 297.695943 
L 367.909263 297.27494 
L 368.869401 297.034368 
L 386.151878 296.011933 
L 387.112016 296.011933 
L 390.952567 295.530788 
L 391.912704 295.530788 
L 393.83298 295.230072 
L 395.753255 295.049642 
L 397.67353 294.989499 
L 399.593806 294.989499 
L 400.553943 294.748926 
L 403.434356 294.62864 
L 405.354631 294.62864 
L 407.274907 294.44821 
L 408.235044 294.44821 
L 411.115457 294.027208 
L 412.075595 293.786635 
L 413.99587 293.726492 
L 415.916146 293.666348 
L 416.876283 293.546062 
L 421.676972 293.485919 
L 435.118899 292.704057 
L 437.039174 292.704057 
L 438.959449 292.523628 
L 440.879725 292.523628 
L 443.760138 292.222912 
L 447.600688 292.042482 
L 449.520964 291.982339 
L 451.441239 291.922196 
L 454.321652 291.862053 
L 461.042615 291.501193 
L 465.843304 291.44105 
L 467.763579 291.380907 
L 468.723717 291.380907 
L 469.683854 291.200477 
L 471.60413 291.140334 
L 477.364956 291.080191 
L 479.285231 291.020048 
L 484.085919 290.959905 
L 485.046057 290.779475 
L 490.806883 290.719332 
L 492.727158 290.659189 
L 494.647433 290.599045 
L 496.567709 290.538902 
L 498.487984 290.478759 
L 505.208948 290.1179 
L 510.969773 290.057757 
L 513.850186 289.817184 
L 515.770462 289.636754 
L 517.690737 289.576611 
L 519.611012 289.576611 
L 520.57115 289.456325 
L 523.451563 289.396181 
L 524.411701 289.155609 
L 528.252251 288.975179 
L 536.89349 288.915036 
L 541.694178 288.554177 
L 544.574591 288.253461 
L 549.37528 288.193317 
L 552.255693 287.892601 
L 558.016518 287.591885 
L 559.936794 287.531742 
L 563.777344 287.351313 
L 567.617895 287.291169 
L 570.498308 287.170883 
L 574.338859 287.11074 
L 577.219272 286.810024 
L 579.139547 286.749881 
L 582.980098 286.689737 
L 585.86051 286.449165 
L 586.820648 286.328878 
L 587.780786 286.328878 
L 588.740923 286.148449 
L 590.661199 286.088305 
L 594.501749 286.028162 
L 596.422025 285.727446 
L 605.063264 285.667303 
L 606.983539 285.486874 
L 607.943677 285.366587 
L 609.863952 285.306444 
L 611.784227 285.246301 
L 612.744365 285.005728 
L 614.66464 284.945585 
L 615.624778 284.765155 
L 617.545053 284.765155 
L 620.425466 284.464439 
L 638.668081 283.381862 
L 640.588357 283.321718 
L 642.508632 283.261575 
L 654.030284 283.201432 
L 656.910697 283.081146 
L 657.870835 283.081146 
L 658.830972 282.840573 
L 660.751247 282.78043 
L 665.551936 282.720286 
L 668.432349 282.6 
L 673.233037 282.539857 
L 676.11345 282.41957 
L 678.033725 282.41957 
L 679.954001 282.178998 
L 681.874276 282.118854 
L 688.595239 281.757995 
L 690.515515 281.757995 
L 692.43579 281.577566 
L 699.156754 281.517422 
L 701.077029 281.336993 
L 703.957442 281.216706 
L 708.75813 281.156563 
L 710.678406 281.09642 
L 714.518956 281.036277 
L 716.439231 280.976134 
L 718.359507 280.91599 
L 720.279782 280.855847 
L 726.040608 280.795704 
L 730.841296 280.555131 
L 736.602122 280.494988 
L 741.40281 280.254415 
L 747.163636 280.254415 
L 747.163636 280.254415 
" clip-path="url(#p8f688d0849)" style="fill: none; stroke: #ff7f0e; stroke-width: 1.5; stroke-linecap: square"/>
   </g>
   <g id="patch_3">
    <path d="M 108 320.4 
L 108 43.2 
" style="fill: none; stroke: #a9a9a9; stroke-width: 0.8; stroke-linejoin: miter; stroke-linecap: square"/>
   </g>
   <g id="patch_4">
    <path d="M 777.6 320.4 
L 777.6 43.2 
" style="fill: none"/>
   </g>
   <g id="patch_5">
    <path d="M 108 320.4 
L 777.6 320.4 
" style="fill: none; stroke: #a9a9a9; stroke-width: 0.8; stroke-linejoin: miter; stroke-linecap: square"/>
   </g>
   <g id="patch_6">
    <path d="M 108 43.2 
L 777.6 43.2 
" style="fill: none"/>
   </g>
   <g id="text_22">
    <!-- get_subscribe history -->
    <g style="fill: #a9a9a9" transform="translate(378.6075 37.2) scale(0.12 -0.12)">
     <defs>
      <path id="DejaVuSans-67" d="M 2906 1791 
Q 2906 2416 2648 2759 
Q 2391 3103 1925 3103 
Q 1463 3103 1205 2759 
Q 947 2416 947 1791 
Q 947 1169 1205 825 
Q 1463 481 1925 481 
Q 2391 481 2648 825 
Q 2906 1169 2906 1791 
z
M 3481 434 
Q 3481 -459 3084 -895 
Q 2688 -1331 1869 -1331 
Q 1566 -1331 1297 -1286 
Q 1028 -1241 775 -1147 
L 775 -588 
Q 1028 -725 1275 -790 
Q 1522 -856 1778 -856 
Q 2344 -856 2625 -561 
Q 2906 -266 2906 331 
L 2906 616 
Q 2728 306 2450 153 
Q 2172 0 1784 0 
Q 1141 0 747 490 
Q 353 981 353 1791 
Q 353 2603 747 3093 
Q 1141 3584 1784 3584 
Q 2172 3584 2450 3431 
Q 2728 3278 2906 2969 
L 2906 3500 
L 3481 3500 
L 3481 434 
z
" transform="scale(0.015625)"/>
      <path id="DejaVuSans-65" d="M 3597 1894 
L 3597 1613 
L 953 1613 
Q 991 1019 1311 708 
Q 1631 397 2203 397 
Q 2534 397 2845 478 
Q 3156 559 3463 722 
L 3463 178 
Q 3153 47 2828 -22 
Q 2503 -91 2169 -91 
Q 1331 -91 842 396 
Q 353 884 353 1716 
Q 353 2575 817 3079 
Q 1281 3584 2069 3584 
Q 2775 3584 3186 3129 
Q 3597 2675 3597 1894 
z
M 3022 2063 
Q 3016 2534 2758 2815 
Q 2500 3097 2075 3097 
Q 1594 3097 1305 2825 
Q 1016 2553 972 2059 
L 3022 2063 
z
" transform="scale(0.015625)"/>
      <path id="DejaVuSans-74" d="M 1172 4494 
L 1172 3500 
L 2356 3500 
L 2356 3053 
L 1172 3053 
L 1172 1153 
Q 1172 725 1289 603 
Q 1406 481 1766 481 
L 2356 481 
L 2356 0 
L 1766 0 
Q 1100 0 847 248 
Q 594 497 594 1153 
L 594 3053 
L 172 3053 
L 172 3500 
L 594 3500 
L 594 4494 
L 1172 4494 
z
" transform="scale(0.015625)"/>
      <path id="DejaVuSans-5f" d="M 3263 -1063 
L 3263 -1509 
L -63 -1509 
L -63 -1063 
L 3263 -1063 
z
" transform="scale(0.015625)"/>
      <path id="DejaVuSans-73" d="M 2834 3397 
L 2834 2853 
Q 2591 2978 2328 3040 
Q 2066 3103 1784 3103 
Q 1356 3103 1142 2972 
Q 928 2841 928 2578 
Q 928 2378 1081 2264 
Q 1234 2150 1697 2047 
L 1894 2003 
Q 2506 1872 2764 1633 
Q 3022 1394 3022 966 
Q 3022 478 2636 193 
Q 2250 -91 1575 -91 
Q 1294 -91 989 -36 
Q 684 19 347 128 
L 347 722 
Q 666 556 975 473 
Q 1284 391 1588 391 
Q 1994 391 2212 530 
Q 2431 669 2431 922 
Q 2431 1156 2273 1281 
Q 2116 1406 1581 1522 
L 1381 1569 
Q 847 1681 609 1914 
Q 372 2147 372 2553 
Q 372 3047 722 3315 
Q 1072 3584 1716 3584 
Q 2034 3584 2315 3537 
Q 2597 3491 2834 3397 
z
" transform="scale(0.015625)"/>
      <path id="DejaVuSans-75" d="M 544 1381 
L 544 3500 
L 1119 3500 
L 1119 1403 
Q 1119 906 1312 657 
Q 1506 409 1894 409 
Q 2359 409 2629 706 
Q 2900 1003 2900 1516 
L 2900 3500 
L 3475 3500 
L 3475 0 
L 2900 0 
L 2900 538 
Q 2691 219 2414 64 
Q 2138 -91 1772 -91 
Q 1169 -91 856 284 
Q 544 659 544 1381 
z
M 1991 3584 
L 1991 3584 
z
" transform="scale(0.015625)"/>
      <path id="DejaVuSans-62" d="M 3116 1747 
Q 3116 2381 2855 2742 
Q 2594 3103 2138 3103 
Q 1681 3103 1420 2742 
Q 1159 2381 1159 1747 
Q 1159 1113 1420 752 
Q 1681 391 2138 391 
Q 2594 391 2855 752 
Q 3116 1113 3116 1747 
z
M 1159 2969 
Q 1341 3281 1617 3432 
Q 1894 3584 2278 3584 
Q 2916 3584 3314 3078 
Q 3713 2572 3713 1747 
Q 3713 922 3314 415 
Q 2916 -91 2278 -91 
Q 1894 -91 1617 61 
Q 1341 213 1159 525 
L 1159 0 
L 581 0 
L 581 4863 
L 1159 4863 
L 1159 2969 
z
" transform="scale(0.015625)"/>
      <path id="DejaVuSans-63" d="M 3122 3366 
L 3122 2828 
Q 2878 2963 2633 3030 
Q 2388 3097 2138 3097 
Q 1578 3097 1268 2742 
Q 959 2388 959 1747 
Q 959 1106 1268 751 
Q 1578 397 2138 397 
Q 2388 397 2633 464 
Q 2878 531 3122 666 
L 3122 134 
Q 2881 22 2623 -34 
Q 2366 -91 2075 -91 
Q 1284 -91 818 406 
Q 353 903 353 1747 
Q 353 2603 823 3093 
Q 1294 3584 2113 3584 
Q 2378 3584 2631 3529 
Q 2884 3475 3122 3366 
z
" transform="scale(0.015625)"/>
      <path id="DejaVuSans-72" d="M 2631 2963 
Q 2534 3019 2420 3045 
Q 2306 3072 2169 3072 
Q 1681 3072 1420 2755 
Q 1159 2438 1159 1844 
L 1159 0 
L 581 0 
L 581 3500 
L 1159 3500 
L 1159 2956 
Q 1341 3275 1631 3429 
Q 1922 3584 2338 3584 
Q 2397 3584 2469 3576 
Q 2541 3569 2628 3553 
L 2631 2963 
z
" transform="scale(0.015625)"/>
      <path id="DejaVuSans-69" d="M 603 3500 
L 1178 3500 
L 1178 0 
L 603 0 
L 603 3500 
z
M 603 4863 
L 1178 4863 
L 1178 4134 
L 603 4134 
L 603 4863 
z
" transform="scale(0.015625)"/>
      <path id="DejaVuSans-20" transform="scale(0.015625)"/>
      <path id="DejaVuSans-68" d="M 3513 2113 
L 3513 0 
L 2938 0 
L 2938 2094 
Q 2938 2591 2744 2837 
Q 2550 3084 2163 3084 
Q 1697 3084 1428 2787 
Q 1159 2491 1159 1978 
L 1159 0 
L 581 0 
L 581 4863 
L 1159 4863 
L 1159 2956 
Q 1366 3272 1645 3428 
Q 1925 3584 2291 3584 
Q 2894 3584 3203 3211 
Q 3513 2838 3513 2113 
z
" transform="scale(0.015625)"/>
      <path id="DejaVuSans-6f" d="M 1959 3097 
Q 1497 3097 1228 2736 
Q 959 2375 959 1747 
Q 959 1119 1226 758 
Q 1494 397 1959 397 
Q 2419 397 2687 759 
Q 2956 1122 2956 1747 
Q 2956 2369 2687 2733 
Q 2419 3097 1959 3097 
z
M 1959 3584 
Q 2709 3584 3137 3096 
Q 3566 2609 3566 1747 
Q 3566 888 3137 398 
Q 2709 -91 1959 -91 
Q 1206 -91 779 398 
Q 353 888 353 1747 
Q 353 2609 779 3096 
Q 1206 3584 1959 3584 
z
" transform="scale(0.015625)"/>
      <path id="DejaVuSans-79" d="M 2059 -325 
Q 1816 -950 1584 -1140 
Q 1353 -1331 966 -1331 
L 506 -1331 
L 506 -850 
L 844 -850 
Q 1081 -850 1212 -737 
Q 1344 -625 1503 -206 
L 1606 56 
L 191 3500 
L 800 3500 
L 1894 763 
L 2988 3500 
L 3597 3500 
L 2059 -325 
z
" transform="scale(0.015625)"/>
     </defs>
     <use xlink:href="#DejaVuSans-67"/>
     <use xlink:href="#DejaVuSans-65" x="63.476562"/>
     <use xlink:href="#DejaVuSans-74" x="125"/>
     <use xlink:href="#DejaVuSans-5f" x="164.208984"/>
     <use xlink:href="#DejaVuSans-73" x="214.208984"/>
     <use xlink:href="#DejaVuSans-75" x="266.308594"/>
     <use xlink:href="#DejaVuSans-62" x="329.6875"/>
     <use xlink:href="#DejaVuSans-73" x="393.164062"/>
     <use xlink:href="#DejaVuSans-63" x="445.263672"/>
     <use xlink:href="#DejaVuSans-72" x="500.244141"/>
     <use xlink:href="#DejaVuSans-69" x="541.357422"/>
     <use xlink:href="#DejaVuSans-62" x="569.140625"/>
     <use xlink:href="#DejaVuSans-65" x="632.617188"/>
     <use xlink:href="#DejaVuSans-20" x="694.140625"/>
     <use xlink:href="#DejaVuSans-68" x="725.927734"/>
     <use xlink:href="#DejaVuSans-69" x="789.306641"/>
     <use xlink:href="#DejaVuSans-73" x="817.089844"/>
     <use xlink:href="#DejaVuSans-74" x="869.189453"/>
     <use xlink:href="#DejaVuSans-6f" x="908.398438"/>
     <use xlink:href="#DejaVuSans-72" x="969.580078"/>
     <use xlink:href="#DejaVuSans-79" x="1010.693359"/>
    </g>
   </g>
   <g id="legend_1">
    <g id="line2d_45">
     <path d="M 815.08 328.498438 
L 825.08 328.498438 
L 835.08 328.498438 
" style="fill: none; stroke: #1f77b4; stroke-width: 1.5; stroke-linecap: square"/>
    </g>
    <g id="text_23">
     <!-- star -->
     <g style="fill: #a9a9a9" transform="translate(843.08 331.998438) scale(0.1 -0.1)">
      <defs>
       <path id="DejaVuSans-61" d="M 2194 1759 
Q 1497 1759 1228 1600 
Q 959 1441 959 1056 
Q 959 750 1161 570 
Q 1363 391 1709 391 
Q 2188 391 2477 730 
Q 2766 1069 2766 1631 
L 2766 1759 
L 2194 1759 
z
M 3341 1997 
L 3341 0 
L 2766 0 
L 2766 531 
Q 2569 213 2275 61 
Q 1981 -91 1556 -91 
Q 1019 -91 701 211 
Q 384 513 384 1019 
Q 384 1609 779 1909 
Q 1175 2209 1959 2209 
L 2766 2209 
L 2766 2266 
Q 2766 2663 2505 2880 
Q 2244 3097 1772 3097 
Q 1472 3097 1187 3025 
Q 903 2953 641 2809 
L 641 3341 
Q 956 3463 1253 3523 
Q 1550 3584 1831 3584 
Q 2591 3584 2966 3190 
Q 3341 2797 3341 1997 
z
" transform="scale(0.015625)"/>
      </defs>
      <use xlink:href="#DejaVuSans-73"/>
      <use xlink:href="#DejaVuSans-74" x="52.099609"/>
      <use xlink:href="#DejaVuSans-61" x="91.308594"/>
      <use xlink:href="#DejaVuSans-72" x="152.587891"/>
     </g>
    </g>
    <g id="line2d_46">
     <path d="M 815.08 343.176562 
L 825.08 343.176562 
L 835.08 343.176562 
" style="fill: none; stroke: #ff7f0e; stroke-width: 1.5; stroke-linecap: square"/>
    </g>
    <g id="text_24">
     <!-- fork -->
     <g style="fill: #a9a9a9" transform="translate(843.08 346.676562) scale(0.1 -0.1)">
      <defs>
       <path id="DejaVuSans-66" d="M 2375 4863 
L 2375 4384 
L 1825 4384 
Q 1516 4384 1395 4259 
Q 1275 4134 1275 3809 
L 1275 3500 
L 2222 3500 
L 2222 3053 
L 1275 3053 
L 1275 0 
L 697 0 
L 697 3053 
L 147 3053 
L 147 3500 
L 697 3500 
L 697 3744 
Q 697 4328 969 4595 
Q 1241 4863 1831 4863 
L 2375 4863 
z
" transform="scale(0.015625)"/>
       <path id="DejaVuSans-6b" d="M 581 4863 
L 1159 4863 
L 1159 1991 
L 2875 3500 
L 3609 3500 
L 1753 1863 
L 3688 0 
L 2938 0 
L 1159 1709 
L 1159 0 
L 581 0 
L 581 4863 
z
" transform="scale(0.015625)"/>
      </defs>
      <use xlink:href="#DejaVuSans-66"/>
      <use xlink:href="#DejaVuSans-6f" x="35.205078"/>
      <use xlink:href="#DejaVuSans-72" x="96.386719"/>
      <use xlink:href="#DejaVuSans-6b" x="137.5"/>
     </g>
    </g>
   </g>
  </g>
 </g>
 <defs>
  <clipPath id="p8f688d0849">
   <rect x="108" y="43.2" width="669.6" height="277.2"/>
  </clipPath>
 </defs>
</svg>
