<?xml version="1.0" encoding="utf-8" standalone="no"?>
<!DOCTYPE svg PUBLIC "-//W3C//DTD SVG 1.1//EN"
  "http://www.w3.org/Graphics/SVG/1.1/DTD/svg11.dtd">
<svg xmlns:xlink="http://www.w3.org/1999/xlink" width="864pt" height="360pt" viewBox="0 0 864 360" xmlns="http://www.w3.org/2000/svg" version="1.1">
 <metadata>
  <rdf:RDF xmlns:dc="http://purl.org/dc/elements/1.1/" xmlns:cc="http://creativecommons.org/ns#" xmlns:rdf="http://www.w3.org/1999/02/22-rdf-syntax-ns#">
   <cc:Work>
    <dc:type rdf:resource="http://purl.org/dc/dcmitype/StillImage"/>
    <dc:date>2023-04-20T08:53:43.702697</dc:date>
    <dc:format>image/svg+xml</dc:format>
    <dc:creator>
     <cc:Agent>
      <dc:title>Matplotlib v3.7.1, https://matplotlib.org/</dc:title>
     </cc:Agent>
    </dc:creator>
   </cc:Work>
  </rdf:RDF>
 </metadata>
 <defs>
  <style type="text/css">*{stroke-linejoin: round; stroke-linecap: butt}</style>
 </defs>
 <g id="figure_1">
  <g id="patch_1">
   <path d="M 0 360 
L 864 360 
L 864 0 
L 0 0 
L 0 360 
z
" style="fill: none; opacity: 0"/>
  </g>
  <g id="axes_1">
   <g id="patch_2">
    <path d="M 108 320.4 
L 777.6 320.4 
L 777.6 43.2 
L 108 43.2 
L 108 320.4 
z
" style="fill: none; opacity: 0"/>
   </g>
   <g id="matplotlib.axis_1">
    <g id="xtick_1">
     <g id="line2d_1">
      <path d="M 116.387974 320.4 
L 116.387974 43.2 
" clip-path="url(#p932fcfeda4)" style="fill: none; stroke-dasharray: 5.12,1.28,0.8,1.28; stroke-dashoffset: 0; stroke: #b0b0b0; stroke-width: 0.8"/>
     </g>
     <g id="line2d_2">
      <defs>
       <path id="m5dc9538240" d="M 0 0 
L 0 3.5 
" style="stroke: #a9a9a9; stroke-width: 0.8"/>
      </defs>
      <g>
       <use xlink:href="#m5dc9538240" x="116.387974" y="320.4" style="fill: #a9a9a9; stroke: #a9a9a9; stroke-width: 0.8"/>
      </g>
     </g>
     <g id="text_1">
      <!-- 2021-07 -->
      <g style="fill: #a9a9a9" transform="translate(95.496568 334.998438) scale(0.1 -0.1)">
       <defs>
        <path id="DejaVuSans-32" d="M 1228 531 
L 3431 531 
L 3431 0 
L 469 0 
L 469 531 
Q 828 903 1448 1529 
Q 2069 2156 2228 2338 
Q 2531 2678 2651 2914 
Q 2772 3150 2772 3378 
Q 2772 3750 2511 3984 
Q 2250 4219 1831 4219 
Q 1534 4219 1204 4116 
Q 875 4013 500 3803 
L 500 4441 
Q 881 4594 1212 4672 
Q 1544 4750 1819 4750 
Q 2544 4750 2975 4387 
Q 3406 4025 3406 3419 
Q 3406 3131 3298 2873 
Q 3191 2616 2906 2266 
Q 2828 2175 2409 1742 
Q 1991 1309 1228 531 
z
" transform="scale(0.015625)"/>
        <path id="DejaVuSans-30" d="M 2034 4250 
Q 1547 4250 1301 3770 
Q 1056 3291 1056 2328 
Q 1056 1369 1301 889 
Q 1547 409 2034 409 
Q 2525 409 2770 889 
Q 3016 1369 3016 2328 
Q 3016 3291 2770 3770 
Q 2525 4250 2034 4250 
z
M 2034 4750 
Q 2819 4750 3233 4129 
Q 3647 3509 3647 2328 
Q 3647 1150 3233 529 
Q 2819 -91 2034 -91 
Q 1250 -91 836 529 
Q 422 1150 422 2328 
Q 422 3509 836 4129 
Q 1250 4750 2034 4750 
z
" transform="scale(0.015625)"/>
        <path id="DejaVuSans-31" d="M 794 531 
L 1825 531 
L 1825 4091 
L 703 3866 
L 703 4441 
L 1819 4666 
L 2450 4666 
L 2450 531 
L 3481 531 
L 3481 0 
L 794 0 
L 794 531 
z
" transform="scale(0.015625)"/>
        <path id="DejaVuSans-2d" d="M 313 2009 
L 1997 2009 
L 1997 1497 
L 313 1497 
L 313 2009 
z
" transform="scale(0.015625)"/>
        <path id="DejaVuSans-37" d="M 525 4666 
L 3525 4666 
L 3525 4397 
L 1831 0 
L 1172 0 
L 2766 4134 
L 525 4134 
L 525 4666 
z
" transform="scale(0.015625)"/>
       </defs>
       <use xlink:href="#DejaVuSans-32"/>
       <use xlink:href="#DejaVuSans-30" x="63.623047"/>
       <use xlink:href="#DejaVuSans-32" x="127.246094"/>
       <use xlink:href="#DejaVuSans-31" x="190.869141"/>
       <use xlink:href="#DejaVuSans-2d" x="254.492188"/>
       <use xlink:href="#DejaVuSans-30" x="290.576172"/>
       <use xlink:href="#DejaVuSans-37" x="354.199219"/>
      </g>
     </g>
    </g>
    <g id="xtick_2">
     <g id="line2d_3">
      <path d="M 175.822763 320.4 
L 175.822763 43.2 
" clip-path="url(#p932fcfeda4)" style="fill: none; stroke-dasharray: 5.12,1.28,0.8,1.28; stroke-dashoffset: 0; stroke: #b0b0b0; stroke-width: 0.8"/>
     </g>
     <g id="line2d_4">
      <g>
       <use xlink:href="#m5dc9538240" x="175.822763" y="320.4" style="fill: #a9a9a9; stroke: #a9a9a9; stroke-width: 0.8"/>
      </g>
     </g>
     <g id="text_2">
      <!-- 2021-09 -->
      <g style="fill: #a9a9a9" transform="translate(154.931357 334.998438) scale(0.1 -0.1)">
       <defs>
        <path id="DejaVuSans-39" d="M 703 97 
L 703 672 
Q 941 559 1184 500 
Q 1428 441 1663 441 
Q 2288 441 2617 861 
Q 2947 1281 2994 2138 
Q 2813 1869 2534 1725 
Q 2256 1581 1919 1581 
Q 1219 1581 811 2004 
Q 403 2428 403 3163 
Q 403 3881 828 4315 
Q 1253 4750 1959 4750 
Q 2769 4750 3195 4129 
Q 3622 3509 3622 2328 
Q 3622 1225 3098 567 
Q 2575 -91 1691 -91 
Q 1453 -91 1209 -44 
Q 966 3 703 97 
z
M 1959 2075 
Q 2384 2075 2632 2365 
Q 2881 2656 2881 3163 
Q 2881 3666 2632 3958 
Q 2384 4250 1959 4250 
Q 1534 4250 1286 3958 
Q 1038 3666 1038 3163 
Q 1038 2656 1286 2365 
Q 1534 2075 1959 2075 
z
" transform="scale(0.015625)"/>
       </defs>
       <use xlink:href="#DejaVuSans-32"/>
       <use xlink:href="#DejaVuSans-30" x="63.623047"/>
       <use xlink:href="#DejaVuSans-32" x="127.246094"/>
       <use xlink:href="#DejaVuSans-31" x="190.869141"/>
       <use xlink:href="#DejaVuSans-2d" x="254.492188"/>
       <use xlink:href="#DejaVuSans-30" x="290.576172"/>
       <use xlink:href="#DejaVuSans-39" x="354.199219"/>
      </g>
     </g>
    </g>
    <g id="xtick_3">
     <g id="line2d_5">
      <path d="M 234.298926 320.4 
L 234.298926 43.2 
" clip-path="url(#p932fcfeda4)" style="fill: none; stroke-dasharray: 5.12,1.28,0.8,1.28; stroke-dashoffset: 0; stroke: #b0b0b0; stroke-width: 0.8"/>
     </g>
     <g id="line2d_6">
      <g>
       <use xlink:href="#m5dc9538240" x="234.298926" y="320.4" style="fill: #a9a9a9; stroke: #a9a9a9; stroke-width: 0.8"/>
      </g>
     </g>
     <g id="text_3">
      <!-- 2021-11 -->
      <g style="fill: #a9a9a9" transform="translate(213.40752 334.998438) scale(0.1 -0.1)">
       <use xlink:href="#DejaVuSans-32"/>
       <use xlink:href="#DejaVuSans-30" x="63.623047"/>
       <use xlink:href="#DejaVuSans-32" x="127.246094"/>
       <use xlink:href="#DejaVuSans-31" x="190.869141"/>
       <use xlink:href="#DejaVuSans-2d" x="254.492188"/>
       <use xlink:href="#DejaVuSans-31" x="290.576172"/>
       <use xlink:href="#DejaVuSans-31" x="354.199219"/>
      </g>
     </g>
    </g>
    <g id="xtick_4">
     <g id="line2d_7">
      <path d="M 292.775089 320.4 
L 292.775089 43.2 
" clip-path="url(#p932fcfeda4)" style="fill: none; stroke-dasharray: 5.12,1.28,0.8,1.28; stroke-dashoffset: 0; stroke: #b0b0b0; stroke-width: 0.8"/>
     </g>
     <g id="line2d_8">
      <g>
       <use xlink:href="#m5dc9538240" x="292.775089" y="320.4" style="fill: #a9a9a9; stroke: #a9a9a9; stroke-width: 0.8"/>
      </g>
     </g>
     <g id="text_4">
      <!-- 2022-01 -->
      <g style="fill: #a9a9a9" transform="translate(271.883683 334.998438) scale(0.1 -0.1)">
       <use xlink:href="#DejaVuSans-32"/>
       <use xlink:href="#DejaVuSans-30" x="63.623047"/>
       <use xlink:href="#DejaVuSans-32" x="127.246094"/>
       <use xlink:href="#DejaVuSans-32" x="190.869141"/>
       <use xlink:href="#DejaVuSans-2d" x="254.492188"/>
       <use xlink:href="#DejaVuSans-30" x="290.576172"/>
       <use xlink:href="#DejaVuSans-31" x="354.199219"/>
      </g>
     </g>
    </g>
    <g id="xtick_5">
     <g id="line2d_9">
      <path d="M 349.334001 320.4 
L 349.334001 43.2 
" clip-path="url(#p932fcfeda4)" style="fill: none; stroke-dasharray: 5.12,1.28,0.8,1.28; stroke-dashoffset: 0; stroke: #b0b0b0; stroke-width: 0.8"/>
     </g>
     <g id="line2d_10">
      <g>
       <use xlink:href="#m5dc9538240" x="349.334001" y="320.4" style="fill: #a9a9a9; stroke: #a9a9a9; stroke-width: 0.8"/>
      </g>
     </g>
     <g id="text_5">
      <!-- 2022-03 -->
      <g style="fill: #a9a9a9" transform="translate(328.442595 334.998438) scale(0.1 -0.1)">
       <defs>
        <path id="DejaVuSans-33" d="M 2597 2516 
Q 3050 2419 3304 2112 
Q 3559 1806 3559 1356 
Q 3559 666 3084 287 
Q 2609 -91 1734 -91 
Q 1441 -91 1130 -33 
Q 819 25 488 141 
L 488 750 
Q 750 597 1062 519 
Q 1375 441 1716 441 
Q 2309 441 2620 675 
Q 2931 909 2931 1356 
Q 2931 1769 2642 2001 
Q 2353 2234 1838 2234 
L 1294 2234 
L 1294 2753 
L 1863 2753 
Q 2328 2753 2575 2939 
Q 2822 3125 2822 3475 
Q 2822 3834 2567 4026 
Q 2313 4219 1838 4219 
Q 1578 4219 1281 4162 
Q 984 4106 628 3988 
L 628 4550 
Q 988 4650 1302 4700 
Q 1616 4750 1894 4750 
Q 2613 4750 3031 4423 
Q 3450 4097 3450 3541 
Q 3450 3153 3228 2886 
Q 3006 2619 2597 2516 
z
" transform="scale(0.015625)"/>
       </defs>
       <use xlink:href="#DejaVuSans-32"/>
       <use xlink:href="#DejaVuSans-30" x="63.623047"/>
       <use xlink:href="#DejaVuSans-32" x="127.246094"/>
       <use xlink:href="#DejaVuSans-32" x="190.869141"/>
       <use xlink:href="#DejaVuSans-2d" x="254.492188"/>
       <use xlink:href="#DejaVuSans-30" x="290.576172"/>
       <use xlink:href="#DejaVuSans-33" x="354.199219"/>
      </g>
     </g>
    </g>
    <g id="xtick_6">
     <g id="line2d_11">
      <path d="M 407.810165 320.4 
L 407.810165 43.2 
" clip-path="url(#p932fcfeda4)" style="fill: none; stroke-dasharray: 5.12,1.28,0.8,1.28; stroke-dashoffset: 0; stroke: #b0b0b0; stroke-width: 0.8"/>
     </g>
     <g id="line2d_12">
      <g>
       <use xlink:href="#m5dc9538240" x="407.810165" y="320.4" style="fill: #a9a9a9; stroke: #a9a9a9; stroke-width: 0.8"/>
      </g>
     </g>
     <g id="text_6">
      <!-- 2022-05 -->
      <g style="fill: #a9a9a9" transform="translate(386.918758 334.998438) scale(0.1 -0.1)">
       <defs>
        <path id="DejaVuSans-35" d="M 691 4666 
L 3169 4666 
L 3169 4134 
L 1269 4134 
L 1269 2991 
Q 1406 3038 1543 3061 
Q 1681 3084 1819 3084 
Q 2600 3084 3056 2656 
Q 3513 2228 3513 1497 
Q 3513 744 3044 326 
Q 2575 -91 1722 -91 
Q 1428 -91 1123 -41 
Q 819 9 494 109 
L 494 744 
Q 775 591 1075 516 
Q 1375 441 1709 441 
Q 2250 441 2565 725 
Q 2881 1009 2881 1497 
Q 2881 1984 2565 2268 
Q 2250 2553 1709 2553 
Q 1456 2553 1204 2497 
Q 953 2441 691 2322 
L 691 4666 
z
" transform="scale(0.015625)"/>
       </defs>
       <use xlink:href="#DejaVuSans-32"/>
       <use xlink:href="#DejaVuSans-30" x="63.623047"/>
       <use xlink:href="#DejaVuSans-32" x="127.246094"/>
       <use xlink:href="#DejaVuSans-32" x="190.869141"/>
       <use xlink:href="#DejaVuSans-2d" x="254.492188"/>
       <use xlink:href="#DejaVuSans-30" x="290.576172"/>
       <use xlink:href="#DejaVuSans-35" x="354.199219"/>
      </g>
     </g>
    </g>
    <g id="xtick_7">
     <g id="line2d_13">
      <path d="M 466.286328 320.4 
L 466.286328 43.2 
" clip-path="url(#p932fcfeda4)" style="fill: none; stroke-dasharray: 5.12,1.28,0.8,1.28; stroke-dashoffset: 0; stroke: #b0b0b0; stroke-width: 0.8"/>
     </g>
     <g id="line2d_14">
      <g>
       <use xlink:href="#m5dc9538240" x="466.286328" y="320.4" style="fill: #a9a9a9; stroke: #a9a9a9; stroke-width: 0.8"/>
      </g>
     </g>
     <g id="text_7">
      <!-- 2022-07 -->
      <g style="fill: #a9a9a9" transform="translate(445.394922 334.998438) scale(0.1 -0.1)">
       <use xlink:href="#DejaVuSans-32"/>
       <use xlink:href="#DejaVuSans-30" x="63.623047"/>
       <use xlink:href="#DejaVuSans-32" x="127.246094"/>
       <use xlink:href="#DejaVuSans-32" x="190.869141"/>
       <use xlink:href="#DejaVuSans-2d" x="254.492188"/>
       <use xlink:href="#DejaVuSans-30" x="290.576172"/>
       <use xlink:href="#DejaVuSans-37" x="354.199219"/>
      </g>
     </g>
    </g>
    <g id="xtick_8">
     <g id="line2d_15">
      <path d="M 525.721117 320.4 
L 525.721117 43.2 
" clip-path="url(#p932fcfeda4)" style="fill: none; stroke-dasharray: 5.12,1.28,0.8,1.28; stroke-dashoffset: 0; stroke: #b0b0b0; stroke-width: 0.8"/>
     </g>
     <g id="line2d_16">
      <g>
       <use xlink:href="#m5dc9538240" x="525.721117" y="320.4" style="fill: #a9a9a9; stroke: #a9a9a9; stroke-width: 0.8"/>
      </g>
     </g>
     <g id="text_8">
      <!-- 2022-09 -->
      <g style="fill: #a9a9a9" transform="translate(504.82971 334.998438) scale(0.1 -0.1)">
       <use xlink:href="#DejaVuSans-32"/>
       <use xlink:href="#DejaVuSans-30" x="63.623047"/>
       <use xlink:href="#DejaVuSans-32" x="127.246094"/>
       <use xlink:href="#DejaVuSans-32" x="190.869141"/>
       <use xlink:href="#DejaVuSans-2d" x="254.492188"/>
       <use xlink:href="#DejaVuSans-30" x="290.576172"/>
       <use xlink:href="#DejaVuSans-39" x="354.199219"/>
      </g>
     </g>
    </g>
    <g id="xtick_9">
     <g id="line2d_17">
      <path d="M 584.19728 320.4 
L 584.19728 43.2 
" clip-path="url(#p932fcfeda4)" style="fill: none; stroke-dasharray: 5.12,1.28,0.8,1.28; stroke-dashoffset: 0; stroke: #b0b0b0; stroke-width: 0.8"/>
     </g>
     <g id="line2d_18">
      <g>
       <use xlink:href="#m5dc9538240" x="584.19728" y="320.4" style="fill: #a9a9a9; stroke: #a9a9a9; stroke-width: 0.8"/>
      </g>
     </g>
     <g id="text_9">
      <!-- 2022-11 -->
      <g style="fill: #a9a9a9" transform="translate(563.305874 334.998438) scale(0.1 -0.1)">
       <use xlink:href="#DejaVuSans-32"/>
       <use xlink:href="#DejaVuSans-30" x="63.623047"/>
       <use xlink:href="#DejaVuSans-32" x="127.246094"/>
       <use xlink:href="#DejaVuSans-32" x="190.869141"/>
       <use xlink:href="#DejaVuSans-2d" x="254.492188"/>
       <use xlink:href="#DejaVuSans-31" x="290.576172"/>
       <use xlink:href="#DejaVuSans-31" x="354.199219"/>
      </g>
     </g>
    </g>
    <g id="xtick_10">
     <g id="line2d_19">
      <path d="M 642.673443 320.4 
L 642.673443 43.2 
" clip-path="url(#p932fcfeda4)" style="fill: none; stroke-dasharray: 5.12,1.28,0.8,1.28; stroke-dashoffset: 0; stroke: #b0b0b0; stroke-width: 0.8"/>
     </g>
     <g id="line2d_20">
      <g>
       <use xlink:href="#m5dc9538240" x="642.673443" y="320.4" style="fill: #a9a9a9; stroke: #a9a9a9; stroke-width: 0.8"/>
      </g>
     </g>
     <g id="text_10">
      <!-- 2023-01 -->
      <g style="fill: #a9a9a9" transform="translate(621.782037 334.998438) scale(0.1 -0.1)">
       <use xlink:href="#DejaVuSans-32"/>
       <use xlink:href="#DejaVuSans-30" x="63.623047"/>
       <use xlink:href="#DejaVuSans-32" x="127.246094"/>
       <use xlink:href="#DejaVuSans-33" x="190.869141"/>
       <use xlink:href="#DejaVuSans-2d" x="254.492188"/>
       <use xlink:href="#DejaVuSans-30" x="290.576172"/>
       <use xlink:href="#DejaVuSans-31" x="354.199219"/>
      </g>
     </g>
    </g>
    <g id="xtick_11">
     <g id="line2d_21">
      <path d="M 699.232355 320.4 
L 699.232355 43.2 
" clip-path="url(#p932fcfeda4)" style="fill: none; stroke-dasharray: 5.12,1.28,0.8,1.28; stroke-dashoffset: 0; stroke: #b0b0b0; stroke-width: 0.8"/>
     </g>
     <g id="line2d_22">
      <g>
       <use xlink:href="#m5dc9538240" x="699.232355" y="320.4" style="fill: #a9a9a9; stroke: #a9a9a9; stroke-width: 0.8"/>
      </g>
     </g>
     <g id="text_11">
      <!-- 2023-03 -->
      <g style="fill: #a9a9a9" transform="translate(678.340949 334.998438) scale(0.1 -0.1)">
       <use xlink:href="#DejaVuSans-32"/>
       <use xlink:href="#DejaVuSans-30" x="63.623047"/>
       <use xlink:href="#DejaVuSans-32" x="127.246094"/>
       <use xlink:href="#DejaVuSans-33" x="190.869141"/>
       <use xlink:href="#DejaVuSans-2d" x="254.492188"/>
       <use xlink:href="#DejaVuSans-30" x="290.576172"/>
       <use xlink:href="#DejaVuSans-33" x="354.199219"/>
      </g>
     </g>
    </g>
    <g id="xtick_12">
     <g id="line2d_23">
      <path d="M 757.708518 320.4 
L 757.708518 43.2 
" clip-path="url(#p932fcfeda4)" style="fill: none; stroke-dasharray: 5.12,1.28,0.8,1.28; stroke-dashoffset: 0; stroke: #b0b0b0; stroke-width: 0.8"/>
     </g>
     <g id="line2d_24">
      <g>
       <use xlink:href="#m5dc9538240" x="757.708518" y="320.4" style="fill: #a9a9a9; stroke: #a9a9a9; stroke-width: 0.8"/>
      </g>
     </g>
     <g id="text_12">
      <!-- 2023-05 -->
      <g style="fill: #a9a9a9" transform="translate(736.817112 334.998438) scale(0.1 -0.1)">
       <use xlink:href="#DejaVuSans-32"/>
       <use xlink:href="#DejaVuSans-30" x="63.623047"/>
       <use xlink:href="#DejaVuSans-32" x="127.246094"/>
       <use xlink:href="#DejaVuSans-33" x="190.869141"/>
       <use xlink:href="#DejaVuSans-2d" x="254.492188"/>
       <use xlink:href="#DejaVuSans-30" x="290.576172"/>
       <use xlink:href="#DejaVuSans-35" x="354.199219"/>
      </g>
     </g>
    </g>
   </g>
   <g id="matplotlib.axis_2">
    <g id="ytick_1">
     <g id="line2d_25">
      <path d="M 108 307.860014 
L 777.6 307.860014 
" clip-path="url(#p932fcfeda4)" style="fill: none; stroke-dasharray: 5.12,1.28,0.8,1.28; stroke-dashoffset: 0; stroke: #b0b0b0; stroke-width: 0.8"/>
     </g>
     <g id="line2d_26">
      <defs>
       <path id="m39ab89faa1" d="M 0 0 
L -3.5 0 
" style="stroke: #a9a9a9; stroke-width: 0.8"/>
      </defs>
      <g>
       <use xlink:href="#m39ab89faa1" x="108" y="307.860014" style="fill: #a9a9a9; stroke: #a9a9a9; stroke-width: 0.8"/>
      </g>
     </g>
     <g id="text_13">
      <!-- 0 -->
      <g style="fill: #a9a9a9" transform="translate(94.6375 311.659233) scale(0.1 -0.1)">
       <use xlink:href="#DejaVuSans-30"/>
      </g>
     </g>
    </g>
    <g id="ytick_2">
     <g id="line2d_27">
      <path d="M 108 277.85287 
L 777.6 277.85287 
" clip-path="url(#p932fcfeda4)" style="fill: none; stroke-dasharray: 5.12,1.28,0.8,1.28; stroke-dashoffset: 0; stroke: #b0b0b0; stroke-width: 0.8"/>
     </g>
     <g id="line2d_28">
      <g>
       <use xlink:href="#m39ab89faa1" x="108" y="277.85287" style="fill: #a9a9a9; stroke: #a9a9a9; stroke-width: 0.8"/>
      </g>
     </g>
     <g id="text_14">
      <!-- 500 -->
      <g style="fill: #a9a9a9" transform="translate(81.9125 281.652088) scale(0.1 -0.1)">
       <use xlink:href="#DejaVuSans-35"/>
       <use xlink:href="#DejaVuSans-30" x="63.623047"/>
       <use xlink:href="#DejaVuSans-30" x="127.246094"/>
      </g>
     </g>
    </g>
    <g id="ytick_3">
     <g id="line2d_29">
      <path d="M 108 247.845725 
L 777.6 247.845725 
" clip-path="url(#p932fcfeda4)" style="fill: none; stroke-dasharray: 5.12,1.28,0.8,1.28; stroke-dashoffset: 0; stroke: #b0b0b0; stroke-width: 0.8"/>
     </g>
     <g id="line2d_30">
      <g>
       <use xlink:href="#m39ab89faa1" x="108" y="247.845725" style="fill: #a9a9a9; stroke: #a9a9a9; stroke-width: 0.8"/>
      </g>
     </g>
     <g id="text_15">
      <!-- 1000 -->
      <g style="fill: #a9a9a9" transform="translate(75.55 251.644944) scale(0.1 -0.1)">
       <use xlink:href="#DejaVuSans-31"/>
       <use xlink:href="#DejaVuSans-30" x="63.623047"/>
       <use xlink:href="#DejaVuSans-30" x="127.246094"/>
       <use xlink:href="#DejaVuSans-30" x="190.869141"/>
      </g>
     </g>
    </g>
    <g id="ytick_4">
     <g id="line2d_31">
      <path d="M 108 217.838581 
L 777.6 217.838581 
" clip-path="url(#p932fcfeda4)" style="fill: none; stroke-dasharray: 5.12,1.28,0.8,1.28; stroke-dashoffset: 0; stroke: #b0b0b0; stroke-width: 0.8"/>
     </g>
     <g id="line2d_32">
      <g>
       <use xlink:href="#m39ab89faa1" x="108" y="217.838581" style="fill: #a9a9a9; stroke: #a9a9a9; stroke-width: 0.8"/>
      </g>
     </g>
     <g id="text_16">
      <!-- 1500 -->
      <g style="fill: #a9a9a9" transform="translate(75.55 221.637799) scale(0.1 -0.1)">
       <use xlink:href="#DejaVuSans-31"/>
       <use xlink:href="#DejaVuSans-35" x="63.623047"/>
       <use xlink:href="#DejaVuSans-30" x="127.246094"/>
       <use xlink:href="#DejaVuSans-30" x="190.869141"/>
      </g>
     </g>
    </g>
    <g id="ytick_5">
     <g id="line2d_33">
      <path d="M 108 187.831436 
L 777.6 187.831436 
" clip-path="url(#p932fcfeda4)" style="fill: none; stroke-dasharray: 5.12,1.28,0.8,1.28; stroke-dashoffset: 0; stroke: #b0b0b0; stroke-width: 0.8"/>
     </g>
     <g id="line2d_34">
      <g>
       <use xlink:href="#m39ab89faa1" x="108" y="187.831436" style="fill: #a9a9a9; stroke: #a9a9a9; stroke-width: 0.8"/>
      </g>
     </g>
     <g id="text_17">
      <!-- 2000 -->
      <g style="fill: #a9a9a9" transform="translate(75.55 191.630655) scale(0.1 -0.1)">
       <use xlink:href="#DejaVuSans-32"/>
       <use xlink:href="#DejaVuSans-30" x="63.623047"/>
       <use xlink:href="#DejaVuSans-30" x="127.246094"/>
       <use xlink:href="#DejaVuSans-30" x="190.869141"/>
      </g>
     </g>
    </g>
    <g id="ytick_6">
     <g id="line2d_35">
      <path d="M 108 157.824291 
L 777.6 157.824291 
" clip-path="url(#p932fcfeda4)" style="fill: none; stroke-dasharray: 5.12,1.28,0.8,1.28; stroke-dashoffset: 0; stroke: #b0b0b0; stroke-width: 0.8"/>
     </g>
     <g id="line2d_36">
      <g>
       <use xlink:href="#m39ab89faa1" x="108" y="157.824291" style="fill: #a9a9a9; stroke: #a9a9a9; stroke-width: 0.8"/>
      </g>
     </g>
     <g id="text_18">
      <!-- 2500 -->
      <g style="fill: #a9a9a9" transform="translate(75.55 161.62351) scale(0.1 -0.1)">
       <use xlink:href="#DejaVuSans-32"/>
       <use xlink:href="#DejaVuSans-35" x="63.623047"/>
       <use xlink:href="#DejaVuSans-30" x="127.246094"/>
       <use xlink:href="#DejaVuSans-30" x="190.869141"/>
      </g>
     </g>
    </g>
    <g id="ytick_7">
     <g id="line2d_37">
      <path d="M 108 127.817147 
L 777.6 127.817147 
" clip-path="url(#p932fcfeda4)" style="fill: none; stroke-dasharray: 5.12,1.28,0.8,1.28; stroke-dashoffset: 0; stroke: #b0b0b0; stroke-width: 0.8"/>
     </g>
     <g id="line2d_38">
      <g>
       <use xlink:href="#m39ab89faa1" x="108" y="127.817147" style="fill: #a9a9a9; stroke: #a9a9a9; stroke-width: 0.8"/>
      </g>
     </g>
     <g id="text_19">
      <!-- 3000 -->
      <g style="fill: #a9a9a9" transform="translate(75.55 131.616366) scale(0.1 -0.1)">
       <use xlink:href="#DejaVuSans-33"/>
       <use xlink:href="#DejaVuSans-30" x="63.623047"/>
       <use xlink:href="#DejaVuSans-30" x="127.246094"/>
       <use xlink:href="#DejaVuSans-30" x="190.869141"/>
      </g>
     </g>
    </g>
    <g id="ytick_8">
     <g id="line2d_39">
      <path d="M 108 97.810002 
L 777.6 97.810002 
" clip-path="url(#p932fcfeda4)" style="fill: none; stroke-dasharray: 5.12,1.28,0.8,1.28; stroke-dashoffset: 0; stroke: #b0b0b0; stroke-width: 0.8"/>
     </g>
     <g id="line2d_40">
      <g>
       <use xlink:href="#m39ab89faa1" x="108" y="97.810002" style="fill: #a9a9a9; stroke: #a9a9a9; stroke-width: 0.8"/>
      </g>
     </g>
     <g id="text_20">
      <!-- 3500 -->
      <g style="fill: #a9a9a9" transform="translate(75.55 101.609221) scale(0.1 -0.1)">
       <use xlink:href="#DejaVuSans-33"/>
       <use xlink:href="#DejaVuSans-35" x="63.623047"/>
       <use xlink:href="#DejaVuSans-30" x="127.246094"/>
       <use xlink:href="#DejaVuSans-30" x="190.869141"/>
      </g>
     </g>
    </g>
    <g id="ytick_9">
     <g id="line2d_41">
      <path d="M 108 67.802858 
L 777.6 67.802858 
" clip-path="url(#p932fcfeda4)" style="fill: none; stroke-dasharray: 5.12,1.28,0.8,1.28; stroke-dashoffset: 0; stroke: #b0b0b0; stroke-width: 0.8"/>
     </g>
     <g id="line2d_42">
      <g>
       <use xlink:href="#m39ab89faa1" x="108" y="67.802858" style="fill: #a9a9a9; stroke: #a9a9a9; stroke-width: 0.8"/>
      </g>
     </g>
     <g id="text_21">
      <!-- 4000 -->
      <g style="fill: #a9a9a9" transform="translate(75.55 71.602077) scale(0.1 -0.1)">
       <defs>
        <path id="DejaVuSans-34" d="M 2419 4116 
L 825 1625 
L 2419 1625 
L 2419 4116 
z
M 2253 4666 
L 3047 4666 
L 3047 1625 
L 3713 1625 
L 3713 1100 
L 3047 1100 
L 3047 0 
L 2419 0 
L 2419 1100 
L 313 1100 
L 313 1709 
L 2253 4666 
z
" transform="scale(0.015625)"/>
       </defs>
       <use xlink:href="#DejaVuSans-34"/>
       <use xlink:href="#DejaVuSans-30" x="63.623047"/>
       <use xlink:href="#DejaVuSans-30" x="127.246094"/>
       <use xlink:href="#DejaVuSans-30" x="190.869141"/>
      </g>
     </g>
    </g>
   </g>
   <g id="line2d_43">
    <path d="M 138.436364 307.619957 
L 142.270866 307.319886 
L 143.229492 307.199857 
L 144.188117 307.199857 
L 145.146743 306.839771 
L 147.063994 306.719743 
L 153.774374 305.459443 
L 155.691625 305.339414 
L 156.650251 305.159371 
L 159.526127 304.979328 
L 160.484753 304.499214 
L 161.443379 304.259157 
L 162.402004 303.1789 
L 163.36063 302.578757 
L 164.319256 300.598285 
L 165.277881 300.478257 
L 166.236507 299.8181 
L 167.195132 299.458014 
L 168.153758 298.977899 
L 171.029635 296.757371 
L 172.946886 295.917171 
L 173.905512 295.557085 
L 174.864137 294.896928 
L 176.781389 294.116742 
L 177.740014 293.636628 
L 178.69864 293.336556 
L 179.657266 291.896213 
L 180.615891 291.176042 
L 182.533142 290.215813 
L 188.284896 289.435628 
L 189.243522 289.255585 
L 191.160773 289.135556 
L 192.119399 288.955513 
L 193.078024 288.475399 
L 194.995276 288.415385 
L 195.953901 288.415385 
L 199.788404 287.995285 
L 200.747029 287.695213 
L 205.540157 286.794999 
L 207.457409 286.614956 
L 208.416034 286.374899 
L 211.291911 286.074827 
L 212.250537 285.594713 
L 213.209162 285.474684 
L 215.126414 284.814527 
L 217.043665 284.634484 
L 218.002291 284.334413 
L 221.836793 283.794284 
L 222.795419 283.494213 
L 224.71267 283.194141 
L 225.671296 283.194141 
L 230.464424 282.593999 
L 232.381675 282.05387 
L 233.340301 281.813813 
L 235.257552 281.63377 
L 236.216178 281.573756 
L 239.092054 281.033627 
L 240.05068 280.733556 
L 241.009306 279.53327 
L 241.967931 279.173184 
L 242.926557 278.69307 
L 243.885183 278.573041 
L 244.843808 278.332984 
L 245.802434 278.212955 
L 247.719685 277.43277 
L 248.678311 277.372755 
L 253.471439 276.17247 
L 254.430064 276.17247 
L 256.347316 275.932412 
L 258.264567 275.392284 
L 261.140444 274.732127 
L 262.099069 274.672112 
L 264.016321 273.891927 
L 264.974946 273.771898 
L 265.933572 273.351798 
L 267.850823 273.171755 
L 268.809449 273.111741 
L 271.685326 272.631627 
L 273.602577 272.331555 
L 278.395705 271.431341 
L 280.312956 270.771184 
L 281.271582 270.231055 
L 282.230208 269.990998 
L 283.188833 269.870969 
L 285.106084 269.270826 
L 287.023336 268.250583 
L 287.981961 267.650441 
L 288.940587 267.530412 
L 289.899213 267.230341 
L 290.857838 267.110312 
L 291.816464 266.870255 
L 292.775089 266.750226 
L 293.733715 266.330126 
L 295.650966 266.030055 
L 297.568218 265.189855 
L 298.526843 264.949798 
L 299.485469 264.829769 
L 300.444094 264.529698 
L 304.278597 263.809526 
L 306.195848 263.02934 
L 307.154474 262.849297 
L 308.113099 262.489212 
L 309.071725 262.369183 
L 310.030351 261.949083 
L 310.988976 261.709026 
L 312.906228 261.588997 
L 314.823479 260.988854 
L 315.782105 260.868826 
L 316.74073 260.868826 
L 317.699356 260.448726 
L 320.575233 259.848583 
L 322.492484 259.788569 
L 323.45111 259.66854 
L 324.409735 259.66854 
L 326.326986 259.368469 
L 329.202863 258.048154 
L 330.161489 257.628054 
L 331.120115 257.387997 
L 332.07874 256.787854 
L 333.037366 256.487783 
L 334.954617 255.647583 
L 335.913243 255.46754 
L 337.830494 254.807383 
L 339.747745 253.78714 
L 340.706371 252.826911 
L 341.664996 251.386568 
L 342.623622 250.246297 
L 343.582248 250.00624 
L 344.540873 250.00624 
L 346.458125 248.685925 
L 347.41675 248.445868 
L 348.375376 247.965754 
L 349.334001 247.785711 
L 350.292627 246.945511 
L 351.251253 246.705454 
L 354.12713 245.445154 
L 355.085755 244.364896 
L 356.044381 242.984568 
L 357.003006 242.444439 
L 357.961632 241.004096 
L 358.920258 240.103882 
L 359.878883 239.683782 
L 360.837509 239.443725 
L 362.75476 238.363467 
L 363.713386 237.943367 
L 367.547888 235.302739 
L 368.506514 234.042439 
L 369.46514 232.001953 
L 370.423765 230.681638 
L 371.382391 230.021481 
L 372.341016 229.661396 
L 376.175519 226.600667 
L 378.09277 225.160324 
L 379.051396 224.380138 
L 380.010021 223.119838 
L 380.968647 222.279638 
L 383.844524 220.419195 
L 385.761775 219.218909 
L 386.720401 218.438724 
L 387.679026 218.198666 
L 390.554903 216.818338 
L 392.472155 215.798095 
L 393.43078 215.438009 
L 395.348031 213.817623 
L 396.306657 212.737366 
L 398.223908 211.53708 
L 399.182534 211.297023 
L 400.14116 210.816909 
L 401.099785 210.156752 
L 403.017037 209.196523 
L 403.975662 209.076494 
L 404.934288 208.476352 
L 406.851539 207.576137 
L 407.810165 206.675923 
L 408.76879 206.07578 
L 409.727416 205.775709 
L 410.686042 205.175566 
L 413.561918 203.915266 
L 414.520544 203.315123 
L 415.47917 202.534937 
L 417.396421 201.87478 
L 418.355047 201.514694 
L 419.313672 201.334651 
L 420.272298 200.734508 
L 421.230923 200.554465 
L 423.148175 199.894308 
L 425.065426 199.234151 
L 426.982677 198.51398 
L 427.941303 198.273922 
L 428.899928 197.913837 
L 430.81718 197.613765 
L 432.734431 196.113408 
L 433.693057 195.753322 
L 438.486185 193.472779 
L 439.44481 193.232722 
L 440.403436 192.692593 
L 441.362062 192.452536 
L 444.237938 190.772136 
L 447.113815 190.171993 
L 448.072441 189.871922 
L 449.031067 189.691879 
L 451.906943 188.131508 
L 452.865569 188.011479 
L 453.824195 187.651393 
L 454.78282 187.531365 
L 455.741446 187.291307 
L 458.617323 185.37085 
L 459.575948 185.190807 
L 460.534574 184.890736 
L 461.4932 184.770707 
L 462.451825 184.470636 
L 463.410451 183.810479 
L 464.369077 183.510407 
L 465.327702 183.090307 
L 469.162205 182.070064 
L 470.12083 182.01005 
L 471.079456 181.709979 
L 472.996707 180.929793 
L 473.955333 180.629721 
L 474.913958 180.449678 
L 477.789835 179.309407 
L 479.707087 178.769278 
L 480.665712 178.709264 
L 482.582963 178.289164 
L 483.541589 177.869064 
L 484.500215 177.689021 
L 486.417466 176.908835 
L 490.251969 175.108407 
L 491.210594 174.508264 
L 492.16922 174.268207 
L 495.045097 172.887878 
L 496.962348 172.467778 
L 498.879599 171.567564 
L 499.838225 171.267492 
L 501.755476 170.967421 
L 502.714102 170.307264 
L 503.672727 169.887164 
L 504.631353 169.707121 
L 506.548604 168.986949 
L 507.50723 168.806906 
L 508.465855 168.326792 
L 512.300358 167.786663 
L 514.217609 166.946463 
L 515.176235 166.226292 
L 516.13486 164.66592 
L 517.093486 164.425863 
L 519.010737 164.125792 
L 522.84524 162.325363 
L 523.803865 162.14532 
L 529.555619 159.564706 
L 530.514245 158.964563 
L 531.47287 158.604477 
L 534.348747 158.064349 
L 536.265999 157.164134 
L 537.224624 156.804049 
L 538.18325 156.68402 
L 541.059127 155.603763 
L 542.976378 154.523506 
L 543.935004 153.923363 
L 544.893629 153.503263 
L 545.852255 153.383234 
L 546.81088 153.083163 
L 547.769506 153.023148 
L 551.604009 151.822863 
L 552.562634 151.762848 
L 553.52126 151.102691 
L 554.479885 150.862634 
L 556.397137 150.142462 
L 558.314388 149.602334 
L 559.273014 149.062205 
L 560.231639 148.762134 
L 561.190265 148.161991 
L 562.14889 147.801905 
L 563.107516 147.261777 
L 565.024767 146.601619 
L 565.983393 146.301548 
L 568.85927 145.101262 
L 569.817895 144.441105 
L 570.776521 143.420862 
L 571.735147 142.820719 
L 572.693772 142.640676 
L 574.611024 141.260348 
L 575.569649 141.080305 
L 576.528275 139.75999 
L 577.486901 139.399905 
L 578.445526 138.739748 
L 579.404152 138.619719 
L 580.362777 138.019576 
L 581.321403 137.599476 
L 582.280029 137.419433 
L 583.238654 137.059347 
L 584.19728 136.339176 
L 585.155906 136.039105 
L 588.031782 134.238676 
L 591.866285 132.498261 
L 592.824911 132.378233 
L 593.783536 132.018147 
L 595.700787 130.997904 
L 596.659413 129.557561 
L 597.618039 128.657347 
L 598.576664 128.177233 
L 599.53529 127.99719 
L 601.452541 126.916933 
L 602.411167 126.73689 
L 604.328418 125.89669 
L 607.204295 124.756418 
L 609.121546 123.496118 
L 611.038797 121.575661 
L 611.997423 120.855489 
L 613.914674 119.775232 
L 614.8733 118.875018 
L 617.749177 116.714503 
L 618.707802 116.234389 
L 619.666428 115.274161 
L 620.625054 114.614003 
L 622.542305 113.953846 
L 623.500931 113.113646 
L 625.418182 112.213432 
L 626.376807 111.973375 
L 627.335433 111.313217 
L 628.294059 111.07316 
L 631.169936 109.692832 
L 632.128561 109.032674 
L 633.087187 108.55256 
L 635.004438 108.012432 
L 635.963064 107.472303 
L 638.838941 106.632103 
L 640.756192 106.091974 
L 642.673443 105.19176 
L 643.632069 104.411574 
L 645.54932 103.691403 
L 648.425197 102.67116 
L 649.383822 102.011003 
L 652.259699 100.750703 
L 653.218325 100.090545 
L 654.176951 99.610431 
L 656.094202 96.129602 
L 658.011453 93.969088 
L 658.970079 93.308931 
L 662.804581 91.748559 
L 663.763207 91.628531 
L 664.721832 91.148416 
L 665.680458 90.908359 
L 666.639084 90.548273 
L 667.597709 90.308216 
L 670.473586 89.227959 
L 672.390838 87.907645 
L 674.308089 87.187473 
L 680.059843 84.186759 
L 681.018468 83.286544 
L 682.935719 82.326316 
L 683.894345 81.846201 
L 684.852971 81.54613 
L 685.811596 80.885973 
L 686.770222 80.525887 
L 689.646099 78.965516 
L 690.604724 78.425387 
L 691.56335 78.18533 
L 692.521976 77.525173 
L 693.480601 77.165087 
L 694.439227 76.985044 
L 696.356478 76.264873 
L 698.273729 75.724744 
L 699.232355 75.24463 
L 700.190981 74.584472 
L 701.149606 74.40443 
L 704.025483 73.444201 
L 704.984109 72.72403 
L 707.859986 71.643772 
L 708.818611 71.403715 
L 710.735863 70.203429 
L 711.694488 69.843344 
L 712.653114 69.363229 
L 714.570365 67.982901 
L 716.487616 67.382758 
L 717.446242 66.602572 
L 718.404868 66.422529 
L 719.363493 65.642343 
L 721.280744 64.622101 
L 723.197996 63.841915 
L 724.156621 62.9417 
L 725.115247 62.461586 
L 727.032498 61.921457 
L 727.991124 61.381329 
L 728.949749 61.2613 
L 731.825626 59.880972 
L 734.701503 59.040772 
L 735.660129 58.800714 
L 736.618754 58.7407 
L 737.57738 58.560657 
L 738.536006 58.200572 
L 739.494631 58.020529 
L 741.411883 57.300357 
L 742.370508 57.240343 
L 745.246385 56.340129 
L 746.205011 55.8 
L 747.163636 55.8 
L 747.163636 55.8 
" clip-path="url(#p932fcfeda4)" style="fill: none; stroke: #1f77b4; stroke-width: 1.5; stroke-linecap: square"/>
   </g>
   <g id="line2d_44">
    <path d="M 139.394989 307.8 
L 141.312241 307.8 
L 143.229492 307.559943 
L 148.981246 307.499929 
L 151.857122 307.3799 
L 154.732999 307.319886 
L 156.650251 307.259871 
L 159.526127 307.259871 
L 160.484753 307.019814 
L 163.36063 306.9598 
L 168.153758 306.419671 
L 175.822763 305.999571 
L 176.781389 305.999571 
L 177.740014 305.819528 
L 180.615891 305.759514 
L 182.533142 305.519457 
L 186.367645 305.519457 
L 187.326271 305.399428 
L 192.119399 305.339414 
L 194.995276 305.219386 
L 203.622906 305.159371 
L 205.540157 305.099357 
L 209.37466 305.039343 
L 212.250537 304.919314 
L 216.085039 304.919314 
L 217.043665 304.799286 
L 219.919542 304.739271 
L 223.754044 304.559228 
L 230.464424 304.499214 
L 232.381675 304.4392 
L 236.216178 304.379186 
L 239.092054 304.0191 
L 243.885183 303.959085 
L 248.678311 303.719028 
L 253.471439 303.659014 
L 256.347316 303.538985 
L 258.264567 303.478971 
L 260.181818 303.298928 
L 264.016321 303.118885 
L 266.892198 303.058871 
L 268.809449 302.998857 
L 270.7267 302.998857 
L 271.685326 302.878828 
L 274.561203 302.878828 
L 276.478454 302.698785 
L 279.354331 302.578757 
L 284.147459 302.518743 
L 287.023336 302.218671 
L 288.940587 302.098643 
L 289.899213 301.9186 
L 293.733715 301.858585 
L 304.278597 301.258442 
L 306.195848 301.198428 
L 309.071725 301.0784 
L 310.030351 301.0784 
L 311.947602 300.898357 
L 313.864853 300.838342 
L 314.823479 300.838342 
L 315.782105 300.718314 
L 317.699356 300.6583 
L 322.492484 300.418242 
L 324.409735 300.358228 
L 327.285612 300.2382 
L 330.161489 300.178185 
L 332.07874 300.118171 
L 336.871868 300.118171 
L 340.706371 299.698071 
L 341.664996 299.698071 
L 343.582248 299.518028 
L 345.499499 299.458014 
L 350.292627 299.157942 
L 351.251253 298.917885 
L 353.168504 298.797857 
L 354.12713 298.557799 
L 357.003006 298.317742 
L 358.920258 297.897642 
L 360.837509 297.837628 
L 362.75476 297.837628 
L 363.713386 297.717599 
L 364.672011 297.717599 
L 367.547888 297.297499 
L 368.506514 297.057442 
L 385.761775 296.037199 
L 386.720401 296.037199 
L 390.554903 295.557085 
L 391.513529 295.557085 
L 393.43078 295.257014 
L 395.348031 295.076971 
L 397.265283 295.016956 
L 399.182534 295.016956 
L 400.14116 294.776899 
L 403.017037 294.656871 
L 404.934288 294.656871 
L 406.851539 294.476828 
L 407.810165 294.476828 
L 410.686042 294.056728 
L 411.644667 293.816671 
L 413.561918 293.756656 
L 415.47917 293.696642 
L 416.437795 293.576613 
L 421.230923 293.516599 
L 434.651682 292.736413 
L 436.568933 292.736413 
L 438.486185 292.556371 
L 440.403436 292.556371 
L 443.279313 292.256299 
L 447.113815 292.076256 
L 449.031067 292.016242 
L 450.948318 291.956228 
L 453.824195 291.896213 
L 460.534574 291.536128 
L 465.327702 291.476113 
L 467.244953 291.416099 
L 468.203579 291.416099 
L 469.162205 291.236056 
L 471.079456 291.176042 
L 476.83121 291.116028 
L 478.748461 291.056013 
L 483.541589 290.995999 
L 484.500215 290.815956 
L 490.251969 290.755942 
L 492.16922 290.695928 
L 494.086471 290.635913 
L 496.003722 290.575899 
L 497.920974 290.515885 
L 504.631353 290.155799 
L 510.383107 290.095785 
L 513.258984 289.855728 
L 515.176235 289.675685 
L 517.093486 289.61567 
L 519.010737 289.61567 
L 519.969363 289.495642 
L 522.84524 289.435628 
L 523.803865 289.19557 
L 527.638368 289.015528 
L 536.265999 288.955513 
L 541.059127 288.595427 
L 543.935004 288.295356 
L 548.728132 288.235342 
L 551.604009 287.93527 
L 557.355762 287.635199 
L 559.273014 287.575185 
L 563.107516 287.395142 
L 566.942019 287.335127 
L 569.817895 287.215099 
L 573.652398 287.155085 
L 576.528275 286.855013 
L 578.445526 286.794999 
L 582.280029 286.734985 
L 585.155906 286.494927 
L 586.114531 286.374899 
L 587.073157 286.374899 
L 588.031782 286.194856 
L 589.949034 286.134842 
L 593.783536 286.074827 
L 595.700787 285.774756 
L 604.328418 285.714742 
L 606.245669 285.534699 
L 607.204295 285.41467 
L 609.121546 285.354656 
L 611.038797 285.294642 
L 611.997423 285.054584 
L 613.914674 284.99457 
L 614.8733 284.814527 
L 616.790551 284.814527 
L 619.666428 284.514456 
L 637.880315 283.434199 
L 639.797566 283.374184 
L 641.714817 283.31417 
L 653.218325 283.254156 
L 656.094202 283.134127 
L 657.052827 283.134127 
L 658.011453 282.89407 
L 659.928704 282.834056 
L 664.721832 282.774041 
L 667.597709 282.654013 
L 672.390838 282.593999 
L 675.266714 282.47397 
L 677.183966 282.47397 
L 679.101217 282.233913 
L 681.018468 282.173899 
L 687.728848 281.813813 
L 689.646099 281.813813 
L 691.56335 281.63377 
L 698.273729 281.573756 
L 700.190981 281.393713 
L 703.066858 281.273684 
L 707.859986 281.21367 
L 709.777237 281.153656 
L 713.611739 281.093641 
L 715.528991 281.033627 
L 717.446242 280.973613 
L 719.363493 280.913598 
L 725.115247 280.853584 
L 729.908375 280.613527 
L 735.660129 280.553513 
L 740.453257 280.313456 
L 745.246385 280.313456 
L 746.205011 280.133413 
L 747.163636 280.133413 
L 747.163636 280.133413 
" clip-path="url(#p932fcfeda4)" style="fill: none; stroke: #ff7f0e; stroke-width: 1.5; stroke-linecap: square"/>
   </g>
   <g id="patch_3">
    <path d="M 108 320.4 
L 108 43.2 
" style="fill: none; stroke: #a9a9a9; stroke-width: 0.8; stroke-linejoin: miter; stroke-linecap: square"/>
   </g>
   <g id="patch_4">
    <path d="M 777.6 320.4 
L 777.6 43.2 
" style="fill: none"/>
   </g>
   <g id="patch_5">
    <path d="M 108 320.4 
L 777.6 320.4 
" style="fill: none; stroke: #a9a9a9; stroke-width: 0.8; stroke-linejoin: miter; stroke-linecap: square"/>
   </g>
   <g id="patch_6">
    <path d="M 108 43.2 
L 777.6 43.2 
" style="fill: none"/>
   </g>
   <g id="text_22">
    <!-- get_subscribe history -->
    <g style="fill: #a9a9a9" transform="translate(378.6075 37.2) scale(0.12 -0.12)">
     <defs>
      <path id="DejaVuSans-67" d="M 2906 1791 
Q 2906 2416 2648 2759 
Q 2391 3103 1925 3103 
Q 1463 3103 1205 2759 
Q 947 2416 947 1791 
Q 947 1169 1205 825 
Q 1463 481 1925 481 
Q 2391 481 2648 825 
Q 2906 1169 2906 1791 
z
M 3481 434 
Q 3481 -459 3084 -895 
Q 2688 -1331 1869 -1331 
Q 1566 -1331 1297 -1286 
Q 1028 -1241 775 -1147 
L 775 -588 
Q 1028 -725 1275 -790 
Q 1522 -856 1778 -856 
Q 2344 -856 2625 -561 
Q 2906 -266 2906 331 
L 2906 616 
Q 2728 306 2450 153 
Q 2172 0 1784 0 
Q 1141 0 747 490 
Q 353 981 353 1791 
Q 353 2603 747 3093 
Q 1141 3584 1784 3584 
Q 2172 3584 2450 3431 
Q 2728 3278 2906 2969 
L 2906 3500 
L 3481 3500 
L 3481 434 
z
" transform="scale(0.015625)"/>
      <path id="DejaVuSans-65" d="M 3597 1894 
L 3597 1613 
L 953 1613 
Q 991 1019 1311 708 
Q 1631 397 2203 397 
Q 2534 397 2845 478 
Q 3156 559 3463 722 
L 3463 178 
Q 3153 47 2828 -22 
Q 2503 -91 2169 -91 
Q 1331 -91 842 396 
Q 353 884 353 1716 
Q 353 2575 817 3079 
Q 1281 3584 2069 3584 
Q 2775 3584 3186 3129 
Q 3597 2675 3597 1894 
z
M 3022 2063 
Q 3016 2534 2758 2815 
Q 2500 3097 2075 3097 
Q 1594 3097 1305 2825 
Q 1016 2553 972 2059 
L 3022 2063 
z
" transform="scale(0.015625)"/>
      <path id="DejaVuSans-74" d="M 1172 4494 
L 1172 3500 
L 2356 3500 
L 2356 3053 
L 1172 3053 
L 1172 1153 
Q 1172 725 1289 603 
Q 1406 481 1766 481 
L 2356 481 
L 2356 0 
L 1766 0 
Q 1100 0 847 248 
Q 594 497 594 1153 
L 594 3053 
L 172 3053 
L 172 3500 
L 594 3500 
L 594 4494 
L 1172 4494 
z
" transform="scale(0.015625)"/>
      <path id="DejaVuSans-5f" d="M 3263 -1063 
L 3263 -1509 
L -63 -1509 
L -63 -1063 
L 3263 -1063 
z
" transform="scale(0.015625)"/>
      <path id="DejaVuSans-73" d="M 2834 3397 
L 2834 2853 
Q 2591 2978 2328 3040 
Q 2066 3103 1784 3103 
Q 1356 3103 1142 2972 
Q 928 2841 928 2578 
Q 928 2378 1081 2264 
Q 1234 2150 1697 2047 
L 1894 2003 
Q 2506 1872 2764 1633 
Q 3022 1394 3022 966 
Q 3022 478 2636 193 
Q 2250 -91 1575 -91 
Q 1294 -91 989 -36 
Q 684 19 347 128 
L 347 722 
Q 666 556 975 473 
Q 1284 391 1588 391 
Q 1994 391 2212 530 
Q 2431 669 2431 922 
Q 2431 1156 2273 1281 
Q 2116 1406 1581 1522 
L 1381 1569 
Q 847 1681 609 1914 
Q 372 2147 372 2553 
Q 372 3047 722 3315 
Q 1072 3584 1716 3584 
Q 2034 3584 2315 3537 
Q 2597 3491 2834 3397 
z
" transform="scale(0.015625)"/>
      <path id="DejaVuSans-75" d="M 544 1381 
L 544 3500 
L 1119 3500 
L 1119 1403 
Q 1119 906 1312 657 
Q 1506 409 1894 409 
Q 2359 409 2629 706 
Q 2900 1003 2900 1516 
L 2900 3500 
L 3475 3500 
L 3475 0 
L 2900 0 
L 2900 538 
Q 2691 219 2414 64 
Q 2138 -91 1772 -91 
Q 1169 -91 856 284 
Q 544 659 544 1381 
z
M 1991 3584 
L 1991 3584 
z
" transform="scale(0.015625)"/>
      <path id="DejaVuSans-62" d="M 3116 1747 
Q 3116 2381 2855 2742 
Q 2594 3103 2138 3103 
Q 1681 3103 1420 2742 
Q 1159 2381 1159 1747 
Q 1159 1113 1420 752 
Q 1681 391 2138 391 
Q 2594 391 2855 752 
Q 3116 1113 3116 1747 
z
M 1159 2969 
Q 1341 3281 1617 3432 
Q 1894 3584 2278 3584 
Q 2916 3584 3314 3078 
Q 3713 2572 3713 1747 
Q 3713 922 3314 415 
Q 2916 -91 2278 -91 
Q 1894 -91 1617 61 
Q 1341 213 1159 525 
L 1159 0 
L 581 0 
L 581 4863 
L 1159 4863 
L 1159 2969 
z
" transform="scale(0.015625)"/>
      <path id="DejaVuSans-63" d="M 3122 3366 
L 3122 2828 
Q 2878 2963 2633 3030 
Q 2388 3097 2138 3097 
Q 1578 3097 1268 2742 
Q 959 2388 959 1747 
Q 959 1106 1268 751 
Q 1578 397 2138 397 
Q 2388 397 2633 464 
Q 2878 531 3122 666 
L 3122 134 
Q 2881 22 2623 -34 
Q 2366 -91 2075 -91 
Q 1284 -91 818 406 
Q 353 903 353 1747 
Q 353 2603 823 3093 
Q 1294 3584 2113 3584 
Q 2378 3584 2631 3529 
Q 2884 3475 3122 3366 
z
" transform="scale(0.015625)"/>
      <path id="DejaVuSans-72" d="M 2631 2963 
Q 2534 3019 2420 3045 
Q 2306 3072 2169 3072 
Q 1681 3072 1420 2755 
Q 1159 2438 1159 1844 
L 1159 0 
L 581 0 
L 581 3500 
L 1159 3500 
L 1159 2956 
Q 1341 3275 1631 3429 
Q 1922 3584 2338 3584 
Q 2397 3584 2469 3576 
Q 2541 3569 2628 3553 
L 2631 2963 
z
" transform="scale(0.015625)"/>
      <path id="DejaVuSans-69" d="M 603 3500 
L 1178 3500 
L 1178 0 
L 603 0 
L 603 3500 
z
M 603 4863 
L 1178 4863 
L 1178 4134 
L 603 4134 
L 603 4863 
z
" transform="scale(0.015625)"/>
      <path id="DejaVuSans-20" transform="scale(0.015625)"/>
      <path id="DejaVuSans-68" d="M 3513 2113 
L 3513 0 
L 2938 0 
L 2938 2094 
Q 2938 2591 2744 2837 
Q 2550 3084 2163 3084 
Q 1697 3084 1428 2787 
Q 1159 2491 1159 1978 
L 1159 0 
L 581 0 
L 581 4863 
L 1159 4863 
L 1159 2956 
Q 1366 3272 1645 3428 
Q 1925 3584 2291 3584 
Q 2894 3584 3203 3211 
Q 3513 2838 3513 2113 
z
" transform="scale(0.015625)"/>
      <path id="DejaVuSans-6f" d="M 1959 3097 
Q 1497 3097 1228 2736 
Q 959 2375 959 1747 
Q 959 1119 1226 758 
Q 1494 397 1959 397 
Q 2419 397 2687 759 
Q 2956 1122 2956 1747 
Q 2956 2369 2687 2733 
Q 2419 3097 1959 3097 
z
M 1959 3584 
Q 2709 3584 3137 3096 
Q 3566 2609 3566 1747 
Q 3566 888 3137 398 
Q 2709 -91 1959 -91 
Q 1206 -91 779 398 
Q 353 888 353 1747 
Q 353 2609 779 3096 
Q 1206 3584 1959 3584 
z
" transform="scale(0.015625)"/>
      <path id="DejaVuSans-79" d="M 2059 -325 
Q 1816 -950 1584 -1140 
Q 1353 -1331 966 -1331 
L 506 -1331 
L 506 -850 
L 844 -850 
Q 1081 -850 1212 -737 
Q 1344 -625 1503 -206 
L 1606 56 
L 191 3500 
L 800 3500 
L 1894 763 
L 2988 3500 
L 3597 3500 
L 2059 -325 
z
" transform="scale(0.015625)"/>
     </defs>
     <use xlink:href="#DejaVuSans-67"/>
     <use xlink:href="#DejaVuSans-65" x="63.476562"/>
     <use xlink:href="#DejaVuSans-74" x="125"/>
     <use xlink:href="#DejaVuSans-5f" x="164.208984"/>
     <use xlink:href="#DejaVuSans-73" x="214.208984"/>
     <use xlink:href="#DejaVuSans-75" x="266.308594"/>
     <use xlink:href="#DejaVuSans-62" x="329.6875"/>
     <use xlink:href="#DejaVuSans-73" x="393.164062"/>
     <use xlink:href="#DejaVuSans-63" x="445.263672"/>
     <use xlink:href="#DejaVuSans-72" x="500.244141"/>
     <use xlink:href="#DejaVuSans-69" x="541.357422"/>
     <use xlink:href="#DejaVuSans-62" x="569.140625"/>
     <use xlink:href="#DejaVuSans-65" x="632.617188"/>
     <use xlink:href="#DejaVuSans-20" x="694.140625"/>
     <use xlink:href="#DejaVuSans-68" x="725.927734"/>
     <use xlink:href="#DejaVuSans-69" x="789.306641"/>
     <use xlink:href="#DejaVuSans-73" x="817.089844"/>
     <use xlink:href="#DejaVuSans-74" x="869.189453"/>
     <use xlink:href="#DejaVuSans-6f" x="908.398438"/>
     <use xlink:href="#DejaVuSans-72" x="969.580078"/>
     <use xlink:href="#DejaVuSans-79" x="1010.693359"/>
    </g>
   </g>
   <g id="legend_1">
    <g id="line2d_45">
     <path d="M 815.08 328.498438 
L 825.08 328.498438 
L 835.08 328.498438 
" style="fill: none; stroke: #1f77b4; stroke-width: 1.5; stroke-linecap: square"/>
    </g>
    <g id="text_23">
     <!-- star -->
     <g style="fill: #a9a9a9" transform="translate(843.08 331.998438) scale(0.1 -0.1)">
      <defs>
       <path id="DejaVuSans-61" d="M 2194 1759 
Q 1497 1759 1228 1600 
Q 959 1441 959 1056 
Q 959 750 1161 570 
Q 1363 391 1709 391 
Q 2188 391 2477 730 
Q 2766 1069 2766 1631 
L 2766 1759 
L 2194 1759 
z
M 3341 1997 
L 3341 0 
L 2766 0 
L 2766 531 
Q 2569 213 2275 61 
Q 1981 -91 1556 -91 
Q 1019 -91 701 211 
Q 384 513 384 1019 
Q 384 1609 779 1909 
Q 1175 2209 1959 2209 
L 2766 2209 
L 2766 2266 
Q 2766 2663 2505 2880 
Q 2244 3097 1772 3097 
Q 1472 3097 1187 3025 
Q 903 2953 641 2809 
L 641 3341 
Q 956 3463 1253 3523 
Q 1550 3584 1831 3584 
Q 2591 3584 2966 3190 
Q 3341 2797 3341 1997 
z
" transform="scale(0.015625)"/>
      </defs>
      <use xlink:href="#DejaVuSans-73"/>
      <use xlink:href="#DejaVuSans-74" x="52.099609"/>
      <use xlink:href="#DejaVuSans-61" x="91.308594"/>
      <use xlink:href="#DejaVuSans-72" x="152.587891"/>
     </g>
    </g>
    <g id="line2d_46">
     <path d="M 815.08 343.176562 
L 825.08 343.176562 
L 835.08 343.176562 
" style="fill: none; stroke: #ff7f0e; stroke-width: 1.5; stroke-linecap: square"/>
    </g>
    <g id="text_24">
     <!-- fork -->
     <g style="fill: #a9a9a9" transform="translate(843.08 346.676562) scale(0.1 -0.1)">
      <defs>
       <path id="DejaVuSans-66" d="M 2375 4863 
L 2375 4384 
L 1825 4384 
Q 1516 4384 1395 4259 
Q 1275 4134 1275 3809 
L 1275 3500 
L 2222 3500 
L 2222 3053 
L 1275 3053 
L 1275 0 
L 697 0 
L 697 3053 
L 147 3053 
L 147 3500 
L 697 3500 
L 697 3744 
Q 697 4328 969 4595 
Q 1241 4863 1831 4863 
L 2375 4863 
z
" transform="scale(0.015625)"/>
       <path id="DejaVuSans-6b" d="M 581 4863 
L 1159 4863 
L 1159 1991 
L 2875 3500 
L 3609 3500 
L 1753 1863 
L 3688 0 
L 2938 0 
L 1159 1709 
L 1159 0 
L 581 0 
L 581 4863 
z
" transform="scale(0.015625)"/>
      </defs>
      <use xlink:href="#DejaVuSans-66"/>
      <use xlink:href="#DejaVuSans-6f" x="35.205078"/>
      <use xlink:href="#DejaVuSans-72" x="96.386719"/>
      <use xlink:href="#DejaVuSans-6b" x="137.5"/>
     </g>
    </g>
   </g>
  </g>
 </g>
 <defs>
  <clipPath id="p932fcfeda4">
   <rect x="108" y="43.2" width="669.6" height="277.2"/>
  </clipPath>
 </defs>
</svg>
