<?xml version="1.0" encoding="utf-8" standalone="no"?>
<!DOCTYPE svg PUBLIC "-//W3C//DTD SVG 1.1//EN"
  "http://www.w3.org/Graphics/SVG/1.1/DTD/svg11.dtd">
<svg xmlns:xlink="http://www.w3.org/1999/xlink" width="864pt" height="360pt" viewBox="0 0 864 360" xmlns="http://www.w3.org/2000/svg" version="1.1">
 <metadata>
  <rdf:RDF xmlns:dc="http://purl.org/dc/elements/1.1/" xmlns:cc="http://creativecommons.org/ns#" xmlns:rdf="http://www.w3.org/1999/02/22-rdf-syntax-ns#">
   <cc:Work>
    <dc:type rdf:resource="http://purl.org/dc/dcmitype/StillImage"/>
    <dc:date>2023-04-23T20:19:26.876700</dc:date>
    <dc:format>image/svg+xml</dc:format>
    <dc:creator>
     <cc:Agent>
      <dc:title>Matplotlib v3.7.1, https://matplotlib.org/</dc:title>
     </cc:Agent>
    </dc:creator>
   </cc:Work>
  </rdf:RDF>
 </metadata>
 <defs>
  <style type="text/css">*{stroke-linejoin: round; stroke-linecap: butt}</style>
 </defs>
 <g id="figure_1">
  <g id="patch_1">
   <path d="M 0 360 
L 864 360 
L 864 0 
L 0 0 
L 0 360 
z
" style="fill: none; opacity: 0"/>
  </g>
  <g id="axes_1">
   <g id="patch_2">
    <path d="M 108 320.4 
L 777.6 320.4 
L 777.6 43.2 
L 108 43.2 
L 108 320.4 
z
" style="fill: none; opacity: 0"/>
   </g>
   <g id="matplotlib.axis_1">
    <g id="xtick_1">
     <g id="line2d_1">
      <path d="M 116.49165 320.4 
L 116.49165 43.2 
" clip-path="url(#pdfd43af546)" style="fill: none; stroke-dasharray: 5.12,1.28,0.8,1.28; stroke-dashoffset: 0; stroke: #b0b0b0; stroke-width: 0.8"/>
     </g>
     <g id="line2d_2">
      <defs>
       <path id="m13c4fec071" d="M 0 0 
L 0 3.5 
" style="stroke: #a9a9a9; stroke-width: 0.8"/>
      </defs>
      <g>
       <use xlink:href="#m13c4fec071" x="116.49165" y="320.4" style="fill: #a9a9a9; stroke: #a9a9a9; stroke-width: 0.8"/>
      </g>
     </g>
     <g id="text_1">
      <!-- 2021-07 -->
      <g style="fill: #a9a9a9" transform="translate(95.600244 334.998438) scale(0.1 -0.1)">
       <defs>
        <path id="DejaVuSans-32" d="M 1228 531 
L 3431 531 
L 3431 0 
L 469 0 
L 469 531 
Q 828 903 1448 1529 
Q 2069 2156 2228 2338 
Q 2531 2678 2651 2914 
Q 2772 3150 2772 3378 
Q 2772 3750 2511 3984 
Q 2250 4219 1831 4219 
Q 1534 4219 1204 4116 
Q 875 4013 500 3803 
L 500 4441 
Q 881 4594 1212 4672 
Q 1544 4750 1819 4750 
Q 2544 4750 2975 4387 
Q 3406 4025 3406 3419 
Q 3406 3131 3298 2873 
Q 3191 2616 2906 2266 
Q 2828 2175 2409 1742 
Q 1991 1309 1228 531 
z
" transform="scale(0.015625)"/>
        <path id="DejaVuSans-30" d="M 2034 4250 
Q 1547 4250 1301 3770 
Q 1056 3291 1056 2328 
Q 1056 1369 1301 889 
Q 1547 409 2034 409 
Q 2525 409 2770 889 
Q 3016 1369 3016 2328 
Q 3016 3291 2770 3770 
Q 2525 4250 2034 4250 
z
M 2034 4750 
Q 2819 4750 3233 4129 
Q 3647 3509 3647 2328 
Q 3647 1150 3233 529 
Q 2819 -91 2034 -91 
Q 1250 -91 836 529 
Q 422 1150 422 2328 
Q 422 3509 836 4129 
Q 1250 4750 2034 4750 
z
" transform="scale(0.015625)"/>
        <path id="DejaVuSans-31" d="M 794 531 
L 1825 531 
L 1825 4091 
L 703 3866 
L 703 4441 
L 1819 4666 
L 2450 4666 
L 2450 531 
L 3481 531 
L 3481 0 
L 794 0 
L 794 531 
z
" transform="scale(0.015625)"/>
        <path id="DejaVuSans-2d" d="M 313 2009 
L 1997 2009 
L 1997 1497 
L 313 1497 
L 313 2009 
z
" transform="scale(0.015625)"/>
        <path id="DejaVuSans-37" d="M 525 4666 
L 3525 4666 
L 3525 4397 
L 1831 0 
L 1172 0 
L 2766 4134 
L 525 4134 
L 525 4666 
z
" transform="scale(0.015625)"/>
       </defs>
       <use xlink:href="#DejaVuSans-32"/>
       <use xlink:href="#DejaVuSans-30" x="63.623047"/>
       <use xlink:href="#DejaVuSans-32" x="127.246094"/>
       <use xlink:href="#DejaVuSans-31" x="190.869141"/>
       <use xlink:href="#DejaVuSans-2d" x="254.492188"/>
       <use xlink:href="#DejaVuSans-30" x="290.576172"/>
       <use xlink:href="#DejaVuSans-37" x="354.199219"/>
      </g>
     </g>
    </g>
    <g id="xtick_2">
     <g id="line2d_3">
      <path d="M 204.270504 320.4 
L 204.270504 43.2 
" clip-path="url(#pdfd43af546)" style="fill: none; stroke-dasharray: 5.12,1.28,0.8,1.28; stroke-dashoffset: 0; stroke: #b0b0b0; stroke-width: 0.8"/>
     </g>
     <g id="line2d_4">
      <g>
       <use xlink:href="#m13c4fec071" x="204.270504" y="320.4" style="fill: #a9a9a9; stroke: #a9a9a9; stroke-width: 0.8"/>
      </g>
     </g>
     <g id="text_2">
      <!-- 2021-10 -->
      <g style="fill: #a9a9a9" transform="translate(183.379098 334.998438) scale(0.1 -0.1)">
       <use xlink:href="#DejaVuSans-32"/>
       <use xlink:href="#DejaVuSans-30" x="63.623047"/>
       <use xlink:href="#DejaVuSans-32" x="127.246094"/>
       <use xlink:href="#DejaVuSans-31" x="190.869141"/>
       <use xlink:href="#DejaVuSans-2d" x="254.492188"/>
       <use xlink:href="#DejaVuSans-31" x="290.576172"/>
       <use xlink:href="#DejaVuSans-30" x="354.199219"/>
      </g>
     </g>
    </g>
    <g id="xtick_3">
     <g id="line2d_5">
      <path d="M 292.049359 320.4 
L 292.049359 43.2 
" clip-path="url(#pdfd43af546)" style="fill: none; stroke-dasharray: 5.12,1.28,0.8,1.28; stroke-dashoffset: 0; stroke: #b0b0b0; stroke-width: 0.8"/>
     </g>
     <g id="line2d_6">
      <g>
       <use xlink:href="#m13c4fec071" x="292.049359" y="320.4" style="fill: #a9a9a9; stroke: #a9a9a9; stroke-width: 0.8"/>
      </g>
     </g>
     <g id="text_3">
      <!-- 2022-01 -->
      <g style="fill: #a9a9a9" transform="translate(271.157953 334.998438) scale(0.1 -0.1)">
       <use xlink:href="#DejaVuSans-32"/>
       <use xlink:href="#DejaVuSans-30" x="63.623047"/>
       <use xlink:href="#DejaVuSans-32" x="127.246094"/>
       <use xlink:href="#DejaVuSans-32" x="190.869141"/>
       <use xlink:href="#DejaVuSans-2d" x="254.492188"/>
       <use xlink:href="#DejaVuSans-30" x="290.576172"/>
       <use xlink:href="#DejaVuSans-31" x="354.199219"/>
      </g>
     </g>
    </g>
    <g id="xtick_4">
     <g id="line2d_7">
      <path d="M 377.919977 320.4 
L 377.919977 43.2 
" clip-path="url(#pdfd43af546)" style="fill: none; stroke-dasharray: 5.12,1.28,0.8,1.28; stroke-dashoffset: 0; stroke: #b0b0b0; stroke-width: 0.8"/>
     </g>
     <g id="line2d_8">
      <g>
       <use xlink:href="#m13c4fec071" x="377.919977" y="320.4" style="fill: #a9a9a9; stroke: #a9a9a9; stroke-width: 0.8"/>
      </g>
     </g>
     <g id="text_4">
      <!-- 2022-04 -->
      <g style="fill: #a9a9a9" transform="translate(357.028571 334.998438) scale(0.1 -0.1)">
       <defs>
        <path id="DejaVuSans-34" d="M 2419 4116 
L 825 1625 
L 2419 1625 
L 2419 4116 
z
M 2253 4666 
L 3047 4666 
L 3047 1625 
L 3713 1625 
L 3713 1100 
L 3047 1100 
L 3047 0 
L 2419 0 
L 2419 1100 
L 313 1100 
L 313 1709 
L 2253 4666 
z
" transform="scale(0.015625)"/>
       </defs>
       <use xlink:href="#DejaVuSans-32"/>
       <use xlink:href="#DejaVuSans-30" x="63.623047"/>
       <use xlink:href="#DejaVuSans-32" x="127.246094"/>
       <use xlink:href="#DejaVuSans-32" x="190.869141"/>
       <use xlink:href="#DejaVuSans-2d" x="254.492188"/>
       <use xlink:href="#DejaVuSans-30" x="290.576172"/>
       <use xlink:href="#DejaVuSans-34" x="354.199219"/>
      </g>
     </g>
    </g>
    <g id="xtick_5">
     <g id="line2d_9">
      <path d="M 464.744714 320.4 
L 464.744714 43.2 
" clip-path="url(#pdfd43af546)" style="fill: none; stroke-dasharray: 5.12,1.28,0.8,1.28; stroke-dashoffset: 0; stroke: #b0b0b0; stroke-width: 0.8"/>
     </g>
     <g id="line2d_10">
      <g>
       <use xlink:href="#m13c4fec071" x="464.744714" y="320.4" style="fill: #a9a9a9; stroke: #a9a9a9; stroke-width: 0.8"/>
      </g>
     </g>
     <g id="text_5">
      <!-- 2022-07 -->
      <g style="fill: #a9a9a9" transform="translate(443.853307 334.998438) scale(0.1 -0.1)">
       <use xlink:href="#DejaVuSans-32"/>
       <use xlink:href="#DejaVuSans-30" x="63.623047"/>
       <use xlink:href="#DejaVuSans-32" x="127.246094"/>
       <use xlink:href="#DejaVuSans-32" x="190.869141"/>
       <use xlink:href="#DejaVuSans-2d" x="254.492188"/>
       <use xlink:href="#DejaVuSans-30" x="290.576172"/>
       <use xlink:href="#DejaVuSans-37" x="354.199219"/>
      </g>
     </g>
    </g>
    <g id="xtick_6">
     <g id="line2d_11">
      <path d="M 552.523568 320.4 
L 552.523568 43.2 
" clip-path="url(#pdfd43af546)" style="fill: none; stroke-dasharray: 5.12,1.28,0.8,1.28; stroke-dashoffset: 0; stroke: #b0b0b0; stroke-width: 0.8"/>
     </g>
     <g id="line2d_12">
      <g>
       <use xlink:href="#m13c4fec071" x="552.523568" y="320.4" style="fill: #a9a9a9; stroke: #a9a9a9; stroke-width: 0.8"/>
      </g>
     </g>
     <g id="text_6">
      <!-- 2022-10 -->
      <g style="fill: #a9a9a9" transform="translate(531.632162 334.998438) scale(0.1 -0.1)">
       <use xlink:href="#DejaVuSans-32"/>
       <use xlink:href="#DejaVuSans-30" x="63.623047"/>
       <use xlink:href="#DejaVuSans-32" x="127.246094"/>
       <use xlink:href="#DejaVuSans-32" x="190.869141"/>
       <use xlink:href="#DejaVuSans-2d" x="254.492188"/>
       <use xlink:href="#DejaVuSans-31" x="290.576172"/>
       <use xlink:href="#DejaVuSans-30" x="354.199219"/>
      </g>
     </g>
    </g>
    <g id="xtick_7">
     <g id="line2d_13">
      <path d="M 640.302422 320.4 
L 640.302422 43.2 
" clip-path="url(#pdfd43af546)" style="fill: none; stroke-dasharray: 5.12,1.28,0.8,1.28; stroke-dashoffset: 0; stroke: #b0b0b0; stroke-width: 0.8"/>
     </g>
     <g id="line2d_14">
      <g>
       <use xlink:href="#m13c4fec071" x="640.302422" y="320.4" style="fill: #a9a9a9; stroke: #a9a9a9; stroke-width: 0.8"/>
      </g>
     </g>
     <g id="text_7">
      <!-- 2023-01 -->
      <g style="fill: #a9a9a9" transform="translate(619.411016 334.998438) scale(0.1 -0.1)">
       <defs>
        <path id="DejaVuSans-33" d="M 2597 2516 
Q 3050 2419 3304 2112 
Q 3559 1806 3559 1356 
Q 3559 666 3084 287 
Q 2609 -91 1734 -91 
Q 1441 -91 1130 -33 
Q 819 25 488 141 
L 488 750 
Q 750 597 1062 519 
Q 1375 441 1716 441 
Q 2309 441 2620 675 
Q 2931 909 2931 1356 
Q 2931 1769 2642 2001 
Q 2353 2234 1838 2234 
L 1294 2234 
L 1294 2753 
L 1863 2753 
Q 2328 2753 2575 2939 
Q 2822 3125 2822 3475 
Q 2822 3834 2567 4026 
Q 2313 4219 1838 4219 
Q 1578 4219 1281 4162 
Q 984 4106 628 3988 
L 628 4550 
Q 988 4650 1302 4700 
Q 1616 4750 1894 4750 
Q 2613 4750 3031 4423 
Q 3450 4097 3450 3541 
Q 3450 3153 3228 2886 
Q 3006 2619 2597 2516 
z
" transform="scale(0.015625)"/>
       </defs>
       <use xlink:href="#DejaVuSans-32"/>
       <use xlink:href="#DejaVuSans-30" x="63.623047"/>
       <use xlink:href="#DejaVuSans-32" x="127.246094"/>
       <use xlink:href="#DejaVuSans-33" x="190.869141"/>
       <use xlink:href="#DejaVuSans-2d" x="254.492188"/>
       <use xlink:href="#DejaVuSans-30" x="290.576172"/>
       <use xlink:href="#DejaVuSans-31" x="354.199219"/>
      </g>
     </g>
    </g>
    <g id="xtick_8">
     <g id="line2d_15">
      <path d="M 726.173041 320.4 
L 726.173041 43.2 
" clip-path="url(#pdfd43af546)" style="fill: none; stroke-dasharray: 5.12,1.28,0.8,1.28; stroke-dashoffset: 0; stroke: #b0b0b0; stroke-width: 0.8"/>
     </g>
     <g id="line2d_16">
      <g>
       <use xlink:href="#m13c4fec071" x="726.173041" y="320.4" style="fill: #a9a9a9; stroke: #a9a9a9; stroke-width: 0.8"/>
      </g>
     </g>
     <g id="text_8">
      <!-- 2023-04 -->
      <g style="fill: #a9a9a9" transform="translate(705.281635 334.998438) scale(0.1 -0.1)">
       <use xlink:href="#DejaVuSans-32"/>
       <use xlink:href="#DejaVuSans-30" x="63.623047"/>
       <use xlink:href="#DejaVuSans-32" x="127.246094"/>
       <use xlink:href="#DejaVuSans-33" x="190.869141"/>
       <use xlink:href="#DejaVuSans-2d" x="254.492188"/>
       <use xlink:href="#DejaVuSans-30" x="290.576172"/>
       <use xlink:href="#DejaVuSans-34" x="354.199219"/>
      </g>
     </g>
    </g>
   </g>
   <g id="matplotlib.axis_2">
    <g id="ytick_1">
     <g id="line2d_17">
      <path d="M 108 307.85956 
L 777.6 307.85956 
" clip-path="url(#pdfd43af546)" style="fill: none; stroke-dasharray: 5.12,1.28,0.8,1.28; stroke-dashoffset: 0; stroke: #b0b0b0; stroke-width: 0.8"/>
     </g>
     <g id="line2d_18">
      <defs>
       <path id="mab794b381a" d="M 0 0 
L -3.5 0 
" style="stroke: #a9a9a9; stroke-width: 0.8"/>
      </defs>
      <g>
       <use xlink:href="#mab794b381a" x="108" y="307.85956" style="fill: #a9a9a9; stroke: #a9a9a9; stroke-width: 0.8"/>
      </g>
     </g>
     <g id="text_9">
      <!-- 0 -->
      <g style="fill: #a9a9a9" transform="translate(94.6375 311.658779) scale(0.1 -0.1)">
       <use xlink:href="#DejaVuSans-30"/>
      </g>
     </g>
    </g>
    <g id="ytick_2">
     <g id="line2d_19">
      <path d="M 108 278.079367 
L 777.6 278.079367 
" clip-path="url(#pdfd43af546)" style="fill: none; stroke-dasharray: 5.12,1.28,0.8,1.28; stroke-dashoffset: 0; stroke: #b0b0b0; stroke-width: 0.8"/>
     </g>
     <g id="line2d_20">
      <g>
       <use xlink:href="#mab794b381a" x="108" y="278.079367" style="fill: #a9a9a9; stroke: #a9a9a9; stroke-width: 0.8"/>
      </g>
     </g>
     <g id="text_10">
      <!-- 500 -->
      <g style="fill: #a9a9a9" transform="translate(81.9125 281.878585) scale(0.1 -0.1)">
       <defs>
        <path id="DejaVuSans-35" d="M 691 4666 
L 3169 4666 
L 3169 4134 
L 1269 4134 
L 1269 2991 
Q 1406 3038 1543 3061 
Q 1681 3084 1819 3084 
Q 2600 3084 3056 2656 
Q 3513 2228 3513 1497 
Q 3513 744 3044 326 
Q 2575 -91 1722 -91 
Q 1428 -91 1123 -41 
Q 819 9 494 109 
L 494 744 
Q 775 591 1075 516 
Q 1375 441 1709 441 
Q 2250 441 2565 725 
Q 2881 1009 2881 1497 
Q 2881 1984 2565 2268 
Q 2250 2553 1709 2553 
Q 1456 2553 1204 2497 
Q 953 2441 691 2322 
L 691 4666 
z
" transform="scale(0.015625)"/>
       </defs>
       <use xlink:href="#DejaVuSans-35"/>
       <use xlink:href="#DejaVuSans-30" x="63.623047"/>
       <use xlink:href="#DejaVuSans-30" x="127.246094"/>
      </g>
     </g>
    </g>
    <g id="ytick_3">
     <g id="line2d_21">
      <path d="M 108 248.299173 
L 777.6 248.299173 
" clip-path="url(#pdfd43af546)" style="fill: none; stroke-dasharray: 5.12,1.28,0.8,1.28; stroke-dashoffset: 0; stroke: #b0b0b0; stroke-width: 0.8"/>
     </g>
     <g id="line2d_22">
      <g>
       <use xlink:href="#mab794b381a" x="108" y="248.299173" style="fill: #a9a9a9; stroke: #a9a9a9; stroke-width: 0.8"/>
      </g>
     </g>
     <g id="text_11">
      <!-- 1000 -->
      <g style="fill: #a9a9a9" transform="translate(75.55 252.098392) scale(0.1 -0.1)">
       <use xlink:href="#DejaVuSans-31"/>
       <use xlink:href="#DejaVuSans-30" x="63.623047"/>
       <use xlink:href="#DejaVuSans-30" x="127.246094"/>
       <use xlink:href="#DejaVuSans-30" x="190.869141"/>
      </g>
     </g>
    </g>
    <g id="ytick_4">
     <g id="line2d_23">
      <path d="M 108 218.518979 
L 777.6 218.518979 
" clip-path="url(#pdfd43af546)" style="fill: none; stroke-dasharray: 5.12,1.28,0.8,1.28; stroke-dashoffset: 0; stroke: #b0b0b0; stroke-width: 0.8"/>
     </g>
     <g id="line2d_24">
      <g>
       <use xlink:href="#mab794b381a" x="108" y="218.518979" style="fill: #a9a9a9; stroke: #a9a9a9; stroke-width: 0.8"/>
      </g>
     </g>
     <g id="text_12">
      <!-- 1500 -->
      <g style="fill: #a9a9a9" transform="translate(75.55 222.318198) scale(0.1 -0.1)">
       <use xlink:href="#DejaVuSans-31"/>
       <use xlink:href="#DejaVuSans-35" x="63.623047"/>
       <use xlink:href="#DejaVuSans-30" x="127.246094"/>
       <use xlink:href="#DejaVuSans-30" x="190.869141"/>
      </g>
     </g>
    </g>
    <g id="ytick_5">
     <g id="line2d_25">
      <path d="M 108 188.738785 
L 777.6 188.738785 
" clip-path="url(#pdfd43af546)" style="fill: none; stroke-dasharray: 5.12,1.28,0.8,1.28; stroke-dashoffset: 0; stroke: #b0b0b0; stroke-width: 0.8"/>
     </g>
     <g id="line2d_26">
      <g>
       <use xlink:href="#mab794b381a" x="108" y="188.738785" style="fill: #a9a9a9; stroke: #a9a9a9; stroke-width: 0.8"/>
      </g>
     </g>
     <g id="text_13">
      <!-- 2000 -->
      <g style="fill: #a9a9a9" transform="translate(75.55 192.538004) scale(0.1 -0.1)">
       <use xlink:href="#DejaVuSans-32"/>
       <use xlink:href="#DejaVuSans-30" x="63.623047"/>
       <use xlink:href="#DejaVuSans-30" x="127.246094"/>
       <use xlink:href="#DejaVuSans-30" x="190.869141"/>
      </g>
     </g>
    </g>
    <g id="ytick_6">
     <g id="line2d_27">
      <path d="M 108 158.958591 
L 777.6 158.958591 
" clip-path="url(#pdfd43af546)" style="fill: none; stroke-dasharray: 5.12,1.28,0.8,1.28; stroke-dashoffset: 0; stroke: #b0b0b0; stroke-width: 0.8"/>
     </g>
     <g id="line2d_28">
      <g>
       <use xlink:href="#mab794b381a" x="108" y="158.958591" style="fill: #a9a9a9; stroke: #a9a9a9; stroke-width: 0.8"/>
      </g>
     </g>
     <g id="text_14">
      <!-- 2500 -->
      <g style="fill: #a9a9a9" transform="translate(75.55 162.75781) scale(0.1 -0.1)">
       <use xlink:href="#DejaVuSans-32"/>
       <use xlink:href="#DejaVuSans-35" x="63.623047"/>
       <use xlink:href="#DejaVuSans-30" x="127.246094"/>
       <use xlink:href="#DejaVuSans-30" x="190.869141"/>
      </g>
     </g>
    </g>
    <g id="ytick_7">
     <g id="line2d_29">
      <path d="M 108 129.178398 
L 777.6 129.178398 
" clip-path="url(#pdfd43af546)" style="fill: none; stroke-dasharray: 5.12,1.28,0.8,1.28; stroke-dashoffset: 0; stroke: #b0b0b0; stroke-width: 0.8"/>
     </g>
     <g id="line2d_30">
      <g>
       <use xlink:href="#mab794b381a" x="108" y="129.178398" style="fill: #a9a9a9; stroke: #a9a9a9; stroke-width: 0.8"/>
      </g>
     </g>
     <g id="text_15">
      <!-- 3000 -->
      <g style="fill: #a9a9a9" transform="translate(75.55 132.977616) scale(0.1 -0.1)">
       <use xlink:href="#DejaVuSans-33"/>
       <use xlink:href="#DejaVuSans-30" x="63.623047"/>
       <use xlink:href="#DejaVuSans-30" x="127.246094"/>
       <use xlink:href="#DejaVuSans-30" x="190.869141"/>
      </g>
     </g>
    </g>
    <g id="ytick_8">
     <g id="line2d_31">
      <path d="M 108 99.398204 
L 777.6 99.398204 
" clip-path="url(#pdfd43af546)" style="fill: none; stroke-dasharray: 5.12,1.28,0.8,1.28; stroke-dashoffset: 0; stroke: #b0b0b0; stroke-width: 0.8"/>
     </g>
     <g id="line2d_32">
      <g>
       <use xlink:href="#mab794b381a" x="108" y="99.398204" style="fill: #a9a9a9; stroke: #a9a9a9; stroke-width: 0.8"/>
      </g>
     </g>
     <g id="text_16">
      <!-- 3500 -->
      <g style="fill: #a9a9a9" transform="translate(75.55 103.197422) scale(0.1 -0.1)">
       <use xlink:href="#DejaVuSans-33"/>
       <use xlink:href="#DejaVuSans-35" x="63.623047"/>
       <use xlink:href="#DejaVuSans-30" x="127.246094"/>
       <use xlink:href="#DejaVuSans-30" x="190.869141"/>
      </g>
     </g>
    </g>
    <g id="ytick_9">
     <g id="line2d_33">
      <path d="M 108 69.61801 
L 777.6 69.61801 
" clip-path="url(#pdfd43af546)" style="fill: none; stroke-dasharray: 5.12,1.28,0.8,1.28; stroke-dashoffset: 0; stroke: #b0b0b0; stroke-width: 0.8"/>
     </g>
     <g id="line2d_34">
      <g>
       <use xlink:href="#mab794b381a" x="108" y="69.61801" style="fill: #a9a9a9; stroke: #a9a9a9; stroke-width: 0.8"/>
      </g>
     </g>
     <g id="text_17">
      <!-- 4000 -->
      <g style="fill: #a9a9a9" transform="translate(75.55 73.417229) scale(0.1 -0.1)">
       <use xlink:href="#DejaVuSans-34"/>
       <use xlink:href="#DejaVuSans-30" x="63.623047"/>
       <use xlink:href="#DejaVuSans-30" x="127.246094"/>
       <use xlink:href="#DejaVuSans-30" x="190.869141"/>
      </g>
     </g>
    </g>
   </g>
   <g id="line2d_35">
    <path d="M 138.436364 307.621319 
L 142.252836 307.323517 
L 143.206954 307.204396 
L 144.161072 307.204396 
L 145.11519 306.847034 
L 147.023425 306.727913 
L 153.702251 305.477145 
L 155.610487 305.358024 
L 156.564605 305.179343 
L 159.426959 305.000662 
L 160.381077 304.524179 
L 161.335195 304.285937 
L 162.289313 303.21385 
L 163.243431 302.618246 
L 164.197549 300.652753 
L 165.151667 300.533633 
L 166.105785 299.878468 
L 167.059903 299.521106 
L 168.014021 299.044623 
L 170.876375 296.840889 
L 172.784611 296.007043 
L 173.738729 295.649681 
L 174.692847 294.994517 
L 176.601083 294.220232 
L 177.555201 293.743749 
L 178.509319 293.445947 
L 179.463437 292.016497 
L 180.417555 291.301773 
L 182.325791 290.348806 
L 188.050499 289.574521 
L 189.004617 289.39584 
L 190.912853 289.276719 
L 191.866971 289.098038 
L 192.821089 288.621555 
L 194.729325 288.561995 
L 195.683443 288.561995 
L 199.499915 288.145072 
L 200.454032 287.84727 
L 205.224622 286.953864 
L 207.132858 286.775183 
L 208.086976 286.536942 
L 210.94933 286.23914 
L 211.903448 285.762657 
L 212.857566 285.643536 
L 213.811684 285.286173 
L 215.71992 284.988372 
L 216.674038 284.928811 
L 217.628156 284.631009 
L 221.444628 284.094966 
L 222.398746 283.797164 
L 224.306982 283.499362 
L 225.2611 283.499362 
L 230.03169 282.903758 
L 231.939926 282.367714 
L 232.894044 282.129473 
L 234.80228 281.950792 
L 235.756398 281.891231 
L 238.618752 281.355188 
L 239.57287 281.057386 
L 240.526988 279.866178 
L 241.481106 279.508816 
L 242.435224 279.032333 
L 243.389342 278.913212 
L 244.34346 278.67497 
L 245.297578 278.55585 
L 247.205814 277.781565 
L 248.159932 277.722004 
L 252.930522 276.530797 
L 253.884639 276.530797 
L 255.792875 276.292555 
L 257.701111 275.756511 
L 260.563465 275.101347 
L 261.517583 275.041787 
L 263.425819 274.267502 
L 264.379937 274.148381 
L 265.334055 273.731458 
L 267.242291 273.552777 
L 268.196409 273.493217 
L 271.058763 273.016734 
L 272.966999 272.718932 
L 277.737589 271.825526 
L 279.645825 271.170362 
L 280.599943 270.634318 
L 281.554061 270.396077 
L 282.508179 270.276956 
L 284.416415 269.681352 
L 286.324651 268.668825 
L 287.278769 268.073221 
L 288.232887 267.954101 
L 289.187005 267.656299 
L 290.141123 267.537178 
L 291.095241 267.298936 
L 292.049359 267.179816 
L 293.003477 266.762893 
L 294.911713 266.465091 
L 296.819949 265.631246 
L 297.774067 265.393004 
L 298.728185 265.273883 
L 299.682303 264.976081 
L 303.498775 264.261357 
L 305.407011 263.487072 
L 306.361129 263.30839 
L 307.315247 262.951028 
L 308.269364 262.831907 
L 309.223482 262.414985 
L 310.1776 262.176743 
L 312.085836 262.057622 
L 313.994072 261.462018 
L 314.94819 261.342898 
L 315.902308 261.342898 
L 316.856426 260.925975 
L 319.71878 260.330371 
L 321.627016 260.270811 
L 322.581134 260.15169 
L 323.535252 260.15169 
L 325.443488 259.853888 
L 328.305842 258.543559 
L 329.25996 258.126637 
L 330.214078 257.888395 
L 331.168196 257.292791 
L 332.122314 256.994989 
L 334.03055 256.161144 
L 334.984668 255.982463 
L 336.892904 255.327299 
L 338.80114 254.314772 
L 339.755258 253.361806 
L 340.709376 251.932356 
L 341.663494 250.800709 
L 342.617612 250.562468 
L 343.57173 250.562468 
L 345.479966 249.252139 
L 346.434084 249.013897 
L 347.388202 248.537414 
L 348.34232 248.358733 
L 349.296438 247.524888 
L 350.250556 247.286646 
L 353.11291 246.035878 
L 354.067028 244.963791 
L 355.021146 243.593902 
L 355.975264 243.057859 
L 356.929382 241.628409 
L 357.8835 240.735004 
L 358.837618 240.318081 
L 359.791736 240.079839 
L 361.699972 239.007752 
L 362.654089 238.59083 
L 366.470561 235.970173 
L 367.424679 234.719404 
L 368.378797 232.694351 
L 369.332915 231.384023 
L 370.287033 230.728858 
L 371.241151 230.371496 
L 375.057623 227.333916 
L 376.965859 225.904467 
L 377.919977 225.130182 
L 378.874095 223.879414 
L 379.828213 223.045568 
L 382.690567 221.199196 
L 384.598803 220.007989 
L 385.552921 219.233704 
L 386.507039 218.995462 
L 389.369393 217.625573 
L 391.277629 216.613047 
L 392.231747 216.255684 
L 394.139983 214.647554 
L 395.094101 213.575467 
L 397.002337 212.384259 
L 397.956455 212.146017 
L 398.910573 211.669534 
L 399.864691 211.01437 
L 401.772927 210.061404 
L 402.727045 209.942283 
L 403.681163 209.346679 
L 405.589399 208.453273 
L 406.543517 207.559868 
L 407.497635 206.964264 
L 408.451753 206.666462 
L 409.405871 206.070858 
L 412.268225 204.82009 
L 413.222343 204.224486 
L 414.176461 203.450201 
L 416.084696 202.795037 
L 417.038814 202.437674 
L 417.992932 202.258993 
L 418.94705 201.663389 
L 419.901168 201.484708 
L 421.809404 200.829544 
L 423.71764 200.17438 
L 425.625876 199.459655 
L 426.579994 199.221413 
L 427.534112 198.864051 
L 429.442348 198.566249 
L 431.350584 197.077239 
L 432.304702 196.719877 
L 437.075292 194.456582 
L 438.02941 194.218341 
L 438.983528 193.682297 
L 439.937646 193.444056 
L 442.8 191.776365 
L 445.662354 191.180761 
L 446.616472 190.882959 
L 447.57059 190.704278 
L 450.432944 189.155708 
L 451.387062 189.036587 
L 452.34118 188.679225 
L 453.295298 188.560104 
L 454.249416 188.321862 
L 457.11177 186.41593 
L 458.065888 186.237249 
L 459.020006 185.939447 
L 459.974124 185.820326 
L 460.928242 185.522524 
L 461.88236 184.86736 
L 462.836478 184.569558 
L 463.790596 184.152635 
L 467.607068 183.140109 
L 468.561186 183.080548 
L 469.515304 182.782746 
L 471.423539 182.008461 
L 472.377657 181.710659 
L 473.331775 181.531978 
L 476.194129 180.400331 
L 478.102365 179.864287 
L 479.056483 179.804727 
L 480.964719 179.387804 
L 481.918837 178.970882 
L 482.872955 178.7922 
L 484.781191 178.017915 
L 488.597663 176.231104 
L 489.551781 175.6355 
L 490.505899 175.397258 
L 493.368253 174.027369 
L 495.276489 173.610447 
L 497.184725 172.717041 
L 498.138843 172.419239 
L 500.047079 172.121437 
L 501.001197 171.466273 
L 501.955315 171.04935 
L 502.909433 170.870669 
L 504.817669 170.155944 
L 505.771787 169.977263 
L 506.725905 169.50078 
L 510.542377 168.964736 
L 512.450613 168.130891 
L 513.404731 167.416166 
L 514.358849 165.867596 
L 515.312967 165.629355 
L 517.221203 165.331553 
L 521.037675 163.544741 
L 521.991793 163.36606 
L 527.7165 160.804963 
L 528.670618 160.209359 
L 529.624736 159.851997 
L 532.48709 159.315954 
L 534.395326 158.422548 
L 535.349444 158.065186 
L 536.303562 157.946065 
L 539.165916 156.873978 
L 541.074152 155.801891 
L 542.02827 155.206287 
L 542.982388 154.789364 
L 543.936506 154.670243 
L 544.890624 154.372442 
L 545.844742 154.312881 
L 549.661214 153.121673 
L 550.615332 153.062113 
L 551.56945 152.406949 
L 552.523568 152.168707 
L 554.431804 151.453983 
L 556.34004 150.917939 
L 557.294158 150.381896 
L 558.248276 150.084094 
L 559.202394 149.48849 
L 560.156512 149.131127 
L 561.11063 148.595084 
L 563.018866 147.93992 
L 563.972984 147.642118 
L 566.835338 146.45091 
L 567.789456 145.795746 
L 568.743574 144.783219 
L 569.697692 144.187615 
L 570.65181 144.008934 
L 572.560046 142.639045 
L 573.514164 142.460364 
L 574.468282 141.150035 
L 575.4224 140.792673 
L 576.376518 140.137509 
L 577.330636 140.018388 
L 578.284753 139.422784 
L 579.238871 139.005861 
L 580.192989 138.82718 
L 581.147107 138.469818 
L 582.101225 137.755093 
L 583.055343 137.457291 
L 585.917697 135.67048 
L 589.734169 133.943229 
L 590.688287 133.824108 
L 591.642405 133.466745 
L 593.550641 132.454219 
L 594.504759 131.02477 
L 595.458877 130.131364 
L 596.412995 129.654881 
L 597.367113 129.476199 
L 599.275349 128.404113 
L 600.229467 128.225431 
L 602.137703 127.391586 
L 605.000057 126.259939 
L 606.908293 125.00917 
L 608.816529 123.103238 
L 609.770647 122.388513 
L 611.678883 121.316426 
L 612.633001 120.423021 
L 615.495355 118.278847 
L 616.449473 117.802364 
L 617.403591 116.849397 
L 618.357709 116.194233 
L 620.265945 115.539069 
L 621.220063 114.705223 
L 623.128299 113.811818 
L 624.082417 113.573576 
L 625.036535 112.918412 
L 625.990653 112.68017 
L 628.853007 111.310281 
L 629.807125 110.655117 
L 630.761243 110.178634 
L 632.669478 109.64259 
L 633.623596 109.106547 
L 636.48595 108.272701 
L 638.394186 107.736658 
L 640.302422 106.843252 
L 641.25654 106.068967 
L 643.164776 105.354242 
L 646.02713 104.341716 
L 646.981248 103.686552 
L 649.843602 102.435784 
L 650.79772 101.780619 
L 651.751838 101.304136 
L 653.660074 97.849634 
L 655.56831 95.70546 
L 656.522428 95.050295 
L 660.3389 93.501725 
L 661.293018 93.382605 
L 662.247136 92.906121 
L 663.201254 92.66788 
L 664.155372 92.310518 
L 665.10949 92.072276 
L 667.971844 91.000189 
L 669.88008 89.689861 
L 671.788316 88.975136 
L 677.513024 85.997117 
L 678.467142 85.103711 
L 680.375378 84.150745 
L 681.329496 83.674261 
L 682.283614 83.376459 
L 683.237732 82.721295 
L 684.19185 82.363933 
L 687.054203 80.815363 
L 688.008321 80.279319 
L 688.962439 80.041078 
L 689.916557 79.385913 
L 690.870675 79.028551 
L 691.824793 78.84987 
L 693.733029 78.135145 
L 695.641265 77.599102 
L 696.595383 77.122619 
L 697.549501 76.467455 
L 698.503619 76.288773 
L 701.365973 75.335807 
L 702.320091 74.621082 
L 705.182445 73.548996 
L 706.136563 73.310754 
L 708.044799 72.119546 
L 708.998917 71.762184 
L 709.953035 71.285701 
L 711.861271 69.975372 
L 713.769507 69.379768 
L 714.723625 68.605483 
L 715.677743 68.426802 
L 716.631861 67.652517 
L 718.540097 66.639991 
L 720.448333 65.865706 
L 721.402451 64.9723 
L 722.356569 64.495817 
L 724.264805 63.959773 
L 725.218923 63.42373 
L 726.173041 63.304609 
L 729.035395 61.93472 
L 731.897749 61.100874 
L 732.851867 60.862633 
L 733.805985 60.803073 
L 734.760103 60.624391 
L 735.714221 60.267029 
L 736.668339 60.088348 
L 738.576575 59.373623 
L 739.530693 59.314063 
L 742.393046 58.420657 
L 744.301282 57.34857 
L 746.209518 55.978681 
L 747.163636 55.8 
L 747.163636 55.8 
" clip-path="url(#pdfd43af546)" style="fill: none; stroke: #1f77b4; stroke-width: 1.5; stroke-linecap: square"/>
   </g>
   <g id="line2d_36">
    <path d="M 139.390482 307.8 
L 141.298718 307.8 
L 143.206954 307.561758 
L 148.931661 307.502198 
L 151.794015 307.383077 
L 154.656369 307.323517 
L 156.564605 307.263957 
L 159.426959 307.263957 
L 160.381077 307.025715 
L 163.243431 306.966155 
L 168.014021 306.430111 
L 175.646965 306.013188 
L 176.601083 306.013188 
L 177.555201 305.834507 
L 180.417555 305.774947 
L 182.325791 305.536705 
L 186.142263 305.536705 
L 187.096381 305.417584 
L 191.866971 305.358024 
L 194.729325 305.238903 
L 203.316386 305.179343 
L 205.224622 305.119783 
L 209.041094 305.060222 
L 211.903448 304.941101 
L 215.71992 304.941101 
L 216.674038 304.821981 
L 219.536392 304.76242 
L 223.352864 304.583739 
L 230.03169 304.524179 
L 231.939926 304.464618 
L 235.756398 304.405058 
L 238.618752 304.047696 
L 243.389342 303.988135 
L 248.159932 303.749894 
L 252.930522 303.690333 
L 255.792875 303.571212 
L 257.701111 303.511652 
L 259.609347 303.332971 
L 263.425819 303.15429 
L 266.288173 303.094729 
L 268.196409 303.035169 
L 270.104645 303.035169 
L 271.058763 302.916048 
L 273.921117 302.916048 
L 275.829353 302.737367 
L 278.691707 302.618246 
L 283.462297 302.558686 
L 286.324651 302.260884 
L 288.232887 302.141763 
L 289.187005 301.963082 
L 293.003477 301.903522 
L 303.498775 301.307918 
L 305.407011 301.248357 
L 308.269364 301.129237 
L 309.223482 301.129237 
L 311.131718 300.950555 
L 313.039954 300.890995 
L 313.994072 300.890995 
L 314.94819 300.771874 
L 316.856426 300.712314 
L 321.627016 300.474072 
L 323.535252 300.414512 
L 326.397606 300.295391 
L 329.25996 300.235831 
L 331.168196 300.17627 
L 335.938786 300.17627 
L 339.755258 299.759348 
L 340.709376 299.759348 
L 342.617612 299.580667 
L 344.525848 299.521106 
L 349.296438 299.223304 
L 350.250556 298.985063 
L 352.158792 298.865942 
L 353.11291 298.6277 
L 355.975264 298.389459 
L 357.8835 297.972536 
L 359.791736 297.912976 
L 361.699972 297.912976 
L 362.654089 297.793855 
L 363.608207 297.793855 
L 366.470561 297.376932 
L 367.424679 297.138691 
L 384.598803 296.126164 
L 385.552921 296.126164 
L 389.369393 295.649681 
L 390.323511 295.649681 
L 392.231747 295.351879 
L 394.139983 295.173198 
L 396.048219 295.113637 
L 397.956455 295.113637 
L 398.910573 294.875396 
L 401.772927 294.756275 
L 403.681163 294.756275 
L 405.589399 294.577594 
L 406.543517 294.577594 
L 409.405871 294.160671 
L 410.359989 293.92243 
L 412.268225 293.862869 
L 414.176461 293.803309 
L 415.130579 293.684188 
L 419.901168 293.624628 
L 433.25882 292.850343 
L 435.167056 292.850343 
L 437.075292 292.671662 
L 438.983528 292.671662 
L 441.845882 292.37386 
L 445.662354 292.195178 
L 447.57059 292.135618 
L 449.478826 292.076058 
L 452.34118 292.016497 
L 459.020006 291.659135 
L 463.790596 291.599575 
L 465.698832 291.540014 
L 466.65295 291.540014 
L 467.607068 291.361333 
L 469.515304 291.301773 
L 475.240011 291.242212 
L 477.148247 291.182652 
L 481.918837 291.123091 
L 482.872955 290.94441 
L 488.597663 290.88485 
L 490.505899 290.82529 
L 492.414135 290.765729 
L 494.322371 290.706169 
L 496.230607 290.646608 
L 502.909433 290.289246 
L 508.634141 290.229686 
L 511.496495 289.991444 
L 513.404731 289.812763 
L 515.312967 289.753203 
L 517.221203 289.753203 
L 518.175321 289.634082 
L 521.037675 289.574521 
L 521.991793 289.33628 
L 525.808264 289.157599 
L 534.395326 289.098038 
L 539.165916 288.740676 
L 542.02827 288.442874 
L 546.79886 288.383314 
L 549.661214 288.085512 
L 555.385922 287.78771 
L 557.294158 287.728149 
L 561.11063 287.549468 
L 564.927102 287.489908 
L 567.789456 287.370787 
L 571.605928 287.311227 
L 574.468282 287.013425 
L 576.376518 286.953864 
L 580.192989 286.894304 
L 583.055343 286.656062 
L 584.009461 286.536942 
L 584.963579 286.536942 
L 586.871815 286.35826 
L 591.642405 286.2987 
L 593.550641 286.000898 
L 602.137703 285.941338 
L 604.045939 285.762657 
L 605.000057 285.643536 
L 606.908293 285.583975 
L 608.816529 285.524415 
L 609.770647 285.286173 
L 611.678883 285.226613 
L 612.633001 285.047932 
L 614.541237 285.047932 
L 617.403591 284.75013 
L 635.531832 283.678043 
L 637.440068 283.618483 
L 639.348304 283.558922 
L 650.79772 283.499362 
L 653.660074 283.380241 
L 654.614192 283.380241 
L 655.56831 283.142 
L 657.476546 283.082439 
L 662.247136 283.022879 
L 665.10949 282.903758 
L 669.88008 282.844198 
L 672.742434 282.725077 
L 674.65067 282.725077 
L 676.558906 282.486835 
L 678.467142 282.427275 
L 685.145968 282.069913 
L 687.054203 282.069913 
L 688.962439 281.891231 
L 695.641265 281.831671 
L 697.549501 281.65299 
L 700.411855 281.533869 
L 705.182445 281.474309 
L 707.090681 281.414748 
L 710.907153 281.355188 
L 712.815389 281.295628 
L 714.723625 281.236067 
L 716.631861 281.176507 
L 722.356569 281.116946 
L 727.127159 280.878705 
L 732.851867 280.819144 
L 737.622457 280.580903 
L 742.393046 280.580903 
L 743.347164 280.402222 
L 744.301282 280.402222 
L 746.209518 280.223541 
L 747.163636 280.223541 
L 747.163636 280.223541 
" clip-path="url(#pdfd43af546)" style="fill: none; stroke: #ff7f0e; stroke-width: 1.5; stroke-linecap: square"/>
   </g>
   <g id="patch_3">
    <path d="M 108 320.4 
L 108 43.2 
" style="fill: none; stroke: #a9a9a9; stroke-width: 0.8; stroke-linejoin: miter; stroke-linecap: square"/>
   </g>
   <g id="patch_4">
    <path d="M 777.6 320.4 
L 777.6 43.2 
" style="fill: none"/>
   </g>
   <g id="patch_5">
    <path d="M 108 320.4 
L 777.6 320.4 
" style="fill: none; stroke: #a9a9a9; stroke-width: 0.8; stroke-linejoin: miter; stroke-linecap: square"/>
   </g>
   <g id="patch_6">
    <path d="M 108 43.2 
L 777.6 43.2 
" style="fill: none"/>
   </g>
   <g id="text_18">
    <!-- get_subscribe history -->
    <g style="fill: #a9a9a9" transform="translate(378.6075 37.2) scale(0.12 -0.12)">
     <defs>
      <path id="DejaVuSans-67" d="M 2906 1791 
Q 2906 2416 2648 2759 
Q 2391 3103 1925 3103 
Q 1463 3103 1205 2759 
Q 947 2416 947 1791 
Q 947 1169 1205 825 
Q 1463 481 1925 481 
Q 2391 481 2648 825 
Q 2906 1169 2906 1791 
z
M 3481 434 
Q 3481 -459 3084 -895 
Q 2688 -1331 1869 -1331 
Q 1566 -1331 1297 -1286 
Q 1028 -1241 775 -1147 
L 775 -588 
Q 1028 -725 1275 -790 
Q 1522 -856 1778 -856 
Q 2344 -856 2625 -561 
Q 2906 -266 2906 331 
L 2906 616 
Q 2728 306 2450 153 
Q 2172 0 1784 0 
Q 1141 0 747 490 
Q 353 981 353 1791 
Q 353 2603 747 3093 
Q 1141 3584 1784 3584 
Q 2172 3584 2450 3431 
Q 2728 3278 2906 2969 
L 2906 3500 
L 3481 3500 
L 3481 434 
z
" transform="scale(0.015625)"/>
      <path id="DejaVuSans-65" d="M 3597 1894 
L 3597 1613 
L 953 1613 
Q 991 1019 1311 708 
Q 1631 397 2203 397 
Q 2534 397 2845 478 
Q 3156 559 3463 722 
L 3463 178 
Q 3153 47 2828 -22 
Q 2503 -91 2169 -91 
Q 1331 -91 842 396 
Q 353 884 353 1716 
Q 353 2575 817 3079 
Q 1281 3584 2069 3584 
Q 2775 3584 3186 3129 
Q 3597 2675 3597 1894 
z
M 3022 2063 
Q 3016 2534 2758 2815 
Q 2500 3097 2075 3097 
Q 1594 3097 1305 2825 
Q 1016 2553 972 2059 
L 3022 2063 
z
" transform="scale(0.015625)"/>
      <path id="DejaVuSans-74" d="M 1172 4494 
L 1172 3500 
L 2356 3500 
L 2356 3053 
L 1172 3053 
L 1172 1153 
Q 1172 725 1289 603 
Q 1406 481 1766 481 
L 2356 481 
L 2356 0 
L 1766 0 
Q 1100 0 847 248 
Q 594 497 594 1153 
L 594 3053 
L 172 3053 
L 172 3500 
L 594 3500 
L 594 4494 
L 1172 4494 
z
" transform="scale(0.015625)"/>
      <path id="DejaVuSans-5f" d="M 3263 -1063 
L 3263 -1509 
L -63 -1509 
L -63 -1063 
L 3263 -1063 
z
" transform="scale(0.015625)"/>
      <path id="DejaVuSans-73" d="M 2834 3397 
L 2834 2853 
Q 2591 2978 2328 3040 
Q 2066 3103 1784 3103 
Q 1356 3103 1142 2972 
Q 928 2841 928 2578 
Q 928 2378 1081 2264 
Q 1234 2150 1697 2047 
L 1894 2003 
Q 2506 1872 2764 1633 
Q 3022 1394 3022 966 
Q 3022 478 2636 193 
Q 2250 -91 1575 -91 
Q 1294 -91 989 -36 
Q 684 19 347 128 
L 347 722 
Q 666 556 975 473 
Q 1284 391 1588 391 
Q 1994 391 2212 530 
Q 2431 669 2431 922 
Q 2431 1156 2273 1281 
Q 2116 1406 1581 1522 
L 1381 1569 
Q 847 1681 609 1914 
Q 372 2147 372 2553 
Q 372 3047 722 3315 
Q 1072 3584 1716 3584 
Q 2034 3584 2315 3537 
Q 2597 3491 2834 3397 
z
" transform="scale(0.015625)"/>
      <path id="DejaVuSans-75" d="M 544 1381 
L 544 3500 
L 1119 3500 
L 1119 1403 
Q 1119 906 1312 657 
Q 1506 409 1894 409 
Q 2359 409 2629 706 
Q 2900 1003 2900 1516 
L 2900 3500 
L 3475 3500 
L 3475 0 
L 2900 0 
L 2900 538 
Q 2691 219 2414 64 
Q 2138 -91 1772 -91 
Q 1169 -91 856 284 
Q 544 659 544 1381 
z
M 1991 3584 
L 1991 3584 
z
" transform="scale(0.015625)"/>
      <path id="DejaVuSans-62" d="M 3116 1747 
Q 3116 2381 2855 2742 
Q 2594 3103 2138 3103 
Q 1681 3103 1420 2742 
Q 1159 2381 1159 1747 
Q 1159 1113 1420 752 
Q 1681 391 2138 391 
Q 2594 391 2855 752 
Q 3116 1113 3116 1747 
z
M 1159 2969 
Q 1341 3281 1617 3432 
Q 1894 3584 2278 3584 
Q 2916 3584 3314 3078 
Q 3713 2572 3713 1747 
Q 3713 922 3314 415 
Q 2916 -91 2278 -91 
Q 1894 -91 1617 61 
Q 1341 213 1159 525 
L 1159 0 
L 581 0 
L 581 4863 
L 1159 4863 
L 1159 2969 
z
" transform="scale(0.015625)"/>
      <path id="DejaVuSans-63" d="M 3122 3366 
L 3122 2828 
Q 2878 2963 2633 3030 
Q 2388 3097 2138 3097 
Q 1578 3097 1268 2742 
Q 959 2388 959 1747 
Q 959 1106 1268 751 
Q 1578 397 2138 397 
Q 2388 397 2633 464 
Q 2878 531 3122 666 
L 3122 134 
Q 2881 22 2623 -34 
Q 2366 -91 2075 -91 
Q 1284 -91 818 406 
Q 353 903 353 1747 
Q 353 2603 823 3093 
Q 1294 3584 2113 3584 
Q 2378 3584 2631 3529 
Q 2884 3475 3122 3366 
z
" transform="scale(0.015625)"/>
      <path id="DejaVuSans-72" d="M 2631 2963 
Q 2534 3019 2420 3045 
Q 2306 3072 2169 3072 
Q 1681 3072 1420 2755 
Q 1159 2438 1159 1844 
L 1159 0 
L 581 0 
L 581 3500 
L 1159 3500 
L 1159 2956 
Q 1341 3275 1631 3429 
Q 1922 3584 2338 3584 
Q 2397 3584 2469 3576 
Q 2541 3569 2628 3553 
L 2631 2963 
z
" transform="scale(0.015625)"/>
      <path id="DejaVuSans-69" d="M 603 3500 
L 1178 3500 
L 1178 0 
L 603 0 
L 603 3500 
z
M 603 4863 
L 1178 4863 
L 1178 4134 
L 603 4134 
L 603 4863 
z
" transform="scale(0.015625)"/>
      <path id="DejaVuSans-20" transform="scale(0.015625)"/>
      <path id="DejaVuSans-68" d="M 3513 2113 
L 3513 0 
L 2938 0 
L 2938 2094 
Q 2938 2591 2744 2837 
Q 2550 3084 2163 3084 
Q 1697 3084 1428 2787 
Q 1159 2491 1159 1978 
L 1159 0 
L 581 0 
L 581 4863 
L 1159 4863 
L 1159 2956 
Q 1366 3272 1645 3428 
Q 1925 3584 2291 3584 
Q 2894 3584 3203 3211 
Q 3513 2838 3513 2113 
z
" transform="scale(0.015625)"/>
      <path id="DejaVuSans-6f" d="M 1959 3097 
Q 1497 3097 1228 2736 
Q 959 2375 959 1747 
Q 959 1119 1226 758 
Q 1494 397 1959 397 
Q 2419 397 2687 759 
Q 2956 1122 2956 1747 
Q 2956 2369 2687 2733 
Q 2419 3097 1959 3097 
z
M 1959 3584 
Q 2709 3584 3137 3096 
Q 3566 2609 3566 1747 
Q 3566 888 3137 398 
Q 2709 -91 1959 -91 
Q 1206 -91 779 398 
Q 353 888 353 1747 
Q 353 2609 779 3096 
Q 1206 3584 1959 3584 
z
" transform="scale(0.015625)"/>
      <path id="DejaVuSans-79" d="M 2059 -325 
Q 1816 -950 1584 -1140 
Q 1353 -1331 966 -1331 
L 506 -1331 
L 506 -850 
L 844 -850 
Q 1081 -850 1212 -737 
Q 1344 -625 1503 -206 
L 1606 56 
L 191 3500 
L 800 3500 
L 1894 763 
L 2988 3500 
L 3597 3500 
L 2059 -325 
z
" transform="scale(0.015625)"/>
     </defs>
     <use xlink:href="#DejaVuSans-67"/>
     <use xlink:href="#DejaVuSans-65" x="63.476562"/>
     <use xlink:href="#DejaVuSans-74" x="125"/>
     <use xlink:href="#DejaVuSans-5f" x="164.208984"/>
     <use xlink:href="#DejaVuSans-73" x="214.208984"/>
     <use xlink:href="#DejaVuSans-75" x="266.308594"/>
     <use xlink:href="#DejaVuSans-62" x="329.6875"/>
     <use xlink:href="#DejaVuSans-73" x="393.164062"/>
     <use xlink:href="#DejaVuSans-63" x="445.263672"/>
     <use xlink:href="#DejaVuSans-72" x="500.244141"/>
     <use xlink:href="#DejaVuSans-69" x="541.357422"/>
     <use xlink:href="#DejaVuSans-62" x="569.140625"/>
     <use xlink:href="#DejaVuSans-65" x="632.617188"/>
     <use xlink:href="#DejaVuSans-20" x="694.140625"/>
     <use xlink:href="#DejaVuSans-68" x="725.927734"/>
     <use xlink:href="#DejaVuSans-69" x="789.306641"/>
     <use xlink:href="#DejaVuSans-73" x="817.089844"/>
     <use xlink:href="#DejaVuSans-74" x="869.189453"/>
     <use xlink:href="#DejaVuSans-6f" x="908.398438"/>
     <use xlink:href="#DejaVuSans-72" x="969.580078"/>
     <use xlink:href="#DejaVuSans-79" x="1010.693359"/>
    </g>
   </g>
   <g id="legend_1">
    <g id="line2d_37">
     <path d="M 815.08 328.498438 
L 825.08 328.498438 
L 835.08 328.498438 
" style="fill: none; stroke: #1f77b4; stroke-width: 1.5; stroke-linecap: square"/>
    </g>
    <g id="text_19">
     <!-- star -->
     <g style="fill: #a9a9a9" transform="translate(843.08 331.998438) scale(0.1 -0.1)">
      <defs>
       <path id="DejaVuSans-61" d="M 2194 1759 
Q 1497 1759 1228 1600 
Q 959 1441 959 1056 
Q 959 750 1161 570 
Q 1363 391 1709 391 
Q 2188 391 2477 730 
Q 2766 1069 2766 1631 
L 2766 1759 
L 2194 1759 
z
M 3341 1997 
L 3341 0 
L 2766 0 
L 2766 531 
Q 2569 213 2275 61 
Q 1981 -91 1556 -91 
Q 1019 -91 701 211 
Q 384 513 384 1019 
Q 384 1609 779 1909 
Q 1175 2209 1959 2209 
L 2766 2209 
L 2766 2266 
Q 2766 2663 2505 2880 
Q 2244 3097 1772 3097 
Q 1472 3097 1187 3025 
Q 903 2953 641 2809 
L 641 3341 
Q 956 3463 1253 3523 
Q 1550 3584 1831 3584 
Q 2591 3584 2966 3190 
Q 3341 2797 3341 1997 
z
" transform="scale(0.015625)"/>
      </defs>
      <use xlink:href="#DejaVuSans-73"/>
      <use xlink:href="#DejaVuSans-74" x="52.099609"/>
      <use xlink:href="#DejaVuSans-61" x="91.308594"/>
      <use xlink:href="#DejaVuSans-72" x="152.587891"/>
     </g>
    </g>
    <g id="line2d_38">
     <path d="M 815.08 343.176562 
L 825.08 343.176562 
L 835.08 343.176562 
" style="fill: none; stroke: #ff7f0e; stroke-width: 1.5; stroke-linecap: square"/>
    </g>
    <g id="text_20">
     <!-- fork -->
     <g style="fill: #a9a9a9" transform="translate(843.08 346.676562) scale(0.1 -0.1)">
      <defs>
       <path id="DejaVuSans-66" d="M 2375 4863 
L 2375 4384 
L 1825 4384 
Q 1516 4384 1395 4259 
Q 1275 4134 1275 3809 
L 1275 3500 
L 2222 3500 
L 2222 3053 
L 1275 3053 
L 1275 0 
L 697 0 
L 697 3053 
L 147 3053 
L 147 3500 
L 697 3500 
L 697 3744 
Q 697 4328 969 4595 
Q 1241 4863 1831 4863 
L 2375 4863 
z
" transform="scale(0.015625)"/>
       <path id="DejaVuSans-6b" d="M 581 4863 
L 1159 4863 
L 1159 1991 
L 2875 3500 
L 3609 3500 
L 1753 1863 
L 3688 0 
L 2938 0 
L 1159 1709 
L 1159 0 
L 581 0 
L 581 4863 
z
" transform="scale(0.015625)"/>
      </defs>
      <use xlink:href="#DejaVuSans-66"/>
      <use xlink:href="#DejaVuSans-6f" x="35.205078"/>
      <use xlink:href="#DejaVuSans-72" x="96.386719"/>
      <use xlink:href="#DejaVuSans-6b" x="137.5"/>
     </g>
    </g>
   </g>
  </g>
 </g>
 <defs>
  <clipPath id="pdfd43af546">
   <rect x="108" y="43.2" width="669.6" height="277.2"/>
  </clipPath>
 </defs>
</svg>
