<?xml version="1.0" encoding="utf-8" standalone="no"?>
<!DOCTYPE svg PUBLIC "-//W3C//DTD SVG 1.1//EN"
  "http://www.w3.org/Graphics/SVG/1.1/DTD/svg11.dtd">
<svg xmlns:xlink="http://www.w3.org/1999/xlink" width="864pt" height="360pt" viewBox="0 0 864 360" xmlns="http://www.w3.org/2000/svg" version="1.1">
 <metadata>
  <rdf:RDF xmlns:dc="http://purl.org/dc/elements/1.1/" xmlns:cc="http://creativecommons.org/ns#" xmlns:rdf="http://www.w3.org/1999/02/22-rdf-syntax-ns#">
   <cc:Work>
    <dc:type rdf:resource="http://purl.org/dc/dcmitype/StillImage"/>
    <dc:date>2023-04-21T08:53:29.037925</dc:date>
    <dc:format>image/svg+xml</dc:format>
    <dc:creator>
     <cc:Agent>
      <dc:title>Matplotlib v3.7.1, https://matplotlib.org/</dc:title>
     </cc:Agent>
    </dc:creator>
   </cc:Work>
  </rdf:RDF>
 </metadata>
 <defs>
  <style type="text/css">*{stroke-linejoin: round; stroke-linecap: butt}</style>
 </defs>
 <g id="figure_1">
  <g id="patch_1">
   <path d="M 0 360 
L 864 360 
L 864 0 
L 0 0 
L 0 360 
z
" style="fill: none; opacity: 0"/>
  </g>
  <g id="axes_1">
   <g id="patch_2">
    <path d="M 108 320.4 
L 777.6 320.4 
L 777.6 43.2 
L 108 43.2 
L 108 320.4 
z
" style="fill: none; opacity: 0"/>
   </g>
   <g id="matplotlib.axis_1">
    <g id="xtick_1">
     <g id="line2d_1">
      <path d="M 116.422642 320.4 
L 116.422642 43.2 
" clip-path="url(#pd876d9eb26)" style="fill: none; stroke-dasharray: 5.12,1.28,0.8,1.28; stroke-dashoffset: 0; stroke: #b0b0b0; stroke-width: 0.8"/>
     </g>
     <g id="line2d_2">
      <defs>
       <path id="maf28343f06" d="M 0 0 
L 0 3.5 
" style="stroke: #a9a9a9; stroke-width: 0.8"/>
      </defs>
      <g>
       <use xlink:href="#maf28343f06" x="116.422642" y="320.4" style="fill: #a9a9a9; stroke: #a9a9a9; stroke-width: 0.8"/>
      </g>
     </g>
     <g id="text_1">
      <!-- 2021-07 -->
      <g style="fill: #a9a9a9" transform="translate(95.531235 334.998438) scale(0.1 -0.1)">
       <defs>
        <path id="DejaVuSans-32" d="M 1228 531 
L 3431 531 
L 3431 0 
L 469 0 
L 469 531 
Q 828 903 1448 1529 
Q 2069 2156 2228 2338 
Q 2531 2678 2651 2914 
Q 2772 3150 2772 3378 
Q 2772 3750 2511 3984 
Q 2250 4219 1831 4219 
Q 1534 4219 1204 4116 
Q 875 4013 500 3803 
L 500 4441 
Q 881 4594 1212 4672 
Q 1544 4750 1819 4750 
Q 2544 4750 2975 4387 
Q 3406 4025 3406 3419 
Q 3406 3131 3298 2873 
Q 3191 2616 2906 2266 
Q 2828 2175 2409 1742 
Q 1991 1309 1228 531 
z
" transform="scale(0.015625)"/>
        <path id="DejaVuSans-30" d="M 2034 4250 
Q 1547 4250 1301 3770 
Q 1056 3291 1056 2328 
Q 1056 1369 1301 889 
Q 1547 409 2034 409 
Q 2525 409 2770 889 
Q 3016 1369 3016 2328 
Q 3016 3291 2770 3770 
Q 2525 4250 2034 4250 
z
M 2034 4750 
Q 2819 4750 3233 4129 
Q 3647 3509 3647 2328 
Q 3647 1150 3233 529 
Q 2819 -91 2034 -91 
Q 1250 -91 836 529 
Q 422 1150 422 2328 
Q 422 3509 836 4129 
Q 1250 4750 2034 4750 
z
" transform="scale(0.015625)"/>
        <path id="DejaVuSans-31" d="M 794 531 
L 1825 531 
L 1825 4091 
L 703 3866 
L 703 4441 
L 1819 4666 
L 2450 4666 
L 2450 531 
L 3481 531 
L 3481 0 
L 794 0 
L 794 531 
z
" transform="scale(0.015625)"/>
        <path id="DejaVuSans-2d" d="M 313 2009 
L 1997 2009 
L 1997 1497 
L 313 1497 
L 313 2009 
z
" transform="scale(0.015625)"/>
        <path id="DejaVuSans-37" d="M 525 4666 
L 3525 4666 
L 3525 4397 
L 1831 0 
L 1172 0 
L 2766 4134 
L 525 4134 
L 525 4666 
z
" transform="scale(0.015625)"/>
       </defs>
       <use xlink:href="#DejaVuSans-32"/>
       <use xlink:href="#DejaVuSans-30" x="63.623047"/>
       <use xlink:href="#DejaVuSans-32" x="127.246094"/>
       <use xlink:href="#DejaVuSans-31" x="190.869141"/>
       <use xlink:href="#DejaVuSans-2d" x="254.492188"/>
       <use xlink:href="#DejaVuSans-30" x="290.576172"/>
       <use xlink:href="#DejaVuSans-37" x="354.199219"/>
      </g>
     </g>
    </g>
    <g id="xtick_2">
     <g id="line2d_3">
      <path d="M 204.47753 320.4 
L 204.47753 43.2 
" clip-path="url(#pd876d9eb26)" style="fill: none; stroke-dasharray: 5.12,1.28,0.8,1.28; stroke-dashoffset: 0; stroke: #b0b0b0; stroke-width: 0.8"/>
     </g>
     <g id="line2d_4">
      <g>
       <use xlink:href="#maf28343f06" x="204.47753" y="320.4" style="fill: #a9a9a9; stroke: #a9a9a9; stroke-width: 0.8"/>
      </g>
     </g>
     <g id="text_2">
      <!-- 2021-10 -->
      <g style="fill: #a9a9a9" transform="translate(183.586124 334.998438) scale(0.1 -0.1)">
       <use xlink:href="#DejaVuSans-32"/>
       <use xlink:href="#DejaVuSans-30" x="63.623047"/>
       <use xlink:href="#DejaVuSans-32" x="127.246094"/>
       <use xlink:href="#DejaVuSans-31" x="190.869141"/>
       <use xlink:href="#DejaVuSans-2d" x="254.492188"/>
       <use xlink:href="#DejaVuSans-31" x="290.576172"/>
       <use xlink:href="#DejaVuSans-30" x="354.199219"/>
      </g>
     </g>
    </g>
    <g id="xtick_3">
     <g id="line2d_5">
      <path d="M 292.532419 320.4 
L 292.532419 43.2 
" clip-path="url(#pd876d9eb26)" style="fill: none; stroke-dasharray: 5.12,1.28,0.8,1.28; stroke-dashoffset: 0; stroke: #b0b0b0; stroke-width: 0.8"/>
     </g>
     <g id="line2d_6">
      <g>
       <use xlink:href="#maf28343f06" x="292.532419" y="320.4" style="fill: #a9a9a9; stroke: #a9a9a9; stroke-width: 0.8"/>
      </g>
     </g>
     <g id="text_3">
      <!-- 2022-01 -->
      <g style="fill: #a9a9a9" transform="translate(271.641012 334.998438) scale(0.1 -0.1)">
       <use xlink:href="#DejaVuSans-32"/>
       <use xlink:href="#DejaVuSans-30" x="63.623047"/>
       <use xlink:href="#DejaVuSans-32" x="127.246094"/>
       <use xlink:href="#DejaVuSans-32" x="190.869141"/>
       <use xlink:href="#DejaVuSans-2d" x="254.492188"/>
       <use xlink:href="#DejaVuSans-30" x="290.576172"/>
       <use xlink:href="#DejaVuSans-31" x="354.199219"/>
      </g>
     </g>
    </g>
    <g id="xtick_4">
     <g id="line2d_7">
      <path d="M 378.67307 320.4 
L 378.67307 43.2 
" clip-path="url(#pd876d9eb26)" style="fill: none; stroke-dasharray: 5.12,1.28,0.8,1.28; stroke-dashoffset: 0; stroke: #b0b0b0; stroke-width: 0.8"/>
     </g>
     <g id="line2d_8">
      <g>
       <use xlink:href="#maf28343f06" x="378.67307" y="320.4" style="fill: #a9a9a9; stroke: #a9a9a9; stroke-width: 0.8"/>
      </g>
     </g>
     <g id="text_4">
      <!-- 2022-04 -->
      <g style="fill: #a9a9a9" transform="translate(357.781664 334.998438) scale(0.1 -0.1)">
       <defs>
        <path id="DejaVuSans-34" d="M 2419 4116 
L 825 1625 
L 2419 1625 
L 2419 4116 
z
M 2253 4666 
L 3047 4666 
L 3047 1625 
L 3713 1625 
L 3713 1100 
L 3047 1100 
L 3047 0 
L 2419 0 
L 2419 1100 
L 313 1100 
L 313 1709 
L 2253 4666 
z
" transform="scale(0.015625)"/>
       </defs>
       <use xlink:href="#DejaVuSans-32"/>
       <use xlink:href="#DejaVuSans-30" x="63.623047"/>
       <use xlink:href="#DejaVuSans-32" x="127.246094"/>
       <use xlink:href="#DejaVuSans-32" x="190.869141"/>
       <use xlink:href="#DejaVuSans-2d" x="254.492188"/>
       <use xlink:href="#DejaVuSans-30" x="290.576172"/>
       <use xlink:href="#DejaVuSans-34" x="354.199219"/>
      </g>
     </g>
    </g>
    <g id="xtick_5">
     <g id="line2d_9">
      <path d="M 465.77084 320.4 
L 465.77084 43.2 
" clip-path="url(#pd876d9eb26)" style="fill: none; stroke-dasharray: 5.12,1.28,0.8,1.28; stroke-dashoffset: 0; stroke: #b0b0b0; stroke-width: 0.8"/>
     </g>
     <g id="line2d_10">
      <g>
       <use xlink:href="#maf28343f06" x="465.77084" y="320.4" style="fill: #a9a9a9; stroke: #a9a9a9; stroke-width: 0.8"/>
      </g>
     </g>
     <g id="text_5">
      <!-- 2022-07 -->
      <g style="fill: #a9a9a9" transform="translate(444.879434 334.998438) scale(0.1 -0.1)">
       <use xlink:href="#DejaVuSans-32"/>
       <use xlink:href="#DejaVuSans-30" x="63.623047"/>
       <use xlink:href="#DejaVuSans-32" x="127.246094"/>
       <use xlink:href="#DejaVuSans-32" x="190.869141"/>
       <use xlink:href="#DejaVuSans-2d" x="254.492188"/>
       <use xlink:href="#DejaVuSans-30" x="290.576172"/>
       <use xlink:href="#DejaVuSans-37" x="354.199219"/>
      </g>
     </g>
    </g>
    <g id="xtick_6">
     <g id="line2d_11">
      <path d="M 553.825729 320.4 
L 553.825729 43.2 
" clip-path="url(#pd876d9eb26)" style="fill: none; stroke-dasharray: 5.12,1.28,0.8,1.28; stroke-dashoffset: 0; stroke: #b0b0b0; stroke-width: 0.8"/>
     </g>
     <g id="line2d_12">
      <g>
       <use xlink:href="#maf28343f06" x="553.825729" y="320.4" style="fill: #a9a9a9; stroke: #a9a9a9; stroke-width: 0.8"/>
      </g>
     </g>
     <g id="text_6">
      <!-- 2022-10 -->
      <g style="fill: #a9a9a9" transform="translate(532.934323 334.998438) scale(0.1 -0.1)">
       <use xlink:href="#DejaVuSans-32"/>
       <use xlink:href="#DejaVuSans-30" x="63.623047"/>
       <use xlink:href="#DejaVuSans-32" x="127.246094"/>
       <use xlink:href="#DejaVuSans-32" x="190.869141"/>
       <use xlink:href="#DejaVuSans-2d" x="254.492188"/>
       <use xlink:href="#DejaVuSans-31" x="290.576172"/>
       <use xlink:href="#DejaVuSans-30" x="354.199219"/>
      </g>
     </g>
    </g>
    <g id="xtick_7">
     <g id="line2d_13">
      <path d="M 641.880617 320.4 
L 641.880617 43.2 
" clip-path="url(#pd876d9eb26)" style="fill: none; stroke-dasharray: 5.12,1.28,0.8,1.28; stroke-dashoffset: 0; stroke: #b0b0b0; stroke-width: 0.8"/>
     </g>
     <g id="line2d_14">
      <g>
       <use xlink:href="#maf28343f06" x="641.880617" y="320.4" style="fill: #a9a9a9; stroke: #a9a9a9; stroke-width: 0.8"/>
      </g>
     </g>
     <g id="text_7">
      <!-- 2023-01 -->
      <g style="fill: #a9a9a9" transform="translate(620.989211 334.998438) scale(0.1 -0.1)">
       <defs>
        <path id="DejaVuSans-33" d="M 2597 2516 
Q 3050 2419 3304 2112 
Q 3559 1806 3559 1356 
Q 3559 666 3084 287 
Q 2609 -91 1734 -91 
Q 1441 -91 1130 -33 
Q 819 25 488 141 
L 488 750 
Q 750 597 1062 519 
Q 1375 441 1716 441 
Q 2309 441 2620 675 
Q 2931 909 2931 1356 
Q 2931 1769 2642 2001 
Q 2353 2234 1838 2234 
L 1294 2234 
L 1294 2753 
L 1863 2753 
Q 2328 2753 2575 2939 
Q 2822 3125 2822 3475 
Q 2822 3834 2567 4026 
Q 2313 4219 1838 4219 
Q 1578 4219 1281 4162 
Q 984 4106 628 3988 
L 628 4550 
Q 988 4650 1302 4700 
Q 1616 4750 1894 4750 
Q 2613 4750 3031 4423 
Q 3450 4097 3450 3541 
Q 3450 3153 3228 2886 
Q 3006 2619 2597 2516 
z
" transform="scale(0.015625)"/>
       </defs>
       <use xlink:href="#DejaVuSans-32"/>
       <use xlink:href="#DejaVuSans-30" x="63.623047"/>
       <use xlink:href="#DejaVuSans-32" x="127.246094"/>
       <use xlink:href="#DejaVuSans-33" x="190.869141"/>
       <use xlink:href="#DejaVuSans-2d" x="254.492188"/>
       <use xlink:href="#DejaVuSans-30" x="290.576172"/>
       <use xlink:href="#DejaVuSans-31" x="354.199219"/>
      </g>
     </g>
    </g>
    <g id="xtick_8">
     <g id="line2d_15">
      <path d="M 728.021269 320.4 
L 728.021269 43.2 
" clip-path="url(#pd876d9eb26)" style="fill: none; stroke-dasharray: 5.12,1.28,0.8,1.28; stroke-dashoffset: 0; stroke: #b0b0b0; stroke-width: 0.8"/>
     </g>
     <g id="line2d_16">
      <g>
       <use xlink:href="#maf28343f06" x="728.021269" y="320.4" style="fill: #a9a9a9; stroke: #a9a9a9; stroke-width: 0.8"/>
      </g>
     </g>
     <g id="text_8">
      <!-- 2023-04 -->
      <g style="fill: #a9a9a9" transform="translate(707.129863 334.998438) scale(0.1 -0.1)">
       <use xlink:href="#DejaVuSans-32"/>
       <use xlink:href="#DejaVuSans-30" x="63.623047"/>
       <use xlink:href="#DejaVuSans-32" x="127.246094"/>
       <use xlink:href="#DejaVuSans-33" x="190.869141"/>
       <use xlink:href="#DejaVuSans-2d" x="254.492188"/>
       <use xlink:href="#DejaVuSans-30" x="290.576172"/>
       <use xlink:href="#DejaVuSans-34" x="354.199219"/>
      </g>
     </g>
    </g>
   </g>
   <g id="matplotlib.axis_2">
    <g id="ytick_1">
     <g id="line2d_17">
      <path d="M 108 307.8599 
L 777.6 307.8599 
" clip-path="url(#pd876d9eb26)" style="fill: none; stroke-dasharray: 5.12,1.28,0.8,1.28; stroke-dashoffset: 0; stroke: #b0b0b0; stroke-width: 0.8"/>
     </g>
     <g id="line2d_18">
      <defs>
       <path id="m47a40c6731" d="M 0 0 
L -3.5 0 
" style="stroke: #a9a9a9; stroke-width: 0.8"/>
      </defs>
      <g>
       <use xlink:href="#m47a40c6731" x="108" y="307.8599" style="fill: #a9a9a9; stroke: #a9a9a9; stroke-width: 0.8"/>
      </g>
     </g>
     <g id="text_9">
      <!-- 0 -->
      <g style="fill: #a9a9a9" transform="translate(94.6375 311.659119) scale(0.1 -0.1)">
       <use xlink:href="#DejaVuSans-30"/>
      </g>
     </g>
    </g>
    <g id="ytick_2">
     <g id="line2d_19">
      <path d="M 108 277.909817 
L 777.6 277.909817 
" clip-path="url(#pd876d9eb26)" style="fill: none; stroke-dasharray: 5.12,1.28,0.8,1.28; stroke-dashoffset: 0; stroke: #b0b0b0; stroke-width: 0.8"/>
     </g>
     <g id="line2d_20">
      <g>
       <use xlink:href="#m47a40c6731" x="108" y="277.909817" style="fill: #a9a9a9; stroke: #a9a9a9; stroke-width: 0.8"/>
      </g>
     </g>
     <g id="text_10">
      <!-- 500 -->
      <g style="fill: #a9a9a9" transform="translate(81.9125 281.709036) scale(0.1 -0.1)">
       <defs>
        <path id="DejaVuSans-35" d="M 691 4666 
L 3169 4666 
L 3169 4134 
L 1269 4134 
L 1269 2991 
Q 1406 3038 1543 3061 
Q 1681 3084 1819 3084 
Q 2600 3084 3056 2656 
Q 3513 2228 3513 1497 
Q 3513 744 3044 326 
Q 2575 -91 1722 -91 
Q 1428 -91 1123 -41 
Q 819 9 494 109 
L 494 744 
Q 775 591 1075 516 
Q 1375 441 1709 441 
Q 2250 441 2565 725 
Q 2881 1009 2881 1497 
Q 2881 1984 2565 2268 
Q 2250 2553 1709 2553 
Q 1456 2553 1204 2497 
Q 953 2441 691 2322 
L 691 4666 
z
" transform="scale(0.015625)"/>
       </defs>
       <use xlink:href="#DejaVuSans-35"/>
       <use xlink:href="#DejaVuSans-30" x="63.623047"/>
       <use xlink:href="#DejaVuSans-30" x="127.246094"/>
      </g>
     </g>
    </g>
    <g id="ytick_3">
     <g id="line2d_21">
      <path d="M 108 247.959734 
L 777.6 247.959734 
" clip-path="url(#pd876d9eb26)" style="fill: none; stroke-dasharray: 5.12,1.28,0.8,1.28; stroke-dashoffset: 0; stroke: #b0b0b0; stroke-width: 0.8"/>
     </g>
     <g id="line2d_22">
      <g>
       <use xlink:href="#m47a40c6731" x="108" y="247.959734" style="fill: #a9a9a9; stroke: #a9a9a9; stroke-width: 0.8"/>
      </g>
     </g>
     <g id="text_11">
      <!-- 1000 -->
      <g style="fill: #a9a9a9" transform="translate(75.55 251.758953) scale(0.1 -0.1)">
       <use xlink:href="#DejaVuSans-31"/>
       <use xlink:href="#DejaVuSans-30" x="63.623047"/>
       <use xlink:href="#DejaVuSans-30" x="127.246094"/>
       <use xlink:href="#DejaVuSans-30" x="190.869141"/>
      </g>
     </g>
    </g>
    <g id="ytick_4">
     <g id="line2d_23">
      <path d="M 108 218.009651 
L 777.6 218.009651 
" clip-path="url(#pd876d9eb26)" style="fill: none; stroke-dasharray: 5.12,1.28,0.8,1.28; stroke-dashoffset: 0; stroke: #b0b0b0; stroke-width: 0.8"/>
     </g>
     <g id="line2d_24">
      <g>
       <use xlink:href="#m47a40c6731" x="108" y="218.009651" style="fill: #a9a9a9; stroke: #a9a9a9; stroke-width: 0.8"/>
      </g>
     </g>
     <g id="text_12">
      <!-- 1500 -->
      <g style="fill: #a9a9a9" transform="translate(75.55 221.808869) scale(0.1 -0.1)">
       <use xlink:href="#DejaVuSans-31"/>
       <use xlink:href="#DejaVuSans-35" x="63.623047"/>
       <use xlink:href="#DejaVuSans-30" x="127.246094"/>
       <use xlink:href="#DejaVuSans-30" x="190.869141"/>
      </g>
     </g>
    </g>
    <g id="ytick_5">
     <g id="line2d_25">
      <path d="M 108 188.059567 
L 777.6 188.059567 
" clip-path="url(#pd876d9eb26)" style="fill: none; stroke-dasharray: 5.12,1.28,0.8,1.28; stroke-dashoffset: 0; stroke: #b0b0b0; stroke-width: 0.8"/>
     </g>
     <g id="line2d_26">
      <g>
       <use xlink:href="#m47a40c6731" x="108" y="188.059567" style="fill: #a9a9a9; stroke: #a9a9a9; stroke-width: 0.8"/>
      </g>
     </g>
     <g id="text_13">
      <!-- 2000 -->
      <g style="fill: #a9a9a9" transform="translate(75.55 191.858786) scale(0.1 -0.1)">
       <use xlink:href="#DejaVuSans-32"/>
       <use xlink:href="#DejaVuSans-30" x="63.623047"/>
       <use xlink:href="#DejaVuSans-30" x="127.246094"/>
       <use xlink:href="#DejaVuSans-30" x="190.869141"/>
      </g>
     </g>
    </g>
    <g id="ytick_6">
     <g id="line2d_27">
      <path d="M 108 158.109484 
L 777.6 158.109484 
" clip-path="url(#pd876d9eb26)" style="fill: none; stroke-dasharray: 5.12,1.28,0.8,1.28; stroke-dashoffset: 0; stroke: #b0b0b0; stroke-width: 0.8"/>
     </g>
     <g id="line2d_28">
      <g>
       <use xlink:href="#m47a40c6731" x="108" y="158.109484" style="fill: #a9a9a9; stroke: #a9a9a9; stroke-width: 0.8"/>
      </g>
     </g>
     <g id="text_14">
      <!-- 2500 -->
      <g style="fill: #a9a9a9" transform="translate(75.55 161.908703) scale(0.1 -0.1)">
       <use xlink:href="#DejaVuSans-32"/>
       <use xlink:href="#DejaVuSans-35" x="63.623047"/>
       <use xlink:href="#DejaVuSans-30" x="127.246094"/>
       <use xlink:href="#DejaVuSans-30" x="190.869141"/>
      </g>
     </g>
    </g>
    <g id="ytick_7">
     <g id="line2d_29">
      <path d="M 108 128.159401 
L 777.6 128.159401 
" clip-path="url(#pd876d9eb26)" style="fill: none; stroke-dasharray: 5.12,1.28,0.8,1.28; stroke-dashoffset: 0; stroke: #b0b0b0; stroke-width: 0.8"/>
     </g>
     <g id="line2d_30">
      <g>
       <use xlink:href="#m47a40c6731" x="108" y="128.159401" style="fill: #a9a9a9; stroke: #a9a9a9; stroke-width: 0.8"/>
      </g>
     </g>
     <g id="text_15">
      <!-- 3000 -->
      <g style="fill: #a9a9a9" transform="translate(75.55 131.95862) scale(0.1 -0.1)">
       <use xlink:href="#DejaVuSans-33"/>
       <use xlink:href="#DejaVuSans-30" x="63.623047"/>
       <use xlink:href="#DejaVuSans-30" x="127.246094"/>
       <use xlink:href="#DejaVuSans-30" x="190.869141"/>
      </g>
     </g>
    </g>
    <g id="ytick_8">
     <g id="line2d_31">
      <path d="M 108 98.209318 
L 777.6 98.209318 
" clip-path="url(#pd876d9eb26)" style="fill: none; stroke-dasharray: 5.12,1.28,0.8,1.28; stroke-dashoffset: 0; stroke: #b0b0b0; stroke-width: 0.8"/>
     </g>
     <g id="line2d_32">
      <g>
       <use xlink:href="#m47a40c6731" x="108" y="98.209318" style="fill: #a9a9a9; stroke: #a9a9a9; stroke-width: 0.8"/>
      </g>
     </g>
     <g id="text_16">
      <!-- 3500 -->
      <g style="fill: #a9a9a9" transform="translate(75.55 102.008537) scale(0.1 -0.1)">
       <use xlink:href="#DejaVuSans-33"/>
       <use xlink:href="#DejaVuSans-35" x="63.623047"/>
       <use xlink:href="#DejaVuSans-30" x="127.246094"/>
       <use xlink:href="#DejaVuSans-30" x="190.869141"/>
      </g>
     </g>
    </g>
    <g id="ytick_9">
     <g id="line2d_33">
      <path d="M 108 68.259235 
L 777.6 68.259235 
" clip-path="url(#pd876d9eb26)" style="fill: none; stroke-dasharray: 5.12,1.28,0.8,1.28; stroke-dashoffset: 0; stroke: #b0b0b0; stroke-width: 0.8"/>
     </g>
     <g id="line2d_34">
      <g>
       <use xlink:href="#m47a40c6731" x="108" y="68.259235" style="fill: #a9a9a9; stroke: #a9a9a9; stroke-width: 0.8"/>
      </g>
     </g>
     <g id="text_17">
      <!-- 4000 -->
      <g style="fill: #a9a9a9" transform="translate(75.55 72.058453) scale(0.1 -0.1)">
       <use xlink:href="#DejaVuSans-34"/>
       <use xlink:href="#DejaVuSans-30" x="63.623047"/>
       <use xlink:href="#DejaVuSans-30" x="127.246094"/>
       <use xlink:href="#DejaVuSans-30" x="190.869141"/>
      </g>
     </g>
    </g>
   </g>
   <g id="line2d_35">
    <path d="M 138.436364 307.6203 
L 142.264837 307.320799 
L 143.221955 307.200998 
L 144.179074 307.200998 
L 145.136192 306.841597 
L 147.050429 306.721797 
L 153.750257 305.463894 
L 155.664494 305.344093 
L 156.621612 305.164393 
L 159.492967 304.984692 
L 160.450086 304.505491 
L 161.407204 304.26589 
L 162.364322 303.187687 
L 163.321441 302.588686 
L 164.278559 300.61198 
L 165.235678 300.49218 
L 166.192796 299.833278 
L 167.149914 299.473877 
L 168.107033 298.994676 
L 170.978388 296.778369 
L 172.892624 295.939767 
L 173.849743 295.580366 
L 174.806861 294.921464 
L 176.721098 294.142762 
L 177.678216 293.663561 
L 178.635334 293.36406 
L 179.592453 291.926456 
L 180.549571 291.207654 
L 182.463808 290.249251 
L 188.206518 289.470549 
L 189.163636 289.290849 
L 191.077873 289.171048 
L 192.034991 288.991348 
L 192.99211 288.512146 
L 194.906346 288.452246 
L 195.863465 288.452246 
L 199.691938 288.032945 
L 200.649057 287.733444 
L 205.434648 286.834942 
L 207.348885 286.655241 
L 208.306003 286.415641 
L 211.177358 286.11614 
L 212.134477 285.636938 
L 213.091595 285.517138 
L 214.048714 285.157737 
L 215.005832 284.918136 
L 216.920069 284.738436 
L 217.877187 284.438935 
L 221.70566 283.899834 
L 222.662779 283.600333 
L 224.577015 283.300832 
L 225.534134 283.300832 
L 230.319726 282.70183 
L 232.233962 282.162729 
L 233.191081 281.923128 
L 235.105317 281.743428 
L 236.062436 281.683527 
L 238.933791 281.144426 
L 239.890909 280.844925 
L 240.848027 279.646922 
L 241.805146 279.287521 
L 242.762264 278.808319 
L 243.719383 278.688519 
L 244.676501 278.448918 
L 245.633619 278.329118 
L 247.547856 277.550416 
L 248.504974 277.490516 
L 253.290566 276.292512 
L 254.247684 276.292512 
L 256.161921 276.052912 
L 258.076158 275.51381 
L 260.947513 274.854908 
L 261.904631 274.795008 
L 263.818868 274.016306 
L 264.775986 273.896506 
L 265.733105 273.477205 
L 267.647341 273.297504 
L 268.60446 273.237604 
L 271.475815 272.758403 
L 273.390051 272.458902 
L 278.175643 271.560399 
L 280.08988 270.901498 
L 281.046998 270.362396 
L 282.004117 270.122795 
L 282.961235 270.002995 
L 284.875472 269.403993 
L 286.789708 268.385691 
L 287.746827 267.786689 
L 288.703945 267.666889 
L 289.661063 267.367388 
L 290.618182 267.247587 
L 291.5753 267.007987 
L 292.532419 266.888186 
L 293.489537 266.468885 
L 295.403774 266.169384 
L 297.31801 265.330782 
L 298.275129 265.091181 
L 299.232247 264.971381 
L 300.189365 264.67188 
L 304.017839 263.953078 
L 305.932075 263.174376 
L 306.889194 262.994676 
L 307.846312 262.635275 
L 308.803431 262.515474 
L 309.760549 262.096173 
L 310.717667 261.856572 
L 312.631904 261.736772 
L 314.546141 261.13777 
L 315.503259 261.01797 
L 316.460377 261.01797 
L 317.417496 260.598669 
L 320.288851 259.999667 
L 322.203087 259.939767 
L 323.160206 259.819967 
L 324.117324 259.819967 
L 326.031561 259.520466 
L 328.902916 258.202662 
L 329.860034 257.783361 
L 330.817153 257.54376 
L 331.774271 256.944759 
L 332.731389 256.645258 
L 334.645626 255.806656 
L 335.602744 255.626955 
L 337.516981 254.968053 
L 339.431218 253.94975 
L 340.388336 252.991348 
L 341.345455 251.553744 
L 342.302573 250.415641 
L 343.259691 250.17604 
L 344.21681 250.17604 
L 346.131046 248.858236 
L 347.088165 248.618636 
L 348.045283 248.139434 
L 349.002401 247.959734 
L 349.95952 247.121131 
L 350.916638 246.881531 
L 353.787993 245.623627 
L 354.745111 244.545424 
L 355.70223 243.16772 
L 356.659348 242.628619 
L 357.616467 241.191015 
L 358.573585 240.292512 
L 359.530703 239.873211 
L 360.487822 239.633611 
L 362.402058 238.555408 
L 363.359177 238.136106 
L 367.18765 235.500499 
L 368.144768 234.242596 
L 369.101887 232.20599 
L 370.059005 230.888186 
L 371.016123 230.229285 
L 371.973242 229.869884 
L 375.801715 226.814975 
L 377.715952 225.377371 
L 378.67307 224.598669 
L 379.630189 223.340765 
L 380.587307 222.502163 
L 383.458662 220.645258 
L 385.372899 219.447255 
L 386.330017 218.668552 
L 387.287136 218.428952 
L 390.158491 217.051248 
L 392.072727 216.032945 
L 393.029846 215.673544 
L 394.944082 214.05624 
L 395.901201 212.978037 
L 397.815437 211.780033 
L 398.772556 211.540433 
L 399.729674 211.061231 
L 400.686792 210.402329 
L 402.601029 209.443927 
L 403.558148 209.324126 
L 404.515266 208.725125 
L 406.429503 207.826622 
L 407.386621 206.92812 
L 408.343739 206.329118 
L 409.300858 206.029617 
L 410.257976 205.430616 
L 413.129331 204.172712 
L 414.086449 203.57371 
L 415.043568 202.795008 
L 416.957804 202.136106 
L 417.914923 201.776705 
L 418.872041 201.597005 
L 419.82916 200.998003 
L 420.786278 200.818303 
L 422.700515 200.159401 
L 424.614751 199.500499 
L 426.528988 198.781697 
L 427.486106 198.542097 
L 428.443225 198.182696 
L 430.357461 197.883195 
L 432.271698 196.385691 
L 433.228816 196.02629 
L 438.014408 193.750083 
L 438.971527 193.510483 
L 439.928645 192.971381 
L 440.885763 192.73178 
L 443.757118 191.054576 
L 446.628473 190.455574 
L 447.585592 190.156073 
L 448.54271 189.976373 
L 451.414065 188.418968 
L 452.371184 188.299168 
L 453.328302 187.939767 
L 454.28542 187.819967 
L 455.242539 187.580366 
L 458.113894 185.663561 
L 459.071012 185.48386 
L 460.02813 185.184359 
L 460.985249 185.064559 
L 461.942367 184.765058 
L 462.899485 184.106156 
L 463.856604 183.806656 
L 464.813722 183.387354 
L 468.642196 182.369052 
L 469.599314 182.309151 
L 470.556432 182.009651 
L 472.470669 181.230948 
L 473.427787 180.931448 
L 474.384906 180.751747 
L 477.256261 179.613644 
L 479.170497 179.074542 
L 480.127616 179.014642 
L 482.041852 178.595341 
L 482.998971 178.17604 
L 483.956089 177.996339 
L 485.870326 177.217637 
L 489.698799 175.420632 
L 490.655918 174.821631 
L 491.613036 174.58203 
L 494.484391 173.204326 
L 496.398628 172.785025 
L 498.312864 171.886522 
L 499.269983 171.587022 
L 501.18422 171.287521 
L 502.141338 170.628619 
L 503.098456 170.209318 
L 504.055575 170.029617 
L 505.969811 169.310815 
L 506.92693 169.131115 
L 507.884048 168.651913 
L 511.712521 168.112812 
L 513.626758 167.27421 
L 514.583877 166.555408 
L 515.540995 164.998003 
L 516.498113 164.758403 
L 518.41235 164.458902 
L 522.240823 162.661897 
L 523.197942 162.482196 
L 528.940652 159.906489 
L 529.89777 159.307488 
L 530.854889 158.948087 
L 533.726244 158.408985 
L 535.64048 157.510483 
L 536.597599 157.151082 
L 537.554717 157.031281 
L 540.426072 155.953078 
L 542.340309 154.874875 
L 543.297427 154.275874 
L 544.254545 153.856572 
L 545.211664 153.736772 
L 546.168782 153.437271 
L 547.125901 153.377371 
L 550.954374 152.179368 
L 551.911492 152.119468 
L 552.868611 151.460566 
L 553.825729 151.220965 
L 555.739966 150.502163 
L 557.654202 149.963062 
L 558.611321 149.42396 
L 559.568439 149.124459 
L 560.525557 148.525458 
L 561.482676 148.166057 
L 562.439794 147.626955 
L 564.354031 146.968053 
L 565.311149 146.668552 
L 568.182504 145.470549 
L 569.139623 144.811647 
L 570.096741 143.793344 
L 571.053859 143.194343 
L 572.010978 143.014642 
L 573.925214 141.636938 
L 574.882333 141.457238 
L 575.839451 140.139434 
L 576.796569 139.780033 
L 577.753688 139.121131 
L 578.710806 139.001331 
L 579.667925 138.402329 
L 580.625043 137.983028 
L 581.582161 137.803328 
L 582.53928 137.443927 
L 583.496398 136.725125 
L 584.453516 136.425624 
L 587.324871 134.628619 
L 591.153345 132.891514 
L 592.110463 132.771714 
L 593.067581 132.412313 
L 594.981818 131.39401 
L 595.938937 129.956406 
L 596.896055 129.057903 
L 597.853173 128.578702 
L 598.810292 128.399002 
L 600.724528 127.320799 
L 601.681647 127.141098 
L 603.595883 126.302496 
L 606.467238 125.164393 
L 608.381475 123.906489 
L 610.295712 121.989684 
L 611.25283 121.270882 
L 613.167067 120.192679 
L 614.124185 119.294176 
L 616.99554 117.13777 
L 617.952659 116.658569 
L 618.909777 115.700166 
L 619.866895 115.041265 
L 621.781132 114.382363 
L 622.73825 113.54376 
L 624.652487 112.645258 
L 625.609605 112.405657 
L 626.566724 111.746755 
L 627.523842 111.507155 
L 630.395197 110.129451 
L 631.352316 109.470549 
L 632.309434 108.991348 
L 634.223671 108.452246 
L 635.180789 107.913145 
L 638.052144 107.074542 
L 639.966381 106.535441 
L 641.880617 105.636938 
L 642.837736 104.858236 
L 644.751973 104.139434 
L 647.623328 103.121131 
L 648.580446 102.46223 
L 651.451801 101.204326 
L 652.408919 100.545424 
L 653.366038 100.066223 
L 655.280274 96.592013 
L 657.194511 94.435607 
L 658.15163 93.776705 
L 661.980103 92.219301 
L 662.937221 92.099501 
L 663.89434 91.6203 
L 664.851458 91.380699 
L 665.808576 91.021298 
L 666.765695 90.781697 
L 669.63705 89.703494 
L 671.551286 88.385691 
L 673.465523 87.666889 
L 679.208233 84.67188 
L 680.165352 83.773378 
L 682.079588 82.814975 
L 683.036707 82.335774 
L 683.993825 82.036273 
L 684.950943 81.377371 
L 685.908062 81.01797 
L 688.779417 79.460566 
L 689.736535 78.921464 
L 690.693654 78.681864 
L 691.650772 78.022962 
L 692.60789 77.663561 
L 693.565009 77.48386 
L 695.479245 76.765058 
L 697.393482 76.225957 
L 698.3506 75.746755 
L 699.307719 75.087854 
L 700.264837 74.908153 
L 703.136192 73.94975 
L 704.09331 73.230948 
L 706.964666 72.152745 
L 707.921784 71.913145 
L 709.836021 70.715141 
L 710.793139 70.35574 
L 711.750257 69.876539 
L 713.664494 68.498835 
L 715.578731 67.899834 
L 716.535849 67.121131 
L 717.492967 66.941431 
L 718.450086 66.162729 
L 720.364322 65.144426 
L 722.278559 64.365724 
L 723.235678 63.467221 
L 724.192796 62.98802 
L 726.107033 62.448918 
L 727.064151 61.909817 
L 728.021269 61.790017 
L 730.892624 60.412313 
L 733.763979 59.57371 
L 734.721098 59.33411 
L 735.678216 59.27421 
L 736.635334 59.094509 
L 737.592453 58.735108 
L 738.549571 58.555408 
L 740.463808 57.836606 
L 741.420926 57.776705 
L 744.292281 56.878203 
L 746.206518 55.8 
L 747.163636 55.8 
L 747.163636 55.8 
" clip-path="url(#pd876d9eb26)" style="fill: none; stroke: #1f77b4; stroke-width: 1.5; stroke-linecap: square"/>
   </g>
   <g id="line2d_36">
    <path d="M 139.393482 307.8 
L 141.307719 307.8 
L 143.221955 307.560399 
L 148.964666 307.500499 
L 151.836021 307.380699 
L 154.707376 307.320799 
L 156.621612 307.260899 
L 159.492967 307.260899 
L 160.450086 307.021298 
L 163.321441 306.961398 
L 168.107033 306.422296 
L 175.763979 306.002995 
L 176.721098 306.002995 
L 177.678216 305.823295 
L 180.549571 305.763394 
L 182.463808 305.523794 
L 186.292281 305.523794 
L 187.2494 305.403993 
L 192.034991 305.344093 
L 194.906346 305.224293 
L 203.520412 305.164393 
L 205.434648 305.104493 
L 209.263122 305.044592 
L 212.134477 304.924792 
L 215.96295 304.924792 
L 216.920069 304.804992 
L 219.791424 304.745092 
L 223.619897 304.565391 
L 230.319726 304.505491 
L 232.233962 304.445591 
L 236.062436 304.385691 
L 238.933791 304.02629 
L 243.719383 303.966389 
L 248.504974 303.726789 
L 253.290566 303.666889 
L 256.161921 303.547088 
L 258.076158 303.487188 
L 259.990395 303.307488 
L 263.818868 303.127787 
L 266.690223 303.067887 
L 268.60446 303.007987 
L 270.518696 303.007987 
L 271.475815 302.888186 
L 274.34717 302.888186 
L 276.261407 302.708486 
L 279.132762 302.588686 
L 283.918353 302.528785 
L 286.789708 302.229285 
L 288.703945 302.109484 
L 289.661063 301.929784 
L 293.489537 301.869884 
L 304.017839 301.270882 
L 305.932075 301.210982 
L 308.803431 301.091181 
L 309.760549 301.091181 
L 311.674786 300.911481 
L 313.589022 300.851581 
L 314.546141 300.851581 
L 315.503259 300.73178 
L 317.417496 300.67188 
L 322.203087 300.43228 
L 324.117324 300.372379 
L 326.988679 300.252579 
L 329.860034 300.192679 
L 331.774271 300.132779 
L 336.559863 300.132779 
L 340.388336 299.713478 
L 341.345455 299.713478 
L 343.259691 299.533777 
L 345.173928 299.473877 
L 349.95952 299.174376 
L 350.916638 298.934775 
L 352.830875 298.814975 
L 353.787993 298.575374 
L 356.659348 298.335774 
L 358.573585 297.916473 
L 360.487822 297.856572 
L 362.402058 297.856572 
L 363.359177 297.736772 
L 364.316295 297.736772 
L 367.18765 297.317471 
L 368.144768 297.07787 
L 385.372899 296.059567 
L 386.330017 296.059567 
L 390.158491 295.580366 
L 391.115609 295.580366 
L 393.029846 295.280865 
L 394.944082 295.101165 
L 396.858319 295.041265 
L 398.772556 295.041265 
L 399.729674 294.801664 
L 402.601029 294.681864 
L 404.515266 294.681864 
L 406.429503 294.502163 
L 407.386621 294.502163 
L 410.257976 294.082862 
L 411.215094 293.843261 
L 413.129331 293.783361 
L 415.043568 293.723461 
L 416.000686 293.603661 
L 420.786278 293.54376 
L 434.185935 292.765058 
L 436.100172 292.765058 
L 438.014408 292.585358 
L 439.928645 292.585358 
L 442.8 292.285857 
L 446.628473 292.106156 
L 448.54271 292.046256 
L 450.456947 291.986356 
L 453.328302 291.926456 
L 460.02813 291.567055 
L 464.813722 291.507155 
L 466.727959 291.447255 
L 467.685077 291.447255 
L 468.642196 291.267554 
L 470.556432 291.207654 
L 476.299142 291.147754 
L 478.213379 291.087854 
L 482.998971 291.027953 
L 483.956089 290.848253 
L 489.698799 290.788353 
L 491.613036 290.728453 
L 493.527273 290.668552 
L 495.441509 290.608652 
L 497.355746 290.548752 
L 504.055575 290.189351 
L 509.798285 290.129451 
L 512.66964 289.88985 
L 514.583877 289.71015 
L 516.498113 289.65025 
L 518.41235 289.65025 
L 519.369468 289.530449 
L 522.240823 289.470549 
L 523.197942 289.230948 
L 527.026415 289.051248 
L 535.64048 288.991348 
L 540.426072 288.631947 
L 543.297427 288.332446 
L 548.083019 288.272546 
L 550.954374 287.973045 
L 556.697084 287.673544 
L 558.611321 287.613644 
L 562.439794 287.433943 
L 566.268268 287.374043 
L 569.139623 287.254243 
L 572.968096 287.194343 
L 575.839451 286.894842 
L 577.753688 286.834942 
L 581.582161 286.775042 
L 584.453516 286.535441 
L 585.410635 286.415641 
L 586.367753 286.415641 
L 588.28199 286.23594 
L 593.067581 286.17604 
L 594.981818 285.876539 
L 603.595883 285.816639 
L 605.51012 285.636938 
L 606.467238 285.517138 
L 608.381475 285.457238 
L 610.295712 285.397338 
L 611.25283 285.157737 
L 613.167067 285.097837 
L 614.124185 284.918136 
L 616.038422 284.918136 
L 618.909777 284.618636 
L 637.095026 283.540433 
L 639.009262 283.480532 
L 640.923499 283.420632 
L 652.408919 283.360732 
L 655.280274 283.240932 
L 656.237393 283.240932 
L 657.194511 283.001331 
L 659.108748 282.941431 
L 663.89434 282.881531 
L 666.765695 282.76173 
L 671.551286 282.70183 
L 674.422642 282.58203 
L 676.336878 282.58203 
L 678.251115 282.342429 
L 680.165352 282.282529 
L 686.86518 281.923128 
L 688.779417 281.923128 
L 690.693654 281.743428 
L 697.393482 281.683527 
L 699.307719 281.503827 
L 702.179074 281.384027 
L 706.964666 281.324126 
L 708.878902 281.264226 
L 712.707376 281.204326 
L 714.621612 281.144426 
L 716.535849 281.084526 
L 718.450086 281.024626 
L 724.192796 280.964725 
L 728.978388 280.725125 
L 734.721098 280.665225 
L 739.50669 280.425624 
L 744.292281 280.425624 
L 745.2494 280.245923 
L 747.163636 280.245923 
L 747.163636 280.245923 
" clip-path="url(#pd876d9eb26)" style="fill: none; stroke: #ff7f0e; stroke-width: 1.5; stroke-linecap: square"/>
   </g>
   <g id="patch_3">
    <path d="M 108 320.4 
L 108 43.2 
" style="fill: none; stroke: #a9a9a9; stroke-width: 0.8; stroke-linejoin: miter; stroke-linecap: square"/>
   </g>
   <g id="patch_4">
    <path d="M 777.6 320.4 
L 777.6 43.2 
" style="fill: none"/>
   </g>
   <g id="patch_5">
    <path d="M 108 320.4 
L 777.6 320.4 
" style="fill: none; stroke: #a9a9a9; stroke-width: 0.8; stroke-linejoin: miter; stroke-linecap: square"/>
   </g>
   <g id="patch_6">
    <path d="M 108 43.2 
L 777.6 43.2 
" style="fill: none"/>
   </g>
   <g id="text_18">
    <!-- get_subscribe history -->
    <g style="fill: #a9a9a9" transform="translate(378.6075 37.2) scale(0.12 -0.12)">
     <defs>
      <path id="DejaVuSans-67" d="M 2906 1791 
Q 2906 2416 2648 2759 
Q 2391 3103 1925 3103 
Q 1463 3103 1205 2759 
Q 947 2416 947 1791 
Q 947 1169 1205 825 
Q 1463 481 1925 481 
Q 2391 481 2648 825 
Q 2906 1169 2906 1791 
z
M 3481 434 
Q 3481 -459 3084 -895 
Q 2688 -1331 1869 -1331 
Q 1566 -1331 1297 -1286 
Q 1028 -1241 775 -1147 
L 775 -588 
Q 1028 -725 1275 -790 
Q 1522 -856 1778 -856 
Q 2344 -856 2625 -561 
Q 2906 -266 2906 331 
L 2906 616 
Q 2728 306 2450 153 
Q 2172 0 1784 0 
Q 1141 0 747 490 
Q 353 981 353 1791 
Q 353 2603 747 3093 
Q 1141 3584 1784 3584 
Q 2172 3584 2450 3431 
Q 2728 3278 2906 2969 
L 2906 3500 
L 3481 3500 
L 3481 434 
z
" transform="scale(0.015625)"/>
      <path id="DejaVuSans-65" d="M 3597 1894 
L 3597 1613 
L 953 1613 
Q 991 1019 1311 708 
Q 1631 397 2203 397 
Q 2534 397 2845 478 
Q 3156 559 3463 722 
L 3463 178 
Q 3153 47 2828 -22 
Q 2503 -91 2169 -91 
Q 1331 -91 842 396 
Q 353 884 353 1716 
Q 353 2575 817 3079 
Q 1281 3584 2069 3584 
Q 2775 3584 3186 3129 
Q 3597 2675 3597 1894 
z
M 3022 2063 
Q 3016 2534 2758 2815 
Q 2500 3097 2075 3097 
Q 1594 3097 1305 2825 
Q 1016 2553 972 2059 
L 3022 2063 
z
" transform="scale(0.015625)"/>
      <path id="DejaVuSans-74" d="M 1172 4494 
L 1172 3500 
L 2356 3500 
L 2356 3053 
L 1172 3053 
L 1172 1153 
Q 1172 725 1289 603 
Q 1406 481 1766 481 
L 2356 481 
L 2356 0 
L 1766 0 
Q 1100 0 847 248 
Q 594 497 594 1153 
L 594 3053 
L 172 3053 
L 172 3500 
L 594 3500 
L 594 4494 
L 1172 4494 
z
" transform="scale(0.015625)"/>
      <path id="DejaVuSans-5f" d="M 3263 -1063 
L 3263 -1509 
L -63 -1509 
L -63 -1063 
L 3263 -1063 
z
" transform="scale(0.015625)"/>
      <path id="DejaVuSans-73" d="M 2834 3397 
L 2834 2853 
Q 2591 2978 2328 3040 
Q 2066 3103 1784 3103 
Q 1356 3103 1142 2972 
Q 928 2841 928 2578 
Q 928 2378 1081 2264 
Q 1234 2150 1697 2047 
L 1894 2003 
Q 2506 1872 2764 1633 
Q 3022 1394 3022 966 
Q 3022 478 2636 193 
Q 2250 -91 1575 -91 
Q 1294 -91 989 -36 
Q 684 19 347 128 
L 347 722 
Q 666 556 975 473 
Q 1284 391 1588 391 
Q 1994 391 2212 530 
Q 2431 669 2431 922 
Q 2431 1156 2273 1281 
Q 2116 1406 1581 1522 
L 1381 1569 
Q 847 1681 609 1914 
Q 372 2147 372 2553 
Q 372 3047 722 3315 
Q 1072 3584 1716 3584 
Q 2034 3584 2315 3537 
Q 2597 3491 2834 3397 
z
" transform="scale(0.015625)"/>
      <path id="DejaVuSans-75" d="M 544 1381 
L 544 3500 
L 1119 3500 
L 1119 1403 
Q 1119 906 1312 657 
Q 1506 409 1894 409 
Q 2359 409 2629 706 
Q 2900 1003 2900 1516 
L 2900 3500 
L 3475 3500 
L 3475 0 
L 2900 0 
L 2900 538 
Q 2691 219 2414 64 
Q 2138 -91 1772 -91 
Q 1169 -91 856 284 
Q 544 659 544 1381 
z
M 1991 3584 
L 1991 3584 
z
" transform="scale(0.015625)"/>
      <path id="DejaVuSans-62" d="M 3116 1747 
Q 3116 2381 2855 2742 
Q 2594 3103 2138 3103 
Q 1681 3103 1420 2742 
Q 1159 2381 1159 1747 
Q 1159 1113 1420 752 
Q 1681 391 2138 391 
Q 2594 391 2855 752 
Q 3116 1113 3116 1747 
z
M 1159 2969 
Q 1341 3281 1617 3432 
Q 1894 3584 2278 3584 
Q 2916 3584 3314 3078 
Q 3713 2572 3713 1747 
Q 3713 922 3314 415 
Q 2916 -91 2278 -91 
Q 1894 -91 1617 61 
Q 1341 213 1159 525 
L 1159 0 
L 581 0 
L 581 4863 
L 1159 4863 
L 1159 2969 
z
" transform="scale(0.015625)"/>
      <path id="DejaVuSans-63" d="M 3122 3366 
L 3122 2828 
Q 2878 2963 2633 3030 
Q 2388 3097 2138 3097 
Q 1578 3097 1268 2742 
Q 959 2388 959 1747 
Q 959 1106 1268 751 
Q 1578 397 2138 397 
Q 2388 397 2633 464 
Q 2878 531 3122 666 
L 3122 134 
Q 2881 22 2623 -34 
Q 2366 -91 2075 -91 
Q 1284 -91 818 406 
Q 353 903 353 1747 
Q 353 2603 823 3093 
Q 1294 3584 2113 3584 
Q 2378 3584 2631 3529 
Q 2884 3475 3122 3366 
z
" transform="scale(0.015625)"/>
      <path id="DejaVuSans-72" d="M 2631 2963 
Q 2534 3019 2420 3045 
Q 2306 3072 2169 3072 
Q 1681 3072 1420 2755 
Q 1159 2438 1159 1844 
L 1159 0 
L 581 0 
L 581 3500 
L 1159 3500 
L 1159 2956 
Q 1341 3275 1631 3429 
Q 1922 3584 2338 3584 
Q 2397 3584 2469 3576 
Q 2541 3569 2628 3553 
L 2631 2963 
z
" transform="scale(0.015625)"/>
      <path id="DejaVuSans-69" d="M 603 3500 
L 1178 3500 
L 1178 0 
L 603 0 
L 603 3500 
z
M 603 4863 
L 1178 4863 
L 1178 4134 
L 603 4134 
L 603 4863 
z
" transform="scale(0.015625)"/>
      <path id="DejaVuSans-20" transform="scale(0.015625)"/>
      <path id="DejaVuSans-68" d="M 3513 2113 
L 3513 0 
L 2938 0 
L 2938 2094 
Q 2938 2591 2744 2837 
Q 2550 3084 2163 3084 
Q 1697 3084 1428 2787 
Q 1159 2491 1159 1978 
L 1159 0 
L 581 0 
L 581 4863 
L 1159 4863 
L 1159 2956 
Q 1366 3272 1645 3428 
Q 1925 3584 2291 3584 
Q 2894 3584 3203 3211 
Q 3513 2838 3513 2113 
z
" transform="scale(0.015625)"/>
      <path id="DejaVuSans-6f" d="M 1959 3097 
Q 1497 3097 1228 2736 
Q 959 2375 959 1747 
Q 959 1119 1226 758 
Q 1494 397 1959 397 
Q 2419 397 2687 759 
Q 2956 1122 2956 1747 
Q 2956 2369 2687 2733 
Q 2419 3097 1959 3097 
z
M 1959 3584 
Q 2709 3584 3137 3096 
Q 3566 2609 3566 1747 
Q 3566 888 3137 398 
Q 2709 -91 1959 -91 
Q 1206 -91 779 398 
Q 353 888 353 1747 
Q 353 2609 779 3096 
Q 1206 3584 1959 3584 
z
" transform="scale(0.015625)"/>
      <path id="DejaVuSans-79" d="M 2059 -325 
Q 1816 -950 1584 -1140 
Q 1353 -1331 966 -1331 
L 506 -1331 
L 506 -850 
L 844 -850 
Q 1081 -850 1212 -737 
Q 1344 -625 1503 -206 
L 1606 56 
L 191 3500 
L 800 3500 
L 1894 763 
L 2988 3500 
L 3597 3500 
L 2059 -325 
z
" transform="scale(0.015625)"/>
     </defs>
     <use xlink:href="#DejaVuSans-67"/>
     <use xlink:href="#DejaVuSans-65" x="63.476562"/>
     <use xlink:href="#DejaVuSans-74" x="125"/>
     <use xlink:href="#DejaVuSans-5f" x="164.208984"/>
     <use xlink:href="#DejaVuSans-73" x="214.208984"/>
     <use xlink:href="#DejaVuSans-75" x="266.308594"/>
     <use xlink:href="#DejaVuSans-62" x="329.6875"/>
     <use xlink:href="#DejaVuSans-73" x="393.164062"/>
     <use xlink:href="#DejaVuSans-63" x="445.263672"/>
     <use xlink:href="#DejaVuSans-72" x="500.244141"/>
     <use xlink:href="#DejaVuSans-69" x="541.357422"/>
     <use xlink:href="#DejaVuSans-62" x="569.140625"/>
     <use xlink:href="#DejaVuSans-65" x="632.617188"/>
     <use xlink:href="#DejaVuSans-20" x="694.140625"/>
     <use xlink:href="#DejaVuSans-68" x="725.927734"/>
     <use xlink:href="#DejaVuSans-69" x="789.306641"/>
     <use xlink:href="#DejaVuSans-73" x="817.089844"/>
     <use xlink:href="#DejaVuSans-74" x="869.189453"/>
     <use xlink:href="#DejaVuSans-6f" x="908.398438"/>
     <use xlink:href="#DejaVuSans-72" x="969.580078"/>
     <use xlink:href="#DejaVuSans-79" x="1010.693359"/>
    </g>
   </g>
   <g id="legend_1">
    <g id="line2d_37">
     <path d="M 815.08 328.498438 
L 825.08 328.498438 
L 835.08 328.498438 
" style="fill: none; stroke: #1f77b4; stroke-width: 1.5; stroke-linecap: square"/>
    </g>
    <g id="text_19">
     <!-- star -->
     <g style="fill: #a9a9a9" transform="translate(843.08 331.998438) scale(0.1 -0.1)">
      <defs>
       <path id="DejaVuSans-61" d="M 2194 1759 
Q 1497 1759 1228 1600 
Q 959 1441 959 1056 
Q 959 750 1161 570 
Q 1363 391 1709 391 
Q 2188 391 2477 730 
Q 2766 1069 2766 1631 
L 2766 1759 
L 2194 1759 
z
M 3341 1997 
L 3341 0 
L 2766 0 
L 2766 531 
Q 2569 213 2275 61 
Q 1981 -91 1556 -91 
Q 1019 -91 701 211 
Q 384 513 384 1019 
Q 384 1609 779 1909 
Q 1175 2209 1959 2209 
L 2766 2209 
L 2766 2266 
Q 2766 2663 2505 2880 
Q 2244 3097 1772 3097 
Q 1472 3097 1187 3025 
Q 903 2953 641 2809 
L 641 3341 
Q 956 3463 1253 3523 
Q 1550 3584 1831 3584 
Q 2591 3584 2966 3190 
Q 3341 2797 3341 1997 
z
" transform="scale(0.015625)"/>
      </defs>
      <use xlink:href="#DejaVuSans-73"/>
      <use xlink:href="#DejaVuSans-74" x="52.099609"/>
      <use xlink:href="#DejaVuSans-61" x="91.308594"/>
      <use xlink:href="#DejaVuSans-72" x="152.587891"/>
     </g>
    </g>
    <g id="line2d_38">
     <path d="M 815.08 343.176562 
L 825.08 343.176562 
L 835.08 343.176562 
" style="fill: none; stroke: #ff7f0e; stroke-width: 1.5; stroke-linecap: square"/>
    </g>
    <g id="text_20">
     <!-- fork -->
     <g style="fill: #a9a9a9" transform="translate(843.08 346.676562) scale(0.1 -0.1)">
      <defs>
       <path id="DejaVuSans-66" d="M 2375 4863 
L 2375 4384 
L 1825 4384 
Q 1516 4384 1395 4259 
Q 1275 4134 1275 3809 
L 1275 3500 
L 2222 3500 
L 2222 3053 
L 1275 3053 
L 1275 0 
L 697 0 
L 697 3053 
L 147 3053 
L 147 3500 
L 697 3500 
L 697 3744 
Q 697 4328 969 4595 
Q 1241 4863 1831 4863 
L 2375 4863 
z
" transform="scale(0.015625)"/>
       <path id="DejaVuSans-6b" d="M 581 4863 
L 1159 4863 
L 1159 1991 
L 2875 3500 
L 3609 3500 
L 1753 1863 
L 3688 0 
L 2938 0 
L 1159 1709 
L 1159 0 
L 581 0 
L 581 4863 
z
" transform="scale(0.015625)"/>
      </defs>
      <use xlink:href="#DejaVuSans-66"/>
      <use xlink:href="#DejaVuSans-6f" x="35.205078"/>
      <use xlink:href="#DejaVuSans-72" x="96.386719"/>
      <use xlink:href="#DejaVuSans-6b" x="137.5"/>
     </g>
    </g>
   </g>
  </g>
 </g>
 <defs>
  <clipPath id="pd876d9eb26">
   <rect x="108" y="43.2" width="669.6" height="277.2"/>
  </clipPath>
 </defs>
</svg>
